999
FreeCAD v1.2 20260519 (Git shallow)
  0
SECTION
  2
HEADER
  9
$ACADVER
  1
AC1014
  9
$ACADMAINTVER
 70
     9
  9
$DWGCODEPAGE
  3
ANSI_1252
  9
$TEXTSTYLE
  7
STANDARD
  9
$DIMSTYLE
  2
STANDARD
  9
$DIMTXSTY
  7
STANDARD
  9
$CMLSTYLE
  2
STANDARD
  9
$LUNITS
 70
2
  9
$INSUNITS
 70
4
  9
$PEXTMAX
 10
50
 20
50
 30
50
  9
$PEXTMIN
 10
0
 20
0
 30
0
  9
$HANDSEED
  5
FFFF
  0
ENDSEC
  0
SECTION
  2
CLASSES
  0
CLASS
  1
ACDBDICTIONARYWDFLT
  2
AcDbDictionaryWithDefault
  3
ObjectDBX Classes
 90
        0
280
     0
281
     0
  0
CLASS
  1
XRECORD
  2
AcDbXrecord
  3
ObjectDBX Classes
 90
        0
280
     0
281
     0
  0
CLASS
  1
LWPOLYLINE
  2
AcDbPolyline
  3
ObjectDBX Classes
 90
        0
280
     0
281
     1
  0
ENDSEC
  0
SECTION
  2
TABLES
  0
TABLE
  2
VPORT
  5
20
330
0
100
AcDbSymbolTable
 70
     1
  0
VPORT
  5
21
330
20
100
AcDbSymbolTableRecord
100
AcDbViewportTableRecord
  2
*ACTIVE
 70
     0
  0
ENDTAB
  0
TABLE
  2
LTYPE
  5
22
330
0
100
AcDbSymbolTable
 70
     1
  0
LTYPE
  5
23
330
21
100
AcDbSymbolTableRecord
100
AcDbLinetypeTableRecord
  2
BYBLOCK
 70
     0
  3

 72
    65
 73
     0
 40
0.0
  0
LTYPE
  5
24
330
21
100
AcDbSymbolTableRecord
100
AcDbLinetypeTableRecord
  2
BYLAYER
 70
     0
  3

 72
    65
 73
     0
 40
0.0
  0
LTYPE
  5
25
330
21
100
AcDbSymbolTableRecord
100
AcDbLinetypeTableRecord
  2
CONTINUOUS
 70
     0
  3
Solid line
 72
    65
 73
     0
 40
0.0
  0
ENDTAB
  0
TABLE
  2
LAYER
  5
A27
330
0
100
AcDbSymbolTable
 70
3
  0
LAYER
  5
A28
330
A27
100
AcDbSymbolTableRecord
100
AcDbLayerTableRecord
  2
0
 70
   0
 62
   7
  6
CONTINUOUS
  0
LAYER
  5
A29
330
A27
100
AcDbSymbolTableRecord
100
AcDbLayerTableRecord
  2
none
 70
    0
 62
    7
  6
CONTINUOUS
  0
LAYER
  5
A2A
330
A27
100
AcDbSymbolTableRecord
100
AcDbLayerTableRecord
  2
Flattened_Face
 70
    0
 62
    7
  6
CONTINUOUS
  0
ENDTAB
  0
TABLE
  2
STYLE
  5
70
330
0
100
AcDbSymbolTable
 70
     2
  0
STYLE
  5
71
330
70
100
AcDbSymbolTableRecord
100
AcDbTextStyleTableRecord
  2
STANDARD
 70
     0
 40
0.0
 41
1.0
 50
0.0
 71
     0
 42
2.5
  3
arial.ttf
  4

  0
STYLE
  5
72
330
70
100
AcDbSymbolTableRecord
100
AcDbTextStyleTableRecord
  2
ANNOTATIVE
 70
     0
 40
0.0
 41
1.0
 50
0.0
 71
     0
 42
2.5
  3
arial.ttf
  4

  0
ENDTAB
  0
TABLE
  2
VIEW
  5
73
330
0
100
AcDbSymbolTable
 70
     0
  0
ENDTAB
  0
TABLE
  2
UCS
  5
74
330
0
100
AcDbSymbolTable
 70
     0
  0
ENDTAB
  0
TABLE
  2
APPID
  5
75
330
0
100
AcDbSymbolTable
 70
     2
  0
APPID
  5
76
330
75
100
AcDbSymbolTableRecord
100
AcDbRegAppTableRecord
  2
ACAD
 70
     0
  0
APPID
  5
77
330
75
100
AcDbSymbolTableRecord
100
AcDbRegAppTableRecord
  2
ACADANNOTATIVE
 70
     0
  0
ENDTAB
  0
TABLE
  2
DIMSTYLE
  5
78
330
0
100
AcDbSymbolTable
 70
     2
  0
DIMSTYLE
105
79
330
78
100
AcDbSymbolTableRecord
100
AcDbDimStyleTableRecord
  2
STANDARD
 70
     0
  3

  4

  5

  6

  7

 40
0.0
 41
2.5
 42
0.625
 43
3.75
 44
1.25
 45
0.0
 46
0.0
 47
0.0
 48
0.0
140
2.5
141
2.5
142
0.0
143
0.03937007874016
144
1.0
145
0.0
146
1.0
147
0.625
 71
     0
 72
     0
 73
     0
 74
     0
 75
     0
 76
     0
 77
     1
 78
     8
170
     0
171
     3
172
     1
173
     0
174
     0
175
     0
176
     0
177
     0
178
     0
270
     2
271
     2
272
     2
273
     2
274
     3
340
71
275
     0
280
     0
281
     0
282
     0
283
     0
284
     8
285
     0
286
     0
287
     3
288
     0
  0
ENDTAB
  0
TABLE
  2
BLOCK_RECORD
  5
A01
330
0
100
AcDbSymbolTable
  70
5
  0
BLOCK_RECORD
  5
A02
330
A01
100
AcDbSymbolTableRecord
100
AcDbBlockTableRecord
  2
*MODEL_SPACE
  0
BLOCK_RECORD
  5
A03
330
A01
100
AcDbSymbolTableRecord
100
AcDbBlockTableRecord
  2
*PAPER_SPACE
  0
ENDTAB
  0
ENDSEC
  0
SECTION
  2
BLOCKS
  0
BLOCK
  5
A04
330
A02
100
AcDbEntity
  8
0
100
AcDbBlockBegin
  2
*MODEL_SPACE
 70
   0
 10
0
 20
0
 30
0
  3
*MODEL_SPACE
  1
 
  0
ENDBLK
  5
A05
330
A02
100
AcDbEntity
  8
0
100
AcDbBlockEnd
  0
BLOCK
  5
A06
330
A03
100
AcDbEntity
 67
1
  8
0
100
AcDbBlockBegin
  2
*PAPER_SPACE
 70
   0
 10
0
 20
0
 30
0
  3
*PAPER_SPACE
  1
 
  0
ENDBLK
  5
A07
330
A03
100
AcDbEntity
 67
    1
  8
0
100
AcDbBlockEnd
  0
ENDSEC
  0
SECTION
  2
ENTITIES
  0
SPLINE
  5
A08
330
A02
100
AcDbEntity
  8
Flattened_Face
100
AcDbSpline
210
0
220
0
230
1
 70
8
 71
3
 72
44
 73
40
 74
0
 40
0.000000000
 40
0.000000000
 40
0.000000000
 40
0.000000000
 40
0.096988991
 40
0.096988991
 40
0.096988991
 40
0.211190557
 40
0.211190557
 40
0.211190557
 40
0.286554020
 40
0.286554020
 40
0.286554020
 40
0.348289118
 40
0.348289118
 40
0.348289118
 40
0.412260785
 40
0.412260785
 40
0.412260785
 40
0.450640492
 40
0.450640492
 40
0.450640492
 40
0.550306677
 40
0.550306677
 40
0.550306677
 40
0.649972862
 40
0.649972862
 40
0.649972862
 40
0.760072839
 40
0.760072839
 40
0.760072839
 40
0.818030230
 40
0.818030230
 40
0.818030230
 40
0.875987622
 40
0.875987622
 40
0.875987622
 40
0.942856904
 40
0.942856904
 40
0.942856904
 40
1.000000000
 40
1.000000000
 40
1.000000000
 40
1.000000000
 10
59.691736967
 20
-17.736368500
 30
0.000000000
 10
62.436668859
 20
-17.740480472
 30
0.000000000
 10
65.157669955
 20
-17.445424833
 30
0.000000000
 10
67.702996402
 20
-16.988311542
 30
0.000000000
 10
70.701109845
 20
-16.454880941
 30
0.000000000
 10
73.476463237
 20
-15.716422802
 30
0.000000000
 10
76.126883793
 20
-15.083679356
 30
0.000000000
 10
77.876648724
 20
-14.667170145
 30
0.000000000
 10
79.578847228
 20
-14.295614539
 30
0.000000000
 10
81.241164557
 20
-14.090411964
 30
0.000000000
 10
82.603936639
 20
-13.921479982
 30
0.000000000
 10
83.938573599
 20
-13.871346712
 30
0.000000000
 10
85.211602219
 20
-13.991941105
 30
0.000000000
 10
86.531302483
 20
-14.113828930
 30
0.000000000
 10
87.777921961
 20
-14.420579228
 30
0.000000000
 10
88.933275841
 20
-14.870268064
 30
0.000000000
 10
89.625231865
 20
-15.141318944
 30
0.000000000
 10
90.288929810
 20
-15.454028521
 30
0.000000000
 10
90.924369678
 20
-15.808396795
 30
0.000000000
 10
92.575754016
 20
-16.724282609
 30
0.000000000
 10
94.073423126
 20
-17.869565352
 30
0.000000000
 10
95.507276782
 20
-19.078870017
 30
0.000000000
 10
96.941638875
 20
-20.292845037
 30
0.000000000
 10
98.305213827
 20
-21.570242345
 30
0.000000000
 10
99.705093723
 20
-22.883900463
 30
0.000000000
 10
101.252460679
 20
-24.336655463
 30
0.000000000
 10
102.816455036
 20
-25.817434068
 30
0.000000000
 10
104.498507364
 20
-27.272248043
 30
0.000000000
 10
105.383644814
 20
-28.036917269
 30
0.000000000
 10
106.295198024
 20
-28.789198648
 30
0.000000000
 10
107.267921291
 20
-29.525379317
 30
0.000000000
 10
108.240392973
 20
-30.260398445
 30
0.000000000
 10
109.273724788
 20
-30.979849642
 30
0.000000000
 10
110.395528136
 20
-31.647406549
 30
0.000000000
 10
111.689214458
 20
-32.413953014
 30
0.000000000
 10
113.113325558
 20
-33.128872135
 30
0.000000000
 10
114.754232007
 20
-33.658814960
 30
0.000000000
 10
116.157483373
 20
-34.112860951
 30
0.000000000
 10
117.752024143
 20
-34.412247237
 30
0.000000000
 10
119.383473934
 20
-34.408526800
 30
0.000000000
  0
SPLINE
  5
A09
330
A02
100
AcDbEntity
  8
Flattened_Face
100
AcDbSpline
210
0
220
0
230
1
 70
8
 71
3
 72
44
 73
40
 74
0
 40
0.000000000
 40
0.000000000
 40
0.000000000
 40
0.000000000
 40
0.042163202
 40
0.042163202
 40
0.042163202
 40
0.119173963
 40
0.119173963
 40
0.119173963
 40
0.210732327
 40
0.210732327
 40
0.210732327
 40
0.302290692
 40
0.302290692
 40
0.302290692
 40
0.351034635
 40
0.351034635
 40
0.351034635
 40
0.450514710
 40
0.450514710
 40
0.450514710
 40
0.549994786
 40
0.549994786
 40
0.549994786
 40
0.588705165
 40
0.588705165
 40
0.588705165
 40
0.652664887
 40
0.652664887
 40
0.652664887
 40
0.713577780
 40
0.713577780
 40
0.713577780
 40
0.789133254
 40
0.789133254
 40
0.789133254
 40
0.903262744
 40
0.903262744
 40
0.903262744
 40
1.000000000
 40
1.000000000
 40
1.000000000
 40
1.000000000
 10
-0.000000000
 20
-34.408526800
 30
0.000000000
 10
1.188582036
 20
-34.410022854
 30
0.000000000
 10
2.367626759
 20
-34.253474122
 30
0.000000000
 10
3.455837403
 20
-33.989192697
 30
0.000000000
 10
5.443110054
 20
-33.504464615
 30
0.000000000
 10
7.133046819
 20
-32.711829417
 30
0.000000000
 10
8.636435814
 20
-31.852836724
 30
0.000000000
 10
10.424805379
 20
-30.822946272
 30
0.000000000
 10
12.005560470
 20
-29.649822860
 30
0.000000000
 10
13.461724429
 20
-28.467628593
 30
0.000000000
 10
14.919035842
 20
-27.280409568
 30
0.000000000
 10
16.249595655
 20
-26.079788764
 30
0.000000000
 10
17.569235723
 20
-24.857932860
 30
0.000000000
 10
18.270875945
 20
-24.205666681
 30
0.000000000
 10
18.964553095
 20
-23.556457786
 30
0.000000000
 10
19.650267174
 20
-22.910306175
 30
0.000000000
 10
21.051393556
 20
-21.595363337
 30
0.000000000
 10
22.415684810
 20
-20.316545384
 30
0.000000000
 10
23.850349854
 20
-19.100731503
 30
0.000000000
 10
25.284494224
 20
-17.889587090
 30
0.000000000
 10
26.782072206
 20
-16.741982841
 30
0.000000000
 10
28.432756765
 20
-15.822998330
 30
0.000000000
 10
29.074571260
 20
-15.463651131
 30
0.000000000
 10
29.745234341
 20
-15.146779505
 30
0.000000000
 10
30.444746010
 20
-14.872383451
 30
0.000000000
 10
31.602573318
 20
-14.421191918
 30
0.000000000
 10
32.852024274
 20
-14.113543573
 30
0.000000000
 10
34.174993805
 20
-13.991648844
 30
0.000000000
 10
35.434442356
 20
-13.872649609
 30
0.000000000
 10
36.754144749
 20
-13.920587563
 30
0.000000000
 10
38.101668805
 20
-14.085437229
 30
0.000000000
 10
39.771839842
 20
-14.288920339
 30
0.000000000
 10
41.482446963
 20
-14.661585443
 30
0.000000000
 10
43.240927854
 20
-15.079948034
 30
0.000000000
 10
45.896094622
 20
-15.713504989
 30
0.000000000
 10
48.676451661
 20
-16.453835109
 30
0.000000000
 10
51.680477532
 20
-16.988311542
 30
0.000000000
 10
54.225803979
 20
-17.445424833
 30
0.000000000
 10
56.946805075
 20
-17.740480472
 30
0.000000000
 10
59.691736967
 20
-17.736368500
 30
0.000000000
  0
SPLINE
  5
A0A
330
A02
100
AcDbEntity
  8
Flattened_Face
100
AcDbSpline
210
0
220
0
230
1
 70
8
 71
1
 72
4
 73
2
 74
0
 40
6.256867131
 40
6.256867131
 40
6.283185307
 40
6.283185307
 10
0.500057725
 20
-34.408526800
 30
0.000000000
 10
0.000000000
 20
-34.408526800
 30
0.000000000
  0
SPLINE
  5
A0B
330
A02
100
AcDbEntity
  8
Flattened_Face
100
AcDbSpline
210
0
220
0
230
1
 70
8
 71
1
 72
4
 73
2
 74
0
 40
-489.050510266
 40
-489.050510266
 40
-34.408526800
 40
-34.408526800
 10
0.500057725
 20
-489.050510266
 30
0.000000000
 10
0.500057725
 20
-34.408526800
 30
0.000000000
  0
SPLINE
  5
A0C
330
A02
100
AcDbEntity
  8
Flattened_Face
100
AcDbSpline
210
0
220
0
230
1
 70
8
 71
3
 72
17
 73
13
 74
0
 40
0.053644820
 40
0.053644820
 40
0.053644820
 40
0.053644820
 40
0.244377281
 40
0.244377281
 40
0.244377281
 40
0.500030384
 40
0.500030384
 40
0.500030384
 40
0.755682732
 40
0.755682732
 40
0.755682732
 40
0.946361576
 40
0.946361576
 40
0.946361576
 40
0.946361576
 10
0.500057723
 20
-489.050510266
 30
0.000000000
 10
1.075621732
 20
-489.166139780
 30
0.000000000
 10
1.559416499
 20
-489.482868213
 30
0.000000000
 10
1.878335603
 20
-489.846720337
 30
0.000000000
 10
2.307908889
 20
-490.334994177
 30
0.000000000
 10
2.506132738
 20
-490.921360581
 30
0.000000000
 10
2.507270183
 20
-491.500000000
 30
0.000000000
 10
2.506128235
 20
-492.078652517
 30
0.000000000
 10
2.307912369
 20
-492.664998771
 30
0.000000000
 10
1.878335603
 20
-493.153279663
 30
0.000000000
 10
1.559504857
 20
-493.517060525
 30
0.000000000
 10
1.075597914
 20
-493.833885190
 30
0.000000000
 10
0.500057723
 20
-493.949489733
 30
0.000000000
  0
SPLINE
  5
A0D
330
A02
100
AcDbEntity
  8
Flattened_Face
100
AcDbSpline
210
0
220
0
230
1
 70
8
 71
1
 72
4
 73
2
 74
0
 40
-552.550510266
 40
-552.550510266
 40
-493.949489733
 40
-493.949489733
 10
0.500057725
 20
-552.550510266
 30
0.000000000
 10
0.500057725
 20
-493.949489733
 30
0.000000000
  0
SPLINE
  5
A0E
330
A02
100
AcDbEntity
  8
Flattened_Face
100
AcDbSpline
210
0
220
0
230
1
 70
8
 71
3
 72
17
 73
13
 74
0
 40
0.053644820
 40
0.053644820
 40
0.053644820
 40
0.053644820
 40
0.244377281
 40
0.244377281
 40
0.244377281
 40
0.500030384
 40
0.500030384
 40
0.500030384
 40
0.755682732
 40
0.755682732
 40
0.755682732
 40
0.946361576
 40
0.946361576
 40
0.946361576
 40
0.946361576
 10
0.500057723
 20
-552.550510266
 30
0.000000000
 10
1.075621732
 20
-552.666139780
 30
0.000000000
 10
1.559416499
 20
-552.982868213
 30
0.000000000
 10
1.878335603
 20
-553.346720337
 30
0.000000000
 10
2.307908889
 20
-553.834994177
 30
0.000000000
 10
2.506132738
 20
-554.421360581
 30
0.000000000
 10
2.507270183
 20
-555.000000000
 30
0.000000000
 10
2.506128235
 20
-555.578652517
 30
0.000000000
 10
2.307912369
 20
-556.164998771
 30
0.000000000
 10
1.878335603
 20
-556.653279663
 30
0.000000000
 10
1.559504857
 20
-557.017060525
 30
0.000000000
 10
1.075597914
 20
-557.333885190
 30
0.000000000
 10
0.500057723
 20
-557.449489733
 30
0.000000000
  0
SPLINE
  5
A0F
330
A02
100
AcDbEntity
  8
Flattened_Face
100
AcDbSpline
210
0
220
0
230
1
 70
8
 71
1
 72
4
 73
2
 74
0
 40
-702.902175441
 40
-702.902175441
 40
-557.449489733
 40
-557.449489733
 10
0.500057725
 20
-702.902175441
 30
0.000000000
 10
0.500057725
 20
-557.449489733
 30
0.000000000
  0
SPLINE
  5
A10
330
A02
100
AcDbEntity
  8
Flattened_Face
100
AcDbSpline
210
0
220
0
230
1
 70
8
 71
3
 72
17
 73
13
 74
0
 40
3.167910830
 40
3.167910830
 40
3.167910830
 40
3.167910830
 40
3.722656576
 40
3.722656576
 40
3.722656576
 40
4.277402322
 40
4.277402322
 40
4.277402322
 40
4.832148067
 40
4.832148067
 40
4.832148067
 40
5.386893813
 40
5.386893813
 40
5.386893813
 40
5.386893813
 10
0.500057725
 20
-702.902175437
 30
0.000000000
 10
4.013534358
 20
-702.823564759
 30
0.000000000
 10
7.527010991
 20
-701.841333062
 30
0.000000000
 10
11.040487623
 20
-700.100303588
 30
0.000000000
 10
14.553964256
 20
-698.367080507
 30
0.000000000
 10
18.067440889
 20
-695.881247646
 30
0.000000000
 10
21.580917521
 20
-693.009324312
 30
0.000000000
 10
25.094394154
 20
-690.141336418
 30
0.000000000
 10
28.607870787
 20
-686.897481326
 30
0.000000000
 10
32.121347419
 20
-683.756043592
 30
0.000000000
 10
35.634824052
 20
-680.613489932
 30
0.000000000
 10
39.148300685
 20
-677.584546184
 30
0.000000000
 10
42.661777318
 20
-675.115809224
 30
0.000000000
  0
SPLINE
  5
A11
330
A02
100
AcDbEntity
  8
Flattened_Face
100
AcDbSpline
210
0
220
0
230
1
 70
8
 71
3
 72
11
 73
7
 74
0
 40
0.000000000
 40
0.000000000
 40
0.000000000
 40
0.000000000
 40
0.636121725
 40
0.636121725
 40
0.636121725
 40
1.000000000
 40
1.000000000
 40
1.000000000
 40
1.000000000
 10
42.661777318
 20
-675.115809168
 30
0.000000000
 10
43.631695502
 20
-674.431567801
 30
0.000000000
 10
44.431654660
 20
-673.589650588
 30
0.000000000
 10
44.949854748
 20
-672.626298884
 30
0.000000000
 10
45.245589139
 20
-672.074835307
 30
0.000000000
 10
45.442557303
 20
-671.482556209
 30
0.000000000
 10
45.509667415
 20
-670.876339912
 30
0.000000000
  0
SPLINE
  5
A12
330
A02
100
AcDbEntity
  8
Flattened_Face
100
AcDbSpline
210
0
220
0
230
1
 70
8
 71
3
 72
17
 73
13
 74
0
 40
0.000000000
 40
0.000000000
 40
0.000000000
 40
0.000000000
 40
0.256345230
 40
0.256345230
 40
0.256345230
 40
0.525778862
 40
0.525778862
 40
0.525778862
 40
0.788438160
 40
0.788438160
 40
0.788438160
 40
1.000000000
 40
1.000000000
 40
1.000000000
 40
1.000000000
 10
45.509667415
 20
-670.876339912
 30
0.000000000
 10
45.671701823
 20
-669.422233227
 30
0.000000000
 10
46.085710320
 20
-667.986280972
 30
0.000000000
 10
46.753763154
 20
-666.651945614
 30
0.000000000
 10
47.453588343
 20
-665.248926070
 30
0.000000000
 10
48.443758989
 20
-663.962881865
 30
0.000000000
 10
49.647679424
 20
-662.913219341
 30
0.000000000
 10
50.819529773
 20
-661.886758194
 30
0.000000000
 10
52.182138680
 20
-661.091118252
 30
0.000000000
 10
53.607525185
 20
-660.534385316
 30
0.000000000
 10
54.756446534
 20
-660.084566373
 30
0.000000000
 10
55.946741670
 20
-659.782786655
 30
0.000000000
 10
57.145501313
 20
-659.607851817
 30
0.000000000
  0
SPLINE
  5
A13
330
A02
100
AcDbEntity
  8
Flattened_Face
100
AcDbSpline
210
0
220
0
230
1
 70
8
 71
3
 72
8
 73
4
 74
0
 40
0.000000000
 40
0.000000000
 40
0.000000000
 40
0.000000000
 40
1.000000000
 40
1.000000000
 40
1.000000000
 40
1.000000000
 10
57.145501313
 20
-659.607851817
 30
0.000000000
 10
58.836151073
 20
-659.363091495
 30
0.000000000
 10
60.547322841
 20
-659.363091493
 30
0.000000000
 10
62.237972621
 20
-659.607851817
 30
0.000000000
  0
SPLINE
  5
A14
330
A02
100
AcDbEntity
  8
Flattened_Face
100
AcDbSpline
210
0
220
0
230
1
 70
8
 71
3
 72
17
 73
13
 74
0
 40
0.000000000
 40
0.000000000
 40
0.000000000
 40
0.000000000
 40
0.211937297
 40
0.211937297
 40
0.211937297
 40
0.474109155
 40
0.474109155
 40
0.474109155
 40
0.744083375
 40
0.744083375
 40
0.744083375
 40
1.000000000
 40
1.000000000
 40
1.000000000
 40
1.000000000
 10
62.237972621
 20
-659.607851817
 30
0.000000000
 10
63.438857811
 20
-659.783097491
 30
0.000000000
 10
64.631262652
 20
-660.085638842
 30
0.000000000
 10
65.782068404
 20
-660.536784068
 30
0.000000000
 10
67.204625043
 20
-661.093147191
 30
0.000000000
 10
68.564469390
 20
-661.887556148
 30
0.000000000
 10
69.734306372
 20
-662.911918459
 30
0.000000000
 10
70.940823006
 20
-663.963493426
 30
0.000000000
 10
71.932736584
 20
-665.252449905
 30
0.000000000
 10
72.633064540
 20
-666.658651087
 30
0.000000000
 10
73.299157968
 20
-667.991106355
 30
0.000000000
 10
73.712043083
 20
-669.424676900
 30
0.000000000
 10
73.873806519
 20
-670.876339912
 30
0.000000000
  0
SPLINE
  5
A15
330
A02
100
AcDbEntity
  8
Flattened_Face
100
AcDbSpline
210
0
220
0
230
1
 70
8
 71
3
 72
11
 73
7
 74
0
 40
0.000000000
 40
0.000000000
 40
0.000000000
 40
0.000000000
 40
0.364654953
 40
0.364654953
 40
0.364654953
 40
1.000000000
 40
1.000000000
 40
1.000000000
 40
1.000000000
 10
73.873806519
 20
-670.876339912
 30
0.000000000
 10
73.941058870
 20
-671.483857542
 30
0.000000000
 10
74.138729313
 20
-672.077356334
 30
0.000000000
 10
74.435510448
 20
-672.629828248
 30
0.000000000
 10
74.953792836
 20
-673.591710472
 30
0.000000000
 10
75.752950890
 20
-674.432400604
 30
0.000000000
 10
76.721696616
 20
-675.115809168
 30
0.000000000
  0
SPLINE
  5
A16
330
A02
100
AcDbEntity
  8
Flattened_Face
100
AcDbSpline
210
0
220
0
230
1
 70
8
 71
3
 72
17
 73
13
 74
0
 40
7.179476802
 40
7.179476802
 40
7.179476802
 40
7.179476802
 40
7.734222547
 40
7.734222547
 40
7.734222547
 40
8.288968293
 40
8.288968293
 40
8.288968293
 40
8.843714038
 40
8.843714038
 40
8.843714038
 40
9.398459784
 40
9.398459784
 40
9.398459784
 40
9.398459784
 10
76.721696616
 20
-675.115809196
 30
0.000000000
 10
80.235173249
 20
-677.584546199
 30
0.000000000
 10
83.748649881
 20
-680.613490035
 30
0.000000000
 10
87.262126514
 20
-683.756043551
 30
0.000000000
 10
90.775603147
 20
-686.897481276
 30
0.000000000
 10
94.289079779
 20
-690.141336534
 30
0.000000000
 10
97.802556412
 20
-693.009324299
 30
0.000000000
 10
101.316033045
 20
-695.881247515
 30
0.000000000
 10
104.829509678
 20
-698.367080602
 30
0.000000000
 10
108.342986310
 20
-700.100303624
 30
0.000000000
 10
111.856462943
 20
-701.841332908
 30
0.000000000
 10
115.369939576
 20
-702.823564858
 30
0.000000000
 10
118.883416208
 20
-702.902175439
 30
0.000000000
  0
SPLINE
  5
A17
330
A02
100
AcDbEntity
  8
Flattened_Face
100
AcDbSpline
210
0
220
0
230
1
 70
8
 71
1
 72
4
 73
2
 74
0
 40
-702.902175441
 40
-702.902175441
 40
-557.449489734
 40
-557.449489734
 10
118.883416208
 20
-702.902175441
 30
0.000000000
 10
118.883416208
 20
-557.449489734
 30
0.000000000
  0
SPLINE
  5
A18
330
A02
100
AcDbEntity
  8
Flattened_Face
100
AcDbSpline
210
0
220
0
230
1
 70
8
 71
3
 72
17
 73
13
 74
0
 40
0.053483690
 40
0.053483690
 40
0.053483690
 40
0.053483690
 40
0.243643259
 40
0.243643259
 40
0.243643259
 40
0.498537046
 40
0.498537046
 40
0.498537046
 40
0.753448123
 40
0.753448123
 40
0.753448123
 40
0.945840144
 40
0.945840144
 40
0.945840144
 40
0.945840144
 10
118.883416211
 20
-557.449489734
 30
0.000000000
 10
118.307852201
 20
-557.333860220
 30
0.000000000
 10
117.824057434
 20
-557.017131787
 30
0.000000000
 10
117.505138330
 20
-556.653279663
 30
0.000000000
 10
117.075564683
 20
-556.165013202
 30
0.000000000
 10
116.877340167
 20
-555.578625272
 30
0.000000000
 10
116.876203750
 20
-555.000000000
 30
0.000000000
 10
116.877345698
 20
-554.421347483
 30
0.000000000
 10
117.075561564
 20
-553.835001229
 30
0.000000000
 10
117.505138330
 20
-553.346720337
 30
0.000000000
 10
117.827504241
 20
-552.981190614
 30
0.000000000
 10
118.299919521
 20
-552.669812281
 30
0.000000000
 10
118.883416208
 20
-552.550510259
 30
0.000000000
  0
SPLINE
  5
A19
330
A02
100
AcDbEntity
  8
Flattened_Face
100
AcDbSpline
210
0
220
0
230
1
 70
8
 71
1
 72
4
 73
2
 74
0
 40
-552.550510259
 40
-552.550510259
 40
-493.949489734
 40
-493.949489734
 10
118.883416208
 20
-552.550510259
 30
0.000000000
 10
118.883416208
 20
-493.949489734
 30
0.000000000
  0
SPLINE
  5
A1A
330
A02
100
AcDbEntity
  8
Flattened_Face
100
AcDbSpline
210
0
220
0
230
1
 70
8
 71
3
 72
17
 73
13
 74
0
 40
0.053483690
 40
0.053483690
 40
0.053483690
 40
0.053483690
 40
0.243643259
 40
0.243643259
 40
0.243643259
 40
0.498537046
 40
0.498537046
 40
0.498537046
 40
0.753448123
 40
0.753448123
 40
0.753448123
 40
0.945840144
 40
0.945840144
 40
0.945840144
 40
0.945840144
 10
118.883416211
 20
-493.949489734
 30
0.000000000
 10
118.307852201
 20
-493.833860220
 30
0.000000000
 10
117.824057434
 20
-493.517131787
 30
0.000000000
 10
117.505138330
 20
-493.153279663
 30
0.000000000
 10
117.075564683
 20
-492.665013202
 30
0.000000000
 10
116.877340167
 20
-492.078625272
 30
0.000000000
 10
116.876203750
 20
-491.500000000
 30
0.000000000
 10
116.877345698
 20
-490.921347483
 30
0.000000000
 10
117.075561564
 20
-490.335001229
 30
0.000000000
 10
117.505138330
 20
-489.846720337
 30
0.000000000
 10
117.827504241
 20
-489.481190614
 30
0.000000000
 10
118.299919521
 20
-489.169812281
 30
0.000000000
 10
118.883416208
 20
-489.050510259
 30
0.000000000
  0
SPLINE
  5
A1B
330
A02
100
AcDbEntity
  8
Flattened_Face
100
AcDbSpline
210
0
220
0
230
1
 70
8
 71
1
 72
4
 73
2
 74
0
 40
-489.050510259
 40
-489.050510259
 40
-34.408526800
 40
-34.408526800
 10
118.883416208
 20
-489.050510259
 30
0.000000000
 10
118.883416208
 20
-34.408526800
 30
0.000000000
  0
SPLINE
  5
A1C
330
A02
100
AcDbEntity
  8
Flattened_Face
100
AcDbSpline
210
0
220
0
230
1
 70
8
 71
1
 72
4
 73
2
 74
0
 40
0.000000000
 40
0.000000000
 40
0.026318177
 40
0.026318177
 10
119.383473934
 20
-34.408526800
 30
0.000000000
 10
118.883416208
 20
-34.408526800
 30
0.000000000
  0
SPLINE
  5
A1D
330
A02
100
AcDbEntity
  8
Flattened_Face
100
AcDbSpline
210
0
220
0
230
1
 70
8
 71
1
 72
4
 73
2
 74
0
 40
-625.800000000
 40
-625.800000000
 40
-610.800000000
 40
-610.800000000
 10
56.171634910
 20
-625.800000000
 30
0.000000000
 10
56.171634910
 20
-610.800000000
 30
0.000000000
  0
SPLINE
  5
A1E
330
A02
100
AcDbEntity
  8
Flattened_Face
100
AcDbSpline
210
0
220
0
230
1
 70
8
 71
3
 72
14
 73
10
 74
0
 40
0.000000000
 40
0.000000000
 40
0.000000000
 40
0.000000000
 40
0.308880980
 40
0.308880980
 40
0.308880980
 40
0.654440490
 40
0.654440490
 40
0.654440490
 40
1.000000000
 40
1.000000000
 40
1.000000000
 40
1.000000000
 10
59.691736967
 20
-607.300000000
 30
0.000000000
 10
59.002288088
 20
-607.297314946
 30
0.000000000
 10
58.338357047
 20
-607.512938993
 30
0.000000000
 10
57.826630908
 20
-607.836465303
 30
0.000000000
 10
57.252367781
 20
-608.196937767
 30
0.000000000
 10
56.840592339
 20
-608.676624294
 30
0.000000000
 10
56.570966698
 20
-609.188151146
 30
0.000000000
 10
56.301662544
 20
-609.701596337
 30
0.000000000
 10
56.172111849
 20
-610.250475466
 30
0.000000000
 10
56.171634910
 20
-610.800000000
 30
0.000000000
  0
SPLINE
  5
A1F
330
A02
100
AcDbEntity
  8
Flattened_Face
100
AcDbSpline
210
0
220
0
230
1
 70
8
 71
3
 72
14
 73
10
 74
0
 40
0.000000000
 40
0.000000000
 40
0.000000000
 40
0.000000000
 40
0.536785514
 40
0.536785514
 40
0.536785514
 40
0.806933537
 40
0.806933537
 40
0.806933537
 40
1.000000000
 40
1.000000000
 40
1.000000000
 40
1.000000000
 10
63.211839023
 20
-610.800000000
 30
0.000000000
 10
63.209844881
 20
-609.948905206
 30
0.000000000
 10
62.901529920
 20
-609.084452002
 30
0.000000000
 10
62.229053531
 20
-608.381280729
 30
0.000000000
 10
61.890278731
 20
-608.030001233
 30
0.000000000
 10
61.452088669
 20
-607.721755636
 30
0.000000000
 10
60.922409163
 20
-607.523177953
 30
0.000000000
 10
60.544379830
 20
-607.380871248
 30
0.000000000
 10
60.119667871
 20
-607.299336196
 30
0.000000000
 10
59.691736967
 20
-607.300000000
 30
0.000000000
  0
SPLINE
  5
A20
330
A02
100
AcDbEntity
  8
Flattened_Face
100
AcDbSpline
210
0
220
0
230
1
 70
8
 71
1
 72
4
 73
2
 74
0
 40
-625.800000000
 40
-625.800000000
 40
-610.800000000
 40
-610.800000000
 10
63.211839023
 20
-625.800000000
 30
0.000000000
 10
63.211839023
 20
-610.800000000
 30
0.000000000
  0
SPLINE
  5
A21
330
A02
100
AcDbEntity
  8
Flattened_Face
100
AcDbSpline
210
0
220
0
230
1
 70
8
 71
3
 72
23
 73
19
 74
0
 40
0.000000000
 40
0.000000000
 40
0.000000000
 40
0.000000000
 40
0.268621147
 40
0.268621147
 40
0.268621147
 40
0.434440587
 40
0.434440587
 40
0.434440587
 40
0.515391845
 40
0.515391845
 40
0.515391845
 40
0.596343104
 40
0.596343104
 40
0.596343104
 40
0.731480766
 40
0.731480766
 40
0.731480766
 40
1.000000000
 40
1.000000000
 40
1.000000000
 40
1.000000000
 10
56.171634910
 20
-625.800000000
 30
0.000000000
 10
56.173629053
 20
-626.651094794
 30
0.000000000
 10
56.481944014
 20
-627.515547998
 30
0.000000000
 10
57.154420403
 20
-628.218719271
 30
0.000000000
 10
57.569243235
 20
-628.649686867
 30
0.000000000
 10
58.140854295
 20
-629.018809425
 30
0.000000000
 10
58.836256540
 20
-629.193913321
 30
0.000000000
 10
59.175068903
 20
-629.279617869
 30
0.000000000
 10
59.538383455
 20
-629.315352629
 30
0.000000000
 10
59.896093456
 20
-629.294029212
 30
0.000000000
 10
60.253856848
 20
-629.273513193
 30
0.000000000
 10
60.605495531
 20
-629.195951810
 30
0.000000000
 10
60.922409163
 20
-629.076822047
 30
0.000000000
 10
61.452088669
 20
-628.878244364
 30
0.000000000
 10
61.890278731
 20
-628.569998767
 30
0.000000000
 10
62.229053531
 20
-628.218719271
 30
0.000000000
 10
62.901529920
 20
-627.515547998
 30
0.000000000
 10
63.209844881
 20
-626.651094794
 30
0.000000000
 10
63.211839023
 20
-625.800000000
 30
0.000000000
  0
SPLINE
  5
A22
330
A02
100
AcDbEntity
  8
Flattened_Face
100
AcDbSpline
210
0
220
0
230
1
 70
8
 71
3
 72
17
 73
13
 74
0
 40
0.000000000
 40
0.000000000
 40
0.000000000
 40
0.000000000
 40
0.251066420
 40
0.251066420
 40
0.251066420
 40
0.453989770
 40
0.453989770
 40
0.453989770
 40
0.637055579
 40
0.637055579
 40
0.637055579
 40
1.000000000
 40
1.000000000
 40
1.000000000
 40
1.000000000
 10
27.257877270
 20
-58.577611394
 30
0.000000000
 10
27.706705046
 20
-58.090637675
 30
0.000000000
 10
28.354647132
 20
-57.674010111
 30
0.000000000
 10
29.148612023
 20
-57.512818218
 30
0.000000000
 10
29.788903027
 20
-57.378146490
 30
0.000000000
 10
30.495614196
 20
-57.442441683
 30
0.000000000
 10
31.081291601
 20
-57.667655710
 30
0.000000000
 10
31.610714176
 20
-57.867011253
 30
0.000000000
 10
32.048431241
 20
-58.175865719
 30
0.000000000
 10
32.386714227
 20
-58.527638900
 30
0.000000000
 10
33.056720820
 20
-59.230203450
 30
0.000000000
 10
33.363988946
 20
-60.093064984
 30
0.000000000
 10
33.365970540
 20
-60.942694545
 30
0.000000000
  0
SPLINE
  5
A23
330
A02
100
AcDbEntity
  8
Flattened_Face
100
AcDbSpline
210
0
220
0
230
1
 70
8
 71
1
 72
4
 73
2
 74
0
 40
-75.942694545
 40
-75.942694545
 40
-60.942694545
 40
-60.942694545
 10
33.365970540
 20
-75.942694545
 30
0.000000000
 10
33.365970540
 20
-60.942694545
 30
0.000000000
  0
SPLINE
  5
A24
330
A02
100
AcDbEntity
  8
Flattened_Face
100
AcDbSpline
210
0
220
0
230
1
 70
8
 71
3
 72
23
 73
19
 74
0
 40
0.000000000
 40
0.000000000
 40
0.000000000
 40
0.000000000
 40
0.268632136
 40
0.268632136
 40
0.268632136
 40
0.434458361
 40
0.434458361
 40
0.434458361
 40
0.515404880
 40
0.515404880
 40
0.515404880
 40
0.596351398
 40
0.596351398
 40
0.596351398
 40
0.731484939
 40
0.731484939
 40
0.731484939
 40
1.000000000
 40
1.000000000
 40
1.000000000
 40
1.000000000
 10
33.365970540
 20
-75.942694545
 30
0.000000000
 10
33.363976397
 20
-76.793789339
 30
0.000000000
 10
33.055661437
 20
-77.658242543
 30
0.000000000
 10
32.383185047
 20
-78.361413817
 30
0.000000000
 10
31.968362215
 20
-78.792381412
 30
0.000000000
 10
31.396751155
 20
-79.161503970
 30
0.000000000
 10
30.701348910
 20
-79.336607866
 30
0.000000000
 10
30.362570757
 20
-79.422304277
 30
0.000000000
 10
29.999258215
 20
-79.458047158
 30
0.000000000
 10
29.641536928
 20
-79.436725220
 30
0.000000000
 10
29.283763131
 20
-79.416212159
 30
0.000000000
 10
28.932101358
 20
-79.338644164
 30
0.000000000
 10
28.615196287
 20
-79.219516592
 30
0.000000000
 10
28.085516781
 20
-79.020938910
 30
0.000000000
 10
27.647326719
 20
-78.712693312
 30
0.000000000
 10
27.308551919
 20
-78.361413817
 30
0.000000000
 10
26.636074407
 20
-77.658238230
 30
0.000000000
 10
26.327764197
 20
-76.793802762
 30
0.000000000
 10
26.325766427
 20
-75.942694545
 30
0.000000000
  0
SPLINE
  5
A25
330
A02
100
AcDbEntity
  8
Flattened_Face
100
AcDbSpline
210
0
220
0
230
1
 70
8
 71
1
 72
4
 73
2
 74
0
 40
-75.942694545
 40
-75.942694545
 40
-60.942694545
 40
-60.942694545
 10
26.325766427
 20
-75.942694545
 30
0.000000000
 10
26.325766427
 20
-60.942694545
 30
0.000000000
  0
SPLINE
  5
A26
330
A02
100
AcDbEntity
  8
Flattened_Face
100
AcDbSpline
210
0
220
0
230
1
 70
8
 71
3
 72
8
 73
4
 74
0
 40
0.000000000
 40
0.000000000
 40
0.000000000
 40
0.000000000
 40
1.000000000
 40
1.000000000
 40
1.000000000
 40
1.000000000
 10
26.325766427
 20
-60.942694545
 30
0.000000000
 10
26.327582596
 20
-60.112932920
 30
0.000000000
 10
26.620835155
 20
-59.271562470
 30
0.000000000
 10
27.257877270
 20
-58.577611394
 30
0.000000000
  0
ENDSEC
  0
SECTION
  2
OBJECTS
  0
DICTIONARY
  5
F000
330
0
100
AcDbDictionary
  3
ACAD_GROUP
350
F001
  0
DICTIONARY
  5
F001
330
F000
100
AcDbDictionary
  0
ENDSEC
  0
EOF