ISO-10303-21;
HEADER;
FILE_DESCRIPTION(('FreeCAD Model'),'2;1');
FILE_NAME('Open CASCADE Shape Model','2026-07-07T05:55:33',(''),(''),
  'Open CASCADE STEP processor 7.8','FreeCAD','Unknown');
FILE_SCHEMA(('AUTOMOTIVE_DESIGN { 1 0 10303 214 1 1 1 1 }'));
ENDSEC;
DATA;
#1 = APPLICATION_PROTOCOL_DEFINITION('international standard',
  'automotive_design',2000,#2);
#2 = APPLICATION_CONTEXT(
  'core data for automotive mechanical design processes');
#3 = SHAPE_DEFINITION_REPRESENTATION(#4,#10);
#4 = PRODUCT_DEFINITION_SHAPE('','',#5);
#5 = PRODUCT_DEFINITION('design','',#6,#9);
#6 = PRODUCT_DEFINITION_FORMATION('','',#7);
#7 = PRODUCT('Yoke','Yoke','',(#8));
#8 = PRODUCT_CONTEXT('',#2,'mechanical');
#9 = PRODUCT_DEFINITION_CONTEXT('part definition',#2,'design');
#10 = ADVANCED_BREP_SHAPE_REPRESENTATION('',(#11,#15),#824);
#11 = AXIS2_PLACEMENT_3D('',#12,#13,#14);
#12 = CARTESIAN_POINT('',(0.,0.,0.));
#13 = DIRECTION('',(0.,0.,1.));
#14 = DIRECTION('',(1.,0.,-0.));
#15 = MANIFOLD_SOLID_BREP('',#16);
#16 = CLOSED_SHELL('',(#17,#69,#102,#159,#184,#234,#259,#310,#335,#383,
    #400,#415,#432,#483,#507,#551,#568,#623,#649,#695,#712,#745,#778,
    #795,#812));
#17 = ADVANCED_FACE('',(#18,#53),#64,.F.);
#18 = FACE_BOUND('',#19,.F.);
#19 = EDGE_LOOP('',(#20,#30,#38,#47));
#20 = ORIENTED_EDGE('',*,*,#21,.F.);
#21 = EDGE_CURVE('',#22,#24,#26,.T.);
#22 = VERTEX_POINT('',#23);
#23 = CARTESIAN_POINT('',(-51.21431018284,12.508697097602,26.7945));
#24 = VERTEX_POINT('',#25);
#25 = CARTESIAN_POINT('',(-50.77570632281,37.929913662786,26.7945));
#26 = LINE('',#27,#28);
#27 = CARTESIAN_POINT('',(-51.26670975904,9.471649100877,26.7945));
#28 = VECTOR('',#29,1.);
#29 = DIRECTION('',(1.725088928349E-02,0.999851192338,-5.E-16));
#30 = ORIENTED_EDGE('',*,*,#31,.T.);
#31 = EDGE_CURVE('',#22,#32,#34,.T.);
#32 = VERTEX_POINT('',#33);
#33 = CARTESIAN_POINT('',(-38.50350281313,12.289391732645,26.7945));
#34 = LINE('',#35,#36);
#35 = CARTESIAN_POINT('',(-32.14809824515,12.17973903493,26.7945));
#36 = VECTOR('',#37,1.);
#37 = DIRECTION('',(0.999851192338,-1.725088928349E-02,-3.E-17));
#38 = ORIENTED_EDGE('',*,*,#39,.F.);
#39 = EDGE_CURVE('',#40,#32,#42,.T.);
#40 = VERTEX_POINT('',#41);
#41 = CARTESIAN_POINT('',(-38.06489806998,37.710608282592,26.7945));
#42 = CIRCLE('',#43,12.7125);
#43 = AXIS2_PLACEMENT_3D('',#44,#45,#46);
#44 = CARTESIAN_POINT('',(-38.2842,25.,26.7945));
#45 = DIRECTION('',(-9.E-17,-2.2E-16,-1.));
#46 = DIRECTION('',(1.,9.E-17,-9.E-17));
#47 = ORIENTED_EDGE('',*,*,#48,.F.);
#48 = EDGE_CURVE('',#24,#40,#49,.T.);
#49 = LINE('',#50,#51);
#50 = CARTESIAN_POINT('',(-31.70949394356,37.600955592495,26.7945));
#51 = VECTOR('',#52,1.);
#52 = DIRECTION('',(0.999851192338,-1.725088928349E-02,-3.E-17));
#53 = FACE_BOUND('',#54,.F.);
#54 = EDGE_LOOP('',(#55));
#55 = ORIENTED_EDGE('',*,*,#56,.T.);
#56 = EDGE_CURVE('',#57,#57,#59,.T.);
#57 = VERTEX_POINT('',#58);
#58 = CARTESIAN_POINT('',(-28.7465,25.,26.7945));
#59 = CIRCLE('',#60,9.5377);
#60 = AXIS2_PLACEMENT_3D('',#61,#62,#63);
#61 = CARTESIAN_POINT('',(-38.2842,25.,26.7945));
#62 = DIRECTION('',(-9.E-17,-2.2E-16,-1.));
#63 = DIRECTION('',(1.,9.E-17,-9.E-17));
#64 = PLANE('',#65);
#65 = AXIS2_PLACEMENT_3D('',#66,#67,#68);
#66 = CARTESIAN_POINT('',(-25.84509325338,9.033038340488,26.7945));
#67 = DIRECTION('',(-6.E-17,-3.8E-16,1.));
#68 = DIRECTION('',(-0.999851192338,1.725088928349E-02,
    -5.343573361253E-17));
#69 = ADVANCED_FACE('',(#70),#97,.T.);
#70 = FACE_BOUND('',#71,.F.);
#71 = EDGE_LOOP('',(#72,#81,#82,#91));
#72 = ORIENTED_EDGE('',*,*,#73,.T.);
#73 = EDGE_CURVE('',#74,#22,#76,.T.);
#74 = VERTEX_POINT('',#75);
#75 = CARTESIAN_POINT('',(-52.34557642623,12.528215350783,
    27.080467850297));
#76 = CIRCLE('',#77,2.38125);
#77 = AXIS2_PLACEMENT_3D('',#78,#79,#80);
#78 = CARTESIAN_POINT('',(-51.21431018284,12.508697097602,29.17575));
#79 = DIRECTION('',(-1.725088928349E-02,-0.999851192338,
    -4.388850394221E-16));
#80 = DIRECTION('',(-0.812796482553,1.402354894206E-02,0.582378929929));
#81 = ORIENTED_EDGE('',*,*,#21,.T.);
#82 = ORIENTED_EDGE('',*,*,#83,.F.);
#83 = EDGE_CURVE('',#84,#24,#86,.T.);
#84 = VERTEX_POINT('',#85);
#85 = CARTESIAN_POINT('',(-51.9069725662,37.949431915966,27.080467850297
    ));
#86 = CIRCLE('',#87,2.38125);
#87 = AXIS2_PLACEMENT_3D('',#88,#89,#90);
#88 = CARTESIAN_POINT('',(-50.77570632281,37.929913662786,29.17575));
#89 = DIRECTION('',(-1.725088928349E-02,-0.999851192338,
    -4.388850394221E-16));
#90 = DIRECTION('',(-0.812796482553,1.402354894206E-02,0.582378929929));
#91 = ORIENTED_EDGE('',*,*,#92,.F.);
#92 = EDGE_CURVE('',#74,#84,#93,.T.);
#93 = LINE('',#94,#95);
#94 = CARTESIAN_POINT('',(-52.39797600243,9.491167354057,27.080467850297
    ));
#95 = VECTOR('',#96,1.);
#96 = DIRECTION('',(1.725088928349E-02,0.999851192338,-5.E-16));
#97 = CYLINDRICAL_SURFACE('',#98,2.38125);
#98 = AXIS2_PLACEMENT_3D('',#99,#100,#101);
#99 = CARTESIAN_POINT('',(-51.26670975904,9.471649100877,29.17575));
#100 = DIRECTION('',(-1.725088928349E-02,-0.999851192338,-2.2E-16));
#101 = DIRECTION('',(-0.812796482553,1.402354894206E-02,0.582378929929)
  );
#102 = ADVANCED_FACE('',(#103),#154,.F.);
#103 = FACE_BOUND('',#104,.F.);
#104 = EDGE_LOOP('',(#105,#106,#114,#122,#131,#139,#147,#153));
#105 = ORIENTED_EDGE('',*,*,#48,.T.);
#106 = ORIENTED_EDGE('',*,*,#107,.T.);
#107 = EDGE_CURVE('',#40,#108,#110,.T.);
#108 = VERTEX_POINT('',#109);
#109 = CARTESIAN_POINT('',(-38.06489806998,37.710608282592,31.557));
#110 = LINE('',#111,#112);
#111 = CARTESIAN_POINT('',(-38.06489806998,37.710608282592,-2.84E-15));
#112 = VECTOR('',#113,1.);
#113 = DIRECTION('',(8.E-17,-2.2E-16,1.));
#114 = ORIENTED_EDGE('',*,*,#115,.F.);
#115 = EDGE_CURVE('',#116,#108,#118,.T.);
#116 = VERTEX_POINT('',#117);
#117 = CARTESIAN_POINT('',(-48.97040638171,37.898765998367,31.557));
#118 = LINE('',#119,#120);
#119 = CARTESIAN_POINT('',(-31.70949394356,37.600955592495,31.557));
#120 = VECTOR('',#121,1.);
#121 = DIRECTION('',(0.999851192338,-1.725088928349E-02,-3.2E-16));
#122 = ORIENTED_EDGE('',*,*,#123,.F.);
#123 = EDGE_CURVE('',#124,#116,#126,.T.);
#124 = VERTEX_POINT('',#125);
#125 = CARTESIAN_POINT('',(-51.23293886848,37.937802504728,
    32.128935700594));
#126 = CIRCLE('',#127,4.7625);
#127 = AXIS2_PLACEMENT_3D('',#128,#129,#130);
#128 = CARTESIAN_POINT('',(-48.97040638171,37.898765998367,36.3195));
#129 = DIRECTION('',(-1.725088928349E-02,-0.999851192338,-4.4E-16));
#130 = DIRECTION('',(-0.999851192338,1.725088928349E-02,1.7E-16));
#131 = ORIENTED_EDGE('',*,*,#132,.F.);
#132 = EDGE_CURVE('',#133,#124,#135,.T.);
#133 = VERTEX_POINT('',#134);
#134 = CARTESIAN_POINT('',(-54.06489806998,37.986663590273,
    33.658397272529));
#135 = LINE('',#136,#137);
#136 = CARTESIAN_POINT('',(-39.42006013983,37.733989512726,
    25.749131902622));
#137 = VECTOR('',#138,1.);
#138 = DIRECTION('',(0.879777577182,-1.517920435999E-02,-0.475143143107)
  );
#139 = ORIENTED_EDGE('',*,*,#140,.F.);
#140 = EDGE_CURVE('',#141,#133,#143,.T.);
#141 = VERTEX_POINT('',#142);
#142 = CARTESIAN_POINT('',(-54.06489806998,37.986663590273,
    28.245902765955));
#143 = LINE('',#144,#145);
#144 = CARTESIAN_POINT('',(-54.06489806998,37.986663590273,-1.51E-15));
#145 = VECTOR('',#146,1.);
#146 = DIRECTION('',(8.E-17,-2.2E-16,1.));
#147 = ORIENTED_EDGE('',*,*,#148,.T.);
#148 = EDGE_CURVE('',#141,#84,#149,.T.);
#149 = LINE('',#150,#151);
#150 = CARTESIAN_POINT('',(-40.88834323207,37.759322471526,
    21.129615827753));
#151 = VECTOR('',#152,1.);
#152 = DIRECTION('',(0.879777577182,-1.517920435998E-02,-0.475143143108)
  );
#153 = ORIENTED_EDGE('',*,*,#83,.T.);
#154 = PLANE('',#155);
#155 = AXIS2_PLACEMENT_3D('',#156,#157,#158);
#156 = CARTESIAN_POINT('',(-38.06489806998,37.710608282592,-2.84E-15));
#157 = DIRECTION('',(-1.725088928349E-02,-0.999851192338,-2.2E-16));
#158 = DIRECTION('',(-0.999851192338,1.725088928349E-02,8.E-17));
#159 = ADVANCED_FACE('',(#160),#179,.T.);
#160 = FACE_BOUND('',#161,.F.);
#161 = EDGE_LOOP('',(#162,#163,#171,#178));
#162 = ORIENTED_EDGE('',*,*,#39,.T.);
#163 = ORIENTED_EDGE('',*,*,#164,.T.);
#164 = EDGE_CURVE('',#32,#165,#167,.T.);
#165 = VERTEX_POINT('',#166);
#166 = CARTESIAN_POINT('',(-38.50350281313,12.289391732645,31.557));
#167 = LINE('',#168,#169);
#168 = CARTESIAN_POINT('',(-38.50350281313,12.289391732645,2.84E-15));
#169 = VECTOR('',#170,1.);
#170 = DIRECTION('',(8.E-17,-2.2E-16,1.));
#171 = ORIENTED_EDGE('',*,*,#172,.F.);
#172 = EDGE_CURVE('',#108,#165,#173,.T.);
#173 = CIRCLE('',#174,12.7125);
#174 = AXIS2_PLACEMENT_3D('',#175,#176,#177);
#175 = CARTESIAN_POINT('',(-38.2842,25.,31.557));
#176 = DIRECTION('',(-9.E-17,-2.2E-16,-1.));
#177 = DIRECTION('',(1.,9.E-17,-9.E-17));
#178 = ORIENTED_EDGE('',*,*,#107,.F.);
#179 = CYLINDRICAL_SURFACE('',#180,12.7125);
#180 = AXIS2_PLACEMENT_3D('',#181,#182,#183);
#181 = CARTESIAN_POINT('',(-38.2842,25.,0.));
#182 = DIRECTION('',(-9.E-17,-2.2E-16,-1.));
#183 = DIRECTION('',(1.,9.E-17,-9.E-17));
#184 = ADVANCED_FACE('',(#185),#229,.T.);
#185 = FACE_BOUND('',#186,.T.);
#186 = EDGE_LOOP('',(#187,#188,#189,#197,#206,#214,#222,#228));
#187 = ORIENTED_EDGE('',*,*,#31,.T.);
#188 = ORIENTED_EDGE('',*,*,#164,.T.);
#189 = ORIENTED_EDGE('',*,*,#190,.F.);
#190 = EDGE_CURVE('',#191,#165,#193,.T.);
#191 = VERTEX_POINT('',#192);
#192 = CARTESIAN_POINT('',(-49.40901024174,12.477549433184,31.557));
#193 = LINE('',#194,#195);
#194 = CARTESIAN_POINT('',(-32.14809824515,12.17973903493,31.557));
#195 = VECTOR('',#196,1.);
#196 = DIRECTION('',(0.999851192338,-1.725088928349E-02,-3.2E-16));
#197 = ORIENTED_EDGE('',*,*,#198,.F.);
#198 = EDGE_CURVE('',#199,#191,#201,.T.);
#199 = VERTEX_POINT('',#200);
#200 = CARTESIAN_POINT('',(-51.67154272852,12.516585939545,
    32.128935700594));
#201 = CIRCLE('',#202,4.7625);
#202 = AXIS2_PLACEMENT_3D('',#203,#204,#205);
#203 = CARTESIAN_POINT('',(-49.40901024174,12.477549433184,36.3195));
#204 = DIRECTION('',(-1.725088928349E-02,-0.999851192338,-4.4E-16));
#205 = DIRECTION('',(-0.999851192338,1.725088928349E-02,1.7E-16));
#206 = ORIENTED_EDGE('',*,*,#207,.F.);
#207 = EDGE_CURVE('',#208,#199,#210,.T.);
#208 = VERTEX_POINT('',#209);
#209 = CARTESIAN_POINT('',(-54.50350193001,12.565447025089,
    33.658397272529));
#210 = LINE('',#211,#212);
#211 = CARTESIAN_POINT('',(-39.85866434174,12.312772953441,
    25.749132087257));
#212 = VECTOR('',#213,1.);
#213 = DIRECTION('',(0.879777577182,-1.517920435999E-02,-0.475143143107)
  );
#214 = ORIENTED_EDGE('',*,*,#215,.F.);
#215 = EDGE_CURVE('',#216,#208,#218,.T.);
#216 = VERTEX_POINT('',#217);
#217 = CARTESIAN_POINT('',(-54.50350193001,12.565447025089,
    28.245902765955));
#218 = LINE('',#219,#220);
#219 = CARTESIAN_POINT('',(-54.50350193001,12.565447025089,4.17E-15));
#220 = VECTOR('',#221,1.);
#221 = DIRECTION('',(8.E-17,-2.2E-16,1.));
#222 = ORIENTED_EDGE('',*,*,#223,.T.);
#223 = EDGE_CURVE('',#216,#74,#224,.T.);
#224 = LINE('',#225,#226);
#225 = CARTESIAN_POINT('',(-41.32694743398,12.338105912241,
    21.129616012388));
#226 = VECTOR('',#227,1.);
#227 = DIRECTION('',(0.879777577182,-1.517920435998E-02,-0.475143143108)
  );
#228 = ORIENTED_EDGE('',*,*,#73,.T.);
#229 = PLANE('',#230);
#230 = AXIS2_PLACEMENT_3D('',#231,#232,#233);
#231 = CARTESIAN_POINT('',(-38.50350281313,12.289391732645,2.84E-15));
#232 = DIRECTION('',(-1.725088928349E-02,-0.999851192338,-2.2E-16));
#233 = DIRECTION('',(-0.999851192338,1.725088928349E-02,8.E-17));
#234 = ADVANCED_FACE('',(#235),#254,.F.);
#235 = FACE_BOUND('',#236,.T.);
#236 = EDGE_LOOP('',(#237,#238,#246,#253));
#237 = ORIENTED_EDGE('',*,*,#56,.T.);
#238 = ORIENTED_EDGE('',*,*,#239,.T.);
#239 = EDGE_CURVE('',#57,#240,#242,.T.);
#240 = VERTEX_POINT('',#241);
#241 = CARTESIAN_POINT('',(-28.7465,25.,31.557));
#242 = LINE('',#243,#244);
#243 = CARTESIAN_POINT('',(-28.7465,25.,-8.3E-16));
#244 = VECTOR('',#245,1.);
#245 = DIRECTION('',(8.E-17,-2.2E-16,1.));
#246 = ORIENTED_EDGE('',*,*,#247,.F.);
#247 = EDGE_CURVE('',#240,#240,#248,.T.);
#248 = CIRCLE('',#249,9.5377);
#249 = AXIS2_PLACEMENT_3D('',#250,#251,#252);
#250 = CARTESIAN_POINT('',(-38.2842,25.,31.557));
#251 = DIRECTION('',(-9.E-17,-2.2E-16,-1.));
#252 = DIRECTION('',(1.,9.E-17,-9.E-17));
#253 = ORIENTED_EDGE('',*,*,#239,.F.);
#254 = CYLINDRICAL_SURFACE('',#255,9.5377);
#255 = AXIS2_PLACEMENT_3D('',#256,#257,#258);
#256 = CARTESIAN_POINT('',(-38.2842,25.,-0.));
#257 = DIRECTION('',(-9.E-17,-2.2E-16,-1.));
#258 = DIRECTION('',(1.,9.E-17,-9.E-17));
#259 = ADVANCED_FACE('',(#260),#305,.F.);
#260 = FACE_BOUND('',#261,.F.);
#261 = EDGE_LOOP('',(#262,#263,#264,#265,#274,#282,#290,#298));
#262 = ORIENTED_EDGE('',*,*,#223,.T.);
#263 = ORIENTED_EDGE('',*,*,#92,.T.);
#264 = ORIENTED_EDGE('',*,*,#148,.F.);
#265 = ORIENTED_EDGE('',*,*,#266,.T.);
#266 = EDGE_CURVE('',#141,#267,#269,.T.);
#267 = VERTEX_POINT('',#268);
#268 = CARTESIAN_POINT('',(-57.78090457935,37.766292185158,
    30.25016336636));
#269 = ELLIPSE('',#270,27.683105236312,24.3586);
#270 = AXIS2_PLACEMENT_3D('',#271,#272,#273);
#271 = CARTESIAN_POINT('',(-54.48510558168,13.631688336598,
    28.245902765955));
#272 = DIRECTION('',(0.475072438168,-8.196641755573E-03,0.879908514311)
  );
#273 = DIRECTION('',(0.879777577182,-1.517920435998E-02,-0.475143143108)
  );
#274 = ORIENTED_EDGE('',*,*,#275,.F.);
#275 = EDGE_CURVE('',#276,#267,#278,.T.);
#276 = VERTEX_POINT('',#277);
#277 = CARTESIAN_POINT('',(-62.92274050794,37.064127865165,
    33.01975713916));
#278 = LINE('',#279,#280);
#279 = CARTESIAN_POINT('',(-50.32245495175,38.784811111803,
    26.232750922586));
#280 = VECTOR('',#281,1.);
#281 = DIRECTION('',(0.874111034353,0.119367787802,-0.470830363143));
#282 = ORIENTED_EDGE('',*,*,#283,.F.);
#283 = EDGE_CURVE('',#284,#276,#286,.T.);
#284 = VERTEX_POINT('',#285);
#285 = CARTESIAN_POINT('',(-63.32424791406,13.792999510584,
    33.01975713916));
#286 = LINE('',#287,#288);
#287 = CARTESIAN_POINT('',(-63.39519571722,9.680907408557,33.01975713916
    ));
#288 = VECTOR('',#289,1.);
#289 = DIRECTION('',(1.725088928349E-02,0.999851192338,-5.E-16));
#290 = ORIENTED_EDGE('',*,*,#291,.T.);
#291 = EDGE_CURVE('',#284,#292,#294,.T.);
#292 = VERTEX_POINT('',#293);
#293 = CARTESIAN_POINT('',(-58.20969464898,12.913877023431,
    30.25016336636));
#294 = LINE('',#295,#296);
#295 = CARTESIAN_POINT('',(-48.9499191426,11.322246933425,
    25.235880544224));
#296 = VECTOR('',#297,1.);
#297 = DIRECTION('',(0.869472987253,-0.149450639274,-0.470830363143));
#298 = ORIENTED_EDGE('',*,*,#299,.T.);
#299 = EDGE_CURVE('',#292,#216,#300,.T.);
#300 = ELLIPSE('',#301,27.683105236312,24.3586);
#301 = AXIS2_PLACEMENT_3D('',#302,#303,#304);
#302 = CARTESIAN_POINT('',(-54.08329441831,36.920422278764,
    28.245902765955));
#303 = DIRECTION('',(0.475072438168,-8.196641755573E-03,0.879908514311)
  );
#304 = DIRECTION('',(0.879777577182,-1.517920435998E-02,-0.475143143108)
  );
#305 = PLANE('',#306);
#306 = AXIS2_PLACEMENT_3D('',#307,#308,#309);
#307 = CARTESIAN_POINT('',(-52.39797600243,9.491167354057,
    27.080467850297));
#308 = DIRECTION('',(0.475072438168,-8.196641755573E-03,0.879908514311)
  );
#309 = DIRECTION('',(-0.879777577182,1.517920435998E-02,0.475143143108)
  );
#310 = ADVANCED_FACE('',(#311),#330,.T.);
#311 = FACE_BOUND('',#312,.F.);
#312 = EDGE_LOOP('',(#313,#314,#315,#324));
#313 = ORIENTED_EDGE('',*,*,#266,.F.);
#314 = ORIENTED_EDGE('',*,*,#140,.T.);
#315 = ORIENTED_EDGE('',*,*,#316,.T.);
#316 = EDGE_CURVE('',#133,#317,#319,.T.);
#317 = VERTEX_POINT('',#318);
#318 = CARTESIAN_POINT('',(-57.78090457935,37.766292185158,
    35.662657872929));
#319 = ELLIPSE('',#320,27.683105236297,24.3586);
#320 = AXIS2_PLACEMENT_3D('',#321,#322,#323);
#321 = CARTESIAN_POINT('',(-54.48510558168,13.631688336598,
    33.658397272529));
#322 = DIRECTION('',(0.475072438167,-8.196641755558E-03,0.879908514312)
  );
#323 = DIRECTION('',(0.879777577182,-1.517920435999E-02,-0.475143143107)
  );
#324 = ORIENTED_EDGE('',*,*,#325,.F.);
#325 = EDGE_CURVE('',#267,#317,#326,.T.);
#326 = LINE('',#327,#328);
#327 = CARTESIAN_POINT('',(-57.78090457935,37.766292185158,-1.14E-15));
#328 = VECTOR('',#329,1.);
#329 = DIRECTION('',(8.E-17,-2.2E-16,1.));
#330 = CYLINDRICAL_SURFACE('',#331,24.3586);
#331 = AXIS2_PLACEMENT_3D('',#332,#333,#334);
#332 = CARTESIAN_POINT('',(-54.48510558168,13.631688336598,3.93E-15));
#333 = DIRECTION('',(-9.E-17,-2.2E-16,-1.));
#334 = DIRECTION('',(1.,9.E-17,-9.E-17));
#335 = ADVANCED_FACE('',(#336),#378,.T.);
#336 = FACE_BOUND('',#337,.T.);
#337 = EDGE_LOOP('',(#338,#339,#345,#346,#347,#355,#363,#371));
#338 = ORIENTED_EDGE('',*,*,#207,.T.);
#339 = ORIENTED_EDGE('',*,*,#340,.T.);
#340 = EDGE_CURVE('',#199,#124,#341,.T.);
#341 = LINE('',#342,#343);
#342 = CARTESIAN_POINT('',(-51.72394230472,9.479537942819,
    32.128935700594));
#343 = VECTOR('',#344,1.);
#344 = DIRECTION('',(1.725088928349E-02,0.999851192338,-5.E-16));
#345 = ORIENTED_EDGE('',*,*,#132,.F.);
#346 = ORIENTED_EDGE('',*,*,#316,.T.);
#347 = ORIENTED_EDGE('',*,*,#348,.F.);
#348 = EDGE_CURVE('',#349,#317,#351,.T.);
#349 = VERTEX_POINT('',#350);
#350 = CARTESIAN_POINT('',(-60.65418017828,37.373920348505,
    37.210316397398));
#351 = LINE('',#352,#353);
#352 = CARTESIAN_POINT('',(-48.87687037087,38.982218794257,
    30.866597080825));
#353 = VECTOR('',#354,1.);
#354 = DIRECTION('',(0.874111034354,0.119367787802,-0.470830363142));
#355 = ORIENTED_EDGE('',*,*,#356,.F.);
#356 = EDGE_CURVE('',#357,#349,#359,.T.);
#357 = VERTEX_POINT('',#358);
#358 = CARTESIAN_POINT('',(-61.06772460172,13.405133692428,
    37.210316397398));
#359 = LINE('',#360,#361);
#360 = CARTESIAN_POINT('',(-61.13265389621,9.641870741149,
    37.210316397398));
#361 = VECTOR('',#362,1.);
#362 = DIRECTION('',(1.725088928349E-02,0.999851192338,-5.E-16));
#363 = ORIENTED_EDGE('',*,*,#364,.T.);
#364 = EDGE_CURVE('',#357,#365,#367,.T.);
#365 = VERTEX_POINT('',#366);
#366 = CARTESIAN_POINT('',(-58.20969464898,12.913877023431,
    35.662657872929));
#367 = LINE('',#368,#369);
#368 = CARTESIAN_POINT('',(-47.51200485658,11.075088928039,
    29.869726702464));
#369 = VECTOR('',#370,1.);
#370 = DIRECTION('',(0.869472987254,-0.149450639274,-0.470830363142));
#371 = ORIENTED_EDGE('',*,*,#372,.T.);
#372 = EDGE_CURVE('',#365,#208,#373,.T.);
#373 = ELLIPSE('',#374,27.683105236297,24.3586);
#374 = AXIS2_PLACEMENT_3D('',#375,#376,#377);
#375 = CARTESIAN_POINT('',(-54.08329441831,36.920422278764,
    33.658397272529));
#376 = DIRECTION('',(0.475072438167,-8.196641755558E-03,0.879908514312)
  );
#377 = DIRECTION('',(0.879777577182,-1.517920435999E-02,-0.475143143107)
  );
#378 = PLANE('',#379);
#379 = AXIS2_PLACEMENT_3D('',#380,#381,#382);
#380 = CARTESIAN_POINT('',(-51.72394230472,9.479537942819,
    32.128935700594));
#381 = DIRECTION('',(0.475072438167,-8.196641755558E-03,0.879908514312)
  );
#382 = DIRECTION('',(-0.879777577182,1.517920435999E-02,0.475143143107)
  );
#383 = ADVANCED_FACE('',(#384),#395,.F.);
#384 = FACE_BOUND('',#385,.T.);
#385 = EDGE_LOOP('',(#386,#387,#393,#394));
#386 = ORIENTED_EDGE('',*,*,#198,.T.);
#387 = ORIENTED_EDGE('',*,*,#388,.T.);
#388 = EDGE_CURVE('',#191,#116,#389,.T.);
#389 = LINE('',#390,#391);
#390 = CARTESIAN_POINT('',(-49.46140981794,9.440501436458,31.557));
#391 = VECTOR('',#392,1.);
#392 = DIRECTION('',(1.725088928349E-02,0.999851192338,-5.E-16));
#393 = ORIENTED_EDGE('',*,*,#123,.F.);
#394 = ORIENTED_EDGE('',*,*,#340,.F.);
#395 = CYLINDRICAL_SURFACE('',#396,4.7625);
#396 = AXIS2_PLACEMENT_3D('',#397,#398,#399);
#397 = CARTESIAN_POINT('',(-49.46140981794,9.440501436458,36.3195));
#398 = DIRECTION('',(-1.725088928349E-02,-0.999851192338,-2.2E-16));
#399 = DIRECTION('',(-0.999851192338,1.725088928349E-02,7.E-17));
#400 = ADVANCED_FACE('',(#401,#407),#410,.T.);
#401 = FACE_BOUND('',#402,.T.);
#402 = EDGE_LOOP('',(#403,#404,#405,#406));
#403 = ORIENTED_EDGE('',*,*,#388,.F.);
#404 = ORIENTED_EDGE('',*,*,#190,.T.);
#405 = ORIENTED_EDGE('',*,*,#172,.F.);
#406 = ORIENTED_EDGE('',*,*,#115,.F.);
#407 = FACE_BOUND('',#408,.T.);
#408 = EDGE_LOOP('',(#409));
#409 = ORIENTED_EDGE('',*,*,#247,.T.);
#410 = PLANE('',#411);
#411 = AXIS2_PLACEMENT_3D('',#412,#413,#414);
#412 = CARTESIAN_POINT('',(-25.84509325338,9.033038340488,31.557));
#413 = DIRECTION('',(2.3E-16,-3.9E-16,1.));
#414 = DIRECTION('',(-0.999851192338,1.725088928349E-02,
    2.366936210582E-16));
#415 = ADVANCED_FACE('',(#416),#427,.T.);
#416 = FACE_BOUND('',#417,.F.);
#417 = EDGE_LOOP('',(#418,#419,#425,#426));
#418 = ORIENTED_EDGE('',*,*,#299,.F.);
#419 = ORIENTED_EDGE('',*,*,#420,.T.);
#420 = EDGE_CURVE('',#292,#365,#421,.T.);
#421 = LINE('',#422,#423);
#422 = CARTESIAN_POINT('',(-58.20969464898,12.913877023431,4.41E-15));
#423 = VECTOR('',#424,1.);
#424 = DIRECTION('',(8.E-17,-2.2E-16,1.));
#425 = ORIENTED_EDGE('',*,*,#372,.T.);
#426 = ORIENTED_EDGE('',*,*,#215,.F.);
#427 = CYLINDRICAL_SURFACE('',#428,24.3586);
#428 = AXIS2_PLACEMENT_3D('',#429,#430,#431);
#429 = CARTESIAN_POINT('',(-54.08329441831,36.920422278764,-1.28E-15));
#430 = DIRECTION('',(-9.E-17,-2.2E-16,-1.));
#431 = DIRECTION('',(1.,9.E-17,-9.E-17));
#432 = ADVANCED_FACE('',(#433),#478,.T.);
#433 = FACE_BOUND('',#434,.T.);
#434 = EDGE_LOOP('',(#435,#436,#437,#438,#446,#455,#463,#472));
#435 = ORIENTED_EDGE('',*,*,#291,.T.);
#436 = ORIENTED_EDGE('',*,*,#420,.T.);
#437 = ORIENTED_EDGE('',*,*,#364,.F.);
#438 = ORIENTED_EDGE('',*,*,#439,.F.);
#439 = EDGE_CURVE('',#440,#357,#442,.T.);
#440 = VERTEX_POINT('',#441);
#441 = CARTESIAN_POINT('',(-72.03567780129,15.290376409833,
    43.149630189185));
#442 = LINE('',#443,#444);
#443 = CARTESIAN_POINT('',(-52.11904003408,11.866975924562,
    32.364467340251));
#444 = VECTOR('',#445,1.);
#445 = DIRECTION('',(0.869471960196,-0.149450462736,-0.470832315821));
#446 = ORIENTED_EDGE('',*,*,#447,.T.);
#447 = EDGE_CURVE('',#440,#448,#450,.T.);
#448 = VERTEX_POINT('',#449);
#449 = CARTESIAN_POINT('',(-86.93893361793,17.852044387689,
    48.594639722789));
#450 = ELLIPSE('',#451,55.409534552285,54.762500000002);
#451 = AXIS2_PLACEMENT_3D('',#452,#453,#454);
#452 = CARTESIAN_POINT('',(-97.98273457658,19.750324308375,
    -5.036301858962));
#453 = DIRECTION('',(-0.169402191861,-0.985547004152,-2.E-16));
#454 = DIRECTION('',(0.985547004152,-0.169402191861,-1.57E-15));
#455 = ORIENTED_EDGE('',*,*,#456,.F.);
#456 = EDGE_CURVE('',#457,#448,#459,.T.);
#457 = VERTEX_POINT('',#458);
#458 = CARTESIAN_POINT('',(-86.93893361793,17.852044387689,
    43.721738387701));
#459 = LINE('',#460,#461);
#460 = CARTESIAN_POINT('',(-86.93893361793,17.852044387689,5.81E-15));
#461 = VECTOR('',#462,1.);
#462 = DIRECTION('',(8.E-17,-2.2E-16,1.));
#463 = ORIENTED_EDGE('',*,*,#464,.F.);
#464 = EDGE_CURVE('',#465,#457,#467,.T.);
#465 = VERTEX_POINT('',#466);
#466 = CARTESIAN_POINT('',(-74.29220111363,15.678242227989,
    38.959070930942));
#467 = ELLIPSE('',#468,50.59076425682,50.);
#468 = AXIS2_PLACEMENT_3D('',#469,#470,#471);
#469 = CARTESIAN_POINT('',(-97.98273457658,19.750324308375,
    -5.03630185896));
#470 = DIRECTION('',(-0.169402191861,-0.985547004152,-2.E-16));
#471 = DIRECTION('',(0.985547004152,-0.169402191861,-1.57E-15));
#472 = ORIENTED_EDGE('',*,*,#473,.T.);
#473 = EDGE_CURVE('',#465,#284,#474,.T.);
#474 = LINE('',#475,#476);
#475 = CARTESIAN_POINT('',(-54.33478532584,12.24783255286,
    28.151826162478));
#476 = VECTOR('',#477,1.);
#477 = DIRECTION('',(0.869471960196,-0.149450462736,-0.47083231582));
#478 = PLANE('',#479);
#479 = AXIS2_PLACEMENT_3D('',#480,#481,#482);
#480 = CARTESIAN_POINT('',(-58.20969464898,12.913877023431,4.41E-15));
#481 = DIRECTION('',(-0.169402191861,-0.985547004152,-2.E-16));
#482 = DIRECTION('',(-0.985547004152,0.169402191861,5.E-17));
#483 = ADVANCED_FACE('',(#484),#502,.F.);
#484 = FACE_BOUND('',#485,.F.);
#485 = EDGE_LOOP('',(#486,#487,#488,#496));
#486 = ORIENTED_EDGE('',*,*,#473,.T.);
#487 = ORIENTED_EDGE('',*,*,#283,.T.);
#488 = ORIENTED_EDGE('',*,*,#489,.F.);
#489 = EDGE_CURVE('',#490,#276,#492,.T.);
#490 = VERTEX_POINT('',#491);
#491 = CARTESIAN_POINT('',(-73.94920027904,35.558364800252,
    38.959070930942));
#492 = LINE('',#493,#494);
#493 = CARTESIAN_POINT('',(-55.73604136179,38.045536799451,
    29.148699497616));
#494 = VECTOR('',#495,1.);
#495 = DIRECTION('',(0.874110001817,0.1193676468,-0.47083231582));
#496 = ORIENTED_EDGE('',*,*,#497,.F.);
#497 = EDGE_CURVE('',#465,#490,#498,.T.);
#498 = LINE('',#499,#500);
#499 = CARTESIAN_POINT('',(-74.39240220255,9.870647234804,
    38.959070930942));
#500 = VECTOR('',#501,1.);
#501 = DIRECTION('',(1.725088928349E-02,0.999851192338,-5.E-16));
#502 = PLANE('',#503);
#503 = AXIS2_PLACEMENT_3D('',#504,#505,#506);
#504 = CARTESIAN_POINT('',(-63.39519571722,9.680907408557,33.01975713916
    ));
#505 = DIRECTION('',(0.475074398111,-8.196675571358E-03,0.879907455798)
  );
#506 = DIRECTION('',(-0.879776518827,1.51791860997E-02,0.475145103343));
#507 = ADVANCED_FACE('',(#508),#546,.F.);
#508 = FACE_BOUND('',#509,.F.);
#509 = EDGE_LOOP('',(#510,#511,#512,#513,#521,#530,#538,#545));
#510 = ORIENTED_EDGE('',*,*,#275,.T.);
#511 = ORIENTED_EDGE('',*,*,#325,.T.);
#512 = ORIENTED_EDGE('',*,*,#348,.F.);
#513 = ORIENTED_EDGE('',*,*,#514,.F.);
#514 = EDGE_CURVE('',#515,#349,#517,.T.);
#515 = VERTEX_POINT('',#516);
#516 = CARTESIAN_POINT('',(-71.68063994938,35.868157283592,
    43.149630189185));
#517 = LINE('',#518,#519);
#518 = CARTESIAN_POINT('',(-53.50847657572,38.349730969583,
    33.36134067539));
#519 = VECTOR('',#520,1.);
#520 = DIRECTION('',(0.874110001817,0.1193676468,-0.470832315821));
#521 = ORIENTED_EDGE('',*,*,#522,.T.);
#522 = EDGE_CURVE('',#515,#523,#525,.T.);
#523 = VERTEX_POINT('',#524);
#524 = CARTESIAN_POINT('',(-86.66339450081,33.822126292455,
    48.594639722789));
#525 = ELLIPSE('',#526,55.409534552285,54.762500000002);
#526 = AXIS2_PLACEMENT_3D('',#527,#528,#529);
#527 = CARTESIAN_POINT('',(-97.76610662721,32.305950277004,
    -5.036301858962));
#528 = DIRECTION('',(0.135303301408,-0.990804227195,-2.3E-16));
#529 = DIRECTION('',(-0.990804227195,-0.135303301408,-1.4E-15));
#530 = ORIENTED_EDGE('',*,*,#531,.F.);
#531 = EDGE_CURVE('',#532,#523,#534,.T.);
#532 = VERTEX_POINT('',#533);
#533 = CARTESIAN_POINT('',(-86.66339450081,33.822126292455,
    43.721738387701));
#534 = LINE('',#535,#536);
#535 = CARTESIAN_POINT('',(-86.66339450081,33.822126292455,2.24E-15));
#536 = VECTOR('',#537,1.);
#537 = DIRECTION('',(8.E-17,-2.2E-16,1.));
#538 = ORIENTED_EDGE('',*,*,#539,.F.);
#539 = EDGE_CURVE('',#490,#532,#540,.T.);
#540 = ELLIPSE('',#541,50.59076425682,50.);
#541 = AXIS2_PLACEMENT_3D('',#542,#543,#544);
#542 = CARTESIAN_POINT('',(-97.76610662721,32.305950277004,
    -5.03630185896));
#543 = DIRECTION('',(0.135303301408,-0.990804227195,-2.3E-16));
#544 = DIRECTION('',(-0.990804227195,-0.135303301408,-1.4E-15));
#545 = ORIENTED_EDGE('',*,*,#489,.T.);
#546 = PLANE('',#547);
#547 = AXIS2_PLACEMENT_3D('',#548,#549,#550);
#548 = CARTESIAN_POINT('',(-57.78090457935,37.766292185158,-1.14E-15));
#549 = DIRECTION('',(0.135303301408,-0.990804227195,-2.3E-16));
#550 = DIRECTION('',(-0.990804227195,-0.135303301408,1.2E-16));
#551 = ADVANCED_FACE('',(#552),#563,.T.);
#552 = FACE_BOUND('',#553,.T.);
#553 = EDGE_LOOP('',(#554,#555,#556,#557));
#554 = ORIENTED_EDGE('',*,*,#439,.T.);
#555 = ORIENTED_EDGE('',*,*,#356,.T.);
#556 = ORIENTED_EDGE('',*,*,#514,.F.);
#557 = ORIENTED_EDGE('',*,*,#558,.F.);
#558 = EDGE_CURVE('',#440,#515,#559,.T.);
#559 = LINE('',#560,#561);
#560 = CARTESIAN_POINT('',(-72.12986038155,9.831610567395,
    43.149630189185));
#561 = VECTOR('',#562,1.);
#562 = DIRECTION('',(1.725088928349E-02,0.999851192338,-5.E-16));
#563 = PLANE('',#564);
#564 = AXIS2_PLACEMENT_3D('',#565,#566,#567);
#565 = CARTESIAN_POINT('',(-61.13265389621,9.641870741149,
    37.210316397398));
#566 = DIRECTION('',(0.475074398111,-8.196675571364E-03,0.879907455798)
  );
#567 = DIRECTION('',(-0.879776518827,1.517918609969E-02,0.475145103343)
  );
#568 = ADVANCED_FACE('',(#569),#618,.F.);
#569 = FACE_BOUND('',#570,.T.);
#570 = EDGE_LOOP('',(#571,#582,#590,#599,#607,#608,#609,#610));
#571 = ORIENTED_EDGE('',*,*,#572,.T.);
#572 = EDGE_CURVE('',#573,#575,#577,.T.);
#573 = VERTEX_POINT('',#574);
#574 = CARTESIAN_POINT('',(-87.66355419646,17.920168083924,
    43.880911012969));
#575 = VERTEX_POINT('',#576);
#576 = CARTESIAN_POINT('',(-94.50055376538,18.03812996015,
    44.840260552587));
#577 = CIRCLE('',#578,50.);
#578 = AXIS2_PLACEMENT_3D('',#579,#580,#581);
#579 = CARTESIAN_POINT('',(-98.01123078313,18.098701274169,
    -5.03630185896));
#580 = DIRECTION('',(-1.725088928349E-02,-0.999851192338,-4.4E-16));
#581 = DIRECTION('',(-0.999851192338,1.725088928349E-02,1.7E-16));
#582 = ORIENTED_EDGE('',*,*,#583,.T.);
#583 = EDGE_CURVE('',#575,#584,#586,.T.);
#584 = VERTEX_POINT('',#585);
#585 = CARTESIAN_POINT('',(-94.2269334029,33.897001997191,
    44.840260552587));
#586 = LINE('',#587,#588);
#587 = CARTESIAN_POINT('',(-94.63544509035,10.219909699353,
    44.840260552587));
#588 = VECTOR('',#589,1.);
#589 = DIRECTION('',(1.725088928349E-02,0.999851192338,-5.E-16));
#590 = ORIENTED_EDGE('',*,*,#591,.F.);
#591 = EDGE_CURVE('',#592,#584,#594,.T.);
#592 = VERTEX_POINT('',#593);
#593 = CARTESIAN_POINT('',(-87.38993383398,33.779040120965,
    43.880911012969));
#594 = CIRCLE('',#595,50.);
#595 = AXIS2_PLACEMENT_3D('',#596,#597,#598);
#596 = CARTESIAN_POINT('',(-97.73761042065,33.95757331121,-5.03630185896
    ));
#597 = DIRECTION('',(-1.725088928349E-02,-0.999851192338,-4.4E-16));
#598 = DIRECTION('',(-0.999851192338,1.725088928349E-02,1.7E-16));
#599 = ORIENTED_EDGE('',*,*,#600,.T.);
#600 = EDGE_CURVE('',#592,#532,#601,.T.);
#601 = B_SPLINE_CURVE_WITH_KNOTS('',4,(#602,#603,#604,#605,#606),
  .UNSPECIFIED.,.F.,.F.,(5,5),(0.,1.),.PIECEWISE_BEZIER_KNOTS.);
#602 = CARTESIAN_POINT('',(-87.38993383398,33.779040120965,
    43.880911012969));
#603 = CARTESIAN_POINT('',(-87.20672129278,33.775879071313,
    43.842143708704));
#604 = CARTESIAN_POINT('',(-87.02373724569,33.782123783535,
    43.80250277641));
#605 = CARTESIAN_POINT('',(-86.84222958121,33.797704740628,
    43.762257262719));
#606 = CARTESIAN_POINT('',(-86.66339450081,33.822126292455,
    43.721738387701));
#607 = ORIENTED_EDGE('',*,*,#539,.F.);
#608 = ORIENTED_EDGE('',*,*,#497,.F.);
#609 = ORIENTED_EDGE('',*,*,#464,.T.);
#610 = ORIENTED_EDGE('',*,*,#611,.F.);
#611 = EDGE_CURVE('',#573,#457,#612,.T.);
#612 = B_SPLINE_CURVE_WITH_KNOTS('',4,(#613,#614,#615,#616,#617),
  .UNSPECIFIED.,.F.,.F.,(5,5),(0.,1.),.PIECEWISE_BEZIER_KNOTS.);
#613 = CARTESIAN_POINT('',(-87.66355419646,17.920168083924,
    43.880911012969));
#614 = CARTESIAN_POINT('',(-87.48034164084,17.917007034023,
    43.842143705653));
#615 = CARTESIAN_POINT('',(-87.29768196388,17.904453705547,
    43.802502781793));
#616 = CARTESIAN_POINT('',(-87.11681978365,17.882620612107,
    43.762257259782));
#617 = CARTESIAN_POINT('',(-86.93893361793,17.852044387689,
    43.721738387701));
#618 = CYLINDRICAL_SURFACE('',#619,50.);
#619 = AXIS2_PLACEMENT_3D('',#620,#621,#622);
#620 = CARTESIAN_POINT('',(-98.14612210811,10.280481013372,
    -5.03630185896));
#621 = DIRECTION('',(-1.725088928349E-02,-0.999851192338,-2.2E-16));
#622 = DIRECTION('',(-0.999851192338,1.725088928349E-02,7.E-17));
#623 = ADVANCED_FACE('',(#624),#644,.F.);
#624 = FACE_BOUND('',#625,.T.);
#625 = EDGE_LOOP('',(#626,#627,#628,#638));
#626 = ORIENTED_EDGE('',*,*,#611,.T.);
#627 = ORIENTED_EDGE('',*,*,#456,.T.);
#628 = ORIENTED_EDGE('',*,*,#629,.F.);
#629 = EDGE_CURVE('',#630,#448,#632,.T.);
#630 = VERTEX_POINT('',#631);
#631 = CARTESIAN_POINT('',(-87.66355419646,17.920168083924,
    48.739390804246));
#632 = B_SPLINE_CURVE_WITH_KNOTS('',4,(#633,#634,#635,#636,#637),
  .UNSPECIFIED.,.F.,.F.,(5,5),(0.,1.),.PIECEWISE_BEZIER_KNOTS.);
#633 = CARTESIAN_POINT('',(-87.66355419646,17.920168083924,
    48.739390804246));
#634 = CARTESIAN_POINT('',(-87.4804135296,17.917008274353,
    48.704139849261));
#635 = CARTESIAN_POINT('',(-87.29776457434,17.90446250128,
    48.668089559458));
#636 = CARTESIAN_POINT('',(-87.11687173851,17.882629542446,
    48.631487813707));
#637 = CARTESIAN_POINT('',(-86.93893361793,17.852044387689,
    48.594639722789));
#638 = ORIENTED_EDGE('',*,*,#639,.F.);
#639 = EDGE_CURVE('',#573,#630,#640,.T.);
#640 = LINE('',#641,#642);
#641 = CARTESIAN_POINT('',(-87.66355419646,17.920168083924,5.86E-15));
#642 = VECTOR('',#643,1.);
#643 = DIRECTION('',(8.E-17,-2.2E-16,1.));
#644 = CYLINDRICAL_SURFACE('',#645,4.7625);
#645 = AXIS2_PLACEMENT_3D('',#646,#647,#648);
#646 = CARTESIAN_POINT('',(-87.74571155667,13.158376780416,6.92E-15));
#647 = DIRECTION('',(-9.E-17,-2.2E-16,-1.));
#648 = DIRECTION('',(1.,9.E-17,-9.E-17));
#649 = ADVANCED_FACE('',(#650),#690,.T.);
#650 = FACE_BOUND('',#651,.F.);
#651 = EDGE_LOOP('',(#652,#653,#654,#655,#664,#672,#681,#689));
#652 = ORIENTED_EDGE('',*,*,#558,.F.);
#653 = ORIENTED_EDGE('',*,*,#447,.T.);
#654 = ORIENTED_EDGE('',*,*,#629,.F.);
#655 = ORIENTED_EDGE('',*,*,#656,.T.);
#656 = EDGE_CURVE('',#630,#657,#659,.T.);
#657 = VERTEX_POINT('',#658);
#658 = CARTESIAN_POINT('',(-94.16616177943,18.032360542489,
    49.591003122287));
#659 = CIRCLE('',#660,54.762500000002);
#660 = AXIS2_PLACEMENT_3D('',#661,#662,#663);
#661 = CARTESIAN_POINT('',(-98.01123078313,18.098701274169,
    -5.036301858962));
#662 = DIRECTION('',(-1.725088928349E-02,-0.999851192338,-4.4E-16));
#663 = DIRECTION('',(-0.999851192338,1.725088928349E-02,1.7E-16));
#664 = ORIENTED_EDGE('',*,*,#665,.T.);
#665 = EDGE_CURVE('',#657,#666,#668,.T.);
#666 = VERTEX_POINT('',#667);
#667 = CARTESIAN_POINT('',(-93.89254141696,33.89123257953,
    49.591003122287));
#668 = LINE('',#669,#670);
#669 = CARTESIAN_POINT('',(-94.30105310441,10.214140281693,
    49.591003122287));
#670 = VECTOR('',#671,1.);
#671 = DIRECTION('',(1.725088928349E-02,0.999851192338,-5.E-16));
#672 = ORIENTED_EDGE('',*,*,#673,.F.);
#673 = EDGE_CURVE('',#674,#666,#676,.T.);
#674 = VERTEX_POINT('',#675);
#675 = CARTESIAN_POINT('',(-87.38993383398,33.779040120965,
    48.739390804246));
#676 = CIRCLE('',#677,54.762500000002);
#677 = AXIS2_PLACEMENT_3D('',#678,#679,#680);
#678 = CARTESIAN_POINT('',(-97.73761042065,33.95757331121,
    -5.036301858962));
#679 = DIRECTION('',(-1.725088928349E-02,-0.999851192338,-4.4E-16));
#680 = DIRECTION('',(-0.999851192338,1.725088928349E-02,1.7E-16));
#681 = ORIENTED_EDGE('',*,*,#682,.T.);
#682 = EDGE_CURVE('',#674,#523,#683,.T.);
#683 = B_SPLINE_CURVE_WITH_KNOTS('',4,(#684,#685,#686,#687,#688),
  .UNSPECIFIED.,.F.,.F.,(5,5),(0.,1.),.PIECEWISE_BEZIER_KNOTS.);
#684 = CARTESIAN_POINT('',(-87.38993383398,33.779040120965,
    48.739390804246));
#685 = CARTESIAN_POINT('',(-87.206793181,33.775880311633,48.704139851933
    ));
#686 = CARTESIAN_POINT('',(-87.02382011181,33.782117842746,
    48.668089554843));
#687 = CARTESIAN_POINT('',(-86.84228181181,33.797697608066,
    48.631487816086));
#688 = CARTESIAN_POINT('',(-86.66339450081,33.822126292455,
    48.594639722789));
#689 = ORIENTED_EDGE('',*,*,#522,.F.);
#690 = CYLINDRICAL_SURFACE('',#691,54.762500000002);
#691 = AXIS2_PLACEMENT_3D('',#692,#693,#694);
#692 = CARTESIAN_POINT('',(-98.14612210811,10.280481013372,
    -5.036301858962));
#693 = DIRECTION('',(-1.725088928349E-02,-0.999851192338,-2.2E-16));
#694 = DIRECTION('',(-0.999851192338,1.725088928349E-02,7.E-17));
#695 = ADVANCED_FACE('',(#696),#707,.F.);
#696 = FACE_BOUND('',#697,.T.);
#697 = EDGE_LOOP('',(#698,#699,#705,#706));
#698 = ORIENTED_EDGE('',*,*,#600,.F.);
#699 = ORIENTED_EDGE('',*,*,#700,.T.);
#700 = EDGE_CURVE('',#592,#674,#701,.T.);
#701 = LINE('',#702,#703);
#702 = CARTESIAN_POINT('',(-87.38993383398,33.779040120965,2.31E-15));
#703 = VECTOR('',#704,1.);
#704 = DIRECTION('',(8.E-17,-2.2E-16,1.));
#705 = ORIENTED_EDGE('',*,*,#682,.T.);
#706 = ORIENTED_EDGE('',*,*,#531,.F.);
#707 = CYLINDRICAL_SURFACE('',#708,4.7625);
#708 = AXIS2_PLACEMENT_3D('',#709,#710,#711);
#709 = CARTESIAN_POINT('',(-87.30777647377,38.540831424473,1.25E-15));
#710 = DIRECTION('',(-9.E-17,-2.2E-16,-1.));
#711 = DIRECTION('',(1.,9.E-17,-9.E-17));
#712 = ADVANCED_FACE('',(#713),#740,.T.);
#713 = FACE_BOUND('',#714,.T.);
#714 = EDGE_LOOP('',(#715,#716,#717,#718,#726,#734));
#715 = ORIENTED_EDGE('',*,*,#572,.F.);
#716 = ORIENTED_EDGE('',*,*,#639,.T.);
#717 = ORIENTED_EDGE('',*,*,#656,.T.);
#718 = ORIENTED_EDGE('',*,*,#719,.F.);
#719 = EDGE_CURVE('',#720,#657,#722,.T.);
#720 = VERTEX_POINT('',#721);
#721 = CARTESIAN_POINT('',(-100.3635541964,18.139286984396,
    50.027350752342));
#722 = LINE('',#723,#724);
#723 = CARTESIAN_POINT('',(-89.19420959393,17.946577180593,
    49.240936609324));
#724 = VECTOR('',#725,1.);
#725 = DIRECTION('',(0.997382807938,-1.720830112006E-02,
    -7.022399022297E-02));
#726 = ORIENTED_EDGE('',*,*,#727,.F.);
#727 = EDGE_CURVE('',#728,#720,#730,.T.);
#728 = VERTEX_POINT('',#729);
#729 = CARTESIAN_POINT('',(-100.3635541964,18.139286984396,
    45.253064224029));
#730 = LINE('',#731,#732);
#731 = CARTESIAN_POINT('',(-100.3635541964,18.139286984396,6.91E-15));
#732 = VECTOR('',#733,1.);
#733 = DIRECTION('',(8.E-17,-2.2E-16,1.));
#734 = ORIENTED_EDGE('',*,*,#735,.T.);
#735 = EDGE_CURVE('',#728,#575,#736,.T.);
#736 = LINE('',#737,#738);
#737 = CARTESIAN_POINT('',(-89.52860157987,17.952346598253,
    44.490194039624));
#738 = VECTOR('',#739,1.);
#739 = DIRECTION('',(0.997382807938,-1.720830112006E-02,
    -7.022399022297E-02));
#740 = PLANE('',#741);
#741 = AXIS2_PLACEMENT_3D('',#742,#743,#744);
#742 = CARTESIAN_POINT('',(-87.66355419646,17.920168083924,5.86E-15));
#743 = DIRECTION('',(-1.725088928349E-02,-0.999851192338,-2.2E-16));
#744 = DIRECTION('',(-0.999851192338,1.725088928349E-02,8.E-17));
#745 = ADVANCED_FACE('',(#746),#773,.F.);
#746 = FACE_BOUND('',#747,.F.);
#747 = EDGE_LOOP('',(#748,#749,#750,#751,#759,#767));
#748 = ORIENTED_EDGE('',*,*,#591,.F.);
#749 = ORIENTED_EDGE('',*,*,#700,.T.);
#750 = ORIENTED_EDGE('',*,*,#673,.T.);
#751 = ORIENTED_EDGE('',*,*,#752,.F.);
#752 = EDGE_CURVE('',#753,#666,#755,.T.);
#753 = VERTEX_POINT('',#754);
#754 = CARTESIAN_POINT('',(-100.0899338339,33.998159021437,
    50.027350752342));
#755 = LINE('',#756,#757);
#756 = CARTESIAN_POINT('',(-88.92058923145,33.805449217634,
    49.240936609324));
#757 = VECTOR('',#758,1.);
#758 = DIRECTION('',(0.997382807938,-1.720830112006E-02,
    -7.022399022297E-02));
#759 = ORIENTED_EDGE('',*,*,#760,.F.);
#760 = EDGE_CURVE('',#761,#753,#763,.T.);
#761 = VERTEX_POINT('',#762);
#762 = CARTESIAN_POINT('',(-100.0899338339,33.998159021437,
    45.253064224029));
#763 = LINE('',#764,#765);
#764 = CARTESIAN_POINT('',(-100.0899338339,33.998159021437,3.36E-15));
#765 = VECTOR('',#766,1.);
#766 = DIRECTION('',(8.E-17,-2.2E-16,1.));
#767 = ORIENTED_EDGE('',*,*,#768,.T.);
#768 = EDGE_CURVE('',#761,#584,#769,.T.);
#769 = LINE('',#770,#771);
#770 = CARTESIAN_POINT('',(-89.25498121739,33.811218635294,
    44.490194039624));
#771 = VECTOR('',#772,1.);
#772 = DIRECTION('',(0.997382807938,-1.720830112006E-02,
    -7.022399022297E-02));
#773 = PLANE('',#774);
#774 = AXIS2_PLACEMENT_3D('',#775,#776,#777);
#775 = CARTESIAN_POINT('',(-87.38993383398,33.779040120965,2.31E-15));
#776 = DIRECTION('',(-1.725088928349E-02,-0.999851192338,-2.2E-16));
#777 = DIRECTION('',(-0.999851192338,1.725088928349E-02,8.E-17));
#778 = ADVANCED_FACE('',(#779),#790,.F.);
#779 = FACE_BOUND('',#780,.F.);
#780 = EDGE_LOOP('',(#781,#782,#783,#784));
#781 = ORIENTED_EDGE('',*,*,#735,.T.);
#782 = ORIENTED_EDGE('',*,*,#583,.T.);
#783 = ORIENTED_EDGE('',*,*,#768,.F.);
#784 = ORIENTED_EDGE('',*,*,#785,.T.);
#785 = EDGE_CURVE('',#761,#728,#786,.T.);
#786 = LINE('',#787,#788);
#787 = CARTESIAN_POINT('',(-100.4309998589,14.230176853997,
    45.253064224029));
#788 = VECTOR('',#789,1.);
#789 = DIRECTION('',(-1.725088928349E-02,-0.999851192338,-1.6E-16));
#790 = PLANE('',#791);
#791 = AXIS2_PLACEMENT_3D('',#792,#793,#794);
#792 = CARTESIAN_POINT('',(-94.63544509035,10.219909699353,
    44.840260552587));
#793 = DIRECTION('',(7.021354035514E-02,-1.211426280382E-03,
    0.997531248231));
#794 = DIRECTION('',(-0.997382807938,1.720830112006E-02,
    7.022399022297E-02));
#795 = ADVANCED_FACE('',(#796),#807,.T.);
#796 = FACE_BOUND('',#797,.T.);
#797 = EDGE_LOOP('',(#798,#799,#800,#801));
#798 = ORIENTED_EDGE('',*,*,#719,.T.);
#799 = ORIENTED_EDGE('',*,*,#665,.T.);
#800 = ORIENTED_EDGE('',*,*,#752,.F.);
#801 = ORIENTED_EDGE('',*,*,#802,.T.);
#802 = EDGE_CURVE('',#753,#720,#803,.T.);
#803 = LINE('',#804,#805);
#804 = CARTESIAN_POINT('',(-100.4309998589,14.230176853997,
    50.027350752342));
#805 = VECTOR('',#806,1.);
#806 = DIRECTION('',(-1.725088928349E-02,-0.999851192338,-1.6E-16));
#807 = PLANE('',#808);
#808 = AXIS2_PLACEMENT_3D('',#809,#810,#811);
#809 = CARTESIAN_POINT('',(-94.30105310441,10.214140281693,
    49.591003122287));
#810 = DIRECTION('',(7.021354035514E-02,-1.211426280382E-03,
    0.997531248231));
#811 = DIRECTION('',(-0.997382807938,1.720830112006E-02,
    7.022399022297E-02));
#812 = ADVANCED_FACE('',(#813),#819,.T.);
#813 = FACE_BOUND('',#814,.T.);
#814 = EDGE_LOOP('',(#815,#816,#817,#818));
#815 = ORIENTED_EDGE('',*,*,#785,.T.);
#816 = ORIENTED_EDGE('',*,*,#727,.T.);
#817 = ORIENTED_EDGE('',*,*,#802,.F.);
#818 = ORIENTED_EDGE('',*,*,#760,.F.);
#819 = PLANE('',#820);
#820 = AXIS2_PLACEMENT_3D('',#821,#822,#823);
#821 = CARTESIAN_POINT('',(-100.3635541964,18.139286984396,6.91E-15));
#822 = DIRECTION('',(-0.999851192338,1.725088928349E-02,9.E-17));
#823 = DIRECTION('',(1.725088928349E-02,0.999851192338,-2.2E-16));
#824 = ( GEOMETRIC_REPRESENTATION_CONTEXT(3) 
GLOBAL_UNCERTAINTY_ASSIGNED_CONTEXT((#828)) GLOBAL_UNIT_ASSIGNED_CONTEXT
((#825,#826,#827)) REPRESENTATION_CONTEXT('Context #1',
  '3D Context with UNIT and UNCERTAINTY') );
#825 = ( LENGTH_UNIT() NAMED_UNIT(*) SI_UNIT(.MILLI.,.METRE.) );
#826 = ( NAMED_UNIT(*) PLANE_ANGLE_UNIT() SI_UNIT($,.RADIAN.) );
#827 = ( NAMED_UNIT(*) SI_UNIT($,.STERADIAN.) SOLID_ANGLE_UNIT() );
#828 = UNCERTAINTY_MEASURE_WITH_UNIT(LENGTH_MEASURE(5.E-05),#825,
  'distance_accuracy_value','confusion accuracy');
#829 = PRODUCT_RELATED_PRODUCT_CATEGORY('part',$,(#7));
#830 = MECHANICAL_DESIGN_GEOMETRIC_PRESENTATION_REPRESENTATION('',(#831)
  ,#824);
#831 = STYLED_ITEM('color',(#832),#15);
#832 = PRESENTATION_STYLE_ASSIGNMENT((#833,#839));
#833 = SURFACE_STYLE_USAGE(.BOTH.,#834);
#834 = SURFACE_SIDE_STYLE('',(#835));
#835 = SURFACE_STYLE_FILL_AREA(#836);
#836 = FILL_AREA_STYLE('',(#837));
#837 = FILL_AREA_STYLE_COLOUR('',#838);
#838 = COLOUR_RGB('',0.968627457133,0.580392170981,0.101960784187);
#839 = CURVE_STYLE('',#840,POSITIVE_LENGTH_MEASURE(0.1),#841);
#840 = DRAUGHTING_PRE_DEFINED_CURVE_FONT('continuous');
#841 = COLOUR_RGB('',9.803921802644E-02,9.803921802644E-02,
  9.803921802644E-02);
ENDSEC;
END-ISO-10303-21;
