ISO-10303-21;
HEADER;
FILE_DESCRIPTION(('FreeCAD Model'),'2;1');
FILE_NAME('Open CASCADE Shape Model','2026-07-15T06:02:00',(''),(''),
  'Open CASCADE STEP processor 7.8','FreeCAD','Unknown');
FILE_SCHEMA(('AUTOMOTIVE_DESIGN { 1 0 10303 214 1 1 1 1 }'));
ENDSEC;
DATA;
#1 = APPLICATION_PROTOCOL_DEFINITION('international standard',
  'automotive_design',2000,#2);
#2 = APPLICATION_CONTEXT(
  'core data for automotive mechanical design processes');
#3 = SHAPE_DEFINITION_REPRESENTATION(#4,#10);
#4 = PRODUCT_DEFINITION_SHAPE('','',#5);
#5 = PRODUCT_DEFINITION('design','',#6,#9);
#6 = PRODUCT_DEFINITION_FORMATION('','',#7);
#7 = PRODUCT('UDH_DriveSide','UDH_DriveSide','',(#8));
#8 = PRODUCT_CONTEXT('',#2,'mechanical');
#9 = PRODUCT_DEFINITION_CONTEXT('part definition',#2,'design');
#10 = ADVANCED_BREP_SHAPE_REPRESENTATION('',(#11,#15),#1284);
#11 = AXIS2_PLACEMENT_3D('',#12,#13,#14);
#12 = CARTESIAN_POINT('',(0.,0.,0.));
#13 = DIRECTION('',(0.,0.,1.));
#14 = DIRECTION('',(1.,0.,-0.));
#15 = MANIFOLD_SOLID_BREP('',#16);
#16 = CLOSED_SHELL('',(#17,#110,#141,#175,#279,#320,#376,#400,#456,#482,
    #531,#548,#590,#614,#639,#663,#723,#748,#773,#791,#816,#833,#845,
    #862,#896,#920,#966,#1024,#1041,#1058,#1107,#1132,#1173,#1190,#1209,
    #1226,#1238,#1255,#1272));
#17 = ADVANCED_FACE('',(#18),#105,.F.);
#18 = FACE_BOUND('',#19,.T.);
#19 = EDGE_LOOP('',(#20,#31,#39,#51,#59,#68,#76,#85,#93));
#20 = ORIENTED_EDGE('',*,*,#21,.F.);
#21 = EDGE_CURVE('',#22,#24,#26,.T.);
#22 = VERTEX_POINT('',#23);
#23 = CARTESIAN_POINT('',(-417.7550148205,24.772430400764,
    80.665391507488));
#24 = VERTEX_POINT('',#25);
#25 = CARTESIAN_POINT('',(-418.0640108083,24.767707011135,
    80.665391507488));
#26 = CIRCLE('',#27,4.7498);
#27 = AXIS2_PLACEMENT_3D('',#28,#29,#30);
#28 = CARTESIAN_POINT('',(-417.8369530945,20.023337207399,
    80.665391507488));
#29 = DIRECTION('',(6.1E-16,-6.1E-16,1.));
#30 = DIRECTION('',(-2.89E-15,1.,6.1E-16));
#31 = ORIENTED_EDGE('',*,*,#32,.F.);
#32 = EDGE_CURVE('',#33,#22,#35,.T.);
#33 = VERTEX_POINT('',#34);
#34 = CARTESIAN_POINT('',(-417.7550148205,24.772430400764,
    91.788949675069));
#35 = LINE('',#36,#37);
#36 = CARTESIAN_POINT('',(-417.7550148205,24.772430400764,
    93.639791507488));
#37 = VECTOR('',#38,1.);
#38 = DIRECTION('',(-9.E-17,9.E-17,-1.));
#39 = ORIENTED_EDGE('',*,*,#40,.F.);
#40 = EDGE_CURVE('',#41,#33,#43,.T.);
#41 = VERTEX_POINT('',#42);
#42 = CARTESIAN_POINT('',(-418.0640108083,24.767707011134,
    93.114951507489));
#43 = B_SPLINE_CURVE_WITH_KNOTS('',6,(#44,#45,#46,#47,#48,#49,#50),
  .UNSPECIFIED.,.F.,.F.,(7,7),(0.,1.),.PIECEWISE_BEZIER_KNOTS.);
#44 = CARTESIAN_POINT('',(-418.0640108083,24.767707011134,
    93.114951507489));
#45 = CARTESIAN_POINT('',(-418.0640108083,24.767707011134,92.8895316326)
  );
#46 = CARTESIAN_POINT('',(-418.0436701572,24.768679993196,
    92.664186491808));
#47 = CARTESIAN_POINT('',(-418.003016049,24.770627714967,92.440025191734
    ));
#48 = CARTESIAN_POINT('',(-417.9417151464,24.772901999259,
    92.218372378685));
#49 = CARTESIAN_POINT('',(-417.8593303174,24.774230203676,
    92.000750128372));
#50 = CARTESIAN_POINT('',(-417.7550148205,24.772430400764,
    91.788949675069));
#51 = ORIENTED_EDGE('',*,*,#52,.T.);
#52 = EDGE_CURVE('',#41,#53,#55,.T.);
#53 = VERTEX_POINT('',#54);
#54 = CARTESIAN_POINT('',(-418.0640108083,24.767707011134,
    93.639791507489));
#55 = LINE('',#56,#57);
#56 = CARTESIAN_POINT('',(-418.0640108083,24.767707011134,
    93.639791507489));
#57 = VECTOR('',#58,1.);
#58 = DIRECTION('',(6.1E-16,-6.1E-16,1.));
#59 = ORIENTED_EDGE('',*,*,#60,.F.);
#60 = EDGE_CURVE('',#61,#53,#63,.T.);
#61 = VERTEX_POINT('',#62);
#62 = CARTESIAN_POINT('',(-419.8070902107,24.345276561818,
    93.639791507489));
#63 = CIRCLE('',#64,4.7498);
#64 = AXIS2_PLACEMENT_3D('',#65,#66,#67);
#65 = CARTESIAN_POINT('',(-417.8369530945,20.023337207399,
    93.639791507488));
#66 = DIRECTION('',(0.,0.,-1.));
#67 = DIRECTION('',(-5.55E-15,1.,0.));
#68 = ORIENTED_EDGE('',*,*,#69,.T.);
#69 = EDGE_CURVE('',#61,#70,#72,.T.);
#70 = VERTEX_POINT('',#71);
#71 = CARTESIAN_POINT('',(-419.8070902107,24.345276561818,
    77.139791507488));
#72 = LINE('',#73,#74);
#73 = CARTESIAN_POINT('',(-419.8070902107,24.345276561818,
    93.639791507488));
#74 = VECTOR('',#75,1.);
#75 = DIRECTION('',(-9.E-17,9.E-17,-1.));
#76 = ORIENTED_EDGE('',*,*,#77,.T.);
#77 = EDGE_CURVE('',#70,#78,#80,.T.);
#78 = VERTEX_POINT('',#79);
#79 = CARTESIAN_POINT('',(-418.0640108083,24.767707011134,
    77.139791507488));
#80 = CIRCLE('',#81,4.7498);
#81 = AXIS2_PLACEMENT_3D('',#82,#83,#84);
#82 = CARTESIAN_POINT('',(-417.8369530945,20.023337207399,
    77.139791507488));
#83 = DIRECTION('',(0.,0.,-1.));
#84 = DIRECTION('',(-5.55E-15,1.,0.));
#85 = ORIENTED_EDGE('',*,*,#86,.T.);
#86 = EDGE_CURVE('',#78,#87,#89,.T.);
#87 = VERTEX_POINT('',#88);
#88 = CARTESIAN_POINT('',(-418.0640108083,24.767707011134,
    77.664631507488));
#89 = LINE('',#90,#91);
#90 = CARTESIAN_POINT('',(-418.0640108083,24.767707011134,
    93.639791507489));
#91 = VECTOR('',#92,1.);
#92 = DIRECTION('',(6.1E-16,-6.1E-16,1.));
#93 = ORIENTED_EDGE('',*,*,#94,.T.);
#94 = EDGE_CURVE('',#87,#95,#97,.T.);
#95 = VERTEX_POINT('',#96);
#96 = CARTESIAN_POINT('',(-417.7550148205,24.772430400764,
    78.990633339908));
#97 = B_SPLINE_CURVE_WITH_KNOTS('',6,(#98,#99,#100,#101,#102,#103,#104),
  .UNSPECIFIED.,.F.,.F.,(7,7),(0.,1.),.PIECEWISE_BEZIER_KNOTS.);
#98 = CARTESIAN_POINT('',(-418.0640108083,24.767707011134,
    77.664631507488));
#99 = CARTESIAN_POINT('',(-418.0640108083,24.767707011134,
    77.890051359401));
#100 = CARTESIAN_POINT('',(-418.043670161,24.768679992729,
    78.115396543549));
#101 = CARTESIAN_POINT('',(-418.0030160404,24.770627716309,
    78.339557860485));
#102 = CARTESIAN_POINT('',(-417.9417151348,24.772901998372,
    78.56121064967));
#103 = CARTESIAN_POINT('',(-417.8593303282,24.774230203861,
    78.778832864799));
#104 = CARTESIAN_POINT('',(-417.7550148205,24.772430400764,
    78.990633339908));
#105 = CYLINDRICAL_SURFACE('',#106,4.7498);
#106 = AXIS2_PLACEMENT_3D('',#107,#108,#109);
#107 = CARTESIAN_POINT('',(-417.8369530945,20.023337207399,
    93.639791507488));
#108 = DIRECTION('',(9.E-17,-9.E-17,1.));
#109 = DIRECTION('',(-5.55E-15,1.,9.E-17));
#110 = ADVANCED_FACE('',(#111),#136,.T.);
#111 = FACE_BOUND('',#112,.T.);
#112 = EDGE_LOOP('',(#113,#114,#122,#130));
#113 = ORIENTED_EDGE('',*,*,#52,.F.);
#114 = ORIENTED_EDGE('',*,*,#115,.F.);
#115 = EDGE_CURVE('',#116,#41,#118,.T.);
#116 = VERTEX_POINT('',#117);
#117 = CARTESIAN_POINT('',(-417.8301311413,38.323232183077,
    93.114951507489));
#118 = LINE('',#119,#120);
#119 = CARTESIAN_POINT('',(-417.8301311413,38.323232183077,
    93.114951507489));
#120 = VECTOR('',#121,1.);
#121 = DIRECTION('',(-1.725088928349E-02,-0.999851192338,-4.3E-16));
#122 = ORIENTED_EDGE('',*,*,#123,.T.);
#123 = EDGE_CURVE('',#116,#124,#126,.T.);
#124 = VERTEX_POINT('',#125);
#125 = CARTESIAN_POINT('',(-417.8301311413,38.323232183077,
    93.639791507489));
#126 = LINE('',#127,#128);
#127 = CARTESIAN_POINT('',(-417.8301311413,38.323232183077,
    90.114191507488));
#128 = VECTOR('',#129,1.);
#129 = DIRECTION('',(9.E-17,-9.E-17,1.));
#130 = ORIENTED_EDGE('',*,*,#131,.T.);
#131 = EDGE_CURVE('',#124,#53,#132,.T.);
#132 = LINE('',#133,#134);
#133 = CARTESIAN_POINT('',(-418.0638373826,24.777758657477,
    93.639791507489));
#134 = VECTOR('',#135,1.);
#135 = DIRECTION('',(-1.725088928349E-02,-0.999851192338,-4.3E-16));
#136 = PLANE('',#137);
#137 = AXIS2_PLACEMENT_3D('',#138,#139,#140);
#138 = CARTESIAN_POINT('',(-417.9470709748,31.545469597106,
    91.876991507489));
#139 = DIRECTION('',(0.999851192338,-1.725088928349E-02,-1.279E-14));
#140 = DIRECTION('',(1.725088928349E-02,0.999851192338,0.));
#141 = ADVANCED_FACE('',(#142),#170,.F.);
#142 = FACE_BOUND('',#143,.F.);
#143 = EDGE_LOOP('',(#144,#145,#146,#155,#163));
#144 = ORIENTED_EDGE('',*,*,#40,.F.);
#145 = ORIENTED_EDGE('',*,*,#115,.F.);
#146 = ORIENTED_EDGE('',*,*,#147,.T.);
#147 = EDGE_CURVE('',#116,#148,#150,.T.);
#148 = VERTEX_POINT('',#149);
#149 = CARTESIAN_POINT('',(-414.8298176774,38.271466404551,
    90.114191507489));
#150 = CIRCLE('',#151,3.00076);
#151 = AXIS2_PLACEMENT_3D('',#152,#153,#154);
#152 = CARTESIAN_POINT('',(-414.8298176774,38.271466404551,
    93.114951507488));
#153 = DIRECTION('',(-1.725088928349E-02,-0.999851192338,-4.3E-16));
#154 = DIRECTION('',(-0.999851192338,1.725088928349E-02,0.));
#155 = ORIENTED_EDGE('',*,*,#156,.T.);
#156 = EDGE_CURVE('',#148,#157,#159,.T.);
#157 = VERTEX_POINT('',#158);
#158 = CARTESIAN_POINT('',(-415.0635239187,24.72599287895,
    90.114191507489));
#159 = LINE('',#160,#161);
#160 = CARTESIAN_POINT('',(-414.8298176774,38.271466404551,
    90.114191507488));
#161 = VECTOR('',#162,1.);
#162 = DIRECTION('',(-1.725088928349E-02,-0.999851192338,-4.3E-16));
#163 = ORIENTED_EDGE('',*,*,#164,.F.);
#164 = EDGE_CURVE('',#33,#157,#165,.T.);
#165 = CIRCLE('',#166,3.00076);
#166 = AXIS2_PLACEMENT_3D('',#167,#168,#169);
#167 = CARTESIAN_POINT('',(-415.0635239187,24.72599287895,
    93.114951507488));
#168 = DIRECTION('',(-1.725088928349E-02,-0.999851192338,-4.3E-16));
#169 = DIRECTION('',(-0.999851192338,1.725088928349E-02,0.));
#170 = CYLINDRICAL_SURFACE('',#171,3.00076);
#171 = AXIS2_PLACEMENT_3D('',#172,#173,#174);
#172 = CARTESIAN_POINT('',(-414.8298176774,38.271466404551,
    93.114951507488));
#173 = DIRECTION('',(-1.725088928349E-02,-0.999851192338,-4.3E-16));
#174 = DIRECTION('',(-0.999851192338,1.725088928349E-02,1.279E-14));
#175 = ADVANCED_FACE('',(#176,#263),#274,.T.);
#176 = FACE_BOUND('',#177,.T.);
#177 = EDGE_LOOP('',(#178,#186,#187,#188,#196,#205,#214,#223,#231,#239,
    #248,#256));
#178 = ORIENTED_EDGE('',*,*,#179,.F.);
#179 = EDGE_CURVE('',#61,#180,#182,.T.);
#180 = VERTEX_POINT('',#181);
#181 = CARTESIAN_POINT('',(-436.948686055,16.531355209669,
    93.639791507489));
#182 = LINE('',#183,#184);
#183 = CARTESIAN_POINT('',(-419.8070902107,24.345276561818,
    93.639791507488));
#184 = VECTOR('',#185,1.);
#185 = DIRECTION('',(-0.909920281784,-0.414783173234,0.));
#186 = ORIENTED_EDGE('',*,*,#60,.T.);
#187 = ORIENTED_EDGE('',*,*,#131,.F.);
#188 = ORIENTED_EDGE('',*,*,#189,.T.);
#189 = EDGE_CURVE('',#124,#190,#192,.T.);
#190 = VERTEX_POINT('',#191);
#191 = CARTESIAN_POINT('',(-419.4066675261,38.350432885377,
    93.639791507489));
#192 = LINE('',#193,#194);
#193 = CARTESIAN_POINT('',(-403.5316675261,38.076534259787,
    93.639791507488));
#194 = VECTOR('',#195,1.);
#195 = DIRECTION('',(-0.999851192338,1.725088928349E-02,0.));
#196 = ORIENTED_EDGE('',*,*,#197,.T.);
#197 = EDGE_CURVE('',#190,#198,#200,.T.);
#198 = VERTEX_POINT('',#199);
#199 = CARTESIAN_POINT('',(-423.656459462,41.151010379708,
    93.639791507489));
#200 = CIRCLE('',#201,4.7498);
#201 = AXIS2_PLACEMENT_3D('',#202,#203,#204);
#202 = CARTESIAN_POINT('',(-419.3247292522,43.099526078742,
    93.639791507488));
#203 = DIRECTION('',(0.,0.,-1.));
#204 = DIRECTION('',(-5.55E-15,1.,0.));
#205 = ORIENTED_EDGE('',*,*,#206,.F.);
#206 = EDGE_CURVE('',#207,#198,#209,.T.);
#207 = VERTEX_POINT('',#208);
#208 = CARTESIAN_POINT('',(-424.16216863,42.017128409457,93.639791507489
    ));
#209 = CIRCLE('',#210,4.7498);
#210 = AXIS2_PLACEMENT_3D('',#211,#212,#213);
#211 = CARTESIAN_POINT('',(-427.9881896718,39.202494680674,
    93.639791507488));
#212 = DIRECTION('',(0.,0.,-1.));
#213 = DIRECTION('',(-5.55E-15,1.,0.));
#214 = ORIENTED_EDGE('',*,*,#215,.T.);
#215 = EDGE_CURVE('',#207,#216,#218,.T.);
#216 = VERTEX_POINT('',#217);
#217 = CARTESIAN_POINT('',(-422.3760002235,49.121237778189,
    93.639791507489));
#218 = CIRCLE('',#219,4.7498);
#219 = AXIS2_PLACEMENT_3D('',#220,#221,#222);
#220 = CARTESIAN_POINT('',(-420.3361475881,44.831762138242,
    93.639791507488));
#221 = DIRECTION('',(0.,0.,-1.));
#222 = DIRECTION('',(-5.55E-15,1.,0.));
#223 = ORIENTED_EDGE('',*,*,#224,.F.);
#224 = EDGE_CURVE('',#225,#216,#227,.T.);
#225 = VERTEX_POINT('',#226);
#226 = CARTESIAN_POINT('',(-426.7546337334,58.546528065939,
    93.639791507489));
#227 = LINE('',#228,#229);
#228 = CARTESIAN_POINT('',(-421.0888268447,46.350514282062,
    93.639791507488));
#229 = VECTOR('',#230,1.);
#230 = DIRECTION('',(0.421317571193,-0.906913173465,-3.5E-16));
#231 = ORIENTED_EDGE('',*,*,#232,.F.);
#232 = EDGE_CURVE('',#233,#225,#235,.T.);
#233 = VERTEX_POINT('',#234);
#234 = CARTESIAN_POINT('',(-426.8390827172,58.506368499429,
    93.639791507489));
#235 = LINE('',#236,#237);
#236 = CARTESIAN_POINT('',(-426.8390827172,58.506368499429,
    93.639791507488));
#237 = VECTOR('',#238,1.);
#238 = DIRECTION('',(0.903085527801,0.429460742649,0.));
#239 = ORIENTED_EDGE('',*,*,#240,.T.);
#240 = EDGE_CURVE('',#233,#241,#243,.T.);
#241 = VERTEX_POINT('',#242);
#242 = CARTESIAN_POINT('',(-426.9087982364,58.473904784958,
    93.639791507489));
#243 = CIRCLE('',#244,4.7498);
#244 = AXIS2_PLACEMENT_3D('',#245,#246,#247);
#245 = CARTESIAN_POINT('',(-428.8789353526,62.795844139377,
    93.639791507488));
#246 = DIRECTION('',(0.,0.,-1.));
#247 = DIRECTION('',(-5.55E-15,1.,0.));
#248 = ORIENTED_EDGE('',*,*,#249,.F.);
#249 = EDGE_CURVE('',#250,#241,#252,.T.);
#250 = VERTEX_POINT('',#251);
#251 = CARTESIAN_POINT('',(-451.0513139449,47.468644790332,
    93.639791507489));
#252 = LINE('',#253,#254);
#253 = CARTESIAN_POINT('',(-451.0513139449,47.468644790332,
    93.639791507488));
#254 = VECTOR('',#255,1.);
#255 = DIRECTION('',(0.909920281784,0.414783173234,0.));
#256 = ORIENTED_EDGE('',*,*,#257,.F.);
#257 = EDGE_CURVE('',#180,#250,#258,.T.);
#258 = CIRCLE('',#259,17.);
#259 = AXIS2_PLACEMENT_3D('',#260,#261,#262);
#260 = CARTESIAN_POINT('',(-444.,32.,93.639791507488));
#261 = DIRECTION('',(0.,0.,-1.));
#262 = DIRECTION('',(-5.55E-15,1.,0.));
#263 = FACE_BOUND('',#264,.T.);
#264 = EDGE_LOOP('',(#265));
#265 = ORIENTED_EDGE('',*,*,#266,.T.);
#266 = EDGE_CURVE('',#267,#267,#269,.T.);
#267 = VERTEX_POINT('',#268);
#268 = CARTESIAN_POINT('',(-444.,42.,93.639791507489));
#269 = CIRCLE('',#270,10.);
#270 = AXIS2_PLACEMENT_3D('',#271,#272,#273);
#271 = CARTESIAN_POINT('',(-444.,32.,93.639791507488));
#272 = DIRECTION('',(0.,0.,-1.));
#273 = DIRECTION('',(-5.55E-15,1.,0.));
#274 = PLANE('',#275);
#275 = AXIS2_PLACEMENT_3D('',#276,#277,#278);
#276 = CARTESIAN_POINT('',(-430.6514506931,38.53938521074,
    93.639791507488));
#277 = DIRECTION('',(0.,0.,1.));
#278 = DIRECTION('',(1.,-2.2E-16,0.));
#279 = ADVANCED_FACE('',(#280),#315,.T.);
#280 = FACE_BOUND('',#281,.T.);
#281 = EDGE_LOOP('',(#282,#291,#299,#307,#313,#314));
#282 = ORIENTED_EDGE('',*,*,#283,.T.);
#283 = EDGE_CURVE('',#95,#284,#286,.T.);
#284 = VERTEX_POINT('',#285);
#285 = CARTESIAN_POINT('',(-415.0635239187,24.725992878951,
    80.665391507488));
#286 = CIRCLE('',#287,3.00076);
#287 = AXIS2_PLACEMENT_3D('',#288,#289,#290);
#288 = CARTESIAN_POINT('',(-415.0635239187,24.72599287895,
    77.664631507488));
#289 = DIRECTION('',(1.725088928349E-02,0.999851192338,5.1E-16));
#290 = DIRECTION('',(0.999851192338,-1.725088928349E-02,0.));
#291 = ORIENTED_EDGE('',*,*,#292,.T.);
#292 = EDGE_CURVE('',#284,#293,#295,.T.);
#293 = VERTEX_POINT('',#294);
#294 = CARTESIAN_POINT('',(-403.7653737675,24.531060734186,
    80.665391507488));
#295 = LINE('',#296,#297);
#296 = CARTESIAN_POINT('',(-418.0638373826,24.777758657477,
    80.665391507488));
#297 = VECTOR('',#298,1.);
#298 = DIRECTION('',(0.999851192338,-1.725088928349E-02,-1.8E-16));
#299 = ORIENTED_EDGE('',*,*,#300,.F.);
#300 = EDGE_CURVE('',#301,#293,#303,.T.);
#301 = VERTEX_POINT('',#302);
#302 = CARTESIAN_POINT('',(-403.7653737675,24.531060734186,
    90.114191507488));
#303 = LINE('',#304,#305);
#304 = CARTESIAN_POINT('',(-403.7653737675,24.531060734187,
    93.639791507488));
#305 = VECTOR('',#306,1.);
#306 = DIRECTION('',(-9.E-17,9.E-17,-1.));
#307 = ORIENTED_EDGE('',*,*,#308,.F.);
#308 = EDGE_CURVE('',#157,#301,#309,.T.);
#309 = LINE('',#310,#311);
#310 = CARTESIAN_POINT('',(-418.0638373826,24.777758657477,
    90.114191507488));
#311 = VECTOR('',#312,1.);
#312 = DIRECTION('',(0.999851192338,-1.725088928349E-02,0.));
#313 = ORIENTED_EDGE('',*,*,#164,.F.);
#314 = ORIENTED_EDGE('',*,*,#32,.T.);
#315 = PLANE('',#316);
#316 = AXIS2_PLACEMENT_3D('',#317,#318,#319);
#317 = CARTESIAN_POINT('',(-417.7550148205,24.772430400764,
    93.639791507488));
#318 = DIRECTION('',(-1.725088928349E-02,-0.999851192338,-9.E-17));
#319 = DIRECTION('',(0.999851192338,-1.725088928349E-02,-9.E-17));
#320 = ADVANCED_FACE('',(#321),#371,.T.);
#321 = FACE_BOUND('',#322,.T.);
#322 = EDGE_LOOP('',(#323,#324,#325,#333,#341,#349,#357,#365));
#323 = ORIENTED_EDGE('',*,*,#69,.F.);
#324 = ORIENTED_EDGE('',*,*,#179,.T.);
#325 = ORIENTED_EDGE('',*,*,#326,.T.);
#326 = EDGE_CURVE('',#180,#327,#329,.T.);
#327 = VERTEX_POINT('',#328);
#328 = CARTESIAN_POINT('',(-436.948686055,16.531355209669,
    81.139791507488));
#329 = LINE('',#330,#331);
#330 = CARTESIAN_POINT('',(-436.948686055,16.531355209669,
    93.639791507488));
#331 = VECTOR('',#332,1.);
#332 = DIRECTION('',(-9.E-17,9.E-17,-1.));
#333 = ORIENTED_EDGE('',*,*,#334,.F.);
#334 = EDGE_CURVE('',#335,#327,#337,.T.);
#335 = VERTEX_POINT('',#336);
#336 = CARTESIAN_POINT('',(-422.2974391303,23.21006191938,
    81.139791507488));
#337 = LINE('',#338,#339);
#338 = CARTESIAN_POINT('',(-446.1141718304,12.353308681552,
    81.139791507488));
#339 = VECTOR('',#340,1.);
#340 = DIRECTION('',(-0.909920281784,-0.414783173234,4.E-17));
#341 = ORIENTED_EDGE('',*,*,#342,.F.);
#342 = EDGE_CURVE('',#343,#335,#345,.T.);
#343 = VERTEX_POINT('',#344);
#344 = CARTESIAN_POINT('',(-422.2974391303,23.21006191938,
    73.139791507488));
#345 = LINE('',#346,#347);
#346 = CARTESIAN_POINT('',(-422.2974391303,23.21006191938,
    77.139791507488));
#347 = VECTOR('',#348,1.);
#348 = DIRECTION('',(9.E-17,-9.E-17,1.));
#349 = ORIENTED_EDGE('',*,*,#350,.T.);
#350 = EDGE_CURVE('',#343,#351,#353,.T.);
#351 = VERTEX_POINT('',#352);
#352 = CARTESIAN_POINT('',(-421.6269307742,23.515710215348,
    73.139791507488));
#353 = LINE('',#354,#355);
#354 = CARTESIAN_POINT('',(-422.2974391303,23.21006191938,
    73.139791507488));
#355 = VECTOR('',#356,1.);
#356 = DIRECTION('',(0.909920281786,0.414783173231,0.));
#357 = ORIENTED_EDGE('',*,*,#358,.F.);
#358 = EDGE_CURVE('',#359,#351,#361,.T.);
#359 = VERTEX_POINT('',#360);
#360 = CARTESIAN_POINT('',(-421.6269307742,23.515710215348,
    77.139791507488));
#361 = LINE('',#362,#363);
#362 = CARTESIAN_POINT('',(-421.6269307742,23.515710215348,
    77.139791507488));
#363 = VECTOR('',#364,1.);
#364 = DIRECTION('',(-9.E-17,9.E-17,-1.));
#365 = ORIENTED_EDGE('',*,*,#366,.F.);
#366 = EDGE_CURVE('',#70,#359,#367,.T.);
#367 = LINE('',#368,#369);
#368 = CARTESIAN_POINT('',(-419.8070902107,24.345276561818,
    77.139791507488));
#369 = VECTOR('',#370,1.);
#370 = DIRECTION('',(-0.909920281784,-0.414783173234,0.));
#371 = PLANE('',#372);
#372 = AXIS2_PLACEMENT_3D('',#373,#374,#375);
#373 = CARTESIAN_POINT('',(-427.7255305739,20.735690220371,
    84.310093513269));
#374 = DIRECTION('',(0.414783173234,-0.909920281784,1.679E-14));
#375 = DIRECTION('',(-0.909920281784,-0.414783173234,0.));
#376 = ADVANCED_FACE('',(#377),#395,.F.);
#377 = FACE_BOUND('',#378,.F.);
#378 = EDGE_LOOP('',(#379,#380,#381,#389));
#379 = ORIENTED_EDGE('',*,*,#366,.F.);
#380 = ORIENTED_EDGE('',*,*,#77,.T.);
#381 = ORIENTED_EDGE('',*,*,#382,.T.);
#382 = EDGE_CURVE('',#78,#383,#385,.T.);
#383 = VERTEX_POINT('',#384);
#384 = CARTESIAN_POINT('',(-418.0084545055,27.987716986491,
    77.139791507488));
#385 = LINE('',#386,#387);
#386 = CARTESIAN_POINT('',(-417.9470278921,31.547966645824,
    77.139791507488));
#387 = VECTOR('',#388,1.);
#388 = DIRECTION('',(1.725088928349E-02,0.999851192338,6.E-16));
#389 = ORIENTED_EDGE('',*,*,#390,.F.);
#390 = EDGE_CURVE('',#359,#383,#391,.T.);
#391 = LINE('',#392,#393);
#392 = CARTESIAN_POINT('',(-421.6269307742,23.515710215348,
    77.139791507488));
#393 = VECTOR('',#394,1.);
#394 = DIRECTION('',(0.629017617947,0.777391044657,0.));
#395 = PLANE('',#396);
#396 = AXIS2_PLACEMENT_3D('',#397,#398,#399);
#397 = CARTESIAN_POINT('',(-430.6514506931,38.53938521074,
    77.139791507488));
#398 = DIRECTION('',(0.,0.,1.));
#399 = DIRECTION('',(1.,-2.2E-16,0.));
#400 = ADVANCED_FACE('',(#401),#451,.T.);
#401 = FACE_BOUND('',#402,.T.);
#402 = EDGE_LOOP('',(#403,#413,#419,#420,#421,#429,#437,#445));
#403 = ORIENTED_EDGE('',*,*,#404,.F.);
#404 = EDGE_CURVE('',#405,#407,#409,.T.);
#405 = VERTEX_POINT('',#406);
#406 = CARTESIAN_POINT('',(-417.8301311413,38.323232183078,
    77.664631507488));
#407 = VERTEX_POINT('',#408);
#408 = CARTESIAN_POINT('',(-417.8301311413,38.323232183077,
    77.139791507488));
#409 = LINE('',#410,#411);
#410 = CARTESIAN_POINT('',(-417.8301311413,38.323232183077,
    80.665391507488));
#411 = VECTOR('',#412,1.);
#412 = DIRECTION('',(-2.6E-16,2.6E-16,-1.));
#413 = ORIENTED_EDGE('',*,*,#414,.F.);
#414 = EDGE_CURVE('',#87,#405,#415,.T.);
#415 = LINE('',#416,#417);
#416 = CARTESIAN_POINT('',(-418.0640108083,24.767707011134,
    77.664631507488));
#417 = VECTOR('',#418,1.);
#418 = DIRECTION('',(1.725088928349E-02,0.999851192338,5.1E-16));
#419 = ORIENTED_EDGE('',*,*,#86,.F.);
#420 = ORIENTED_EDGE('',*,*,#382,.T.);
#421 = ORIENTED_EDGE('',*,*,#422,.F.);
#422 = EDGE_CURVE('',#423,#383,#425,.T.);
#423 = VERTEX_POINT('',#424);
#424 = CARTESIAN_POINT('',(-418.0084545055,27.987716986491,
    73.139791507488));
#425 = LINE('',#426,#427);
#426 = CARTESIAN_POINT('',(-418.0084545055,27.987716986491,
    78.902591507488));
#427 = VECTOR('',#428,1.);
#428 = DIRECTION('',(1.7E-16,-1.7E-16,1.));
#429 = ORIENTED_EDGE('',*,*,#430,.T.);
#430 = EDGE_CURVE('',#423,#431,#433,.T.);
#431 = VERTEX_POINT('',#432);
#432 = CARTESIAN_POINT('',(-417.8998310222,34.28346890166,
    73.139791507488));
#433 = LINE('',#434,#435);
#434 = CARTESIAN_POINT('',(-418.0166186564,27.514527698091,
    73.139791507488));
#435 = VECTOR('',#436,1.);
#436 = DIRECTION('',(1.725088928349E-02,0.999851192338,1.7E-16));
#437 = ORIENTED_EDGE('',*,*,#438,.T.);
#438 = EDGE_CURVE('',#431,#439,#441,.T.);
#439 = VERTEX_POINT('',#440);
#440 = CARTESIAN_POINT('',(-417.8998310222,34.28346890166,
    77.139791507488));
#441 = LINE('',#442,#443);
#442 = CARTESIAN_POINT('',(-417.8998310222,34.28346890166,
    78.902591507488));
#443 = VECTOR('',#444,1.);
#444 = DIRECTION('',(1.7E-16,-1.7E-16,1.));
#445 = ORIENTED_EDGE('',*,*,#446,.T.);
#446 = EDGE_CURVE('',#439,#407,#447,.T.);
#447 = LINE('',#448,#449);
#448 = CARTESIAN_POINT('',(-417.9470278921,31.547966645824,
    77.139791507488));
#449 = VECTOR('',#450,1.);
#450 = DIRECTION('',(1.725088928349E-02,0.999851192338,2.6E-16));
#451 = PLANE('',#452);
#452 = AXIS2_PLACEMENT_3D('',#453,#454,#455);
#453 = CARTESIAN_POINT('',(-417.9484126702,31.467705734277,
    77.591374375589));
#454 = DIRECTION('',(0.999851192338,-1.725088928349E-02,4.16E-15));
#455 = DIRECTION('',(1.725088928349E-02,0.999851192338,0.));
#456 = ADVANCED_FACE('',(#457),#477,.F.);
#457 = FACE_BOUND('',#458,.F.);
#458 = EDGE_LOOP('',(#459,#460,#461,#469,#476));
#459 = ORIENTED_EDGE('',*,*,#94,.T.);
#460 = ORIENTED_EDGE('',*,*,#283,.T.);
#461 = ORIENTED_EDGE('',*,*,#462,.T.);
#462 = EDGE_CURVE('',#284,#463,#465,.T.);
#463 = VERTEX_POINT('',#464);
#464 = CARTESIAN_POINT('',(-414.8298176774,38.271466404551,
    80.665391507488));
#465 = LINE('',#466,#467);
#466 = CARTESIAN_POINT('',(-415.0636973444,24.715941232608,
    80.665391507488));
#467 = VECTOR('',#468,1.);
#468 = DIRECTION('',(1.725088928349E-02,0.999851192338,5.1E-16));
#469 = ORIENTED_EDGE('',*,*,#470,.F.);
#470 = EDGE_CURVE('',#405,#463,#471,.T.);
#471 = CIRCLE('',#472,3.00076);
#472 = AXIS2_PLACEMENT_3D('',#473,#474,#475);
#473 = CARTESIAN_POINT('',(-414.8298176774,38.271466404551,
    77.664631507488));
#474 = DIRECTION('',(1.725088928349E-02,0.999851192338,5.1E-16));
#475 = DIRECTION('',(0.999851192338,-1.725088928349E-02,0.));
#476 = ORIENTED_EDGE('',*,*,#414,.F.);
#477 = CYLINDRICAL_SURFACE('',#478,3.00076);
#478 = AXIS2_PLACEMENT_3D('',#479,#480,#481);
#479 = CARTESIAN_POINT('',(-415.0636973444,24.715941232608,
    77.664631507488));
#480 = DIRECTION('',(1.725088928349E-02,0.999851192338,5.1E-16));
#481 = DIRECTION('',(-0.999851192338,1.725088928349E-02,-4.16E-15));
#482 = ADVANCED_FACE('',(#483),#526,.T.);
#483 = FACE_BOUND('',#484,.T.);
#484 = EDGE_LOOP('',(#485,#486,#487,#495,#503,#509,#510,#511,#519,#525)
  );
#485 = ORIENTED_EDGE('',*,*,#123,.F.);
#486 = ORIENTED_EDGE('',*,*,#147,.T.);
#487 = ORIENTED_EDGE('',*,*,#488,.T.);
#488 = EDGE_CURVE('',#148,#489,#491,.T.);
#489 = VERTEX_POINT('',#490);
#490 = CARTESIAN_POINT('',(-403.5316675261,38.076534259787,
    90.114191507489));
#491 = LINE('',#492,#493);
#492 = CARTESIAN_POINT('',(-417.8301311413,38.323232183078,
    90.114191507488));
#493 = VECTOR('',#494,1.);
#494 = DIRECTION('',(0.999851192338,-1.725088928349E-02,0.));
#495 = ORIENTED_EDGE('',*,*,#496,.T.);
#496 = EDGE_CURVE('',#489,#497,#499,.T.);
#497 = VERTEX_POINT('',#498);
#498 = CARTESIAN_POINT('',(-403.5316675261,38.076534259787,
    80.665391507488));
#499 = LINE('',#500,#501);
#500 = CARTESIAN_POINT('',(-403.5316675261,38.076534259787,
    93.639791507488));
#501 = VECTOR('',#502,1.);
#502 = DIRECTION('',(-9.E-17,9.E-17,-1.));
#503 = ORIENTED_EDGE('',*,*,#504,.F.);
#504 = EDGE_CURVE('',#463,#497,#505,.T.);
#505 = LINE('',#506,#507);
#506 = CARTESIAN_POINT('',(-417.8301311413,38.323232183078,
    80.665391507488));
#507 = VECTOR('',#508,1.);
#508 = DIRECTION('',(0.999851192338,-1.725088928349E-02,-1.8E-16));
#509 = ORIENTED_EDGE('',*,*,#470,.F.);
#510 = ORIENTED_EDGE('',*,*,#404,.T.);
#511 = ORIENTED_EDGE('',*,*,#512,.T.);
#512 = EDGE_CURVE('',#407,#513,#515,.T.);
#513 = VERTEX_POINT('',#514);
#514 = CARTESIAN_POINT('',(-419.4066675261,38.350432885377,
    77.139791507488));
#515 = LINE('',#516,#517);
#516 = CARTESIAN_POINT('',(-403.5316675261,38.076534259787,
    77.139791507488));
#517 = VECTOR('',#518,1.);
#518 = DIRECTION('',(-0.999851192338,1.725088928349E-02,0.));
#519 = ORIENTED_EDGE('',*,*,#520,.F.);
#520 = EDGE_CURVE('',#190,#513,#521,.T.);
#521 = LINE('',#522,#523);
#522 = CARTESIAN_POINT('',(-419.4066675261,38.350432885377,
    93.639791507488));
#523 = VECTOR('',#524,1.);
#524 = DIRECTION('',(-9.E-17,9.E-17,-1.));
#525 = ORIENTED_EDGE('',*,*,#189,.F.);
#526 = PLANE('',#527);
#527 = AXIS2_PLACEMENT_3D('',#528,#529,#530);
#528 = CARTESIAN_POINT('',(-403.5316675261,38.076534259787,
    93.639791507488));
#529 = DIRECTION('',(1.725088928349E-02,0.999851192338,9.E-17));
#530 = DIRECTION('',(-0.999851192338,1.725088928349E-02,9.E-17));
#531 = ADVANCED_FACE('',(#532),#543,.T.);
#532 = FACE_BOUND('',#533,.T.);
#533 = EDGE_LOOP('',(#534,#535,#541,#542));
#534 = ORIENTED_EDGE('',*,*,#308,.T.);
#535 = ORIENTED_EDGE('',*,*,#536,.T.);
#536 = EDGE_CURVE('',#301,#489,#537,.T.);
#537 = LINE('',#538,#539);
#538 = CARTESIAN_POINT('',(-403.7653737675,24.531060734187,
    90.114191507488));
#539 = VECTOR('',#540,1.);
#540 = DIRECTION('',(1.725088928349E-02,0.999851192338,0.));
#541 = ORIENTED_EDGE('',*,*,#488,.F.);
#542 = ORIENTED_EDGE('',*,*,#156,.T.);
#543 = PLANE('',#544);
#544 = AXIS2_PLACEMENT_3D('',#545,#546,#547);
#545 = CARTESIAN_POINT('',(-410.7990914314,31.425900619766,
    90.114191507488));
#546 = DIRECTION('',(4.3E-16,-4.E-16,1.));
#547 = DIRECTION('',(-1.,-2.2E-16,4.3E-16));
#548 = ADVANCED_FACE('',(#549),#585,.T.);
#549 = FACE_BOUND('',#550,.F.);
#550 = EDGE_LOOP('',(#551,#552,#553,#562,#570,#579));
#551 = ORIENTED_EDGE('',*,*,#257,.F.);
#552 = ORIENTED_EDGE('',*,*,#326,.T.);
#553 = ORIENTED_EDGE('',*,*,#554,.F.);
#554 = EDGE_CURVE('',#555,#327,#557,.T.);
#555 = VERTEX_POINT('',#556);
#556 = CARTESIAN_POINT('',(-458.4282032302,40.990381056767,
    81.139791507488));
#557 = CIRCLE('',#558,17.);
#558 = AXIS2_PLACEMENT_3D('',#559,#560,#561);
#559 = CARTESIAN_POINT('',(-444.,32.,81.139791507488));
#560 = DIRECTION('',(3.5E-16,-3.5E-16,1.));
#561 = DIRECTION('',(-4.22E-15,1.,3.5E-16));
#562 = ORIENTED_EDGE('',*,*,#563,.F.);
#563 = EDGE_CURVE('',#564,#555,#566,.T.);
#564 = VERTEX_POINT('',#565);
#565 = CARTESIAN_POINT('',(-458.4282032302,40.990381056767,
    77.139791507488));
#566 = LINE('',#567,#568);
#567 = CARTESIAN_POINT('',(-458.4282032302,40.990381056767,
    93.639791507488));
#568 = VECTOR('',#569,1.);
#569 = DIRECTION('',(3.5E-16,-3.5E-16,1.));
#570 = ORIENTED_EDGE('',*,*,#571,.T.);
#571 = EDGE_CURVE('',#564,#572,#574,.T.);
#572 = VERTEX_POINT('',#573);
#573 = CARTESIAN_POINT('',(-451.0513139449,47.468644790332,
    77.139791507489));
#574 = CIRCLE('',#575,17.);
#575 = AXIS2_PLACEMENT_3D('',#576,#577,#578);
#576 = CARTESIAN_POINT('',(-444.,32.,77.139791507488));
#577 = DIRECTION('',(0.,0.,-1.));
#578 = DIRECTION('',(-5.55E-15,1.,0.));
#579 = ORIENTED_EDGE('',*,*,#580,.F.);
#580 = EDGE_CURVE('',#250,#572,#581,.T.);
#581 = LINE('',#582,#583);
#582 = CARTESIAN_POINT('',(-451.0513139449,47.468644790332,
    93.639791507488));
#583 = VECTOR('',#584,1.);
#584 = DIRECTION('',(-9.E-17,9.E-17,-1.));
#585 = CYLINDRICAL_SURFACE('',#586,17.);
#586 = AXIS2_PLACEMENT_3D('',#587,#588,#589);
#587 = CARTESIAN_POINT('',(-444.,32.,93.639791507488));
#588 = DIRECTION('',(9.E-17,-9.E-17,1.));
#589 = DIRECTION('',(-5.55E-15,1.,9.E-17));
#590 = ADVANCED_FACE('',(#591),#609,.F.);
#591 = FACE_BOUND('',#592,.F.);
#592 = EDGE_LOOP('',(#593,#594,#602,#608));
#593 = ORIENTED_EDGE('',*,*,#580,.T.);
#594 = ORIENTED_EDGE('',*,*,#595,.T.);
#595 = EDGE_CURVE('',#572,#596,#598,.T.);
#596 = VERTEX_POINT('',#597);
#597 = CARTESIAN_POINT('',(-426.9087982364,58.47390478496,
    77.139791507498));
#598 = LINE('',#599,#600);
#599 = CARTESIAN_POINT('',(-451.0513139449,47.468644790332,
    77.139791507488));
#600 = VECTOR('',#601,1.);
#601 = DIRECTION('',(0.909920281784,0.414783173234,0.));
#602 = ORIENTED_EDGE('',*,*,#603,.F.);
#603 = EDGE_CURVE('',#241,#596,#604,.T.);
#604 = LINE('',#605,#606);
#605 = CARTESIAN_POINT('',(-426.9087982364,58.473904784958,
    93.639791507488));
#606 = VECTOR('',#607,1.);
#607 = DIRECTION('',(-9.E-17,9.E-17,-1.));
#608 = ORIENTED_EDGE('',*,*,#249,.F.);
#609 = PLANE('',#610);
#610 = AXIS2_PLACEMENT_3D('',#611,#612,#613);
#611 = CARTESIAN_POINT('',(-451.0513139449,47.468644790332,
    93.639791507488));
#612 = DIRECTION('',(0.414783173234,-0.909920281784,-1.1E-16));
#613 = DIRECTION('',(0.909920281784,0.414783173234,-4.E-17));
#614 = ADVANCED_FACE('',(#615),#634,.F.);
#615 = FACE_BOUND('',#616,.T.);
#616 = EDGE_LOOP('',(#617,#625,#632,#633));
#617 = ORIENTED_EDGE('',*,*,#618,.T.);
#618 = EDGE_CURVE('',#233,#619,#621,.T.);
#619 = VERTEX_POINT('',#620);
#620 = CARTESIAN_POINT('',(-426.8390827172,58.506368499429,
    77.139791507488));
#621 = LINE('',#622,#623);
#622 = CARTESIAN_POINT('',(-426.8390827172,58.506368499429,
    93.639791507488));
#623 = VECTOR('',#624,1.);
#624 = DIRECTION('',(-9.E-17,9.E-17,-1.));
#625 = ORIENTED_EDGE('',*,*,#626,.T.);
#626 = EDGE_CURVE('',#619,#596,#627,.T.);
#627 = CIRCLE('',#628,4.7498);
#628 = AXIS2_PLACEMENT_3D('',#629,#630,#631);
#629 = CARTESIAN_POINT('',(-428.8789353526,62.795844139377,
    77.139791507488));
#630 = DIRECTION('',(0.,0.,-1.));
#631 = DIRECTION('',(-5.55E-15,1.,0.));
#632 = ORIENTED_EDGE('',*,*,#603,.F.);
#633 = ORIENTED_EDGE('',*,*,#240,.F.);
#634 = CYLINDRICAL_SURFACE('',#635,4.7498);
#635 = AXIS2_PLACEMENT_3D('',#636,#637,#638);
#636 = CARTESIAN_POINT('',(-428.8789353526,62.795844139377,
    93.639791507488));
#637 = DIRECTION('',(9.E-17,-9.E-17,1.));
#638 = DIRECTION('',(-5.55E-15,1.,9.E-17));
#639 = ADVANCED_FACE('',(#640),#658,.F.);
#640 = FACE_BOUND('',#641,.F.);
#641 = EDGE_LOOP('',(#642,#643,#644,#652));
#642 = ORIENTED_EDGE('',*,*,#232,.F.);
#643 = ORIENTED_EDGE('',*,*,#618,.T.);
#644 = ORIENTED_EDGE('',*,*,#645,.T.);
#645 = EDGE_CURVE('',#619,#646,#648,.T.);
#646 = VERTEX_POINT('',#647);
#647 = CARTESIAN_POINT('',(-426.7546337334,58.546528065939,
    77.139791507488));
#648 = LINE('',#649,#650);
#649 = CARTESIAN_POINT('',(-426.8390827172,58.506368499429,
    77.139791507488));
#650 = VECTOR('',#651,1.);
#651 = DIRECTION('',(0.903085527801,0.429460742649,0.));
#652 = ORIENTED_EDGE('',*,*,#653,.F.);
#653 = EDGE_CURVE('',#225,#646,#654,.T.);
#654 = LINE('',#655,#656);
#655 = CARTESIAN_POINT('',(-426.7546337334,58.546528065939,
    91.876991507488));
#656 = VECTOR('',#657,1.);
#657 = DIRECTION('',(-3.6E-16,4.7E-16,-1.));
#658 = PLANE('',#659);
#659 = AXIS2_PLACEMENT_3D('',#660,#661,#662);
#660 = CARTESIAN_POINT('',(-426.8390827172,58.506368499429,
    93.639791507488));
#661 = DIRECTION('',(0.429460742649,-0.903085527801,-1.2E-16));
#662 = DIRECTION('',(0.903085527801,0.429460742649,-4.E-17));
#663 = ADVANCED_FACE('',(#664,#682),#718,.T.);
#664 = FACE_BOUND('',#665,.T.);
#665 = EDGE_LOOP('',(#666,#674,#680,#681));
#666 = ORIENTED_EDGE('',*,*,#667,.T.);
#667 = EDGE_CURVE('',#216,#668,#670,.T.);
#668 = VERTEX_POINT('',#669);
#669 = CARTESIAN_POINT('',(-422.3760002235,49.121237778189,
    77.139791507488));
#670 = LINE('',#671,#672);
#671 = CARTESIAN_POINT('',(-422.3760002235,49.121237778189,
    93.639791507488));
#672 = VECTOR('',#673,1.);
#673 = DIRECTION('',(-4.3E-16,4.3E-16,-1.));
#674 = ORIENTED_EDGE('',*,*,#675,.T.);
#675 = EDGE_CURVE('',#668,#646,#676,.T.);
#676 = LINE('',#677,#678);
#677 = CARTESIAN_POINT('',(-421.0888268447,46.350514282062,
    77.139791507488));
#678 = VECTOR('',#679,1.);
#679 = DIRECTION('',(-0.421317571193,0.906913173465,3.5E-16));
#680 = ORIENTED_EDGE('',*,*,#653,.F.);
#681 = ORIENTED_EDGE('',*,*,#224,.T.);
#682 = FACE_BOUND('',#683,.T.);
#683 = EDGE_LOOP('',(#684,#694,#703,#711));
#684 = ORIENTED_EDGE('',*,*,#685,.F.);
#685 = EDGE_CURVE('',#686,#688,#690,.T.);
#686 = VERTEX_POINT('',#687);
#687 = CARTESIAN_POINT('',(-426.7537335421,58.544590346372,
    78.151045788889));
#688 = VERTEX_POINT('',#689);
#689 = CARTESIAN_POINT('',(-426.7537335421,58.544590346372,92.4925407096
    ));
#690 = LINE('',#691,#692);
#691 = CARTESIAN_POINT('',(-426.7537335421,58.544590346372,
    85.162681398646));
#692 = VECTOR('',#693,1.);
#693 = DIRECTION('',(8.4E-15,3.7E-15,1.));
#694 = ORIENTED_EDGE('',*,*,#695,.T.);
#695 = EDGE_CURVE('',#686,#696,#698,.T.);
#696 = VERTEX_POINT('',#697);
#697 = CARTESIAN_POINT('',(-422.3767205864,49.122788405521,
    78.345088519015));
#698 = ELLIPSE('',#699,428.96290142491,3.085564108333);
#699 = AXIS2_PLACEMENT_3D('',#700,#701,#702);
#700 = CARTESIAN_POINT('',(-256.005821204,-309.0012744093,
    77.139801220933));
#701 = DIRECTION('',(0.906913173465,0.421317571193,-9.18E-15));
#702 = DIRECTION('',(-0.421317571193,0.906913173465,1.8E-16));
#703 = ORIENTED_EDGE('',*,*,#704,.T.);
#704 = EDGE_CURVE('',#696,#705,#707,.T.);
#705 = VERTEX_POINT('',#706);
#706 = CARTESIAN_POINT('',(-422.3767205864,49.122788405521,
    92.270478768801));
#707 = LINE('',#708,#709);
#708 = CARTESIAN_POINT('',(-422.3767205864,49.122788405521,
    85.162681398646));
#709 = VECTOR('',#710,1.);
#710 = DIRECTION('',(8.4E-15,3.7E-15,1.));
#711 = ORIENTED_EDGE('',*,*,#712,.T.);
#712 = EDGE_CURVE('',#705,#688,#713,.T.);
#713 = ELLIPSE('',#714,548.70738221734,3.946895638115);
#714 = AXIS2_PLACEMENT_3D('',#715,#716,#717);
#715 = CARTESIAN_POINT('',(-205.5553673927,-417.5991214896,
    93.639791507488));
#716 = DIRECTION('',(0.906913173465,0.421317571193,-9.18E-15));
#717 = DIRECTION('',(-0.421317571193,0.906913173465,1.8E-16));
#718 = PLANE('',#719);
#719 = AXIS2_PLACEMENT_3D('',#720,#721,#722);
#720 = CARTESIAN_POINT('',(-424.5653169784,53.833882922064,
    85.389791507488));
#721 = DIRECTION('',(0.906913173465,0.421317571193,-9.13E-15));
#722 = DIRECTION('',(-0.421317571193,0.906913173465,0.));
#723 = ADVANCED_FACE('',(#724),#743,.F.);
#724 = FACE_BOUND('',#725,.T.);
#725 = EDGE_LOOP('',(#726,#734,#741,#742));
#726 = ORIENTED_EDGE('',*,*,#727,.T.);
#727 = EDGE_CURVE('',#207,#728,#730,.T.);
#728 = VERTEX_POINT('',#729);
#729 = CARTESIAN_POINT('',(-424.16216863,42.017128409457,77.139791507488
    ));
#730 = LINE('',#731,#732);
#731 = CARTESIAN_POINT('',(-424.16216863,42.017128409457,93.639791507488
    ));
#732 = VECTOR('',#733,1.);
#733 = DIRECTION('',(-9.E-17,9.E-17,-1.));
#734 = ORIENTED_EDGE('',*,*,#735,.T.);
#735 = EDGE_CURVE('',#728,#668,#736,.T.);
#736 = CIRCLE('',#737,4.7498);
#737 = AXIS2_PLACEMENT_3D('',#738,#739,#740);
#738 = CARTESIAN_POINT('',(-420.3361475881,44.831762138242,
    77.139791507488));
#739 = DIRECTION('',(0.,0.,-1.));
#740 = DIRECTION('',(-5.55E-15,1.,0.));
#741 = ORIENTED_EDGE('',*,*,#667,.F.);
#742 = ORIENTED_EDGE('',*,*,#215,.F.);
#743 = CYLINDRICAL_SURFACE('',#744,4.7498);
#744 = AXIS2_PLACEMENT_3D('',#745,#746,#747);
#745 = CARTESIAN_POINT('',(-420.3361475881,44.831762138241,
    93.639791507488));
#746 = DIRECTION('',(9.E-17,-9.E-17,1.));
#747 = DIRECTION('',(-5.55E-15,1.,9.E-17));
#748 = ADVANCED_FACE('',(#749),#768,.T.);
#749 = FACE_BOUND('',#750,.F.);
#750 = EDGE_LOOP('',(#751,#752,#761,#767));
#751 = ORIENTED_EDGE('',*,*,#727,.T.);
#752 = ORIENTED_EDGE('',*,*,#753,.T.);
#753 = EDGE_CURVE('',#728,#754,#756,.T.);
#754 = VERTEX_POINT('',#755);
#755 = CARTESIAN_POINT('',(-423.656459462,41.151010379708,
    77.139791507488));
#756 = CIRCLE('',#757,4.7498);
#757 = AXIS2_PLACEMENT_3D('',#758,#759,#760);
#758 = CARTESIAN_POINT('',(-427.9881896718,39.202494680674,
    77.139791507488));
#759 = DIRECTION('',(0.,0.,-1.));
#760 = DIRECTION('',(-5.55E-15,1.,0.));
#761 = ORIENTED_EDGE('',*,*,#762,.F.);
#762 = EDGE_CURVE('',#198,#754,#763,.T.);
#763 = LINE('',#764,#765);
#764 = CARTESIAN_POINT('',(-423.656459462,41.151010379708,
    93.639791507488));
#765 = VECTOR('',#766,1.);
#766 = DIRECTION('',(-9.E-17,9.E-17,-1.));
#767 = ORIENTED_EDGE('',*,*,#206,.F.);
#768 = CYLINDRICAL_SURFACE('',#769,4.7498);
#769 = AXIS2_PLACEMENT_3D('',#770,#771,#772);
#770 = CARTESIAN_POINT('',(-427.9881896718,39.202494680674,
    93.639791507488));
#771 = DIRECTION('',(9.E-17,-9.E-17,1.));
#772 = DIRECTION('',(-5.55E-15,1.,9.E-17));
#773 = ADVANCED_FACE('',(#774),#786,.F.);
#774 = FACE_BOUND('',#775,.T.);
#775 = EDGE_LOOP('',(#776,#777,#784,#785));
#776 = ORIENTED_EDGE('',*,*,#520,.T.);
#777 = ORIENTED_EDGE('',*,*,#778,.T.);
#778 = EDGE_CURVE('',#513,#754,#779,.T.);
#779 = CIRCLE('',#780,4.7498);
#780 = AXIS2_PLACEMENT_3D('',#781,#782,#783);
#781 = CARTESIAN_POINT('',(-419.3247292522,43.099526078742,
    77.139791507488));
#782 = DIRECTION('',(0.,0.,-1.));
#783 = DIRECTION('',(-5.55E-15,1.,0.));
#784 = ORIENTED_EDGE('',*,*,#762,.F.);
#785 = ORIENTED_EDGE('',*,*,#197,.F.);
#786 = CYLINDRICAL_SURFACE('',#787,4.7498);
#787 = AXIS2_PLACEMENT_3D('',#788,#789,#790);
#788 = CARTESIAN_POINT('',(-419.3247292522,43.099526078742,
    93.639791507488));
#789 = DIRECTION('',(9.E-17,-9.E-17,1.));
#790 = DIRECTION('',(-5.55E-15,1.,9.E-17));
#791 = ADVANCED_FACE('',(#792),#811,.F.);
#792 = FACE_BOUND('',#793,.T.);
#793 = EDGE_LOOP('',(#794,#795,#803,#810));
#794 = ORIENTED_EDGE('',*,*,#266,.F.);
#795 = ORIENTED_EDGE('',*,*,#796,.T.);
#796 = EDGE_CURVE('',#267,#797,#799,.T.);
#797 = VERTEX_POINT('',#798);
#798 = CARTESIAN_POINT('',(-444.,42.,81.139791507488));
#799 = LINE('',#800,#801);
#800 = CARTESIAN_POINT('',(-444.,42.,93.639791507488));
#801 = VECTOR('',#802,1.);
#802 = DIRECTION('',(-9.E-17,9.E-17,-1.));
#803 = ORIENTED_EDGE('',*,*,#804,.F.);
#804 = EDGE_CURVE('',#797,#797,#805,.T.);
#805 = CIRCLE('',#806,10.);
#806 = AXIS2_PLACEMENT_3D('',#807,#808,#809);
#807 = CARTESIAN_POINT('',(-444.,32.,81.139791507488));
#808 = DIRECTION('',(3.5E-16,-3.5E-16,1.));
#809 = DIRECTION('',(-4.22E-15,1.,3.5E-16));
#810 = ORIENTED_EDGE('',*,*,#796,.F.);
#811 = CYLINDRICAL_SURFACE('',#812,10.);
#812 = AXIS2_PLACEMENT_3D('',#813,#814,#815);
#813 = CARTESIAN_POINT('',(-444.,32.,93.639791507488));
#814 = DIRECTION('',(9.E-17,-9.E-17,1.));
#815 = DIRECTION('',(-5.55E-15,1.,9.E-17));
#816 = ADVANCED_FACE('',(#817),#828,.T.);
#817 = FACE_BOUND('',#818,.T.);
#818 = EDGE_LOOP('',(#819,#820,#821,#827));
#819 = ORIENTED_EDGE('',*,*,#536,.F.);
#820 = ORIENTED_EDGE('',*,*,#300,.T.);
#821 = ORIENTED_EDGE('',*,*,#822,.T.);
#822 = EDGE_CURVE('',#293,#497,#823,.T.);
#823 = LINE('',#824,#825);
#824 = CARTESIAN_POINT('',(-403.7653737675,24.531060734187,
    80.665391507488));
#825 = VECTOR('',#826,1.);
#826 = DIRECTION('',(1.725088928349E-02,0.999851192338,1.7E-16));
#827 = ORIENTED_EDGE('',*,*,#496,.F.);
#828 = PLANE('',#829);
#829 = AXIS2_PLACEMENT_3D('',#830,#831,#832);
#830 = CARTESIAN_POINT('',(-403.7653737675,24.531060734187,
    93.639791507488));
#831 = DIRECTION('',(0.999851192338,-1.725088928349E-02,-9.E-17));
#832 = DIRECTION('',(1.725088928349E-02,0.999851192338,9.E-17));
#833 = ADVANCED_FACE('',(#834),#840,.T.);
#834 = FACE_BOUND('',#835,.T.);
#835 = EDGE_LOOP('',(#836,#837,#838,#839));
#836 = ORIENTED_EDGE('',*,*,#504,.T.);
#837 = ORIENTED_EDGE('',*,*,#822,.F.);
#838 = ORIENTED_EDGE('',*,*,#292,.F.);
#839 = ORIENTED_EDGE('',*,*,#462,.T.);
#840 = PLANE('',#841);
#841 = AXIS2_PLACEMENT_3D('',#842,#843,#844);
#842 = CARTESIAN_POINT('',(-410.7990914314,31.425900619766,
    80.665391507488));
#843 = DIRECTION('',(-5.5E-16,4.E-16,-1.));
#844 = DIRECTION('',(1.,2.2E-16,-5.5E-16));
#845 = ADVANCED_FACE('',(#846),#857,.T.);
#846 = FACE_BOUND('',#847,.T.);
#847 = EDGE_LOOP('',(#848,#849,#850,#856));
#848 = ORIENTED_EDGE('',*,*,#390,.F.);
#849 = ORIENTED_EDGE('',*,*,#358,.T.);
#850 = ORIENTED_EDGE('',*,*,#851,.T.);
#851 = EDGE_CURVE('',#351,#423,#852,.T.);
#852 = LINE('',#853,#854);
#853 = CARTESIAN_POINT('',(-421.6269307742,23.515710215348,
    73.139791507488));
#854 = VECTOR('',#855,1.);
#855 = DIRECTION('',(0.629017617947,0.777391044657,0.));
#856 = ORIENTED_EDGE('',*,*,#422,.T.);
#857 = PLANE('',#858);
#858 = AXIS2_PLACEMENT_3D('',#859,#860,#861);
#859 = CARTESIAN_POINT('',(-421.6269307742,23.515710215348,
    77.139791507488));
#860 = DIRECTION('',(0.777391044657,-0.629017617947,-1.2E-16));
#861 = DIRECTION('',(0.629017617947,0.777391044657,1.E-17));
#862 = ADVANCED_FACE('',(#863),#891,.F.);
#863 = FACE_BOUND('',#864,.F.);
#864 = EDGE_LOOP('',(#865,#876,#882,#883,#884,#885));
#865 = ORIENTED_EDGE('',*,*,#866,.F.);
#866 = EDGE_CURVE('',#867,#869,#871,.T.);
#867 = VERTEX_POINT('',#868);
#868 = CARTESIAN_POINT('',(-425.0324478925,27.947236054692,
    73.139791507488));
#869 = VERTEX_POINT('',#870);
#870 = CARTESIAN_POINT('',(-421.9169692484,33.932014847059,
    73.139791507488));
#871 = CIRCLE('',#872,4.);
#872 = AXIS2_PLACEMENT_3D('',#873,#874,#875);
#873 = CARTESIAN_POINT('',(-421.5683462774,29.947236054692,
    73.139791507488));
#874 = DIRECTION('',(0.,0.,-1.));
#875 = DIRECTION('',(-4.66E-15,1.,0.));
#876 = ORIENTED_EDGE('',*,*,#877,.T.);
#877 = EDGE_CURVE('',#867,#343,#878,.T.);
#878 = LINE('',#879,#880);
#879 = CARTESIAN_POINT('',(-425.0324478925,27.947236054692,
    73.139791507488));
#880 = VECTOR('',#881,1.);
#881 = DIRECTION('',(0.5,-0.866025403784,0.));
#882 = ORIENTED_EDGE('',*,*,#350,.T.);
#883 = ORIENTED_EDGE('',*,*,#851,.T.);
#884 = ORIENTED_EDGE('',*,*,#430,.T.);
#885 = ORIENTED_EDGE('',*,*,#886,.F.);
#886 = EDGE_CURVE('',#869,#431,#887,.T.);
#887 = LINE('',#888,#889);
#888 = CARTESIAN_POINT('',(-421.9169692484,33.932014847059,
    73.139791507488));
#889 = VECTOR('',#890,1.);
#890 = DIRECTION('',(0.996194698092,8.715574274766E-02,0.));
#891 = PLANE('',#892);
#892 = AXIS2_PLACEMENT_3D('',#893,#894,#895);
#893 = CARTESIAN_POINT('',(-419.6874646977,30.280939294831,
    73.139791507488));
#894 = DIRECTION('',(0.,0.,1.));
#895 = DIRECTION('',(1.,-2.2E-16,0.));
#896 = ADVANCED_FACE('',(#897),#915,.T.);
#897 = FACE_BOUND('',#898,.T.);
#898 = EDGE_LOOP('',(#899,#900,#901,#909));
#899 = ORIENTED_EDGE('',*,*,#877,.T.);
#900 = ORIENTED_EDGE('',*,*,#342,.T.);
#901 = ORIENTED_EDGE('',*,*,#902,.F.);
#902 = EDGE_CURVE('',#903,#335,#905,.T.);
#903 = VERTEX_POINT('',#904);
#904 = CARTESIAN_POINT('',(-425.0324478925,27.947236054692,
    81.139791507489));
#905 = LINE('',#906,#907);
#906 = CARTESIAN_POINT('',(-425.0324478925,27.947236054692,
    81.139791507488));
#907 = VECTOR('',#908,1.);
#908 = DIRECTION('',(0.5,-0.866025403784,0.));
#909 = ORIENTED_EDGE('',*,*,#910,.F.);
#910 = EDGE_CURVE('',#867,#903,#911,.T.);
#911 = LINE('',#912,#913);
#912 = CARTESIAN_POINT('',(-425.0324478925,27.947236054692,
    77.139791507488));
#913 = VECTOR('',#914,1.);
#914 = DIRECTION('',(9.E-17,-9.E-17,1.));
#915 = PLANE('',#916);
#916 = AXIS2_PLACEMENT_3D('',#917,#918,#919);
#917 = CARTESIAN_POINT('',(-423.6649435114,25.578648987036,
    77.139791507488));
#918 = DIRECTION('',(-0.866025403784,-0.5,6.24E-15));
#919 = DIRECTION('',(0.5,-0.866025403784,0.));
#920 = ADVANCED_FACE('',(#921,#958),#961,.F.);
#921 = FACE_BOUND('',#922,.F.);
#922 = EDGE_LOOP('',(#923,#934,#940,#941,#942,#943,#952));
#923 = ORIENTED_EDGE('',*,*,#924,.F.);
#924 = EDGE_CURVE('',#925,#927,#929,.T.);
#925 = VERTEX_POINT('',#926);
#926 = CARTESIAN_POINT('',(-451.5,44.990381056767,81.139791507489));
#927 = VERTEX_POINT('',#928);
#928 = CARTESIAN_POINT('',(-431.0096189432,39.5,81.139791507489));
#929 = CIRCLE('',#930,15.);
#930 = AXIS2_PLACEMENT_3D('',#931,#932,#933);
#931 = CARTESIAN_POINT('',(-444.,32.,81.139791507488));
#932 = DIRECTION('',(0.,0.,-1.));
#933 = DIRECTION('',(-2.89E-15,1.,0.));
#934 = ORIENTED_EDGE('',*,*,#935,.T.);
#935 = EDGE_CURVE('',#925,#555,#936,.T.);
#936 = LINE('',#937,#938);
#937 = CARTESIAN_POINT('',(-451.5,44.990381056767,81.139791507488));
#938 = VECTOR('',#939,1.);
#939 = DIRECTION('',(-0.866025403784,-0.5,0.));
#940 = ORIENTED_EDGE('',*,*,#554,.T.);
#941 = ORIENTED_EDGE('',*,*,#334,.F.);
#942 = ORIENTED_EDGE('',*,*,#902,.F.);
#943 = ORIENTED_EDGE('',*,*,#944,.T.);
#944 = EDGE_CURVE('',#903,#945,#947,.T.);
#945 = VERTEX_POINT('',#946);
#946 = CARTESIAN_POINT('',(-425.5663980255,30.072064813781,
    81.139791507489));
#947 = CIRCLE('',#948,4.);
#948 = AXIS2_PLACEMENT_3D('',#949,#950,#951);
#949 = CARTESIAN_POINT('',(-421.5683462774,29.947236054692,
    81.139791507488));
#950 = DIRECTION('',(0.,0.,-1.));
#951 = DIRECTION('',(-2.89E-15,1.,0.));
#952 = ORIENTED_EDGE('',*,*,#953,.F.);
#953 = EDGE_CURVE('',#927,#945,#954,.T.);
#954 = LINE('',#955,#956);
#955 = CARTESIAN_POINT('',(-431.0096189432,39.5,81.139791507488));
#956 = VECTOR('',#957,1.);
#957 = DIRECTION('',(0.5,-0.866025403784,0.));
#958 = FACE_BOUND('',#959,.F.);
#959 = EDGE_LOOP('',(#960));
#960 = ORIENTED_EDGE('',*,*,#804,.F.);
#961 = PLANE('',#962);
#962 = AXIS2_PLACEMENT_3D('',#963,#964,#965);
#963 = CARTESIAN_POINT('',(-469.5057505752,14.94599696923,
    81.139791507488));
#964 = DIRECTION('',(0.,0.,1.));
#965 = DIRECTION('',(1.,-2.2E-16,0.));
#966 = ADVANCED_FACE('',(#967),#1019,.F.);
#967 = FACE_BOUND('',#968,.F.);
#968 = EDGE_LOOP('',(#969,#980,#986,#987,#988,#989,#990,#991,#992,#993,
    #994,#995,#996,#1004,#1013));
#969 = ORIENTED_EDGE('',*,*,#970,.T.);
#970 = EDGE_CURVE('',#971,#973,#975,.T.);
#971 = VERTEX_POINT('',#972);
#972 = CARTESIAN_POINT('',(-425.5663980255,30.072064813781,
    77.139791507488));
#973 = VERTEX_POINT('',#974);
#974 = CARTESIAN_POINT('',(-421.9169692484,33.932014847059,
    77.139791507488));
#975 = CIRCLE('',#976,4.);
#976 = AXIS2_PLACEMENT_3D('',#977,#978,#979);
#977 = CARTESIAN_POINT('',(-421.5683462774,29.947236054692,
    77.139791507488));
#978 = DIRECTION('',(0.,0.,-1.));
#979 = DIRECTION('',(-4.66E-15,1.,0.));
#980 = ORIENTED_EDGE('',*,*,#981,.T.);
#981 = EDGE_CURVE('',#973,#439,#982,.T.);
#982 = LINE('',#983,#984);
#983 = CARTESIAN_POINT('',(-421.9169692484,33.932014847059,
    77.139791507488));
#984 = VECTOR('',#985,1.);
#985 = DIRECTION('',(0.996194698092,8.715574274766E-02,0.));
#986 = ORIENTED_EDGE('',*,*,#446,.T.);
#987 = ORIENTED_EDGE('',*,*,#512,.T.);
#988 = ORIENTED_EDGE('',*,*,#778,.T.);
#989 = ORIENTED_EDGE('',*,*,#753,.F.);
#990 = ORIENTED_EDGE('',*,*,#735,.T.);
#991 = ORIENTED_EDGE('',*,*,#675,.T.);
#992 = ORIENTED_EDGE('',*,*,#645,.F.);
#993 = ORIENTED_EDGE('',*,*,#626,.T.);
#994 = ORIENTED_EDGE('',*,*,#595,.F.);
#995 = ORIENTED_EDGE('',*,*,#571,.F.);
#996 = ORIENTED_EDGE('',*,*,#997,.F.);
#997 = EDGE_CURVE('',#998,#564,#1000,.T.);
#998 = VERTEX_POINT('',#999);
#999 = CARTESIAN_POINT('',(-451.5,44.990381056767,77.139791507488));
#1000 = LINE('',#1001,#1002);
#1001 = CARTESIAN_POINT('',(-451.5,44.990381056767,77.139791507488));
#1002 = VECTOR('',#1003,1.);
#1003 = DIRECTION('',(-0.866025403784,-0.5,0.));
#1004 = ORIENTED_EDGE('',*,*,#1005,.T.);
#1005 = EDGE_CURVE('',#998,#1006,#1008,.T.);
#1006 = VERTEX_POINT('',#1007);
#1007 = CARTESIAN_POINT('',(-431.0096189432,39.5,77.139791507488));
#1008 = CIRCLE('',#1009,15.);
#1009 = AXIS2_PLACEMENT_3D('',#1010,#1011,#1012);
#1010 = CARTESIAN_POINT('',(-444.,32.,77.139791507488));
#1011 = DIRECTION('',(0.,0.,-1.));
#1012 = DIRECTION('',(-2.89E-15,1.,0.));
#1013 = ORIENTED_EDGE('',*,*,#1014,.T.);
#1014 = EDGE_CURVE('',#1006,#971,#1015,.T.);
#1015 = LINE('',#1016,#1017);
#1016 = CARTESIAN_POINT('',(-431.0096189432,39.5,77.139791507488));
#1017 = VECTOR('',#1018,1.);
#1018 = DIRECTION('',(0.5,-0.866025403784,0.));
#1019 = PLANE('',#1020);
#1020 = AXIS2_PLACEMENT_3D('',#1021,#1022,#1023);
#1021 = CARTESIAN_POINT('',(-430.6514506931,38.53938521074,
    77.139791507488));
#1022 = DIRECTION('',(0.,0.,1.));
#1023 = DIRECTION('',(1.,-2.2E-16,0.));
#1024 = ADVANCED_FACE('',(#1025),#1036,.F.);
#1025 = FACE_BOUND('',#1026,.F.);
#1026 = EDGE_LOOP('',(#1027,#1028,#1034,#1035));
#1027 = ORIENTED_EDGE('',*,*,#981,.F.);
#1028 = ORIENTED_EDGE('',*,*,#1029,.T.);
#1029 = EDGE_CURVE('',#973,#869,#1030,.T.);
#1030 = LINE('',#1031,#1032);
#1031 = CARTESIAN_POINT('',(-421.9169692484,33.932014847059,
    77.139791507488));
#1032 = VECTOR('',#1033,1.);
#1033 = DIRECTION('',(-9.E-17,9.E-17,-1.));
#1034 = ORIENTED_EDGE('',*,*,#886,.T.);
#1035 = ORIENTED_EDGE('',*,*,#438,.T.);
#1036 = PLANE('',#1037);
#1037 = AXIS2_PLACEMENT_3D('',#1038,#1039,#1040);
#1038 = CARTESIAN_POINT('',(-421.9169692484,33.932014847059,
    77.139791507488));
#1039 = DIRECTION('',(8.715574274766E-02,-0.996194698092,-9.E-17));
#1040 = DIRECTION('',(0.996194698092,8.715574274766E-02,-8.E-17));
#1041 = ADVANCED_FACE('',(#1042),#1053,.T.);
#1042 = FACE_BOUND('',#1043,.T.);
#1043 = EDGE_LOOP('',(#1044,#1045,#1051,#1052));
#1044 = ORIENTED_EDGE('',*,*,#997,.F.);
#1045 = ORIENTED_EDGE('',*,*,#1046,.T.);
#1046 = EDGE_CURVE('',#998,#925,#1047,.T.);
#1047 = LINE('',#1048,#1049);
#1048 = CARTESIAN_POINT('',(-451.5,44.990381056767,77.139791507488));
#1049 = VECTOR('',#1050,1.);
#1050 = DIRECTION('',(9.E-17,-9.E-17,1.));
#1051 = ORIENTED_EDGE('',*,*,#935,.T.);
#1052 = ORIENTED_EDGE('',*,*,#563,.F.);
#1053 = PLANE('',#1054);
#1054 = AXIS2_PLACEMENT_3D('',#1055,#1056,#1057);
#1055 = CARTESIAN_POINT('',(-451.5,44.990381056767,77.139791507488));
#1056 = DIRECTION('',(0.5,-0.866025403784,-1.2E-16));
#1057 = DIRECTION('',(-0.866025403784,-0.5,3.E-17));
#1058 = ADVANCED_FACE('',(#1059),#1102,.T.);
#1059 = FACE_BOUND('',#1060,.T.);
#1060 = EDGE_LOOP('',(#1061,#1070,#1078,#1086,#1094,#1101));
#1061 = ORIENTED_EDGE('',*,*,#1062,.F.);
#1062 = EDGE_CURVE('',#1063,#688,#1065,.T.);
#1063 = VERTEX_POINT('',#1064);
#1064 = CARTESIAN_POINT('',(-423.7573006286,59.910501159817,
    89.722611164252));
#1065 = CIRCLE('',#1066,3.946895638115);
#1066 = AXIS2_PLACEMENT_3D('',#1067,#1068,#1069);
#1067 = CARTESIAN_POINT('',(-423.3174378452,60.111010682158,
    93.639791507488));
#1068 = DIRECTION('',(-0.414783173234,0.909920281784,-0.));
#1069 = DIRECTION('',(0.909920281784,0.414783173234,0.));
#1070 = ORIENTED_EDGE('',*,*,#1071,.T.);
#1071 = EDGE_CURVE('',#1063,#1072,#1074,.T.);
#1072 = VERTEX_POINT('',#1073);
#1073 = CARTESIAN_POINT('',(-415.2519557387,63.787625357932,
    88.569081175398));
#1074 = LINE('',#1075,#1076);
#1075 = CARTESIAN_POINT('',(-423.7573006286,59.910501159818,
    89.722611164252));
#1076 = VECTOR('',#1077,1.);
#1077 = DIRECTION('',(0.903069695407,0.411660363453,-0.122478040476));
#1078 = ORIENTED_EDGE('',*,*,#1079,.T.);
#1079 = EDGE_CURVE('',#1072,#1080,#1082,.T.);
#1080 = VERTEX_POINT('',#1081);
#1081 = CARTESIAN_POINT('',(-416.3049796462,63.307609023983,
    79.191419078192));
#1082 = LINE('',#1083,#1084);
#1083 = CARTESIAN_POINT('',(-415.2519557387,63.787625357932,
    88.569081175398));
#1084 = VECTOR('',#1085,1.);
#1085 = DIRECTION('',(-0.111445253102,-5.080183027987E-02,
    -0.992471223563));
#1086 = ORIENTED_EDGE('',*,*,#1087,.F.);
#1087 = EDGE_CURVE('',#1088,#1080,#1090,.T.);
#1088 = VERTEX_POINT('',#1089);
#1089 = CARTESIAN_POINT('',(-423.7573094005,59.910497161177,
    80.202134806913));
#1090 = LINE('',#1091,#1092);
#1091 = CARTESIAN_POINT('',(-423.7573094005,59.910497161178,
    80.202134806913));
#1092 = VECTOR('',#1093,1.);
#1093 = DIRECTION('',(0.903069695407,0.411660363453,-0.122478040476));
#1094 = ORIENTED_EDGE('',*,*,#1095,.F.);
#1095 = EDGE_CURVE('',#686,#1088,#1096,.T.);
#1096 = CIRCLE('',#1097,3.085564108333);
#1097 = AXIS2_PLACEMENT_3D('',#1098,#1099,#1100);
#1098 = CARTESIAN_POINT('',(-424.1011808735,59.753744857028,
    77.139801220933));
#1099 = DIRECTION('',(-0.414783173234,0.909920281784,-0.));
#1100 = DIRECTION('',(0.909920281784,0.414783173234,0.));
#1101 = ORIENTED_EDGE('',*,*,#685,.T.);
#1102 = PLANE('',#1103);
#1103 = AXIS2_PLACEMENT_3D('',#1104,#1105,#1106);
#1104 = CARTESIAN_POINT('',(-422.416435622,60.521728597451,
    84.935571289803));
#1105 = DIRECTION('',(-0.414783173234,0.909920281784,0.));
#1106 = DIRECTION('',(0.909920281784,0.414783173234,0.));
#1107 = ADVANCED_FACE('',(#1108),#1127,.F.);
#1108 = FACE_BOUND('',#1109,.F.);
#1109 = EDGE_LOOP('',(#1110,#1111,#1119,#1126));
#1110 = ORIENTED_EDGE('',*,*,#1062,.F.);
#1111 = ORIENTED_EDGE('',*,*,#1112,.T.);
#1112 = EDGE_CURVE('',#1063,#1113,#1115,.T.);
#1113 = VERTEX_POINT('',#1114);
#1114 = CARTESIAN_POINT('',(-419.4482841551,50.457703320474,
    89.722611164252));
#1115 = LINE('',#1116,#1117);
#1116 = CARTESIAN_POINT('',(-423.7573006286,59.910501159817,
    89.722611164252));
#1117 = VECTOR('',#1118,1.);
#1118 = DIRECTION('',(0.414783173234,-0.909920281784,-1.1E-16));
#1119 = ORIENTED_EDGE('',*,*,#1120,.T.);
#1120 = EDGE_CURVE('',#1113,#705,#1121,.T.);
#1121 = CIRCLE('',#1122,3.946895638115);
#1122 = AXIS2_PLACEMENT_3D('',#1123,#1124,#1125);
#1123 = CARTESIAN_POINT('',(-419.0084213718,50.658212842814,
    93.639791507489));
#1124 = DIRECTION('',(-0.414783173234,0.909920281784,-0.));
#1125 = DIRECTION('',(0.909920281784,0.414783173234,0.));
#1126 = ORIENTED_EDGE('',*,*,#712,.T.);
#1127 = CYLINDRICAL_SURFACE('',#1128,3.946895638115);
#1128 = AXIS2_PLACEMENT_3D('',#1129,#1130,#1131);
#1129 = CARTESIAN_POINT('',(-423.3174378452,60.111010682157,
    93.639791507489));
#1130 = DIRECTION('',(-0.414783173234,0.909920281784,1.1E-16));
#1131 = DIRECTION('',(0.909920281784,0.414783173234,-4.E-17));
#1132 = ADVANCED_FACE('',(#1133),#1168,.F.);
#1133 = FACE_BOUND('',#1134,.F.);
#1134 = EDGE_LOOP('',(#1135,#1136,#1144,#1152,#1160,#1167));
#1135 = ORIENTED_EDGE('',*,*,#1120,.F.);
#1136 = ORIENTED_EDGE('',*,*,#1137,.T.);
#1137 = EDGE_CURVE('',#1113,#1138,#1140,.T.);
#1138 = VERTEX_POINT('',#1139);
#1139 = CARTESIAN_POINT('',(-410.9429392653,54.334827518588,
    88.569081175398));
#1140 = LINE('',#1141,#1142);
#1141 = CARTESIAN_POINT('',(-419.4482841551,50.457703320474,
    89.722611164252));
#1142 = VECTOR('',#1143,1.);
#1143 = DIRECTION('',(0.903069695407,0.411660363453,-0.122478040476));
#1144 = ORIENTED_EDGE('',*,*,#1145,.T.);
#1145 = EDGE_CURVE('',#1138,#1146,#1148,.T.);
#1146 = VERTEX_POINT('',#1147);
#1147 = CARTESIAN_POINT('',(-411.9959631728,53.85481118464,
    79.191419078192));
#1148 = LINE('',#1149,#1150);
#1149 = CARTESIAN_POINT('',(-410.9429392653,54.334827518589,
    88.569081175398));
#1150 = VECTOR('',#1151,1.);
#1151 = DIRECTION('',(-0.111445253102,-5.080183027987E-02,
    -0.992471223563));
#1152 = ORIENTED_EDGE('',*,*,#1153,.F.);
#1153 = EDGE_CURVE('',#1154,#1146,#1156,.T.);
#1154 = VERTEX_POINT('',#1155);
#1155 = CARTESIAN_POINT('',(-419.448292927,50.457699321834,
    80.202134806913));
#1156 = LINE('',#1157,#1158);
#1157 = CARTESIAN_POINT('',(-419.448292927,50.457699321834,
    80.202134806913));
#1158 = VECTOR('',#1159,1.);
#1159 = DIRECTION('',(0.903069695407,0.411660363453,-0.122478040476));
#1160 = ORIENTED_EDGE('',*,*,#1161,.F.);
#1161 = EDGE_CURVE('',#696,#1154,#1162,.T.);
#1162 = CIRCLE('',#1163,3.085564108333);
#1163 = AXIS2_PLACEMENT_3D('',#1164,#1165,#1166);
#1164 = CARTESIAN_POINT('',(-419.7921644,50.300947017685,77.139801220933
    ));
#1165 = DIRECTION('',(-0.414783173234,0.909920281784,-0.));
#1166 = DIRECTION('',(0.909920281784,0.414783173234,0.));
#1167 = ORIENTED_EDGE('',*,*,#704,.T.);
#1168 = PLANE('',#1169);
#1169 = AXIS2_PLACEMENT_3D('',#1170,#1171,#1172);
#1170 = CARTESIAN_POINT('',(-418.1074191486,51.068930758108,
    84.935571289803));
#1171 = DIRECTION('',(-0.414783173234,0.909920281784,0.));
#1172 = DIRECTION('',(0.909920281784,0.414783173234,0.));
#1173 = ADVANCED_FACE('',(#1174),#1185,.F.);
#1174 = FACE_BOUND('',#1175,.F.);
#1175 = EDGE_LOOP('',(#1176,#1177,#1178,#1179));
#1176 = ORIENTED_EDGE('',*,*,#1095,.F.);
#1177 = ORIENTED_EDGE('',*,*,#695,.T.);
#1178 = ORIENTED_EDGE('',*,*,#1161,.T.);
#1179 = ORIENTED_EDGE('',*,*,#1180,.F.);
#1180 = EDGE_CURVE('',#1088,#1154,#1181,.T.);
#1181 = LINE('',#1182,#1183);
#1182 = CARTESIAN_POINT('',(-423.7573094005,59.910497161177,
    80.202134806913));
#1183 = VECTOR('',#1184,1.);
#1184 = DIRECTION('',(0.414783173234,-0.909920281784,-1.1E-16));
#1185 = CYLINDRICAL_SURFACE('',#1186,3.085564108333);
#1186 = AXIS2_PLACEMENT_3D('',#1187,#1188,#1189);
#1187 = CARTESIAN_POINT('',(-424.1011808735,59.753744857028,
    77.139801220933));
#1188 = DIRECTION('',(-0.414783173234,0.909920281784,1.1E-16));
#1189 = DIRECTION('',(0.909920281784,0.414783173234,-4.E-17));
#1190 = ADVANCED_FACE('',(#1191),#1204,.T.);
#1191 = FACE_BOUND('',#1192,.F.);
#1192 = EDGE_LOOP('',(#1193,#1194,#1195,#1196,#1197,#1203));
#1193 = ORIENTED_EDGE('',*,*,#910,.F.);
#1194 = ORIENTED_EDGE('',*,*,#866,.T.);
#1195 = ORIENTED_EDGE('',*,*,#1029,.F.);
#1196 = ORIENTED_EDGE('',*,*,#970,.F.);
#1197 = ORIENTED_EDGE('',*,*,#1198,.T.);
#1198 = EDGE_CURVE('',#971,#945,#1199,.T.);
#1199 = LINE('',#1200,#1201);
#1200 = CARTESIAN_POINT('',(-425.5663980255,30.072064813781,
    77.139791507488));
#1201 = VECTOR('',#1202,1.);
#1202 = DIRECTION('',(9.E-17,-9.E-17,1.));
#1203 = ORIENTED_EDGE('',*,*,#944,.F.);
#1204 = CYLINDRICAL_SURFACE('',#1205,4.);
#1205 = AXIS2_PLACEMENT_3D('',#1206,#1207,#1208);
#1206 = CARTESIAN_POINT('',(-421.5683462774,29.947236054692,
    77.139791507488));
#1207 = DIRECTION('',(2.6E-16,-2.6E-16,1.));
#1208 = DIRECTION('',(-3.77E-15,1.,2.6E-16));
#1209 = ADVANCED_FACE('',(#1210),#1221,.F.);
#1210 = FACE_BOUND('',#1211,.F.);
#1211 = EDGE_LOOP('',(#1212,#1213,#1214,#1220));
#1212 = ORIENTED_EDGE('',*,*,#1046,.T.);
#1213 = ORIENTED_EDGE('',*,*,#924,.T.);
#1214 = ORIENTED_EDGE('',*,*,#1215,.F.);
#1215 = EDGE_CURVE('',#1006,#927,#1216,.T.);
#1216 = LINE('',#1217,#1218);
#1217 = CARTESIAN_POINT('',(-431.0096189432,39.5,77.139791507488));
#1218 = VECTOR('',#1219,1.);
#1219 = DIRECTION('',(9.E-17,-9.E-17,1.));
#1220 = ORIENTED_EDGE('',*,*,#1005,.F.);
#1221 = CYLINDRICAL_SURFACE('',#1222,15.);
#1222 = AXIS2_PLACEMENT_3D('',#1223,#1224,#1225);
#1223 = CARTESIAN_POINT('',(-444.,32.,77.139791507488));
#1224 = DIRECTION('',(-9.E-17,9.E-17,-1.));
#1225 = DIRECTION('',(-2.89E-15,1.,9.E-17));
#1226 = ADVANCED_FACE('',(#1227),#1233,.F.);
#1227 = FACE_BOUND('',#1228,.F.);
#1228 = EDGE_LOOP('',(#1229,#1230,#1231,#1232));
#1229 = ORIENTED_EDGE('',*,*,#1215,.T.);
#1230 = ORIENTED_EDGE('',*,*,#953,.T.);
#1231 = ORIENTED_EDGE('',*,*,#1198,.F.);
#1232 = ORIENTED_EDGE('',*,*,#1014,.F.);
#1233 = PLANE('',#1234);
#1234 = AXIS2_PLACEMENT_3D('',#1235,#1236,#1237);
#1235 = CARTESIAN_POINT('',(-431.0096189432,39.5,77.139791507488));
#1236 = DIRECTION('',(0.866025403784,0.5,-3.E-17));
#1237 = DIRECTION('',(0.5,-0.866025403784,-1.2E-16));
#1238 = ADVANCED_FACE('',(#1239),#1250,.F.);
#1239 = FACE_BOUND('',#1240,.F.);
#1240 = EDGE_LOOP('',(#1241,#1242,#1243,#1249));
#1241 = ORIENTED_EDGE('',*,*,#1180,.T.);
#1242 = ORIENTED_EDGE('',*,*,#1153,.T.);
#1243 = ORIENTED_EDGE('',*,*,#1244,.F.);
#1244 = EDGE_CURVE('',#1080,#1146,#1245,.T.);
#1245 = LINE('',#1246,#1247);
#1246 = CARTESIAN_POINT('',(-416.3049796462,63.307609023983,
    79.191419078192));
#1247 = VECTOR('',#1248,1.);
#1248 = DIRECTION('',(0.414783173234,-0.909920281784,-1.1E-16));
#1249 = ORIENTED_EDGE('',*,*,#1087,.F.);
#1250 = PLANE('',#1251);
#1251 = AXIS2_PLACEMENT_3D('',#1252,#1253,#1254);
#1252 = CARTESIAN_POINT('',(-423.7573094005,59.910497161177,
    80.202134806913));
#1253 = DIRECTION('',(0.111445253102,5.080183027987E-02,0.992471223563)
  );
#1254 = DIRECTION('',(0.903069695407,0.411660363453,-0.122478040476));
#1255 = ADVANCED_FACE('',(#1256),#1267,.T.);
#1256 = FACE_BOUND('',#1257,.T.);
#1257 = EDGE_LOOP('',(#1258,#1264,#1265,#1266));
#1258 = ORIENTED_EDGE('',*,*,#1259,.T.);
#1259 = EDGE_CURVE('',#1072,#1138,#1260,.T.);
#1260 = LINE('',#1261,#1262);
#1261 = CARTESIAN_POINT('',(-415.2519557387,63.787625357932,
    88.569081175398));
#1262 = VECTOR('',#1263,1.);
#1263 = DIRECTION('',(0.414783173234,-0.909920281784,-1.1E-16));
#1264 = ORIENTED_EDGE('',*,*,#1145,.T.);
#1265 = ORIENTED_EDGE('',*,*,#1244,.F.);
#1266 = ORIENTED_EDGE('',*,*,#1079,.F.);
#1267 = PLANE('',#1268);
#1268 = AXIS2_PLACEMENT_3D('',#1269,#1270,#1271);
#1269 = CARTESIAN_POINT('',(-415.2519557387,63.787625357932,
    88.569081175398));
#1270 = DIRECTION('',(0.903069695407,0.411660363453,-0.122478040476));
#1271 = DIRECTION('',(-0.111445253102,-5.080183027987E-02,
    -0.992471223563));
#1272 = ADVANCED_FACE('',(#1273),#1279,.T.);
#1273 = FACE_BOUND('',#1274,.T.);
#1274 = EDGE_LOOP('',(#1275,#1276,#1277,#1278));
#1275 = ORIENTED_EDGE('',*,*,#1112,.T.);
#1276 = ORIENTED_EDGE('',*,*,#1137,.T.);
#1277 = ORIENTED_EDGE('',*,*,#1259,.F.);
#1278 = ORIENTED_EDGE('',*,*,#1071,.F.);
#1279 = PLANE('',#1280);
#1280 = AXIS2_PLACEMENT_3D('',#1281,#1282,#1283);
#1281 = CARTESIAN_POINT('',(-423.7573006286,59.910501159817,
    89.722611164252));
#1282 = DIRECTION('',(0.111445253102,5.080183027987E-02,0.992471223563)
  );
#1283 = DIRECTION('',(0.903069695407,0.411660363453,-0.122478040476));
#1284 = ( GEOMETRIC_REPRESENTATION_CONTEXT(3) 
GLOBAL_UNCERTAINTY_ASSIGNED_CONTEXT((#1288)) 
GLOBAL_UNIT_ASSIGNED_CONTEXT((#1285,#1286,#1287)) REPRESENTATION_CONTEXT
('Context #1','3D Context with UNIT and UNCERTAINTY') );
#1285 = ( LENGTH_UNIT() NAMED_UNIT(*) SI_UNIT(.MILLI.,.METRE.) );
#1286 = ( NAMED_UNIT(*) PLANE_ANGLE_UNIT() SI_UNIT($,.RADIAN.) );
#1287 = ( NAMED_UNIT(*) SI_UNIT($,.STERADIAN.) SOLID_ANGLE_UNIT() );
#1288 = UNCERTAINTY_MEASURE_WITH_UNIT(LENGTH_MEASURE(1.E-07),#1285,
  'distance_accuracy_value','confusion accuracy');
#1289 = PRODUCT_RELATED_PRODUCT_CATEGORY('part',$,(#7));
#1290 = MECHANICAL_DESIGN_GEOMETRIC_PRESENTATION_REPRESENTATION('',(
    #1291),#1284);
#1291 = STYLED_ITEM('color',(#1292),#15);
#1292 = PRESENTATION_STYLE_ASSIGNMENT((#1293,#1299));
#1293 = SURFACE_STYLE_USAGE(.BOTH.,#1294);
#1294 = SURFACE_SIDE_STYLE('',(#1295));
#1295 = SURFACE_STYLE_FILL_AREA(#1296);
#1296 = FILL_AREA_STYLE('',(#1297));
#1297 = FILL_AREA_STYLE_COLOUR('',#1298);
#1298 = COLOUR_RGB('',0.960784305148,0.349019616187,0.270588249277);
#1299 = CURVE_STYLE('',#1300,POSITIVE_LENGTH_MEASURE(0.1),#1301);
#1300 = DRAUGHTING_PRE_DEFINED_CURVE_FONT('continuous');
#1301 = COLOUR_RGB('',9.803921802644E-02,9.803921802644E-02,
  9.803921802644E-02);
ENDSEC;
END-ISO-10303-21;
