999
FreeCAD v1.1 20260414 (Git shallow)
  0
SECTION
  2
HEADER
  9
$ACADVER
  1
AC1014
  9
$ACADMAINTVER
 70
     9
  9
$DWGCODEPAGE
  3
ANSI_1252
  9
$TEXTSTYLE
  7
STANDARD
  9
$DIMSTYLE
  2
STANDARD
  9
$DIMTXSTY
  7
STANDARD
  9
$CMLSTYLE
  2
STANDARD
  9
$LUNITS
 70
2
  9
$INSUNITS
 70
4
  9
$PEXTMAX
 10
50
 20
50
 30
50
  9
$PEXTMIN
 10
0
 20
0
 30
0
  9
$HANDSEED
  5
FFFF
  0
ENDSEC
  0
SECTION
  2
CLASSES
  0
CLASS
  1
ACDBDICTIONARYWDFLT
  2
AcDbDictionaryWithDefault
  3
ObjectDBX Classes
 90
        0
280
     0
281
     0
  0
CLASS
  1
XRECORD
  2
AcDbXrecord
  3
ObjectDBX Classes
 90
        0
280
     0
281
     0
  0
CLASS
  1
LWPOLYLINE
  2
AcDbPolyline
  3
ObjectDBX Classes
 90
        0
280
     0
281
     1
  0
ENDSEC
  0
SECTION
  2
TABLES
  0
TABLE
  2
VPORT
  5
20
330
0
100
AcDbSymbolTable
 70
     1
  0
VPORT
  5
21
330
20
100
AcDbSymbolTableRecord
100
AcDbViewportTableRecord
  2
*ACTIVE
 70
     0
  0
ENDTAB
  0
TABLE
  2
LTYPE
  5
22
330
0
100
AcDbSymbolTable
 70
     1
  0
LTYPE
  5
23
330
21
100
AcDbSymbolTableRecord
100
AcDbLinetypeTableRecord
  2
BYBLOCK
 70
     0
  3

 72
    65
 73
     0
 40
0.0
  0
LTYPE
  5
24
330
21
100
AcDbSymbolTableRecord
100
AcDbLinetypeTableRecord
  2
BYLAYER
 70
     0
  3

 72
    65
 73
     0
 40
0.0
  0
LTYPE
  5
25
330
21
100
AcDbSymbolTableRecord
100
AcDbLinetypeTableRecord
  2
CONTINUOUS
 70
     0
  3
Solid line
 72
    65
 73
     0
 40
0.0
  0
ENDTAB
  0
TABLE
  2
LAYER
  5
A10
330
0
100
AcDbSymbolTable
 70
3
  0
LAYER
  5
A11
330
A10
100
AcDbSymbolTableRecord
100
AcDbLayerTableRecord
  2
0
 70
   0
 62
   7
  6
CONTINUOUS
  0
LAYER
  5
A12
330
A10
100
AcDbSymbolTableRecord
100
AcDbLayerTableRecord
  2
none
 70
    0
 62
    7
  6
CONTINUOUS
  0
LAYER
  5
A13
330
A10
100
AcDbSymbolTableRecord
100
AcDbLayerTableRecord
  2
Flattened_Face002
 70
    0
 62
    7
  6
CONTINUOUS
  0
ENDTAB
  0
TABLE
  2
STYLE
  5
70
330
0
100
AcDbSymbolTable
 70
     2
  0
STYLE
  5
71
330
70
100
AcDbSymbolTableRecord
100
AcDbTextStyleTableRecord
  2
STANDARD
 70
     0
 40
0.0
 41
1.0
 50
0.0
 71
     0
 42
2.5
  3
arial.ttf
  4

  0
STYLE
  5
72
330
70
100
AcDbSymbolTableRecord
100
AcDbTextStyleTableRecord
  2
ANNOTATIVE
 70
     0
 40
0.0
 41
1.0
 50
0.0
 71
     0
 42
2.5
  3
arial.ttf
  4

  0
ENDTAB
  0
TABLE
  2
VIEW
  5
73
330
0
100
AcDbSymbolTable
 70
     0
  0
ENDTAB
  0
TABLE
  2
UCS
  5
74
330
0
100
AcDbSymbolTable
 70
     0
  0
ENDTAB
  0
TABLE
  2
APPID
  5
75
330
0
100
AcDbSymbolTable
 70
     2
  0
APPID
  5
76
330
75
100
AcDbSymbolTableRecord
100
AcDbRegAppTableRecord
  2
ACAD
 70
     0
  0
APPID
  5
77
330
75
100
AcDbSymbolTableRecord
100
AcDbRegAppTableRecord
  2
ACADANNOTATIVE
 70
     0
  0
ENDTAB
  0
TABLE
  2
DIMSTYLE
  5
78
330
0
100
AcDbSymbolTable
 70
     2
  0
DIMSTYLE
105
79
330
78
100
AcDbSymbolTableRecord
100
AcDbDimStyleTableRecord
  2
STANDARD
 70
     0
  3

  4

  5

  6

  7

 40
0.0
 41
2.5
 42
0.625
 43
3.75
 44
1.25
 45
0.0
 46
0.0
 47
0.0
 48
0.0
140
2.5
141
2.5
142
0.0
143
0.03937007874016
144
1.0
145
0.0
146
1.0
147
0.625
 71
     0
 72
     0
 73
     0
 74
     0
 75
     0
 76
     0
 77
     1
 78
     8
170
     0
171
     3
172
     1
173
     0
174
     0
175
     0
176
     0
177
     0
178
     0
270
     2
271
     2
272
     2
273
     2
274
     3
340
71
275
     0
280
     0
281
     0
282
     0
283
     0
284
     8
285
     0
286
     0
287
     3
288
     0
  0
ENDTAB
  0
TABLE
  2
BLOCK_RECORD
  5
A01
330
0
100
AcDbSymbolTable
  70
5
  0
BLOCK_RECORD
  5
A02
330
A01
100
AcDbSymbolTableRecord
100
AcDbBlockTableRecord
  2
*MODEL_SPACE
  0
BLOCK_RECORD
  5
A03
330
A01
100
AcDbSymbolTableRecord
100
AcDbBlockTableRecord
  2
*PAPER_SPACE
  0
ENDTAB
  0
ENDSEC
  0
SECTION
  2
BLOCKS
  0
BLOCK
  5
A04
330
A02
100
AcDbEntity
  8
0
100
AcDbBlockBegin
  2
*MODEL_SPACE
 70
   0
 10
0
 20
0
 30
0
  3
*MODEL_SPACE
  1
 
  0
ENDBLK
  5
A05
330
A02
100
AcDbEntity
  8
0
100
AcDbBlockEnd
  0
BLOCK
  5
A06
330
A03
100
AcDbEntity
 67
1
  8
0
100
AcDbBlockBegin
  2
*PAPER_SPACE
 70
   0
 10
0
 20
0
 30
0
  3
*PAPER_SPACE
  1
 
  0
ENDBLK
  5
A07
330
A03
100
AcDbEntity
 67
    1
  8
0
100
AcDbBlockEnd
  0
ENDSEC
  0
SECTION
  2
ENTITIES
  0
SPLINE
  5
A08
330
A02
100
AcDbEntity
  8
Flattened_Face002
100
AcDbSpline
210
0
220
0
230
1
 70
8
 71
3
 72
50
 73
46
 74
0
 40
0.000000000
 40
0.000000000
 40
0.000000000
 40
0.000000000
 40
0.084804482
 40
0.084804482
 40
0.084804482
 40
0.150354766
 40
0.150354766
 40
0.150354766
 40
0.219789840
 40
0.219789840
 40
0.219789840
 40
0.255044834
 40
0.255044834
 40
0.255044834
 40
0.349045040
 40
0.349045040
 40
0.349045040
 40
0.436658819
 40
0.436658819
 40
0.436658819
 40
0.494171168
 40
0.494171168
 40
0.494171168
 40
0.530328798
 40
0.530328798
 40
0.530328798
 40
0.587729003
 40
0.587729003
 40
0.587729003
 40
0.645129207
 40
0.645129207
 40
0.645129207
 40
0.744163045
 40
0.744163045
 40
0.744163045
 40
0.779079064
 40
0.779079064
 40
0.779079064
 40
0.847640995
 40
0.847640995
 40
0.847640995
 40
0.912376105
 40
0.912376105
 40
0.912376105
 40
1.000000000
 40
1.000000000
 40
1.000000000
 40
1.000000000
 10
6.352722593
 20
-85.074957488
 30
0.000000000
 10
7.307489131
 20
-84.601251684
 30
0.000000000
 10
8.328676462
 20
-84.133390763
 30
0.000000000
 10
9.500693204
 20
-83.790772419
 30
0.000000000
 10
10.407581031
 20
-83.525447586
 30
0.000000000
 10
11.423501076
 20
-83.347760392
 30
0.000000000
 10
12.462138556
 20
-83.349408615
 30
0.000000000
 10
13.562187382
 20
-83.346047699
 30
0.000000000
 10
14.634565469
 20
-83.544551098
 30
0.000000000
 10
15.583703712
 20
-83.834722810
 30
0.000000000
 10
16.064066423
 20
-83.982644338
 30
0.000000000
 10
16.522081293
 20
-84.147238525
 30
0.000000000
 10
16.957748324
 20
-84.328505371
 30
0.000000000
 10
18.121961141
 20
-84.808719798
 30
0.000000000
 10
19.151167696
 20
-85.363578325
 30
0.000000000
 10
20.152755397
 20
-85.882996064
 30
0.000000000
 10
21.086102589
 20
-86.365844565
 30
0.000000000
 10
21.995271163
 20
-86.831503644
 30
0.000000000
 10
22.946153881
 20
-87.138793975
 30
0.000000000
 10
23.571180630
 20
-87.340363620
 30
0.000000000
 10
24.216273534
 20
-87.463017220
 30
0.000000000
 10
24.863457625
 20
-87.458125051
 30
0.000000000
 10
25.271807159
 20
-87.454731856
 30
0.000000000
 10
25.675534357
 20
-87.406874702
 30
0.000000000
 10
26.074639219
 20
-87.314553589
 30
0.000000000
 10
26.706036044
 20
-87.170556743
 30
0.000000000
 10
27.310530135
 20
-86.932898067
 30
0.000000000
 10
27.907711161
 20
-86.654217449
 30
0.000000000
 10
28.504807391
 20
-86.374837343
 30
0.000000000
 10
29.093118294
 20
-86.054805703
 30
0.000000000
 10
29.690224974
 20
-85.726160298
 30
0.000000000
 10
30.720118312
 20
-85.160065689
 30
0.000000000
 10
31.777929755
 20
-84.557133166
 30
0.000000000
 10
32.989880676
 20
-84.038337040
 30
0.000000000
 10
33.416110509
 20
-83.854476227
 30
0.000000000
 10
33.865100728
 20
-83.687435938
 30
0.000000000
 10
34.336851331
 20
-83.537216175
 30
0.000000000
 10
35.266324755
 20
-83.243436869
 30
0.000000000
 10
36.319996738
 20
-83.041119995
 30
0.000000000
 10
37.404587532
 20
-83.043749940
 30
0.000000000
 10
38.428764444
 20
-83.041394272
 30
0.000000000
 10
39.429440718
 20
-83.221793464
 30
0.000000000
 10
40.318351227
 20
-83.489998818
 30
0.000000000
 10
41.520302379
 20
-83.852794994
 30
0.000000000
 10
42.555072367
 20
-84.351441032
 30
0.000000000
 10
43.520060783
 20
-84.855619695
 30
0.000000000
  0
SPLINE
  5
A09
330
A02
100
AcDbEntity
  8
Flattened_Face002
100
AcDbSpline
210
0
220
0
230
1
 70
8
 71
3
 72
11
 73
7
 74
0
 40
5.496561242
 40
5.496561242
 40
5.496561242
 40
5.496561242
 40
5.896732744
 40
5.896732744
 40
5.896732744
 40
6.296904246
 40
6.296904246
 40
6.296904246
 40
6.296904246
 10
43.520060783
 20
-84.855619699
 30
0.000000000
 10
44.578847882
 20
-83.802872445
 30
0.000000000
 10
45.637634981
 20
-82.963976612
 30
0.000000000
 10
46.696422079
 20
-82.404612565
 30
0.000000000
 10
47.755209178
 20
-81.843699453
 30
0.000000000
 10
48.813996277
 20
-81.562860631
 30
0.000000000
 10
49.872783376
 20
-81.584084752
 30
0.000000000
  0
SPLINE
  5
A0A
330
A02
100
AcDbEntity
  8
Flattened_Face002
100
AcDbSpline
210
0
220
0
230
1
 70
8
 71
1
 72
4
 73
2
 74
0
 40
-81.584084752
 40
-81.584084752
 40
69.797423567
 40
69.797423567
 10
49.872783376
 20
-81.584084752
 30
0.000000000
 10
49.872783376
 20
69.797423567
 30
0.000000000
  0
SPLINE
  5
A0B
330
A02
100
AcDbEntity
  8
Flattened_Face002
100
AcDbSpline
210
0
220
0
230
1
 70
8
 71
1
 72
4
 73
2
 74
0
 40
0.000000000
 40
0.000000000
 40
6.283185307
 40
6.283185307
 10
49.872783376
 20
69.797423567
 30
0.000000000
 10
0.000000000
 20
69.797423567
 30
0.000000000
  0
SPLINE
  5
A0C
330
A02
100
AcDbEntity
  8
Flattened_Face002
100
AcDbSpline
210
0
220
0
230
1
 70
8
 71
1
 72
4
 73
2
 74
0
 40
-81.584084752
 40
-81.584084752
 40
69.797423567
 40
69.797423567
 10
-0.000000000
 20
-81.584084752
 30
0.000000000
 10
-0.000000000
 20
69.797423567
 30
0.000000000
  0
SPLINE
  5
A0D
330
A02
100
AcDbEntity
  8
Flattened_Face002
100
AcDbSpline
210
0
220
0
230
1
 70
8
 71
3
 72
11
 73
7
 74
0
 40
0.013718938
 40
0.013718938
 40
0.013718938
 40
0.013718938
 40
0.413890440
 40
0.413890440
 40
0.413890440
 40
0.814061942
 40
0.814061942
 40
0.814061942
 40
0.814061942
 10
-0.000000000
 20
-81.584084752
 30
0.000000000
 10
1.058787099
 20
-81.603636244
 30
0.000000000
 10
2.117574198
 20
-81.925230930
 30
0.000000000
 10
3.176361296
 20
-82.523689207
 30
0.000000000
 10
4.235148395
 20
-83.120616296
 30
0.000000000
 10
5.293935494
 20
-83.993828097
 30
0.000000000
 10
6.352722593
 20
-85.074957492
 30
0.000000000
  0
SPLINE
  5
A0E
330
A02
100
AcDbEntity
  8
Flattened_Face002
100
AcDbSpline
210
0
220
0
230
1
 70
9
 71
3
 72
29
 73
25
 74
0
 40
0.000000000
 40
0.000000000
 40
0.000000000
 40
0.000000000
 40
0.107425598
 40
0.107425598
 40
0.107425598
 40
0.249890284
 40
0.249890284
 40
0.249890284
 40
0.392356435
 40
0.392356435
 40
0.392356435
 40
0.499751099
 40
0.499751099
 40
0.499751099
 40
0.607177521
 40
0.607177521
 40
0.607177521
 40
0.749764382
 40
0.749764382
 40
0.749764382
 40
0.892511535
 40
0.892511535
 40
0.892511535
 40
1.000000000
 40
1.000000000
 40
1.000000000
 40
1.000000000
 10
24.936391688
 20
-64.684332411
 30
0.000000000
 10
25.624327570
 20
-64.681282352
 30
0.000000000
 10
26.248137537
 20
-64.977462023
 30
0.000000000
 10
26.661303755
 20
-65.361910843
 30
0.000000000
 10
27.212194783
 20
-65.871280237
 30
0.000000000
 10
27.478840897
 20
-66.532223708
 30
0.000000000
 10
27.479687119
 20
-67.184332411
 30
0.000000000
 10
27.478830591
 20
-67.836467959
 30
0.000000000
 10
27.212203606
 20
-68.497368215
 30
0.000000000
 10
26.661303755
 20
-69.006753980
 30
0.000000000
 10
26.248256444
 20
-69.391159265
 30
0.000000000
 10
25.624137338
 20
-69.687436462
 30
0.000000000
 10
24.936391688
 20
-69.684332411
 30
0.000000000
 10
24.248455806
 20
-69.687382471
 30
0.000000000
 10
23.624645839
 20
-69.391202800
 30
0.000000000
 10
23.211479621
 20
-69.006753980
 30
0.000000000
 10
22.660577881
 20
-68.497444471
 30
0.000000000
 10
22.394068771
 20
-67.836678210
 30
0.000000000
 10
22.393096256
 20
-67.184332411
 30
0.000000000
 10
22.393952785
 20
-66.532196864
 30
0.000000000
 10
22.660579769
 20
-65.871296608
 30
0.000000000
 10
23.211479621
 20
-65.361910843
 30
0.000000000
 10
23.624024924
 20
-64.977682607
 30
0.000000000
 10
24.249507474
 20
-64.680986480
 30
0.000000000
 10
24.936391688
 20
-64.684332411
 30
0.000000000
  0
SPLINE
  5
A0F
330
A02
100
AcDbEntity
  8
Flattened_Face002
100
AcDbSpline
210
0
220
0
230
1
 70
9
 71
3
 72
29
 73
25
 74
0
 40
0.000000000
 40
0.000000000
 40
0.000000000
 40
0.000000000
 40
0.107476489
 40
0.107476489
 40
0.107476489
 40
0.250008668
 40
0.250008668
 40
0.250008668
 40
0.392542309
 40
0.392542309
 40
0.392542309
 40
0.499987849
 40
0.499987849
 40
0.499987849
 40
0.607465163
 40
0.607465163
 40
0.607465163
 40
0.749994681
 40
0.749994681
 40
0.749994681
 40
0.892549833
 40
0.892549833
 40
0.892549833
 40
1.000000000
 40
1.000000000
 40
1.000000000
 40
1.000000000
 10
24.936391688
 20
-44.684332411
 30
0.000000000
 10
25.624327570
 20
-44.681282352
 30
0.000000000
 10
26.248137537
 20
-44.977462023
 30
0.000000000
 10
26.661303755
 20
-45.361910843
 30
0.000000000
 10
27.212194783
 20
-45.871280237
 30
0.000000000
 10
27.478840897
 20
-46.532223708
 30
0.000000000
 10
27.479687119
 20
-47.184332411
 30
0.000000000
 10
27.478830591
 20
-47.836467959
 30
0.000000000
 10
27.212203606
 20
-48.497368215
 30
0.000000000
 10
26.661303755
 20
-49.006753980
 30
0.000000000
 10
26.248256444
 20
-49.391159265
 30
0.000000000
 10
25.624137338
 20
-49.687436462
 30
0.000000000
 10
24.936391688
 20
-49.684332411
 30
0.000000000
 10
24.248455806
 20
-49.687382471
 30
0.000000000
 10
23.624645839
 20
-49.391202800
 30
0.000000000
 10
23.211479621
 20
-49.006753980
 30
0.000000000
 10
22.660604416
 20
-48.497433013
 30
0.000000000
 10
22.393921931
 20
-47.836362252
 30
0.000000000
 10
22.393096256
 20
-47.184332411
 30
0.000000000
 10
22.393952785
 20
-46.532196864
 30
0.000000000
 10
22.660579769
 20
-45.871296608
 30
0.000000000
 10
23.211479621
 20
-45.361910843
 30
0.000000000
 10
23.624491780
 20
-44.977513216
 30
0.000000000
 10
24.248739246
 20
-44.681204451
 30
0.000000000
 10
24.936391688
 20
-44.684332411
 30
0.000000000
  0
ENDSEC
  0
SECTION
  2
OBJECTS
  0
DICTIONARY
  5
F000
330
0
100
AcDbDictionary
  3
ACAD_GROUP
350
F001
  0
DICTIONARY
  5
F001
330
F000
100
AcDbDictionary
  0
ENDSEC
  0
EOF