999
FreeCAD v1.1 20260414 (Git shallow)
  0
SECTION
  2
HEADER
  9
$ACADVER
  1
AC1014
  9
$ACADMAINTVER
 70
     9
  9
$DWGCODEPAGE
  3
ANSI_1252
  9
$TEXTSTYLE
  7
STANDARD
  9
$DIMSTYLE
  2
STANDARD
  9
$DIMTXSTY
  7
STANDARD
  9
$CMLSTYLE
  2
STANDARD
  9
$LUNITS
 70
2
  9
$INSUNITS
 70
4
  9
$PEXTMAX
 10
50
 20
50
 30
50
  9
$PEXTMIN
 10
0
 20
0
 30
0
  9
$HANDSEED
  5
FFFF
  0
ENDSEC
  0
SECTION
  2
CLASSES
  0
CLASS
  1
ACDBDICTIONARYWDFLT
  2
AcDbDictionaryWithDefault
  3
ObjectDBX Classes
 90
        0
280
     0
281
     0
  0
CLASS
  1
XRECORD
  2
AcDbXrecord
  3
ObjectDBX Classes
 90
        0
280
     0
281
     0
  0
CLASS
  1
LWPOLYLINE
  2
AcDbPolyline
  3
ObjectDBX Classes
 90
        0
280
     0
281
     1
  0
ENDSEC
  0
SECTION
  2
TABLES
  0
TABLE
  2
VPORT
  5
20
330
0
100
AcDbSymbolTable
 70
     1
  0
VPORT
  5
21
330
20
100
AcDbSymbolTableRecord
100
AcDbViewportTableRecord
  2
*ACTIVE
 70
     0
  0
ENDTAB
  0
TABLE
  2
LTYPE
  5
22
330
0
100
AcDbSymbolTable
 70
     1
  0
LTYPE
  5
23
330
21
100
AcDbSymbolTableRecord
100
AcDbLinetypeTableRecord
  2
BYBLOCK
 70
     0
  3

 72
    65
 73
     0
 40
0.0
  0
LTYPE
  5
24
330
21
100
AcDbSymbolTableRecord
100
AcDbLinetypeTableRecord
  2
BYLAYER
 70
     0
  3

 72
    65
 73
     0
 40
0.0
  0
LTYPE
  5
25
330
21
100
AcDbSymbolTableRecord
100
AcDbLinetypeTableRecord
  2
CONTINUOUS
 70
     0
  3
Solid line
 72
    65
 73
     0
 40
0.0
  0
ENDTAB
  0
TABLE
  2
LAYER
  5
A6D
330
0
100
AcDbSymbolTable
 70
5
  0
LAYER
  5
A6E
330
A6D
100
AcDbSymbolTableRecord
100
AcDbLayerTableRecord
  2
0
 70
   0
 62
   7
  6
CONTINUOUS
  0
LAYER
  5
A6F
330
A6D
100
AcDbSymbolTableRecord
100
AcDbLayerTableRecord
  2
none
 70
    0
 62
    7
  6
CONTINUOUS
  0
LAYER
  5
A70
330
A6D
100
AcDbSymbolTableRecord
100
AcDbLayerTableRecord
  2
Sketch
 70
    0
 62
    7
  6
CONTINUOUS
  0
LAYER
  5
A71
330
A6D
100
AcDbSymbolTableRecord
100
AcDbLayerTableRecord
  2
Sketch001
 70
    0
 62
    7
  6
CONTINUOUS
  0
LAYER
  5
A72
330
A6D
100
AcDbSymbolTableRecord
100
AcDbLayerTableRecord
  2
Sketch002
 70
    0
 62
    7
  6
CONTINUOUS
  0
ENDTAB
  0
TABLE
  2
STYLE
  5
70
330
0
100
AcDbSymbolTable
 70
     2
  0
STYLE
  5
71
330
70
100
AcDbSymbolTableRecord
100
AcDbTextStyleTableRecord
  2
STANDARD
 70
     0
 40
0.0
 41
1.0
 50
0.0
 71
     0
 42
2.5
  3
arial.ttf
  4

  0
STYLE
  5
72
330
70
100
AcDbSymbolTableRecord
100
AcDbTextStyleTableRecord
  2
ANNOTATIVE
 70
     0
 40
0.0
 41
1.0
 50
0.0
 71
     0
 42
2.5
  3
arial.ttf
  4

  0
ENDTAB
  0
TABLE
  2
VIEW
  5
73
330
0
100
AcDbSymbolTable
 70
     0
  0
ENDTAB
  0
TABLE
  2
UCS
  5
74
330
0
100
AcDbSymbolTable
 70
     0
  0
ENDTAB
  0
TABLE
  2
APPID
  5
75
330
0
100
AcDbSymbolTable
 70
     2
  0
APPID
  5
76
330
75
100
AcDbSymbolTableRecord
100
AcDbRegAppTableRecord
  2
ACAD
 70
     0
  0
APPID
  5
77
330
75
100
AcDbSymbolTableRecord
100
AcDbRegAppTableRecord
  2
ACADANNOTATIVE
 70
     0
  0
ENDTAB
  0
TABLE
  2
DIMSTYLE
  5
78
330
0
100
AcDbSymbolTable
 70
     2
  0
DIMSTYLE
105
79
330
78
100
AcDbSymbolTableRecord
100
AcDbDimStyleTableRecord
  2
STANDARD
 70
     0
  3

  4

  5

  6

  7

 40
0.0
 41
2.5
 42
0.625
 43
3.75
 44
1.25
 45
0.0
 46
0.0
 47
0.0
 48
0.0
140
2.5
141
2.5
142
0.0
143
0.03937007874016
144
1.0
145
0.0
146
1.0
147
0.625
 71
     0
 72
     0
 73
     0
 74
     0
 75
     0
 76
     0
 77
     1
 78
     8
170
     0
171
     3
172
     1
173
     0
174
     0
175
     0
176
     0
177
     0
178
     0
270
     2
271
     2
272
     2
273
     2
274
     3
340
71
275
     0
280
     0
281
     0
282
     0
283
     0
284
     8
285
     0
286
     0
287
     3
288
     0
  0
ENDTAB
  0
TABLE
  2
BLOCK_RECORD
  5
A01
330
0
100
AcDbSymbolTable
  70
5
  0
BLOCK_RECORD
  5
A02
330
A01
100
AcDbSymbolTableRecord
100
AcDbBlockTableRecord
  2
*MODEL_SPACE
  0
BLOCK_RECORD
  5
A03
330
A01
100
AcDbSymbolTableRecord
100
AcDbBlockTableRecord
  2
*PAPER_SPACE
  0
ENDTAB
  0
ENDSEC
  0
SECTION
  2
BLOCKS
  0
BLOCK
  5
A04
330
A02
100
AcDbEntity
  8
0
100
AcDbBlockBegin
  2
*MODEL_SPACE
 70
   0
 10
0
 20
0
 30
0
  3
*MODEL_SPACE
  1
 
  0
ENDBLK
  5
A05
330
A02
100
AcDbEntity
  8
0
100
AcDbBlockEnd
  0
BLOCK
  5
A06
330
A03
100
AcDbEntity
 67
1
  8
0
100
AcDbBlockBegin
  2
*PAPER_SPACE
 70
   0
 10
0
 20
0
 30
0
  3
*PAPER_SPACE
  1
 
  0
ENDBLK
  5
A07
330
A03
100
AcDbEntity
 67
    1
  8
0
100
AcDbBlockEnd
  0
ENDSEC
  0
SECTION
  2
ENTITIES
  0
SPLINE
  5
A08
330
A02
100
AcDbEntity
  8
Sketch
100
AcDbSpline
210
0
220
0
230
1
 70
8
 71
3
 72
50
 73
46
 74
0
 40
0.000000000
 40
0.000000000
 40
0.000000000
 40
0.000000000
 40
0.084804482
 40
0.084804482
 40
0.084804482
 40
0.150354766
 40
0.150354766
 40
0.150354766
 40
0.219789840
 40
0.219789840
 40
0.219789840
 40
0.255044834
 40
0.255044834
 40
0.255044834
 40
0.349045040
 40
0.349045040
 40
0.349045040
 40
0.436658819
 40
0.436658819
 40
0.436658819
 40
0.494171168
 40
0.494171168
 40
0.494171168
 40
0.530328798
 40
0.530328798
 40
0.530328798
 40
0.587729003
 40
0.587729003
 40
0.587729003
 40
0.645129207
 40
0.645129207
 40
0.645129207
 40
0.744163045
 40
0.744163045
 40
0.744163045
 40
0.779079064
 40
0.779079064
 40
0.779079064
 40
0.847640995
 40
0.847640995
 40
0.847640995
 40
0.912376105
 40
0.912376105
 40
0.912376105
 40
1.000000000
 40
1.000000000
 40
1.000000000
 40
1.000000000
 10
6.352723000
 20
-85.074957000
 30
0.000000000
 10
7.307489000
 20
-84.601252000
 30
0.000000000
 10
8.328676000
 20
-84.133391000
 30
0.000000000
 10
9.500693000
 20
-83.790772000
 30
0.000000000
 10
10.407581000
 20
-83.525448000
 30
0.000000000
 10
11.423501000
 20
-83.347760000
 30
0.000000000
 10
12.462139000
 20
-83.349409000
 30
0.000000000
 10
13.562187000
 20
-83.346048000
 30
0.000000000
 10
14.634565000
 20
-83.544551000
 30
0.000000000
 10
15.583704000
 20
-83.834723000
 30
0.000000000
 10
16.064066167
 20
-83.982644500
 30
0.000000000
 10
16.522080833
 20
-84.147238500
 30
0.000000000
 10
16.957748000
 20
-84.328505000
 30
0.000000000
 10
18.121961000
 20
-84.808720000
 30
0.000000000
 10
19.151168000
 20
-85.363578000
 30
0.000000000
 10
20.152755000
 20
-85.882996000
 30
0.000000000
 10
21.086103000
 20
-86.365845000
 30
0.000000000
 10
21.995271000
 20
-86.831504000
 30
0.000000000
 10
22.946154000
 20
-87.138794000
 30
0.000000000
 10
23.571181000
 20
-87.340364000
 30
0.000000000
 10
24.216274000
 20
-87.463017000
 30
0.000000000
 10
24.863458000
 20
-87.458125000
 30
0.000000000
 10
25.271807000
 20
-87.454732000
 30
0.000000000
 10
25.675534000
 20
-87.406875000
 30
0.000000000
 10
26.074639000
 20
-87.314554000
 30
0.000000000
 10
26.706036000
 20
-87.170557000
 30
0.000000000
 10
27.310530000
 20
-86.932898000
 30
0.000000000
 10
27.907711000
 20
-86.654217000
 30
0.000000000
 10
28.504807000
 20
-86.374837000
 30
0.000000000
 10
29.093118000
 20
-86.054806000
 30
0.000000000
 10
29.690225000
 20
-85.726160000
 30
0.000000000
 10
30.720118000
 20
-85.160066000
 30
0.000000000
 10
31.777930000
 20
-84.557133000
 30
0.000000000
 10
32.989881000
 20
-84.038337000
 30
0.000000000
 10
33.416111000
 20
-83.854476167
 30
0.000000000
 10
33.865101000
 20
-83.687435833
 30
0.000000000
 10
34.336851000
 20
-83.537216000
 30
0.000000000
 10
35.266325000
 20
-83.243437000
 30
0.000000000
 10
36.319997000
 20
-83.041120000
 30
0.000000000
 10
37.404588000
 20
-83.043750000
 30
0.000000000
 10
38.428764000
 20
-83.041394000
 30
0.000000000
 10
39.429441000
 20
-83.221793000
 30
0.000000000
 10
40.318351000
 20
-83.489999000
 30
0.000000000
 10
41.520302000
 20
-83.852795000
 30
0.000000000
 10
42.555072000
 20
-84.351441000
 30
0.000000000
 10
43.520061000
 20
-84.855620000
 30
0.000000000
  0
SPLINE
  5
A09
330
A02
100
AcDbEntity
  8
Sketch
100
AcDbSpline
210
0
220
0
230
1
 70
8
 71
3
 72
11
 73
7
 74
0
 40
5.496561242
 40
5.496561242
 40
5.496561242
 40
5.496561242
 40
5.896732744
 40
5.896732744
 40
5.896732744
 40
6.296904246
 40
6.296904246
 40
6.296904246
 40
6.296904246
 10
43.520061000
 20
-84.855620000
 30
0.000000000
 10
44.578848000
 20
-83.802872000
 30
0.000000000
 10
45.637635000
 20
-82.963977000
 30
0.000000000
 10
46.696422000
 20
-82.404613000
 30
0.000000000
 10
47.755209000
 20
-81.843699000
 30
0.000000000
 10
48.813996000
 20
-81.562861000
 30
0.000000000
 10
49.872783000
 20
-81.584085000
 30
0.000000000
  0
SPLINE
  5
A0A
330
A02
100
AcDbEntity
  8
Sketch
100
AcDbSpline
210
0
220
0
230
1
 70
8
 71
1
 72
4
 73
2
 74
0
 40
-81.584084752
 40
-81.584084752
 40
69.797423567
 40
69.797423567
 10
49.872783000
 20
-81.584085000
 30
0.000000000
 10
49.872783000
 20
69.797424000
 30
0.000000000
  0
SPLINE
  5
A0B
330
A02
100
AcDbEntity
  8
Sketch
100
AcDbSpline
210
0
220
0
230
1
 70
8
 71
1
 72
4
 73
2
 74
0
 40
0.000000000
 40
0.000000000
 40
6.283185307
 40
6.283185307
 10
49.872783000
 20
69.797424000
 30
0.000000000
 10
0.000000000
 20
69.797424000
 30
0.000000000
  0
SPLINE
  5
A0C
330
A02
100
AcDbEntity
  8
Sketch
100
AcDbSpline
210
0
220
0
230
1
 70
8
 71
1
 72
4
 73
2
 74
0
 40
-81.584084752
 40
-81.584084752
 40
69.797423567
 40
69.797423567
 10
0.000000000
 20
69.797424000
 30
0.000000000
 10
0.000000000
 20
-81.584085000
 30
0.000000000
  0
SPLINE
  5
A0D
330
A02
100
AcDbEntity
  8
Sketch
100
AcDbSpline
210
0
220
0
230
1
 70
8
 71
3
 72
11
 73
7
 74
0
 40
0.013718938
 40
0.013718938
 40
0.013718938
 40
0.013718938
 40
0.413890440
 40
0.413890440
 40
0.413890440
 40
0.814061942
 40
0.814061942
 40
0.814061942
 40
0.814061942
 10
0.000000000
 20
-81.584085000
 30
0.000000000
 10
1.058787000
 20
-81.603636000
 30
0.000000000
 10
2.117574000
 20
-81.925231000
 30
0.000000000
 10
3.176361000
 20
-82.523689000
 30
0.000000000
 10
4.235148000
 20
-83.120616000
 30
0.000000000
 10
5.293935000
 20
-83.993828000
 30
0.000000000
 10
6.352723000
 20
-85.074957000
 30
0.000000000
  0
SPLINE
  5
A0E
330
A02
100
AcDbEntity
  8
Sketch
100
AcDbSpline
210
0
220
0
230
1
 70
9
 71
3
 72
29
 73
25
 74
0
 40
0.000000000
 40
0.000000000
 40
0.000000000
 40
0.000000000
 40
0.107425598
 40
0.107425598
 40
0.107425598
 40
0.249890284
 40
0.249890284
 40
0.249890284
 40
0.392356435
 40
0.392356435
 40
0.392356435
 40
0.499751099
 40
0.499751099
 40
0.499751099
 40
0.607177521
 40
0.607177521
 40
0.607177521
 40
0.749764382
 40
0.749764382
 40
0.749764382
 40
0.892511535
 40
0.892511535
 40
0.892511535
 40
1.000000000
 40
1.000000000
 40
1.000000000
 40
1.000000000
 10
24.936392000
 20
-64.684332000
 30
0.000000000
 10
25.624328000
 20
-64.681282000
 30
0.000000000
 10
26.248138000
 20
-64.977462000
 30
0.000000000
 10
26.661304000
 20
-65.361911000
 30
0.000000000
 10
27.212195000
 20
-65.871280000
 30
0.000000000
 10
27.478841000
 20
-66.532224000
 30
0.000000000
 10
27.479687000
 20
-67.184332000
 30
0.000000000
 10
27.478831000
 20
-67.836468000
 30
0.000000000
 10
27.212204000
 20
-68.497368000
 30
0.000000000
 10
26.661304000
 20
-69.006754000
 30
0.000000000
 10
26.248256000
 20
-69.391159000
 30
0.000000000
 10
25.624137000
 20
-69.687436000
 30
0.000000000
 10
24.936392000
 20
-69.684332000
 30
0.000000000
 10
24.248456000
 20
-69.687382000
 30
0.000000000
 10
23.624646000
 20
-69.391203000
 30
0.000000000
 10
23.211480000
 20
-69.006754000
 30
0.000000000
 10
22.660578000
 20
-68.497444000
 30
0.000000000
 10
22.394069000
 20
-67.836678000
 30
0.000000000
 10
22.393096000
 20
-67.184332000
 30
0.000000000
 10
22.393953000
 20
-66.532197000
 30
0.000000000
 10
22.660580000
 20
-65.871297000
 30
0.000000000
 10
23.211480000
 20
-65.361911000
 30
0.000000000
 10
23.624025000
 20
-64.977683000
 30
0.000000000
 10
24.249507000
 20
-64.680986000
 30
0.000000000
 10
24.936392000
 20
-64.684332000
 30
0.000000000
  0
SPLINE
  5
A0F
330
A02
100
AcDbEntity
  8
Sketch
100
AcDbSpline
210
0
220
0
230
1
 70
9
 71
3
 72
29
 73
25
 74
0
 40
0.000000000
 40
0.000000000
 40
0.000000000
 40
0.000000000
 40
0.107476489
 40
0.107476489
 40
0.107476489
 40
0.250008668
 40
0.250008668
 40
0.250008668
 40
0.392542309
 40
0.392542309
 40
0.392542309
 40
0.499987849
 40
0.499987849
 40
0.499987849
 40
0.607465163
 40
0.607465163
 40
0.607465163
 40
0.749994681
 40
0.749994681
 40
0.749994681
 40
0.892549833
 40
0.892549833
 40
0.892549833
 40
1.000000000
 40
1.000000000
 40
1.000000000
 40
1.000000000
 10
24.936392000
 20
-44.684332000
 30
0.000000000
 10
25.624328000
 20
-44.681282000
 30
0.000000000
 10
26.248138000
 20
-44.977462000
 30
0.000000000
 10
26.661304000
 20
-45.361911000
 30
0.000000000
 10
27.212195000
 20
-45.871280000
 30
0.000000000
 10
27.478841000
 20
-46.532224000
 30
0.000000000
 10
27.479687000
 20
-47.184332000
 30
0.000000000
 10
27.478831000
 20
-47.836468000
 30
0.000000000
 10
27.212204000
 20
-48.497368000
 30
0.000000000
 10
26.661304000
 20
-49.006754000
 30
0.000000000
 10
26.248256000
 20
-49.391159000
 30
0.000000000
 10
25.624137000
 20
-49.687436000
 30
0.000000000
 10
24.936392000
 20
-49.684332000
 30
0.000000000
 10
24.248456000
 20
-49.687382000
 30
0.000000000
 10
23.624646000
 20
-49.391203000
 30
0.000000000
 10
23.211480000
 20
-49.006754000
 30
0.000000000
 10
22.660604000
 20
-48.497433000
 30
0.000000000
 10
22.393922000
 20
-47.836362000
 30
0.000000000
 10
22.393096000
 20
-47.184332000
 30
0.000000000
 10
22.393953000
 20
-46.532197000
 30
0.000000000
 10
22.660580000
 20
-45.871297000
 30
0.000000000
 10
23.211480000
 20
-45.361911000
 30
0.000000000
 10
23.624492000
 20
-44.977513000
 30
0.000000000
 10
24.248739000
 20
-44.681204000
 30
0.000000000
 10
24.936392000
 20
-44.684332000
 30
0.000000000
  0
SPLINE
  5
A10
330
A02
100
AcDbEntity
  8
Sketch001
100
AcDbSpline
210
0
220
0
230
1
 70
8
 71
3
 72
110
 73
106
 74
0
 40
0.000000000
 40
0.000000000
 40
0.000000000
 40
0.000000000
 40
0.006060606
 40
0.006060606
 40
0.006060606
 40
0.015151515
 40
0.015151515
 40
0.015151515
 40
0.030303030
 40
0.030303030
 40
0.030303030
 40
0.045454545
 40
0.045454545
 40
0.045454545
 40
0.060606061
 40
0.060606061
 40
0.060606061
 40
0.090909091
 40
0.090909091
 40
0.090909091
 40
0.124242424
 40
0.124242424
 40
0.124242424
 40
0.184848485
 40
0.184848485
 40
0.184848485
 40
0.218181818
 40
0.218181818
 40
0.218181818
 40
0.248484848
 40
0.248484848
 40
0.248484848
 40
0.278787879
 40
0.278787879
 40
0.278787879
 40
0.312121212
 40
0.312121212
 40
0.312121212
 40
0.375757576
 40
0.375757576
 40
0.375757576
 40
0.436363636
 40
0.436363636
 40
0.436363636
 40
0.466666667
 40
0.466666667
 40
0.466666667
 40
0.481818182
 40
0.481818182
 40
0.481818182
 40
0.490909091
 40
0.490909091
 40
0.490909091
 40
0.500000000
 40
0.500000000
 40
0.500000000
 40
0.506060606
 40
0.506060606
 40
0.506060606
 40
0.515151515
 40
0.515151515
 40
0.515151515
 40
0.530303030
 40
0.530303030
 40
0.530303030
 40
0.545454545
 40
0.545454545
 40
0.545454545
 40
0.563636364
 40
0.563636364
 40
0.563636364
 40
0.624242424
 40
0.624242424
 40
0.624242424
 40
0.687878788
 40
0.687878788
 40
0.687878788
 40
0.718181818
 40
0.718181818
 40
0.718181818
 40
0.748484848
 40
0.748484848
 40
0.748484848
 40
0.778787879
 40
0.778787879
 40
0.778787879
 40
0.812121212
 40
0.812121212
 40
0.812121212
 40
0.875757576
 40
0.875757576
 40
0.875757576
 40
0.936363636
 40
0.936363636
 40
0.936363636
 40
0.969696970
 40
0.969696970
 40
0.969696970
 40
0.984848485
 40
0.984848485
 40
0.984848485
 40
0.990909091
 40
0.990909091
 40
0.990909091
 40
1.000000000
 40
1.000000000
 40
1.000000000
 40
1.000000000
 10
0.000000000
 20
2.226448000
 30
0.000000000
 10
0.128942000
 20
2.236657000
 30
0.000000000
 10
0.244538000
 20
2.294044000
 30
0.000000000
 10
0.350447000
 20
2.363384000
 30
0.000000000
 10
0.507274000
 20
2.466726000
 30
0.000000000
 10
0.652336000
 20
2.595520000
 30
0.000000000
 10
0.790757000
 20
2.721655000
 30
0.000000000
 10
1.022343000
 20
2.934836000
 30
0.000000000
 10
1.265805000
 20
3.178895000
 30
0.000000000
 10
1.498691000
 20
3.413651000
 30
0.000000000
 10
1.732989000
 20
3.650355000
 30
0.000000000
 10
1.959459000
 20
3.882111000
 30
0.000000000
 10
2.196760000
 20
4.124194000
 30
0.000000000
 10
2.434601333
 20
4.365858333
 30
0.000000000
 10
2.672442667
 20
4.607522667
 30
0.000000000
 10
2.910284000
 20
4.849187000
 30
0.000000000
 10
3.388480833
 20
5.333459167
 30
0.000000000
 10
3.875583167
 20
5.813393833
 30
0.000000000
 10
4.371591000
 20
6.288991000
 30
0.000000000
 10
4.913766167
 20
6.809635833
 30
0.000000000
 10
5.476513833
 20
7.322010167
 30
0.000000000
 10
6.059834000
 20
7.826114000
 30
0.000000000
 10
7.125601000
 20
8.739228000
 30
0.000000000
 10
8.288023000
 20
9.641692000
 30
0.000000000
 10
9.639051000
 20
10.412610000
 30
0.000000000
 10
10.383162000
 20
10.834191000
 30
0.000000000
 10
11.195859000
 20
11.220915000
 30
0.000000000
 10
12.109903000
 20
11.510772000
 30
0.000000000
 10
12.941851000
 20
11.775224000
 30
0.000000000
 10
13.871714000
 20
11.950570000
 30
0.000000000
 10
14.822578000
 20
11.963737000
 30
0.000000000
 10
15.776263000
 20
11.980851000
 30
0.000000000
 10
16.724329000
 20
11.831811000
 30
0.000000000
 10
17.571324000
 20
11.584222000
 30
0.000000000
 10
18.507161000
 20
11.311939000
 30
0.000000000
 10
19.339329000
 20
10.933233000
 30
0.000000000
 10
20.098099000
 20
10.516858000
 30
0.000000000
 10
21.544169000
 20
9.715961000
 30
0.000000000
 10
22.755776000
 20
8.774877000
 30
0.000000000
 10
23.875641000
 20
7.815958000
 30
0.000000000
 10
24.942973000
 20
6.896423000
 30
0.000000000
 10
25.927274000
 20
5.941487000
 30
0.000000000
 10
26.881822000
 20
4.981764000
 30
0.000000000
 10
27.357675833
 20
4.500570833
 30
0.000000000
 10
27.829995167
 20
4.020450167
 30
0.000000000
 10
28.298780000
 20
3.541402000
 30
0.000000000
 10
28.535164000
 20
3.302035000
 30
0.000000000
 10
28.763194000
 20
3.071438000
 30
0.000000000
 10
29.005308000
 20
2.840917000
 30
0.000000000
 10
29.153818000
 20
2.700657000
 30
0.000000000
 10
29.283974000
 20
2.581013000
 30
0.000000000
 10
29.430623000
 20
2.466006000
 30
0.000000000
 10
29.577629000
 20
2.353057000
 30
0.000000000
 10
29.743076000
 20
2.238283000
 30
0.000000000
 10
29.929685000
 20
2.226062000
 30
0.000000000
 10
30.050969000
 20
2.218353000
 30
0.000000000
 10
30.170156000
 20
2.260193000
 30
0.000000000
 10
30.279089000
 20
2.316619000
 30
0.000000000
 10
30.440565000
 20
2.401238000
 30
0.000000000
 10
30.588259000
 20
2.512799000
 30
0.000000000
 10
30.731871000
 20
2.624094000
 30
0.000000000
 10
30.966394000
 20
2.808221000
 30
0.000000000
 10
31.212737000
 20
3.021161000
 30
0.000000000
 10
31.451603000
 20
3.229057000
 30
0.000000000
 10
31.689050167
 20
3.436836500
 30
0.000000000
 10
31.927022833
 20
3.646336500
 30
0.000000000
 10
32.165521000
 20
3.857557000
 30
0.000000000
 10
32.454339667
 20
4.113155000
 30
0.000000000
 10
32.745079333
 20
4.368568000
 30
0.000000000
 10
33.037740000
 20
4.623796000
 30
0.000000000
 10
34.015835000
 20
5.474877000
 30
0.000000000
 10
35.015496000
 20
6.312895000
 30
0.000000000
 10
36.101939000
 20
7.117589000
 30
0.000000000
 10
37.246287000
 20
7.960395000
 30
0.000000000
 10
38.472614000
 20
8.770692000
 30
0.000000000
 10
39.909681000
 20
9.441982000
 30
0.000000000
 10
40.594820000
 20
9.759735000
 30
0.000000000
 10
41.331491000
 20
10.043472000
 30
0.000000000
 10
42.129630000
 20
10.255678000
 30
0.000000000
 10
42.928638000
 20
10.468782000
 30
0.000000000
 10
43.795137000
 20
10.604888000
 30
0.000000000
 10
44.674601000
 20
10.621976000
 30
0.000000000
 10
45.556156000
 20
10.641356000
 30
0.000000000
 10
46.437128000
 20
10.539875000
 30
0.000000000
 10
47.255634000
 20
10.351110000
 30
0.000000000
 10
48.155964000
 20
10.144411000
 30
0.000000000
 10
48.982717000
 20
9.841334000
 30
0.000000000
 10
49.743718000
 20
9.495990000
 30
0.000000000
 10
51.196214000
 20
8.831924000
 30
0.000000000
 10
52.433598000
 20
8.021651000
 30
0.000000000
 10
53.581108000
 20
7.182447000
 30
0.000000000
 10
54.672988000
 20
6.379388000
 30
0.000000000
 10
55.680624000
 20
5.537957000
 30
0.000000000
 10
56.658443000
 20
4.688878000
 30
0.000000000
 10
57.197007000
 20
4.221468000
 30
0.000000000
 10
57.722124000
 20
3.752341000
 30
0.000000000
 10
58.254667000
 20
3.285603000
 30
0.000000000
 10
58.496215035
 20
3.074954186
 30
0.000000000
 10
58.734147230
 20
2.867326282
 30
0.000000000
 10
58.995057000
 20
2.658860000
 30
0.000000000
 10
59.097097167
 20
2.576785000
 30
0.000000000
 10
59.201641833
 20
2.499314000
 30
0.000000000
 10
59.308691000
 20
2.426447000
 30
0.000000000
 10
59.467455000
 20
2.322049000
 30
0.000000000
 10
59.650936000
 20
2.213044000
 30
0.000000000
 10
59.847340000
 20
2.226448000
 30
0.000000000
  0
SPLINE
  5
A11
330
A02
100
AcDbEntity
  8
Sketch001
100
AcDbSpline
210
0
220
0
230
1
 70
8
 71
1
 72
4
 73
2
 74
0
 40
2.226448132
 40
2.226448132
 40
381.182849001
 40
381.182849001
 10
59.847340000
 20
2.226448000
 30
0.000000000
 10
59.847340000
 20
381.182849000
 30
0.000000000
  0
SPLINE
  5
A12
330
A02
100
AcDbEntity
  8
Sketch001
100
AcDbSpline
210
0
220
0
230
1
 70
8
 71
1
 72
4
 73
2
 74
0
 40
4.712388980
 40
4.712388980
 40
6.283185307
 40
6.283185307
 10
59.847340000
 20
381.182849000
 30
0.000000000
 10
44.885505000
 20
381.182849000
 30
0.000000000
  0
SPLINE
  5
A13
330
A02
100
AcDbEntity
  8
Sketch001
100
AcDbSpline
210
0
220
0
230
1
 70
8
 71
1
 72
4
 73
2
 74
0
 40
1.570796327
 40
1.570796327
 40
4.712388980
 40
4.712388980
 10
44.885505000
 20
381.182849000
 30
0.000000000
 10
14.961835000
 20
381.182849000
 30
0.000000000
  0
SPLINE
  5
A14
330
A02
100
AcDbEntity
  8
Sketch001
100
AcDbSpline
210
0
220
0
230
1
 70
8
 71
1
 72
4
 73
2
 74
0
 40
0.000000000
 40
0.000000000
 40
1.570796327
 40
1.570796327
 10
14.961835000
 20
381.182849000
 30
0.000000000
 10
0.000000000
 20
381.182849000
 30
0.000000000
  0
SPLINE
  5
A15
330
A02
100
AcDbEntity
  8
Sketch001
100
AcDbSpline
210
0
220
0
230
1
 70
8
 71
1
 72
4
 73
2
 74
0
 40
2.226448132
 40
2.226448132
 40
381.182849001
 40
381.182849001
 10
0.000000000
 20
381.182849000
 30
0.000000000
 10
0.000000000
 20
2.226448000
 30
0.000000000
  0
SPLINE
  5
A16
330
A02
100
AcDbEntity
  8
Sketch001
100
AcDbSpline
210
0
220
0
230
1
 70
8
 71
1
 72
4
 73
2
 74
0
 40
1.570796327
 40
1.570796327
 40
4.712388980
 40
4.712388980
 10
44.885505000
 20
166.857649000
 30
0.000000000
 10
14.961835000
 20
166.857649000
 30
0.000000000
  0
SPLINE
  5
A17
330
A02
100
AcDbEntity
  8
Sketch001
100
AcDbSpline
210
0
220
0
230
1
 70
8
 71
1
 72
4
 73
2
 74
0
 40
1.570796327
 40
1.570796327
 40
4.712388980
 40
4.712388980
 10
14.961835000
 20
178.617849000
 30
0.000000000
 10
44.885505000
 20
178.617849000
 30
0.000000000
  0
SPLINE
  5
A18
330
A02
100
AcDbEntity
  8
Sketch001
100
AcDbSpline
210
0
220
0
230
1
 70
8
 71
1
 72
4
 73
2
 74
0
 40
1.570796327
 40
1.570796327
 40
4.712388980
 40
4.712388980
 10
44.885505000
 20
286.313849000
 30
0.000000000
 10
14.961835000
 20
286.313849000
 30
0.000000000
  0
SPLINE
  5
A19
330
A02
100
AcDbEntity
  8
Sketch001
100
AcDbSpline
210
0
220
0
230
1
 70
8
 71
1
 72
4
 73
2
 74
0
 40
1.570796327
 40
1.570796327
 40
4.712388980
 40
4.712388980
 10
14.961835000
 20
305.490849000
 30
0.000000000
 10
44.885505000
 20
305.490849000
 30
0.000000000
  0
LINE
  5
A1A
330
A02
100
AcDbEntity
  8
Sketch002
100
AcDbLine
 10
-154.758415000
 20
14.169693000
 30
0.000000000
 11
-148.414125000
 21
14.846032000
 31
0.000000000
  0
LINE
  5
A1B
330
A02
100
AcDbEntity
  8
Sketch002
100
AcDbLine
 10
-148.414125000
 20
14.846032000
 30
0.000000000
 11
-142.136906000
 21
15.283076000
 31
0.000000000
  0
LINE
  5
A1C
330
A02
100
AcDbEntity
  8
Sketch002
100
AcDbLine
 10
-142.136906000
 20
15.283076000
 30
0.000000000
 11
-135.978321000
 21
15.762949000
 31
0.000000000
  0
LINE
  5
A1D
330
A02
100
AcDbEntity
  8
Sketch002
100
AcDbLine
 10
-135.978321000
 20
15.762949000
 30
0.000000000
 11
-129.717425000
 21
15.924669000
 31
0.000000000
  0
LINE
  5
A1E
330
A02
100
AcDbEntity
  8
Sketch002
100
AcDbLine
 10
-129.717425000
 20
15.924669000
 30
0.000000000
 11
198.500336000
 21
38.760222000
 31
0.000000000
  0
LINE
  5
A1F
330
A02
100
AcDbEntity
  8
Sketch002
100
AcDbLine
 10
198.500336000
 20
38.760222000
 30
0.000000000
 11
198.622519000
 21
37.004221000
 31
0.000000000
  0
LINE
  5
A20
330
A02
100
AcDbEntity
  8
Sketch002
100
AcDbLine
 10
198.622519000
 20
37.004221000
 30
0.000000000
 11
198.744731000
 21
35.248250000
 31
0.000000000
  0
LINE
  5
A21
330
A02
100
AcDbEntity
  8
Sketch002
100
AcDbLine
 10
198.744731000
 20
35.248250000
 30
0.000000000
 11
198.866956000
 21
33.492316000
 31
0.000000000
  0
LINE
  5
A22
330
A02
100
AcDbEntity
  8
Sketch002
100
AcDbLine
 10
198.866956000
 20
33.492316000
 30
0.000000000
 11
198.989211000
 21
31.736452000
 31
0.000000000
  0
LINE
  5
A23
330
A02
100
AcDbEntity
  8
Sketch002
100
AcDbLine
 10
198.989211000
 20
31.736452000
 30
0.000000000
 11
199.111445000
 21
29.980656000
 31
0.000000000
  0
LINE
  5
A24
330
A02
100
AcDbEntity
  8
Sketch002
100
AcDbLine
 10
199.111445000
 20
29.980656000
 30
0.000000000
 11
199.233719000
 21
28.224954000
 31
0.000000000
  0
LINE
  5
A25
330
A02
100
AcDbEntity
  8
Sketch002
100
AcDbLine
 10
199.233719000
 20
28.224954000
 30
0.000000000
 11
199.355980000
 21
26.469342000
 31
0.000000000
  0
LINE
  5
A26
330
A02
100
AcDbEntity
  8
Sketch002
100
AcDbLine
 10
199.355980000
 20
26.469342000
 30
0.000000000
 11
199.478264000
 21
24.713834000
 31
0.000000000
  0
LINE
  5
A27
330
A02
100
AcDbEntity
  8
Sketch002
100
AcDbLine
 10
199.478264000
 20
24.713834000
 30
0.000000000
 11
199.600509000
 21
22.958429000
 31
0.000000000
  0
LINE
  5
A28
330
A02
100
AcDbEntity
  8
Sketch002
100
AcDbLine
 10
199.600509000
 20
22.958429000
 30
0.000000000
 11
199.722776000
 21
21.203103000
 31
0.000000000
  0
LINE
  5
A29
330
A02
100
AcDbEntity
  8
Sketch002
100
AcDbLine
 10
199.722776000
 20
21.203103000
 30
0.000000000
 11
199.845014000
 21
19.447863000
 31
0.000000000
  0
LINE
  5
A2A
330
A02
100
AcDbEntity
  8
Sketch002
100
AcDbLine
 10
199.845014000
 20
19.447863000
 30
0.000000000
 11
199.967216000
 21
17.692693000
 31
0.000000000
  0
LINE
  5
A2B
330
A02
100
AcDbEntity
  8
Sketch002
100
AcDbLine
 10
199.967216000
 20
17.692693000
 30
0.000000000
 11
200.089386000
 21
15.937573000
 31
0.000000000
  0
LINE
  5
A2C
330
A02
100
AcDbEntity
  8
Sketch002
100
AcDbLine
 10
200.089386000
 20
15.937573000
 30
0.000000000
 11
200.211525000
 21
14.182474000
 31
0.000000000
  0
LINE
  5
A2D
330
A02
100
AcDbEntity
  8
Sketch002
100
AcDbLine
 10
200.211525000
 20
14.182474000
 30
0.000000000
 11
200.333630000
 21
12.427393000
 31
0.000000000
  0
LINE
  5
A2E
330
A02
100
AcDbEntity
  8
Sketch002
100
AcDbLine
 10
200.333630000
 20
12.427393000
 30
0.000000000
 11
200.455716000
 21
10.672277000
 31
0.000000000
  0
LINE
  5
A2F
330
A02
100
AcDbEntity
  8
Sketch002
100
AcDbLine
 10
200.455716000
 20
10.672277000
 30
0.000000000
 11
200.577772000
 21
8.917109000
 31
0.000000000
  0
LINE
  5
A30
330
A02
100
AcDbEntity
  8
Sketch002
100
AcDbLine
 10
200.577772000
 20
8.917109000
 30
0.000000000
 11
200.699786000
 21
7.161890000
 31
0.000000000
  0
LINE
  5
A31
330
A02
100
AcDbEntity
  8
Sketch002
100
AcDbLine
 10
200.699786000
 20
7.161890000
 30
0.000000000
 11
200.821810000
 21
5.406604000
 31
0.000000000
  0
LINE
  5
A32
330
A02
100
AcDbEntity
  8
Sketch002
100
AcDbLine
 10
200.821810000
 20
5.406604000
 30
0.000000000
 11
200.943835000
 21
3.651236000
 31
0.000000000
  0
LINE
  5
A33
330
A02
100
AcDbEntity
  8
Sketch002
100
AcDbLine
 10
200.943835000
 20
3.651236000
 30
0.000000000
 11
201.065861000
 21
1.895783000
 31
0.000000000
  0
LINE
  5
A34
330
A02
100
AcDbEntity
  8
Sketch002
100
AcDbLine
 10
201.065861000
 20
1.895783000
 30
0.000000000
 11
201.176757000
 21
0.300759000
 31
0.000000000
  0
LINE
  5
A35
330
A02
100
AcDbEntity
  8
Sketch002
100
AcDbLine
 10
201.176757000
 20
0.300759000
 30
0.000000000
 11
201.287654000
 21
-1.294333000
 31
0.000000000
  0
LINE
  5
A36
330
A02
100
AcDbEntity
  8
Sketch002
100
AcDbLine
 10
201.287654000
 20
-1.294333000
 30
0.000000000
 11
201.398578000
 21
-2.889499000
 31
0.000000000
  0
LINE
  5
A37
330
A02
100
AcDbEntity
  8
Sketch002
100
AcDbLine
 10
201.398578000
 20
-2.889499000
 30
0.000000000
 11
201.509522000
 21
-4.484733000
 31
0.000000000
  0
LINE
  5
A38
330
A02
100
AcDbEntity
  8
Sketch002
100
AcDbLine
 10
201.509522000
 20
-4.484733000
 30
0.000000000
 11
201.620463000
 21
-6.080040000
 31
0.000000000
  0
LINE
  5
A39
330
A02
100
AcDbEntity
  8
Sketch002
100
AcDbLine
 10
201.620463000
 20
-6.080040000
 30
0.000000000
 11
201.731437000
 21
-7.675383000
 31
0.000000000
  0
LINE
  5
A3A
330
A02
100
AcDbEntity
  8
Sketch002
100
AcDbLine
 10
201.731437000
 20
-7.675383000
 30
0.000000000
 11
201.842422000
 21
-9.270754000
 31
0.000000000
  0
LINE
  5
A3B
330
A02
100
AcDbEntity
  8
Sketch002
100
AcDbLine
 10
201.842422000
 20
-9.270754000
 30
0.000000000
 11
201.953411000
 21
-10.866148000
 31
0.000000000
  0
LINE
  5
A3C
330
A02
100
AcDbEntity
  8
Sketch002
100
AcDbLine
 10
201.953411000
 20
-10.866148000
 30
0.000000000
 11
-126.264619000
 21
-33.701177000
 31
0.000000000
  0
LINE
  5
A3D
330
A02
100
AcDbEntity
  8
Sketch002
100
AcDbLine
 10
-126.264619000
 20
-33.701177000
 30
0.000000000
 11
-131.991297000
 21
-34.365360000
 31
0.000000000
  0
LINE
  5
A3E
330
A02
100
AcDbEntity
  8
Sketch002
100
AcDbLine
 10
-131.991297000
 20
-34.365360000
 30
0.000000000
 11
-137.698745000
 21
-34.712814000
 31
0.000000000
  0
LINE
  5
A3F
330
A02
100
AcDbEntity
  8
Sketch002
100
AcDbLine
 10
-137.698745000
 20
-34.712814000
 30
0.000000000
 11
-144.515812000
 21
-35.167339000
 31
0.000000000
  0
LINE
  5
A40
330
A02
100
AcDbEntity
  8
Sketch002
100
AcDbLine
 10
-144.515812000
 20
-35.167339000
 30
0.000000000
 11
-151.435741000
 21
-35.381351000
 31
0.000000000
  0
LINE
  5
A41
330
A02
100
AcDbEntity
  8
Sketch002
100
AcDbLine
 10
-151.435741000
 20
-35.381351000
 30
0.000000000
 11
-196.422451000
 21
-38.389268000
 31
0.000000000
  0
LINE
  5
A42
330
A02
100
AcDbEntity
  8
Sketch002
100
AcDbLine
 10
-196.422451000
 20
-38.389268000
 30
0.000000000
 11
-196.471553000
 21
-37.670174000
 31
0.000000000
  0
LINE
  5
A43
330
A02
100
AcDbEntity
  8
Sketch002
100
AcDbLine
 10
-196.471553000
 20
-37.670174000
 30
0.000000000
 11
-196.594833000
 21
-36.960939000
 31
0.000000000
  0
LINE
  5
A44
330
A02
100
AcDbEntity
  8
Sketch002
100
AcDbLine
 10
-196.594833000
 20
-36.960939000
 30
0.000000000
 11
-197.009510000
 21
-35.672205000
 31
0.000000000
  0
LINE
  5
A45
330
A02
100
AcDbEntity
  8
Sketch002
100
AcDbLine
 10
-197.009510000
 20
-35.672205000
 30
0.000000000
 11
-197.686804000
 21
-34.346247000
 31
0.000000000
  0
LINE
  5
A46
330
A02
100
AcDbEntity
  8
Sketch002
100
AcDbLine
 10
-197.686804000
 20
-34.346247000
 30
0.000000000
 11
-198.764202000
 21
-32.802357000
 31
0.000000000
  0
LINE
  5
A47
330
A02
100
AcDbEntity
  8
Sketch002
100
AcDbLine
 10
-198.764202000
 20
-32.802357000
 30
0.000000000
 11
-200.104740000
 21
-31.228583000
 31
0.000000000
  0
LINE
  5
A48
330
A02
100
AcDbEntity
  8
Sketch002
100
AcDbLine
 10
-200.104740000
 20
-31.228583000
 30
0.000000000
 11
-201.497532000
 21
-29.712549000
 31
0.000000000
  0
LINE
  5
A49
330
A02
100
AcDbEntity
  8
Sketch002
100
AcDbLine
 10
-201.497532000
 20
-29.712549000
 30
0.000000000
 11
-202.683066000
 21
-28.346205000
 31
0.000000000
  0
LINE
  5
A4A
330
A02
100
AcDbEntity
  8
Sketch002
100
AcDbLine
 10
-202.683066000
 20
-28.346205000
 30
0.000000000
 11
-203.469898000
 21
-27.253465000
 31
0.000000000
  0
LINE
  5
A4B
330
A02
100
AcDbEntity
  8
Sketch002
100
AcDbLine
 10
-203.469898000
 20
-27.253465000
 30
0.000000000
 11
-204.081209000
 21
-26.044770000
 31
0.000000000
  0
LINE
  5
A4C
330
A02
100
AcDbEntity
  8
Sketch002
100
AcDbLine
 10
-204.081209000
 20
-26.044770000
 30
0.000000000
 11
-204.266961000
 21
-25.455848000
 31
0.000000000
  0
LINE
  5
A4D
330
A02
100
AcDbEntity
  8
Sketch002
100
AcDbLine
 10
-204.266961000
 20
-25.455848000
 30
0.000000000
 11
-204.385705000
 21
-24.839410000
 31
0.000000000
  0
LINE
  5
A4E
330
A02
100
AcDbEntity
  8
Sketch002
100
AcDbLine
 10
-204.385705000
 20
-24.839410000
 30
0.000000000
 11
-204.425200000
 21
-23.664374000
 31
0.000000000
  0
LINE
  5
A4F
330
A02
100
AcDbEntity
  8
Sketch002
100
AcDbLine
 10
-204.425200000
 20
-23.664374000
 30
0.000000000
 11
-204.217928000
 21
-22.151215000
 31
0.000000000
  0
LINE
  5
A50
330
A02
100
AcDbEntity
  8
Sketch002
100
AcDbLine
 10
-204.217928000
 20
-22.151215000
 30
0.000000000
 11
-203.796326000
 21
-20.387256000
 31
0.000000000
  0
LINE
  5
A51
330
A02
100
AcDbEntity
  8
Sketch002
100
AcDbLine
 10
-203.796326000
 20
-20.387256000
 30
0.000000000
 11
-203.414030000
 21
-18.884445000
 31
0.000000000
  0
LINE
  5
A52
330
A02
100
AcDbEntity
  8
Sketch002
100
AcDbLine
 10
-203.414030000
 20
-18.884445000
 30
0.000000000
 11
-203.152410000
 21
-17.697796000
 31
0.000000000
  0
LINE
  5
A53
330
A02
100
AcDbEntity
  8
Sketch002
100
AcDbLine
 10
-203.152410000
 20
-17.697796000
 30
0.000000000
 11
-202.945857000
 21
-16.450114000
 31
0.000000000
  0
LINE
  5
A54
330
A02
100
AcDbEntity
  8
Sketch002
100
AcDbLine
 10
-202.945857000
 20
-16.450114000
 30
0.000000000
 11
-202.827812000
 21
-15.141664000
 31
0.000000000
  0
LINE
  5
A55
330
A02
100
AcDbEntity
  8
Sketch002
100
AcDbLine
 10
-202.827812000
 20
-15.141664000
 30
0.000000000
 11
-202.829347000
 21
-13.792173000
 31
0.000000000
  0
LINE
  5
A56
330
A02
100
AcDbEntity
  8
Sketch002
100
AcDbLine
 10
-202.829347000
 20
-13.792173000
 30
0.000000000
 11
-202.988820000
 21
-12.296419000
 31
0.000000000
  0
LINE
  5
A57
330
A02
100
AcDbEntity
  8
Sketch002
100
AcDbLine
 10
-202.988820000
 20
-12.296419000
 30
0.000000000
 11
-203.322141000
 21
-10.760231000
 31
0.000000000
  0
LINE
  5
A58
330
A02
100
AcDbEntity
  8
Sketch002
100
AcDbLine
 10
-203.322141000
 20
-10.760231000
 30
0.000000000
 11
-203.812181000
 21
-9.206910000
 31
0.000000000
  0
LINE
  5
A59
330
A02
100
AcDbEntity
  8
Sketch002
100
AcDbLine
 10
-203.812181000
 20
-9.206910000
 30
0.000000000
 11
-204.429520000
 21
-7.606721000
 31
0.000000000
  0
LINE
  5
A5A
330
A02
100
AcDbEntity
  8
Sketch002
100
AcDbLine
 10
-204.429520000
 20
-7.606721000
 30
0.000000000
 11
-203.423797000
 21
-6.673746000
 31
0.000000000
  0
LINE
  5
A5B
330
A02
100
AcDbEntity
  8
Sketch002
100
AcDbLine
 10
-203.423797000
 20
-6.673746000
 30
0.000000000
 11
-202.508292000
 21
-5.746791000
 31
0.000000000
  0
LINE
  5
A5C
330
A02
100
AcDbEntity
  8
Sketch002
100
AcDbLine
 10
-202.508292000
 20
-5.746791000
 30
0.000000000
 11
-201.197179000
 21
-4.191858000
 31
0.000000000
  0
LINE
  5
A5D
330
A02
100
AcDbEntity
  8
Sketch002
100
AcDbLine
 10
-201.197179000
 20
-4.191858000
 30
0.000000000
 11
-200.436181000
 21
-3.038079000
 31
0.000000000
  0
LINE
  5
A5E
330
A02
100
AcDbEntity
  8
Sketch002
100
AcDbLine
 10
-200.436181000
 20
-3.038079000
 30
0.000000000
 11
-199.882288000
 21
-1.898066000
 31
0.000000000
  0
LINE
  5
A5F
330
A02
100
AcDbEntity
  8
Sketch002
100
AcDbLine
 10
-199.882288000
 20
-1.898066000
 30
0.000000000
 11
-199.548787000
 21
-0.770794000
 31
0.000000000
  0
LINE
  5
A60
330
A02
100
AcDbEntity
  8
Sketch002
100
AcDbLine
 10
-199.548787000
 20
-0.770794000
 30
0.000000000
 11
-199.442582000
 21
0.343263000
 31
0.000000000
  0
LINE
  5
A61
330
A02
100
AcDbEntity
  8
Sketch002
100
AcDbLine
 10
-199.442582000
 20
0.343263000
 30
0.000000000
 11
-199.565842000
 21
1.442114000
 31
0.000000000
  0
LINE
  5
A62
330
A02
100
AcDbEntity
  8
Sketch002
100
AcDbLine
 10
-199.565842000
 20
1.442114000
 30
0.000000000
 11
-199.970647000
 21
2.647143000
 31
0.000000000
  0
LINE
  5
A63
330
A02
100
AcDbEntity
  8
Sketch002
100
AcDbLine
 10
-199.970647000
 20
2.647143000
 30
0.000000000
 11
-200.740462000
 21
3.966590000
 31
0.000000000
  0
LINE
  5
A64
330
A02
100
AcDbEntity
  8
Sketch002
100
AcDbLine
 10
-200.740462000
 20
3.966590000
 30
0.000000000
 11
-201.827176000
 21
5.265059000
 31
0.000000000
  0
LINE
  5
A65
330
A02
100
AcDbEntity
  8
Sketch002
100
AcDbLine
 10
-201.827176000
 20
5.265059000
 30
0.000000000
 11
-201.122517000
 21
6.436938000
 31
0.000000000
  0
LINE
  5
A66
330
A02
100
AcDbEntity
  8
Sketch002
100
AcDbLine
 10
-201.122517000
 20
6.436938000
 30
0.000000000
 11
-200.479826000
 21
7.731407000
 31
0.000000000
  0
LINE
  5
A67
330
A02
100
AcDbEntity
  8
Sketch002
100
AcDbLine
 10
-200.479826000
 20
7.731407000
 30
0.000000000
 11
-200.094356000
 21
8.760209000
 31
0.000000000
  0
LINE
  5
A68
330
A02
100
AcDbEntity
  8
Sketch002
100
AcDbLine
 10
-200.094356000
 20
8.760209000
 30
0.000000000
 11
-199.815553000
 21
9.917012000
 31
0.000000000
  0
LINE
  5
A69
330
A02
100
AcDbEntity
  8
Sketch002
100
AcDbLine
 10
-199.815553000
 20
9.917012000
 30
0.000000000
 11
-199.717017000
 21
11.191475000
 31
0.000000000
  0
LINE
  5
A6A
330
A02
100
AcDbEntity
  8
Sketch002
100
AcDbLine
 10
-199.717017000
 20
11.191475000
 30
0.000000000
 11
-154.758415000
 21
14.169693000
 31
0.000000000
  0
LINE
  5
A6B
330
A02
100
AcDbEntity
  8
Sketch002
100
AcDbLine
 10
-152.260761000
 20
-23.077821000
 30
0.000000000
 11
-153.933395000
 21
1.866163000
 31
0.000000000
  0
LINE
  5
A6C
330
A02
100
AcDbEntity
  8
Sketch002
100
AcDbLine
 10
-128.858634000
 20
3.581600000
 30
0.000000000
 11
-127.123410000
 21
-21.358108000
 31
0.000000000
  0
ENDSEC
  0
SECTION
  2
OBJECTS
  0
DICTIONARY
  5
F000
330
0
100
AcDbDictionary
  3
ACAD_GROUP
350
F001
  0
DICTIONARY
  5
F001
330
F000
100
AcDbDictionary
  0
ENDSEC
  0
EOF