999
FreeCAD v1.1 20260414 (Git shallow)
  0
SECTION
  2
HEADER
  9
$ACADVER
  1
AC1014
  9
$ACADMAINTVER
 70
     9
  9
$DWGCODEPAGE
  3
ANSI_1252
  9
$TEXTSTYLE
  7
STANDARD
  9
$DIMSTYLE
  2
STANDARD
  9
$DIMTXSTY
  7
STANDARD
  9
$CMLSTYLE
  2
STANDARD
  9
$LUNITS
 70
2
  9
$INSUNITS
 70
4
  9
$PEXTMAX
 10
50
 20
50
 30
50
  9
$PEXTMIN
 10
0
 20
0
 30
0
  9
$HANDSEED
  5
FFFF
  0
ENDSEC
  0
SECTION
  2
CLASSES
  0
CLASS
  1
ACDBDICTIONARYWDFLT
  2
AcDbDictionaryWithDefault
  3
ObjectDBX Classes
 90
        0
280
     0
281
     0
  0
CLASS
  1
XRECORD
  2
AcDbXrecord
  3
ObjectDBX Classes
 90
        0
280
     0
281
     0
  0
CLASS
  1
LWPOLYLINE
  2
AcDbPolyline
  3
ObjectDBX Classes
 90
        0
280
     0
281
     1
  0
ENDSEC
  0
SECTION
  2
TABLES
  0
TABLE
  2
VPORT
  5
20
330
0
100
AcDbSymbolTable
 70
     1
  0
VPORT
  5
21
330
20
100
AcDbSymbolTableRecord
100
AcDbViewportTableRecord
  2
*ACTIVE
 70
     0
  0
ENDTAB
  0
TABLE
  2
LTYPE
  5
22
330
0
100
AcDbSymbolTable
 70
     1
  0
LTYPE
  5
23
330
21
100
AcDbSymbolTableRecord
100
AcDbLinetypeTableRecord
  2
BYBLOCK
 70
     0
  3

 72
    65
 73
     0
 40
0.0
  0
LTYPE
  5
24
330
21
100
AcDbSymbolTableRecord
100
AcDbLinetypeTableRecord
  2
BYLAYER
 70
     0
  3

 72
    65
 73
     0
 40
0.0
  0
LTYPE
  5
25
330
21
100
AcDbSymbolTableRecord
100
AcDbLinetypeTableRecord
  2
CONTINUOUS
 70
     0
  3
Solid line
 72
    65
 73
     0
 40
0.0
  0
ENDTAB
  0
TABLE
  2
LAYER
  5
A1E
330
0
100
AcDbSymbolTable
 70
3
  0
LAYER
  5
A1F
330
A1E
100
AcDbSymbolTableRecord
100
AcDbLayerTableRecord
  2
0
 70
   0
 62
   7
  6
CONTINUOUS
  0
LAYER
  5
A20
330
A1E
100
AcDbSymbolTableRecord
100
AcDbLayerTableRecord
  2
none
 70
    0
 62
    7
  6
CONTINUOUS
  0
LAYER
  5
A21
330
A1E
100
AcDbSymbolTableRecord
100
AcDbLayerTableRecord
  2
Flattened_Face
 70
    0
 62
    7
  6
CONTINUOUS
  0
ENDTAB
  0
TABLE
  2
STYLE
  5
70
330
0
100
AcDbSymbolTable
 70
     2
  0
STYLE
  5
71
330
70
100
AcDbSymbolTableRecord
100
AcDbTextStyleTableRecord
  2
STANDARD
 70
     0
 40
0.0
 41
1.0
 50
0.0
 71
     0
 42
2.5
  3
arial.ttf
  4

  0
STYLE
  5
72
330
70
100
AcDbSymbolTableRecord
100
AcDbTextStyleTableRecord
  2
ANNOTATIVE
 70
     0
 40
0.0
 41
1.0
 50
0.0
 71
     0
 42
2.5
  3
arial.ttf
  4

  0
ENDTAB
  0
TABLE
  2
VIEW
  5
73
330
0
100
AcDbSymbolTable
 70
     0
  0
ENDTAB
  0
TABLE
  2
UCS
  5
74
330
0
100
AcDbSymbolTable
 70
     0
  0
ENDTAB
  0
TABLE
  2
APPID
  5
75
330
0
100
AcDbSymbolTable
 70
     2
  0
APPID
  5
76
330
75
100
AcDbSymbolTableRecord
100
AcDbRegAppTableRecord
  2
ACAD
 70
     0
  0
APPID
  5
77
330
75
100
AcDbSymbolTableRecord
100
AcDbRegAppTableRecord
  2
ACADANNOTATIVE
 70
     0
  0
ENDTAB
  0
TABLE
  2
DIMSTYLE
  5
78
330
0
100
AcDbSymbolTable
 70
     2
  0
DIMSTYLE
105
79
330
78
100
AcDbSymbolTableRecord
100
AcDbDimStyleTableRecord
  2
STANDARD
 70
     0
  3

  4

  5

  6

  7

 40
0.0
 41
2.5
 42
0.625
 43
3.75
 44
1.25
 45
0.0
 46
0.0
 47
0.0
 48
0.0
140
2.5
141
2.5
142
0.0
143
0.03937007874016
144
1.0
145
0.0
146
1.0
147
0.625
 71
     0
 72
     0
 73
     0
 74
     0
 75
     0
 76
     0
 77
     1
 78
     8
170
     0
171
     3
172
     1
173
     0
174
     0
175
     0
176
     0
177
     0
178
     0
270
     2
271
     2
272
     2
273
     2
274
     3
340
71
275
     0
280
     0
281
     0
282
     0
283
     0
284
     8
285
     0
286
     0
287
     3
288
     0
  0
ENDTAB
  0
TABLE
  2
BLOCK_RECORD
  5
A01
330
0
100
AcDbSymbolTable
  70
5
  0
BLOCK_RECORD
  5
A02
330
A01
100
AcDbSymbolTableRecord
100
AcDbBlockTableRecord
  2
*MODEL_SPACE
  0
BLOCK_RECORD
  5
A03
330
A01
100
AcDbSymbolTableRecord
100
AcDbBlockTableRecord
  2
*PAPER_SPACE
  0
ENDTAB
  0
ENDSEC
  0
SECTION
  2
BLOCKS
  0
BLOCK
  5
A04
330
A02
100
AcDbEntity
  8
0
100
AcDbBlockBegin
  2
*MODEL_SPACE
 70
   0
 10
0
 20
0
 30
0
  3
*MODEL_SPACE
  1
 
  0
ENDBLK
  5
A05
330
A02
100
AcDbEntity
  8
0
100
AcDbBlockEnd
  0
BLOCK
  5
A06
330
A03
100
AcDbEntity
 67
1
  8
0
100
AcDbBlockBegin
  2
*PAPER_SPACE
 70
   0
 10
0
 20
0
 30
0
  3
*PAPER_SPACE
  1
 
  0
ENDBLK
  5
A07
330
A03
100
AcDbEntity
 67
    1
  8
0
100
AcDbBlockEnd
  0
ENDSEC
  0
SECTION
  2
ENTITIES
  0
SPLINE
  5
A08
330
A02
100
AcDbEntity
  8
Flattened_Face
100
AcDbSpline
210
0
220
0
230
1
 70
8
 71
3
 72
113
 73
109
 74
0
 40
0.000000000
 40
0.000000000
 40
0.000000000
 40
0.000000000
 40
0.006060606
 40
0.006060606
 40
0.006060606
 40
0.015151515
 40
0.015151515
 40
0.015151515
 40
0.030303030
 40
0.030303030
 40
0.030303030
 40
0.045454545
 40
0.045454545
 40
0.045454545
 40
0.060606061
 40
0.060606061
 40
0.060606061
 40
0.090909091
 40
0.090909091
 40
0.090909091
 40
0.124242424
 40
0.124242424
 40
0.124242424
 40
0.184848485
 40
0.184848485
 40
0.184848485
 40
0.218181818
 40
0.218181818
 40
0.218181818
 40
0.248484848
 40
0.248484848
 40
0.248484848
 40
0.278787879
 40
0.278787879
 40
0.278787879
 40
0.312121212
 40
0.312121212
 40
0.312121212
 40
0.375757576
 40
0.375757576
 40
0.375757576
 40
0.436363636
 40
0.436363636
 40
0.436363636
 40
0.466666667
 40
0.466666667
 40
0.466666667
 40
0.481818182
 40
0.481818182
 40
0.481818182
 40
0.490909091
 40
0.490909091
 40
0.490909091
 40
0.500000000
 40
0.500000000
 40
0.500000000
 40
0.506060606
 40
0.506060606
 40
0.506060606
 40
0.515151515
 40
0.515151515
 40
0.515151515
 40
0.530303030
 40
0.530303030
 40
0.530303030
 40
0.545454545
 40
0.545454545
 40
0.545454545
 40
0.563636364
 40
0.563636364
 40
0.563636364
 40
0.624242424
 40
0.624242424
 40
0.624242424
 40
0.687878788
 40
0.687878788
 40
0.687878788
 40
0.718181818
 40
0.718181818
 40
0.718181818
 40
0.748484848
 40
0.748484848
 40
0.748484848
 40
0.778787879
 40
0.778787879
 40
0.778787879
 40
0.812121212
 40
0.812121212
 40
0.812121212
 40
0.875757576
 40
0.875757576
 40
0.875757576
 40
0.936363636
 40
0.936363636
 40
0.936363636
 40
0.969696970
 40
0.969696970
 40
0.969696970
 40
0.978787879
 40
0.978787879
 40
0.978787879
 40
0.984848485
 40
0.984848485
 40
0.984848485
 40
0.990909091
 40
0.990909091
 40
0.990909091
 40
1.000000000
 40
1.000000000
 40
1.000000000
 40
1.000000000
 10
0.000000000
 20
2.226448132
 30
0.000000000
 10
0.128942381
 20
2.236657363
 30
0.000000000
 10
0.244538255
 20
2.294043647
 30
0.000000000
 10
0.350446741
 20
2.363384267
 30
0.000000000
 10
0.507274169
 20
2.466726418
 30
0.000000000
 10
0.652335550
 20
2.595520375
 30
0.000000000
 10
0.790756906
 20
2.721655309
 30
0.000000000
 10
1.022343381
 20
2.934836448
 30
0.000000000
 10
1.265805062
 20
3.178895177
 30
0.000000000
 10
1.498691237
 20
3.413650974
 30
0.000000000
 10
1.732988940
 20
3.650355081
 30
0.000000000
 10
1.959458673
 20
3.882110695
 30
0.000000000
 10
2.196760378
 20
4.124193611
 30
0.000000000
 10
2.433333118
 20
4.365904656
 30
0.000000000
 10
2.671174293
 20
4.607569083
 30
0.000000000
 10
2.910283903
 20
4.849186893
 30
0.000000000
 10
3.388480649
 20
5.333458980
 30
0.000000000
 10
3.875583088
 20
5.813393656
 30
0.000000000
 10
4.371591220
 20
6.288990920
 30
0.000000000
 10
4.913766459
 20
6.809635948
 30
0.000000000
 10
5.476513902
 20
7.322010194
 30
0.000000000
 10
6.059833549
 20
7.826113661
 30
0.000000000
 10
7.125600633
 20
8.739227552
 30
0.000000000
 10
8.288022781
 20
9.641692308
 30
0.000000000
 10
9.639050846
 20
10.412609606
 30
0.000000000
 10
10.383161514
 20
10.834190553
 30
0.000000000
 10
11.195858835
 20
11.220914843
 30
0.000000000
 10
12.109902796
 20
11.510771813
 30
0.000000000
 10
12.941850656
 20
11.775223750
 30
0.000000000
 10
13.871713533
 20
11.950570103
 30
0.000000000
 10
14.822578405
 20
11.963737386
 30
0.000000000
 10
15.776262731
 20
11.980851054
 30
0.000000000
 10
16.724328529
 20
11.831811306
 30
0.000000000
 10
17.571323910
 20
11.584222366
 30
0.000000000
 10
18.507161135
 20
11.311938633
 30
0.000000000
 10
19.339328875
 20
10.933232741
 30
0.000000000
 10
20.098099181
 20
10.516858116
 30
0.000000000
 10
21.544169062
 20
9.715961386
 30
0.000000000
 10
22.755775562
 20
8.774877244
 30
0.000000000
 10
23.875640945
 20
7.815958147
 30
0.000000000
 10
24.942973376
 20
6.896422826
 30
0.000000000
 10
25.927274147
 20
5.941486544
 30
0.000000000
 10
26.881822437
 20
4.981763794
 30
0.000000000
 10
27.357675520
 20
4.500570659
 30
0.000000000
 10
27.829994765
 20
4.020449951
 30
0.000000000
 10
28.298780173
 20
3.541401668
 30
0.000000000
 10
28.535163928
 20
3.302034939
 30
0.000000000
 10
28.763193604
 20
3.071438440
 30
0.000000000
 10
29.005307694
 20
2.840916570
 30
0.000000000
 10
29.153817614
 20
2.700656788
 30
0.000000000
 10
29.283973823
 20
2.581013238
 30
0.000000000
 10
29.430623083
 20
2.466005525
 30
0.000000000
 10
29.577628974
 20
2.353057005
 30
0.000000000
 10
29.743075534
 20
2.238283410
 30
0.000000000
 10
29.929685438
 20
2.226061628
 30
0.000000000
 10
30.050968742
 20
2.218353345
 30
0.000000000
 10
30.170155930
 20
2.260192856
 30
0.000000000
 10
30.279088828
 20
2.316619134
 30
0.000000000
 10
30.440565322
 20
2.401237848
 30
0.000000000
 10
30.588258945
 20
2.512799307
 30
0.000000000
 10
30.731871060
 20
2.624093654
 30
0.000000000
 10
30.966393806
 20
2.808220994
 30
0.000000000
 10
31.212737346
 20
3.021161024
 30
0.000000000
 10
31.451602707
 20
3.229056938
 30
0.000000000
 10
31.689049893
 20
3.436836492
 30
0.000000000
 10
31.927022713
 20
3.646336669
 30
0.000000000
 10
32.165521165
 20
3.857557470
 30
0.000000000
 10
32.454339532
 20
4.113155381
 30
0.000000000
 10
32.745079002
 20
4.368568152
 30
0.000000000
 10
33.037739577
 20
4.623795781
 30
0.000000000
 10
34.015835416
 20
5.474877225
 30
0.000000000
 10
35.015496247
 20
6.312894675
 30
0.000000000
 10
36.101938735
 20
7.117589369
 30
0.000000000
 10
37.246286998
 20
7.960394955
 30
0.000000000
 10
38.472614057
 20
8.770692124
 30
0.000000000
 10
39.909680704
 20
9.441982220
 30
0.000000000
 10
40.594820053
 20
9.759735358
 30
0.000000000
 10
41.331491025
 20
10.043472127
 30
0.000000000
 10
42.129629588
 20
10.255677874
 30
0.000000000
 10
42.928637882
 20
10.468782062
 30
0.000000000
 10
43.795136897
 20
10.604888269
 30
0.000000000
 10
44.674601271
 20
10.621976243
 30
0.000000000
 10
45.556155986
 20
10.641355725
 30
0.000000000
 10
46.437128376
 20
10.539875434
 30
0.000000000
 10
47.255634347
 20
10.351109720
 30
0.000000000
 10
48.155963694
 20
10.144410577
 30
0.000000000
 10
48.982716713
 20
9.841333667
 30
0.000000000
 10
49.743717961
 20
9.495990296
 30
0.000000000
 10
51.196214120
 20
8.831924238
 30
0.000000000
 10
52.433597705
 20
8.021651131
 30
0.000000000
 10
53.581107969
 20
7.182446883
 30
0.000000000
 10
54.672987835
 20
6.379387510
 30
0.000000000
 10
55.680623581
 20
5.537956605
 30
0.000000000
 10
56.658443419
 20
4.688878395
 30
0.000000000
 10
57.197006551
 20
4.221468306
 30
0.000000000
 10
57.722124262
 20
3.752341195
 30
0.000000000
 10
58.254667482
 20
3.285602516
 30
0.000000000
 10
58.398964856
 20
3.159031694
 30
0.000000000
 10
58.544342932
 20
3.033612999
 30
0.000000000
 10
58.690801711
 20
2.909346430
 30
0.000000000
 10
58.789942577
 20
2.825169734
 30
0.000000000
 10
58.891360884
 20
2.741674304
 30
0.000000000
 10
58.995056632
 20
2.658860139
 30
0.000000000
 10
59.097097428
 20
2.576784955
 30
0.000000000
 10
59.201642263
 20
2.499313774
 30
0.000000000
 10
59.308691138
 20
2.426446597
 30
0.000000000
 10
59.467455131
 20
2.322048563
 30
0.000000000
 10
59.650936359
 20
2.213044417
 30
0.000000000
 10
59.847340051
 20
2.226448132
 30
0.000000000
  0
SPLINE
  5
A09
330
A02
100
AcDbEntity
  8
Flattened_Face
100
AcDbSpline
210
0
220
0
230
1
 70
8
 71
1
 72
4
 73
2
 74
0
 40
2.226448132
 40
2.226448132
 40
381.182849001
 40
381.182849001
 10
59.847340051
 20
2.226448132
 30
0.000000000
 10
59.847340051
 20
381.182849001
 30
0.000000000
  0
SPLINE
  5
A0A
330
A02
100
AcDbEntity
  8
Flattened_Face
100
AcDbSpline
210
0
220
0
230
1
 70
8
 71
1
 72
4
 73
2
 74
0
 40
4.712388980
 40
4.712388980
 40
6.283185307
 40
6.283185307
 10
44.885505038
 20
381.182849001
 30
0.000000000
 10
59.847340051
 20
381.182849001
 30
0.000000000
  0
SPLINE
  5
A0B
330
A02
100
AcDbEntity
  8
Flattened_Face
100
AcDbSpline
210
0
220
0
230
1
 70
8
 71
1
 72
4
 73
2
 74
0
 40
1.570796327
 40
1.570796327
 40
4.712388980
 40
4.712388980
 10
14.961835013
 20
381.182849001
 30
0.000000000
 10
44.885505038
 20
381.182849001
 30
0.000000000
  0
SPLINE
  5
A0C
330
A02
100
AcDbEntity
  8
Flattened_Face
100
AcDbSpline
210
0
220
0
230
1
 70
8
 71
1
 72
4
 73
2
 74
0
 40
0.000000000
 40
0.000000000
 40
1.570796327
 40
1.570796327
 10
0.000000000
 20
381.182849001
 30
0.000000000
 10
14.961835013
 20
381.182849001
 30
0.000000000
  0
SPLINE
  5
A0D
330
A02
100
AcDbEntity
  8
Flattened_Face
100
AcDbSpline
210
0
220
0
230
1
 70
8
 71
1
 72
4
 73
2
 74
0
 40
2.226448132
 40
2.226448132
 40
381.182849001
 40
381.182849001
 10
0.000000000
 20
2.226448132
 30
0.000000000
 10
0.000000000
 20
381.182849001
 30
0.000000000
  0
SPLINE
  5
A0E
330
A02
100
AcDbEntity
  8
Flattened_Face
100
AcDbSpline
210
0
220
0
230
1
 70
8
 71
1
 72
4
 73
2
 74
0
 40
166.857649001
 40
166.857649001
 40
167.365649001
 40
167.365649001
 10
14.961835013
 20
166.857649001
 30
0.000000000
 10
14.961835013
 20
167.365649001
 30
0.000000000
  0
SPLINE
  5
A0F
330
A02
100
AcDbEntity
  8
Flattened_Face
100
AcDbSpline
210
0
220
0
230
1
 70
8
 71
1
 72
4
 73
2
 74
0
 40
1.570796327
 40
1.570796327
 40
4.712388980
 40
4.712388980
 10
14.961835013
 20
167.365649001
 30
0.000000000
 10
44.885505038
 20
167.365649001
 30
0.000000000
  0
SPLINE
  5
A10
330
A02
100
AcDbEntity
  8
Flattened_Face
100
AcDbSpline
210
0
220
0
230
1
 70
8
 71
1
 72
4
 73
2
 74
0
 40
166.857649001
 40
166.857649001
 40
167.365649001
 40
167.365649001
 10
44.885505038
 20
166.857649001
 30
0.000000000
 10
44.885505038
 20
167.365649001
 30
0.000000000
  0
SPLINE
  5
A11
330
A02
100
AcDbEntity
  8
Flattened_Face
100
AcDbSpline
210
0
220
0
230
1
 70
8
 71
1
 72
4
 73
2
 74
0
 40
1.570796327
 40
1.570796327
 40
4.712388980
 40
4.712388980
 10
14.961835013
 20
166.857649001
 30
0.000000000
 10
44.885505038
 20
166.857649001
 30
0.000000000
  0
SPLINE
  5
A12
330
A02
100
AcDbEntity
  8
Flattened_Face
100
AcDbSpline
210
0
220
0
230
1
 70
8
 71
1
 72
4
 73
2
 74
0
 40
178.109849001
 40
178.109849001
 40
178.617849001
 40
178.617849001
 10
14.961835013
 20
178.109849001
 30
0.000000000
 10
14.961835013
 20
178.617849001
 30
0.000000000
  0
SPLINE
  5
A13
330
A02
100
AcDbEntity
  8
Flattened_Face
100
AcDbSpline
210
0
220
0
230
1
 70
8
 71
1
 72
4
 73
2
 74
0
 40
1.570796327
 40
1.570796327
 40
4.712388980
 40
4.712388980
 10
14.961835013
 20
178.617849001
 30
0.000000000
 10
44.885505038
 20
178.617849001
 30
0.000000000
  0
SPLINE
  5
A14
330
A02
100
AcDbEntity
  8
Flattened_Face
100
AcDbSpline
210
0
220
0
230
1
 70
8
 71
1
 72
4
 73
2
 74
0
 40
178.109849001
 40
178.109849001
 40
178.617849001
 40
178.617849001
 10
44.885505038
 20
178.109849001
 30
0.000000000
 10
44.885505038
 20
178.617849001
 30
0.000000000
  0
SPLINE
  5
A15
330
A02
100
AcDbEntity
  8
Flattened_Face
100
AcDbSpline
210
0
220
0
230
1
 70
8
 71
1
 72
4
 73
2
 74
0
 40
1.570796327
 40
1.570796327
 40
4.712388980
 40
4.712388980
 10
14.961835013
 20
178.109849001
 30
0.000000000
 10
44.885505038
 20
178.109849001
 30
0.000000000
  0
SPLINE
  5
A16
330
A02
100
AcDbEntity
  8
Flattened_Face
100
AcDbSpline
210
0
220
0
230
1
 70
8
 71
1
 72
4
 73
2
 74
0
 40
286.313849001
 40
286.313849001
 40
286.821849001
 40
286.821849001
 10
14.961835013
 20
286.313849001
 30
0.000000000
 10
14.961835013
 20
286.821849001
 30
0.000000000
  0
SPLINE
  5
A17
330
A02
100
AcDbEntity
  8
Flattened_Face
100
AcDbSpline
210
0
220
0
230
1
 70
8
 71
1
 72
4
 73
2
 74
0
 40
1.570796327
 40
1.570796327
 40
4.712388980
 40
4.712388980
 10
14.961835013
 20
286.821849001
 30
0.000000000
 10
44.885505038
 20
286.821849001
 30
0.000000000
  0
SPLINE
  5
A18
330
A02
100
AcDbEntity
  8
Flattened_Face
100
AcDbSpline
210
0
220
0
230
1
 70
8
 71
1
 72
4
 73
2
 74
0
 40
286.313849001
 40
286.313849001
 40
286.821849001
 40
286.821849001
 10
44.885505038
 20
286.313849001
 30
0.000000000
 10
44.885505038
 20
286.821849001
 30
0.000000000
  0
SPLINE
  5
A19
330
A02
100
AcDbEntity
  8
Flattened_Face
100
AcDbSpline
210
0
220
0
230
1
 70
8
 71
1
 72
4
 73
2
 74
0
 40
1.570796327
 40
1.570796327
 40
4.712388980
 40
4.712388980
 10
14.961835013
 20
286.313849001
 30
0.000000000
 10
44.885505038
 20
286.313849001
 30
0.000000000
  0
SPLINE
  5
A1A
330
A02
100
AcDbEntity
  8
Flattened_Face
100
AcDbSpline
210
0
220
0
230
1
 70
8
 71
1
 72
4
 73
2
 74
0
 40
304.982849001
 40
304.982849001
 40
305.490849001
 40
305.490849001
 10
14.961835013
 20
304.982849001
 30
0.000000000
 10
14.961835013
 20
305.490849001
 30
0.000000000
  0
SPLINE
  5
A1B
330
A02
100
AcDbEntity
  8
Flattened_Face
100
AcDbSpline
210
0
220
0
230
1
 70
8
 71
1
 72
4
 73
2
 74
0
 40
1.570796327
 40
1.570796327
 40
4.712388980
 40
4.712388980
 10
14.961835013
 20
305.490849001
 30
0.000000000
 10
44.885505038
 20
305.490849001
 30
0.000000000
  0
SPLINE
  5
A1C
330
A02
100
AcDbEntity
  8
Flattened_Face
100
AcDbSpline
210
0
220
0
230
1
 70
8
 71
1
 72
4
 73
2
 74
0
 40
304.982849001
 40
304.982849001
 40
305.490849001
 40
305.490849001
 10
44.885505038
 20
304.982849001
 30
0.000000000
 10
44.885505038
 20
305.490849001
 30
0.000000000
  0
SPLINE
  5
A1D
330
A02
100
AcDbEntity
  8
Flattened_Face
100
AcDbSpline
210
0
220
0
230
1
 70
8
 71
1
 72
4
 73
2
 74
0
 40
1.570796327
 40
1.570796327
 40
4.712388980
 40
4.712388980
 10
14.961835013
 20
304.982849001
 30
0.000000000
 10
44.885505038
 20
304.982849001
 30
0.000000000
  0
ENDSEC
  0
SECTION
  2
OBJECTS
  0
DICTIONARY
  5
F000
330
0
100
AcDbDictionary
  3
ACAD_GROUP
350
F001
  0
DICTIONARY
  5
F001
330
F000
100
AcDbDictionary
  0
ENDSEC
  0
EOF