999
FreeCAD v1.1 20260414 (Git shallow)
  0
SECTION
  2
HEADER
  9
$ACADVER
  1
AC1014
  9
$ACADMAINTVER
 70
     9
  9
$DWGCODEPAGE
  3
ANSI_1252
  9
$TEXTSTYLE
  7
STANDARD
  9
$DIMSTYLE
  2
STANDARD
  9
$DIMTXSTY
  7
STANDARD
  9
$CMLSTYLE
  2
STANDARD
  9
$LUNITS
 70
2
  9
$INSUNITS
 70
4
  9
$PEXTMAX
 10
50
 20
50
 30
50
  9
$PEXTMIN
 10
0
 20
0
 30
0
  9
$HANDSEED
  5
FFFF
  0
ENDSEC
  0
SECTION
  2
CLASSES
  0
CLASS
  1
ACDBDICTIONARYWDFLT
  2
AcDbDictionaryWithDefault
  3
ObjectDBX Classes
 90
        0
280
     0
281
     0
  0
CLASS
  1
XRECORD
  2
AcDbXrecord
  3
ObjectDBX Classes
 90
        0
280
     0
281
     0
  0
CLASS
  1
LWPOLYLINE
  2
AcDbPolyline
  3
ObjectDBX Classes
 90
        0
280
     0
281
     1
  0
ENDSEC
  0
SECTION
  2
TABLES
  0
TABLE
  2
VPORT
  5
20
330
0
100
AcDbSymbolTable
 70
     1
  0
VPORT
  5
21
330
20
100
AcDbSymbolTableRecord
100
AcDbViewportTableRecord
  2
*ACTIVE
 70
     0
  0
ENDTAB
  0
TABLE
  2
LTYPE
  5
22
330
0
100
AcDbSymbolTable
 70
     1
  0
LTYPE
  5
23
330
21
100
AcDbSymbolTableRecord
100
AcDbLinetypeTableRecord
  2
BYBLOCK
 70
     0
  3

 72
    65
 73
     0
 40
0.0
  0
LTYPE
  5
24
330
21
100
AcDbSymbolTableRecord
100
AcDbLinetypeTableRecord
  2
BYLAYER
 70
     0
  3

 72
    65
 73
     0
 40
0.0
  0
LTYPE
  5
25
330
21
100
AcDbSymbolTableRecord
100
AcDbLinetypeTableRecord
  2
CONTINUOUS
 70
     0
  3
Solid line
 72
    65
 73
     0
 40
0.0
  0
ENDTAB
  0
TABLE
  2
LAYER
  5
A69
330
0
100
AcDbSymbolTable
 70
5
  0
LAYER
  5
A6A
330
A69
100
AcDbSymbolTableRecord
100
AcDbLayerTableRecord
  2
0
 70
   0
 62
   7
  6
CONTINUOUS
  0
LAYER
  5
A6B
330
A69
100
AcDbSymbolTableRecord
100
AcDbLayerTableRecord
  2
none
 70
    0
 62
    7
  6
CONTINUOUS
  0
LAYER
  5
A6C
330
A69
100
AcDbSymbolTableRecord
100
AcDbLayerTableRecord
  2
Sketch003
 70
    0
 62
    7
  6
CONTINUOUS
  0
LAYER
  5
A6D
330
A69
100
AcDbSymbolTableRecord
100
AcDbLayerTableRecord
  2
Sketch004
 70
    0
 62
    7
  6
CONTINUOUS
  0
LAYER
  5
A6E
330
A69
100
AcDbSymbolTableRecord
100
AcDbLayerTableRecord
  2
Sketch005
 70
    0
 62
    7
  6
CONTINUOUS
  0
ENDTAB
  0
TABLE
  2
STYLE
  5
70
330
0
100
AcDbSymbolTable
 70
     2
  0
STYLE
  5
71
330
70
100
AcDbSymbolTableRecord
100
AcDbTextStyleTableRecord
  2
STANDARD
 70
     0
 40
0.0
 41
1.0
 50
0.0
 71
     0
 42
2.5
  3
arial.ttf
  4

  0
STYLE
  5
72
330
70
100
AcDbSymbolTableRecord
100
AcDbTextStyleTableRecord
  2
ANNOTATIVE
 70
     0
 40
0.0
 41
1.0
 50
0.0
 71
     0
 42
2.5
  3
arial.ttf
  4

  0
ENDTAB
  0
TABLE
  2
VIEW
  5
73
330
0
100
AcDbSymbolTable
 70
     0
  0
ENDTAB
  0
TABLE
  2
UCS
  5
74
330
0
100
AcDbSymbolTable
 70
     0
  0
ENDTAB
  0
TABLE
  2
APPID
  5
75
330
0
100
AcDbSymbolTable
 70
     2
  0
APPID
  5
76
330
75
100
AcDbSymbolTableRecord
100
AcDbRegAppTableRecord
  2
ACAD
 70
     0
  0
APPID
  5
77
330
75
100
AcDbSymbolTableRecord
100
AcDbRegAppTableRecord
  2
ACADANNOTATIVE
 70
     0
  0
ENDTAB
  0
TABLE
  2
DIMSTYLE
  5
78
330
0
100
AcDbSymbolTable
 70
     2
  0
DIMSTYLE
105
79
330
78
100
AcDbSymbolTableRecord
100
AcDbDimStyleTableRecord
  2
STANDARD
 70
     0
  3

  4

  5

  6

  7

 40
0.0
 41
2.5
 42
0.625
 43
3.75
 44
1.25
 45
0.0
 46
0.0
 47
0.0
 48
0.0
140
2.5
141
2.5
142
0.0
143
0.03937007874016
144
1.0
145
0.0
146
1.0
147
0.625
 71
     0
 72
     0
 73
     0
 74
     0
 75
     0
 76
     0
 77
     1
 78
     8
170
     0
171
     3
172
     1
173
     0
174
     0
175
     0
176
     0
177
     0
178
     0
270
     2
271
     2
272
     2
273
     2
274
     3
340
71
275
     0
280
     0
281
     0
282
     0
283
     0
284
     8
285
     0
286
     0
287
     3
288
     0
  0
ENDTAB
  0
TABLE
  2
BLOCK_RECORD
  5
A01
330
0
100
AcDbSymbolTable
  70
5
  0
BLOCK_RECORD
  5
A02
330
A01
100
AcDbSymbolTableRecord
100
AcDbBlockTableRecord
  2
*MODEL_SPACE
  0
BLOCK_RECORD
  5
A03
330
A01
100
AcDbSymbolTableRecord
100
AcDbBlockTableRecord
  2
*PAPER_SPACE
  0
ENDTAB
  0
ENDSEC
  0
SECTION
  2
BLOCKS
  0
BLOCK
  5
A04
330
A02
100
AcDbEntity
  8
0
100
AcDbBlockBegin
  2
*MODEL_SPACE
 70
   0
 10
0
 20
0
 30
0
  3
*MODEL_SPACE
  1
 
  0
ENDBLK
  5
A05
330
A02
100
AcDbEntity
  8
0
100
AcDbBlockEnd
  0
BLOCK
  5
A06
330
A03
100
AcDbEntity
 67
1
  8
0
100
AcDbBlockBegin
  2
*PAPER_SPACE
 70
   0
 10
0
 20
0
 30
0
  3
*PAPER_SPACE
  1
 
  0
ENDBLK
  5
A07
330
A03
100
AcDbEntity
 67
    1
  8
0
100
AcDbBlockEnd
  0
ENDSEC
  0
SECTION
  2
ENTITIES
  0
SPLINE
  5
A08
330
A02
100
AcDbEntity
  8
Sketch003
100
AcDbSpline
210
0
220
0
230
1
 70
8
 71
3
 72
110
 73
106
 74
0
 40
0.000000000
 40
0.000000000
 40
0.000000000
 40
0.000000000
 40
0.006060606
 40
0.006060606
 40
0.006060606
 40
0.015151515
 40
0.015151515
 40
0.015151515
 40
0.030303030
 40
0.030303030
 40
0.030303030
 40
0.045454545
 40
0.045454545
 40
0.045454545
 40
0.060606061
 40
0.060606061
 40
0.060606061
 40
0.090909091
 40
0.090909091
 40
0.090909091
 40
0.124242424
 40
0.124242424
 40
0.124242424
 40
0.184848485
 40
0.184848485
 40
0.184848485
 40
0.218181818
 40
0.218181818
 40
0.218181818
 40
0.248484848
 40
0.248484848
 40
0.248484848
 40
0.278787879
 40
0.278787879
 40
0.278787879
 40
0.312121212
 40
0.312121212
 40
0.312121212
 40
0.375757576
 40
0.375757576
 40
0.375757576
 40
0.436363636
 40
0.436363636
 40
0.436363636
 40
0.466666667
 40
0.466666667
 40
0.466666667
 40
0.481818182
 40
0.481818182
 40
0.481818182
 40
0.490909091
 40
0.490909091
 40
0.490909091
 40
0.500000000
 40
0.500000000
 40
0.500000000
 40
0.506060606
 40
0.506060606
 40
0.506060606
 40
0.515151515
 40
0.515151515
 40
0.515151515
 40
0.530303030
 40
0.530303030
 40
0.530303030
 40
0.545454545
 40
0.545454545
 40
0.545454545
 40
0.563636364
 40
0.563636364
 40
0.563636364
 40
0.624242424
 40
0.624242424
 40
0.624242424
 40
0.687878788
 40
0.687878788
 40
0.687878788
 40
0.718181818
 40
0.718181818
 40
0.718181818
 40
0.748484848
 40
0.748484848
 40
0.748484848
 40
0.778787879
 40
0.778787879
 40
0.778787879
 40
0.812121212
 40
0.812121212
 40
0.812121212
 40
0.875757576
 40
0.875757576
 40
0.875757576
 40
0.936363636
 40
0.936363636
 40
0.936363636
 40
0.969696970
 40
0.969696970
 40
0.969696970
 40
0.984848485
 40
0.984848485
 40
0.984848485
 40
0.990909091
 40
0.990909091
 40
0.990909091
 40
1.000000000
 40
1.000000000
 40
1.000000000
 40
1.000000000
 10
0.000000000
 20
2.226448000
 30
0.000000000
 10
0.128942000
 20
2.236657000
 30
0.000000000
 10
0.244538000
 20
2.294044000
 30
0.000000000
 10
0.350447000
 20
2.363384000
 30
0.000000000
 10
0.507274000
 20
2.466726000
 30
0.000000000
 10
0.652336000
 20
2.595520000
 30
0.000000000
 10
0.790757000
 20
2.721655000
 30
0.000000000
 10
1.022343000
 20
2.934836000
 30
0.000000000
 10
1.265805000
 20
3.178895000
 30
0.000000000
 10
1.498691000
 20
3.413651000
 30
0.000000000
 10
1.732989000
 20
3.650355000
 30
0.000000000
 10
1.959459000
 20
3.882111000
 30
0.000000000
 10
2.196760000
 20
4.124194000
 30
0.000000000
 10
2.434601333
 20
4.365858333
 30
0.000000000
 10
2.672442667
 20
4.607522667
 30
0.000000000
 10
2.910284000
 20
4.849187000
 30
0.000000000
 10
3.388480833
 20
5.333459167
 30
0.000000000
 10
3.875583167
 20
5.813393833
 30
0.000000000
 10
4.371591000
 20
6.288991000
 30
0.000000000
 10
4.913766167
 20
6.809635833
 30
0.000000000
 10
5.476513833
 20
7.322010167
 30
0.000000000
 10
6.059834000
 20
7.826114000
 30
0.000000000
 10
7.125601000
 20
8.739228000
 30
0.000000000
 10
8.288023000
 20
9.641692000
 30
0.000000000
 10
9.639051000
 20
10.412610000
 30
0.000000000
 10
10.383162000
 20
10.834191000
 30
0.000000000
 10
11.195859000
 20
11.220915000
 30
0.000000000
 10
12.109903000
 20
11.510772000
 30
0.000000000
 10
12.941851000
 20
11.775224000
 30
0.000000000
 10
13.871714000
 20
11.950570000
 30
0.000000000
 10
14.822578000
 20
11.963737000
 30
0.000000000
 10
15.776263000
 20
11.980851000
 30
0.000000000
 10
16.724329000
 20
11.831811000
 30
0.000000000
 10
17.571324000
 20
11.584222000
 30
0.000000000
 10
18.507161000
 20
11.311939000
 30
0.000000000
 10
19.339329000
 20
10.933233000
 30
0.000000000
 10
20.098099000
 20
10.516858000
 30
0.000000000
 10
21.544169000
 20
9.715961000
 30
0.000000000
 10
22.755776000
 20
8.774877000
 30
0.000000000
 10
23.875641000
 20
7.815958000
 30
0.000000000
 10
24.942973000
 20
6.896423000
 30
0.000000000
 10
25.927274000
 20
5.941487000
 30
0.000000000
 10
26.881822000
 20
4.981764000
 30
0.000000000
 10
27.357675833
 20
4.500570833
 30
0.000000000
 10
27.829995167
 20
4.020450167
 30
0.000000000
 10
28.298780000
 20
3.541402000
 30
0.000000000
 10
28.535164000
 20
3.302035000
 30
0.000000000
 10
28.763194000
 20
3.071438000
 30
0.000000000
 10
29.005308000
 20
2.840917000
 30
0.000000000
 10
29.153818000
 20
2.700657000
 30
0.000000000
 10
29.283974000
 20
2.581013000
 30
0.000000000
 10
29.430623000
 20
2.466006000
 30
0.000000000
 10
29.577629000
 20
2.353057000
 30
0.000000000
 10
29.743076000
 20
2.238283000
 30
0.000000000
 10
29.929685000
 20
2.226062000
 30
0.000000000
 10
30.050969000
 20
2.218353000
 30
0.000000000
 10
30.170156000
 20
2.260193000
 30
0.000000000
 10
30.279089000
 20
2.316619000
 30
0.000000000
 10
30.440565000
 20
2.401238000
 30
0.000000000
 10
30.588259000
 20
2.512799000
 30
0.000000000
 10
30.731871000
 20
2.624094000
 30
0.000000000
 10
30.966394000
 20
2.808221000
 30
0.000000000
 10
31.212737000
 20
3.021161000
 30
0.000000000
 10
31.451603000
 20
3.229057000
 30
0.000000000
 10
31.689050167
 20
3.436836500
 30
0.000000000
 10
31.927022833
 20
3.646336500
 30
0.000000000
 10
32.165521000
 20
3.857557000
 30
0.000000000
 10
32.454339667
 20
4.113155000
 30
0.000000000
 10
32.745079333
 20
4.368568000
 30
0.000000000
 10
33.037740000
 20
4.623796000
 30
0.000000000
 10
34.015835000
 20
5.474877000
 30
0.000000000
 10
35.015496000
 20
6.312895000
 30
0.000000000
 10
36.101939000
 20
7.117589000
 30
0.000000000
 10
37.246287000
 20
7.960395000
 30
0.000000000
 10
38.472614000
 20
8.770692000
 30
0.000000000
 10
39.909681000
 20
9.441982000
 30
0.000000000
 10
40.594820000
 20
9.759735000
 30
0.000000000
 10
41.331491000
 20
10.043472000
 30
0.000000000
 10
42.129630000
 20
10.255678000
 30
0.000000000
 10
42.928638000
 20
10.468782000
 30
0.000000000
 10
43.795137000
 20
10.604888000
 30
0.000000000
 10
44.674601000
 20
10.621976000
 30
0.000000000
 10
45.556156000
 20
10.641356000
 30
0.000000000
 10
46.437128000
 20
10.539875000
 30
0.000000000
 10
47.255634000
 20
10.351110000
 30
0.000000000
 10
48.155964000
 20
10.144411000
 30
0.000000000
 10
48.982717000
 20
9.841334000
 30
0.000000000
 10
49.743718000
 20
9.495990000
 30
0.000000000
 10
51.196214000
 20
8.831924000
 30
0.000000000
 10
52.433598000
 20
8.021651000
 30
0.000000000
 10
53.581108000
 20
7.182447000
 30
0.000000000
 10
54.672988000
 20
6.379388000
 30
0.000000000
 10
55.680624000
 20
5.537957000
 30
0.000000000
 10
56.658443000
 20
4.688878000
 30
0.000000000
 10
57.197007000
 20
4.221468000
 30
0.000000000
 10
57.722124000
 20
3.752341000
 30
0.000000000
 10
58.254667000
 20
3.285603000
 30
0.000000000
 10
58.496215035
 20
3.074954186
 30
0.000000000
 10
58.734147230
 20
2.867326282
 30
0.000000000
 10
58.995057000
 20
2.658860000
 30
0.000000000
 10
59.097097167
 20
2.576785000
 30
0.000000000
 10
59.201641833
 20
2.499314000
 30
0.000000000
 10
59.308691000
 20
2.426447000
 30
0.000000000
 10
59.467455000
 20
2.322049000
 30
0.000000000
 10
59.650936000
 20
2.213044000
 30
0.000000000
 10
59.847340000
 20
2.226448000
 30
0.000000000
  0
SPLINE
  5
A09
330
A02
100
AcDbEntity
  8
Sketch003
100
AcDbSpline
210
0
220
0
230
1
 70
8
 71
1
 72
4
 73
2
 74
0
 40
2.226448132
 40
2.226448132
 40
381.182849001
 40
381.182849001
 10
59.847340000
 20
2.226448000
 30
0.000000000
 10
59.847340000
 20
381.182849000
 30
0.000000000
  0
SPLINE
  5
A0A
330
A02
100
AcDbEntity
  8
Sketch003
100
AcDbSpline
210
0
220
0
230
1
 70
8
 71
1
 72
4
 73
2
 74
0
 40
4.712388980
 40
4.712388980
 40
6.283185307
 40
6.283185307
 10
59.847340000
 20
381.182849000
 30
0.000000000
 10
44.885505000
 20
381.182849000
 30
0.000000000
  0
SPLINE
  5
A0B
330
A02
100
AcDbEntity
  8
Sketch003
100
AcDbSpline
210
0
220
0
230
1
 70
8
 71
1
 72
4
 73
2
 74
0
 40
1.570796327
 40
1.570796327
 40
4.712388980
 40
4.712388980
 10
44.885505000
 20
381.182849000
 30
0.000000000
 10
14.961835000
 20
381.182849000
 30
0.000000000
  0
SPLINE
  5
A0C
330
A02
100
AcDbEntity
  8
Sketch003
100
AcDbSpline
210
0
220
0
230
1
 70
8
 71
1
 72
4
 73
2
 74
0
 40
0.000000000
 40
0.000000000
 40
1.570796327
 40
1.570796327
 10
14.961835000
 20
381.182849000
 30
0.000000000
 10
0.000000000
 20
381.182849000
 30
0.000000000
  0
SPLINE
  5
A0D
330
A02
100
AcDbEntity
  8
Sketch003
100
AcDbSpline
210
0
220
0
230
1
 70
8
 71
1
 72
4
 73
2
 74
0
 40
2.226448132
 40
2.226448132
 40
381.182849001
 40
381.182849001
 10
0.000000000
 20
381.182849000
 30
0.000000000
 10
0.000000000
 20
2.226448000
 30
0.000000000
  0
SPLINE
  5
A0E
330
A02
100
AcDbEntity
  8
Sketch003
100
AcDbSpline
210
0
220
0
230
1
 70
8
 71
1
 72
4
 73
2
 74
0
 40
1.570796327
 40
1.570796327
 40
4.712388980
 40
4.712388980
 10
44.885505000
 20
166.857649000
 30
0.000000000
 10
14.961835000
 20
166.857649000
 30
0.000000000
  0
SPLINE
  5
A0F
330
A02
100
AcDbEntity
  8
Sketch003
100
AcDbSpline
210
0
220
0
230
1
 70
8
 71
1
 72
4
 73
2
 74
0
 40
1.570796327
 40
1.570796327
 40
4.712388980
 40
4.712388980
 10
14.961835000
 20
178.617849000
 30
0.000000000
 10
44.885505000
 20
178.617849000
 30
0.000000000
  0
SPLINE
  5
A10
330
A02
100
AcDbEntity
  8
Sketch003
100
AcDbSpline
210
0
220
0
230
1
 70
8
 71
1
 72
4
 73
2
 74
0
 40
1.570796327
 40
1.570796327
 40
4.712388980
 40
4.712388980
 10
44.885505000
 20
286.313849000
 30
0.000000000
 10
14.961835000
 20
286.313849000
 30
0.000000000
  0
SPLINE
  5
A11
330
A02
100
AcDbEntity
  8
Sketch003
100
AcDbSpline
210
0
220
0
230
1
 70
8
 71
1
 72
4
 73
2
 74
0
 40
1.570796327
 40
1.570796327
 40
4.712388980
 40
4.712388980
 10
14.961835000
 20
305.490849000
 30
0.000000000
 10
44.885505000
 20
305.490849000
 30
0.000000000
  0
SPLINE
  5
A12
330
A02
100
AcDbEntity
  8
Sketch004
100
AcDbSpline
210
0
220
0
230
1
 70
9
 71
3
 72
29
 73
25
 74
0
 40
0.000000000
 40
0.000000000
 40
0.000000000
 40
0.000000000
 40
0.107307785
 40
0.107307785
 40
0.107307785
 40
0.249737183
 40
0.249737183
 40
0.249737183
 40
0.392326691
 40
0.392326691
 40
0.392326691
 40
0.499696451
 40
0.499696451
 40
0.499696451
 40
0.607235331
 40
0.607235331
 40
0.607235331
 40
0.749850249
 40
0.749850249
 40
0.749850249
 40
0.892466632
 40
0.892466632
 40
0.892466632
 40
1.000000000
 40
1.000000000
 40
1.000000000
 40
1.000000000
 10
24.936392000
 20
-44.684332000
 30
0.000000000
 10
25.624328000
 20
-44.681282000
 30
0.000000000
 10
26.248138000
 20
-44.977462000
 30
0.000000000
 10
26.661304000
 20
-45.361911000
 30
0.000000000
 10
27.212206000
 20
-45.871220000
 30
0.000000000
 10
27.478715000
 20
-46.531987000
 30
0.000000000
 10
27.479687000
 20
-47.184332000
 30
0.000000000
 10
27.478831000
 20
-47.836468000
 30
0.000000000
 10
27.212204000
 20
-48.497368000
 30
0.000000000
 10
26.661304000
 20
-49.006754000
 30
0.000000000
 10
26.248758000
 20
-49.390982000
 30
0.000000000
 10
25.623276000
 20
-49.687678000
 30
0.000000000
 10
24.936392000
 20
-49.684332000
 30
0.000000000
 10
24.248456000
 20
-49.687382000
 30
0.000000000
 10
23.624646000
 20
-49.391203000
 30
0.000000000
 10
23.211480000
 20
-49.006754000
 30
0.000000000
 10
22.660589000
 20
-48.497385000
 30
0.000000000
 10
22.393942000
 20
-47.836441000
 30
0.000000000
 10
22.393096000
 20
-47.184332000
 30
0.000000000
 10
22.393953000
 20
-46.532197000
 30
0.000000000
 10
22.660580000
 20
-45.871297000
 30
0.000000000
 10
23.211480000
 20
-45.361911000
 30
0.000000000
 10
23.624646000
 20
-44.977462000
 30
0.000000000
 10
24.248456000
 20
-44.681282000
 30
0.000000000
 10
24.936392000
 20
-44.684332000
 30
0.000000000
  0
SPLINE
  5
A13
330
A02
100
AcDbEntity
  8
Sketch004
100
AcDbSpline
210
0
220
0
230
1
 70
8
 71
3
 72
47
 73
43
 74
0
 40
0.000000000
 40
0.000000000
 40
0.000000000
 40
0.000000000
 40
0.087755532
 40
0.087755532
 40
0.087755532
 40
0.151871462
 40
0.151871462
 40
0.151871462
 40
0.220193945
 40
0.220193945
 40
0.220193945
 40
0.255982880
 40
0.255982880
 40
0.255982880
 40
0.354078711
 40
0.354078711
 40
0.354078711
 40
0.446213385
 40
0.446213385
 40
0.446213385
 40
0.505228626
 40
0.505228626
 40
0.505228626
 40
0.564565978
 40
0.564565978
 40
0.564565978
 40
0.650649410
 40
0.650649410
 40
0.650649410
 40
0.745493455
 40
0.745493455
 40
0.745493455
 40
0.808211529
 40
0.808211529
 40
0.808211529
 40
0.875180148
 40
0.875180148
 40
0.875180148
 40
0.937590074
 40
0.937590074
 40
0.937590074
 40
1.000000000
 40
1.000000000
 40
1.000000000
 40
1.000000000
 10
6.352723000
 20
-84.855620000
 30
0.000000000
 10
7.321660000
 20
-84.349411000
 30
0.000000000
 10
8.360963000
 20
-83.848649000
 30
0.000000000
 10
9.569189000
 20
-83.485589000
 30
0.000000000
 10
10.452832000
 20
-83.220257000
 30
0.000000000
 10
11.445506000
 20
-83.042153000
 30
0.000000000
 10
12.462139000
 20
-83.043752000
 30
0.000000000
 10
13.545308000
 20
-83.040368000
 30
0.000000000
 10
14.598872000
 20
-83.241733000
 30
0.000000000
 10
15.527513000
 20
-83.534578000
 30
0.000000000
 10
16.012250000
 20
-83.688676000
 30
0.000000000
 10
16.473029000
 20
-83.860434000
 30
0.000000000
 10
16.909850000
 20
-84.049852000
 30
0.000000000
 10
18.110298000
 20
-84.566045000
 30
0.000000000
 10
19.159983000
 20
-85.164037000
 30
0.000000000
 10
20.182072000
 20
-85.725892000
 30
0.000000000
 10
21.141860000
 20
-86.252224000
 30
0.000000000
 10
22.075594000
 20
-86.763269000
 30
0.000000000
 10
23.062368000
 20
-87.103648000
 30
0.000000000
 10
23.695312000
 20
-87.321340000
 30
0.000000000
 10
24.352959000
 20
-87.457146000
 30
0.000000000
 10
25.017600000
 20
-87.458163000
 30
0.000000000
 10
25.685827000
 20
-87.462247000
 30
0.000000000
 10
26.351274000
 20
-87.330130000
 30
0.000000000
 10
26.995285000
 20
-87.116451000
 30
0.000000000
 10
27.928226000
 20
-86.806449000
 30
0.000000000
 10
28.822048000
 20
-86.347827000
 30
0.000000000
 10
29.739941000
 20
-85.872650000
 30
0.000000000
 10
30.751425000
 20
-85.347948000
 30
0.000000000
 10
31.791549000
 20
-84.787609000
 30
0.000000000
 10
32.971256000
 20
-84.305498000
 30
0.000000000
 10
33.751387000
 20
-83.988268000
 30
0.000000000
 10
34.598987000
 20
-83.704240000
 30
0.000000000
 10
35.530408000
 20
-83.527938000
 30
0.000000000
 10
36.525837000
 20
-83.335466000
 30
0.000000000
 10
37.622051000
 20
-83.293498000
 30
0.000000000
 10
38.651407000
 20
-83.428822000
 30
0.000000000
 10
39.610557000
 20
-83.551116000
 30
0.000000000
 10
40.478693000
 20
-83.796658000
 30
0.000000000
 10
41.282323000
 20
-84.090392000
 30
0.000000000
 10
42.085841000
 20
-84.385166000
 30
0.000000000
 10
42.823875000
 20
-84.728590000
 30
0.000000000
 10
43.520061000
 20
-85.074957000
 30
0.000000000
  0
SPLINE
  5
A14
330
A02
100
AcDbEntity
  8
Sketch004
100
AcDbSpline
210
0
220
0
230
1
 70
8
 71
3
 72
11
 73
7
 74
0
 40
5.469123365
 40
5.469123365
 40
5.469123365
 40
5.469123365
 40
5.869294867
 40
5.869294867
 40
5.869294867
 40
6.269466369
 40
6.269466369
 40
6.269466369
 40
6.269466369
 10
43.520061000
 20
-85.074957000
 30
0.000000000
 10
44.578848000
 20
-83.993828000
 30
0.000000000
 10
45.637635000
 20
-83.120616000
 30
0.000000000
 10
46.696422000
 20
-82.523689000
 30
0.000000000
 10
47.755209000
 20
-81.925231000
 30
0.000000000
 10
48.813996000
 20
-81.603636000
 30
0.000000000
 10
49.872783000
 20
-81.584085000
 30
0.000000000
  0
SPLINE
  5
A15
330
A02
100
AcDbEntity
  8
Sketch004
100
AcDbSpline
210
0
220
0
230
1
 70
8
 71
1
 72
4
 73
2
 74
0
 40
-81.584084752
 40
-81.584084752
 40
69.896023567
 40
69.896023567
 10
49.872783000
 20
-81.584085000
 30
0.000000000
 10
49.872783000
 20
69.896024000
 30
0.000000000
  0
SPLINE
  5
A16
330
A02
100
AcDbEntity
  8
Sketch004
100
AcDbSpline
210
0
220
0
230
1
 70
8
 71
1
 72
4
 73
2
 74
0
 40
0.000000000
 40
0.000000000
 40
6.283185307
 40
6.283185307
 10
49.872783000
 20
69.896024000
 30
0.000000000
 10
0.000000000
 20
69.896024000
 30
0.000000000
  0
SPLINE
  5
A17
330
A02
100
AcDbEntity
  8
Sketch004
100
AcDbSpline
210
0
220
0
230
1
 70
8
 71
1
 72
4
 73
2
 74
0
 40
-81.584084752
 40
-81.584084752
 40
69.896023567
 40
69.896023567
 10
0.000000000
 20
69.896024000
 30
0.000000000
 10
0.000000000
 20
-81.584085000
 30
0.000000000
  0
SPLINE
  5
A18
330
A02
100
AcDbEntity
  8
Sketch004
100
AcDbSpline
210
0
220
0
230
1
 70
8
 71
3
 72
11
 73
7
 74
0
 40
6.269466369
 40
6.269466369
 40
6.269466369
 40
6.269466369
 40
6.669637871
 40
6.669637871
 40
6.669637871
 40
7.069809372
 40
7.069809372
 40
7.069809372
 40
7.069809372
 10
0.000000000
 20
-81.584085000
 30
0.000000000
 10
1.058787000
 20
-81.562861000
 30
0.000000000
 10
2.117574000
 20
-81.843699000
 30
0.000000000
 10
3.176361000
 20
-82.404613000
 30
0.000000000
 10
4.235148000
 20
-82.963977000
 30
0.000000000
 10
5.293935000
 20
-83.802872000
 30
0.000000000
 10
6.352723000
 20
-84.855620000
 30
0.000000000
  0
SPLINE
  5
A19
330
A02
100
AcDbEntity
  8
Sketch004
100
AcDbSpline
210
0
220
0
230
1
 70
9
 71
3
 72
29
 73
25
 74
0
 40
0.000000000
 40
0.000000000
 40
0.000000000
 40
0.000000000
 40
0.107467762
 40
0.107467762
 40
0.107467762
 40
0.249984611
 40
0.249984611
 40
0.249984611
 40
0.392527095
 40
0.392527095
 40
0.392527095
 40
0.499861446
 40
0.499861446
 40
0.499861446
 40
0.607364860
 40
0.607364860
 40
0.607364860
 40
0.749932746
 40
0.749932746
 40
0.749932746
 40
0.892502095
 40
0.892502095
 40
0.892502095
 40
1.000000000
 40
1.000000000
 40
1.000000000
 40
1.000000000
 10
24.936392000
 20
-64.684332000
 30
0.000000000
 10
25.624328000
 20
-64.681282000
 30
0.000000000
 10
26.248138000
 20
-64.977462000
 30
0.000000000
 10
26.661304000
 20
-65.361911000
 30
0.000000000
 10
27.212179000
 20
-65.871232000
 30
0.000000000
 10
27.478861000
 20
-66.532303000
 30
0.000000000
 10
27.479687000
 20
-67.184332000
 30
0.000000000
 10
27.478831000
 20
-67.836468000
 30
0.000000000
 10
27.212204000
 20
-68.497368000
 30
0.000000000
 10
26.661304000
 20
-69.006754000
 30
0.000000000
 10
26.248758000
 20
-69.390982000
 30
0.000000000
 10
25.623276000
 20
-69.687678000
 30
0.000000000
 10
24.936392000
 20
-69.684332000
 30
0.000000000
 10
24.248456000
 20
-69.687382000
 30
0.000000000
 10
23.624646000
 20
-69.391203000
 30
0.000000000
 10
23.211480000
 20
-69.006754000
 30
0.000000000
 10
22.660589000
 20
-68.497385000
 30
0.000000000
 10
22.393942000
 20
-67.836441000
 30
0.000000000
 10
22.393096000
 20
-67.184332000
 30
0.000000000
 10
22.393953000
 20
-66.532197000
 30
0.000000000
 10
22.660580000
 20
-65.871297000
 30
0.000000000
 10
23.211480000
 20
-65.361911000
 30
0.000000000
 10
23.624646000
 20
-64.977462000
 30
0.000000000
 10
24.248456000
 20
-64.681282000
 30
0.000000000
 10
24.936392000
 20
-64.684332000
 30
0.000000000
  0
LINE
  5
A1A
330
A02
100
AcDbEntity
  8
Sketch005
100
AcDbLine
 10
158.007107000
 20
14.798685000
 30
0.000000000
 11
164.897115000
 21
14.072744000
 31
0.000000000
  0
LINE
  5
A1B
330
A02
100
AcDbEntity
  8
Sketch005
100
AcDbLine
 10
164.897115000
 20
14.072744000
 30
0.000000000
 11
171.937002000
 21
13.658581000
 31
0.000000000
  0
LINE
  5
A1C
330
A02
100
AcDbEntity
  8
Sketch005
100
AcDbLine
 10
171.937002000
 20
13.658581000
 30
0.000000000
 11
178.873345000
 21
13.485087000
 31
0.000000000
  0
LINE
  5
A1D
330
A02
100
AcDbEntity
  8
Sketch005
100
AcDbLine
 10
178.873345000
 20
13.485087000
 30
0.000000000
 11
230.445960000
 21
10.093228000
 31
0.000000000
  0
LINE
  5
A1E
330
A02
100
AcDbEntity
  8
Sketch005
100
AcDbLine
 10
230.445960000
 20
10.093228000
 30
0.000000000
 11
230.485623000
 21
8.467226000
 31
0.000000000
  0
LINE
  5
A1F
330
A02
100
AcDbEntity
  8
Sketch005
100
AcDbLine
 10
230.485623000
 20
8.467226000
 30
0.000000000
 11
230.690236000
 21
6.917145000
 31
0.000000000
  0
LINE
  5
A20
330
A02
100
AcDbEntity
  8
Sketch005
100
AcDbLine
 10
230.690236000
 20
6.917145000
 30
0.000000000
 11
231.050555000
 21
5.256833000
 31
0.000000000
  0
LINE
  5
A21
330
A02
100
AcDbEntity
  8
Sketch005
100
AcDbLine
 10
231.050555000
 20
5.256833000
 30
0.000000000
 11
231.509997000
 21
3.531450000
 31
0.000000000
  0
LINE
  5
A22
330
A02
100
AcDbEntity
  8
Sketch005
100
AcDbLine
 10
231.509997000
 20
3.531450000
 30
0.000000000
 11
231.692905000
 21
2.846080000
 31
0.000000000
  0
LINE
  5
A23
330
A02
100
AcDbEntity
  8
Sketch005
100
AcDbLine
 10
231.692905000
 20
2.846080000
 30
0.000000000
 11
231.861117000
 21
2.170892000
 31
0.000000000
  0
LINE
  5
A24
330
A02
100
AcDbEntity
  8
Sketch005
100
AcDbLine
 10
231.861117000
 20
2.170892000
 30
0.000000000
 11
231.756949000
 21
0.512649000
 31
0.000000000
  0
LINE
  5
A25
330
A02
100
AcDbEntity
  8
Sketch005
100
AcDbLine
 10
231.756949000
 20
0.512649000
 30
0.000000000
 11
231.652652000
 21
-1.147990000
 31
0.000000000
  0
LINE
  5
A26
330
A02
100
AcDbEntity
  8
Sketch005
100
AcDbLine
 10
231.652652000
 20
-1.147990000
 30
0.000000000
 11
231.548119000
 21
-2.811063000
 31
0.000000000
  0
LINE
  5
A27
330
A02
100
AcDbEntity
  8
Sketch005
100
AcDbLine
 10
231.548119000
 20
-2.811063000
 30
0.000000000
 11
230.755726000
 21
-4.078351000
 31
0.000000000
  0
LINE
  5
A28
330
A02
100
AcDbEntity
  8
Sketch005
100
AcDbLine
 10
230.755726000
 20
-4.078351000
 30
0.000000000
 11
229.818707000
 21
-5.252108000
 31
0.000000000
  0
LINE
  5
A29
330
A02
100
AcDbEntity
  8
Sketch005
100
AcDbLine
 10
229.818707000
 20
-5.252108000
 30
0.000000000
 11
228.470548000
 21
-6.782621000
 31
0.000000000
  0
LINE
  5
A2A
330
A02
100
AcDbEntity
  8
Sketch005
100
AcDbLine
 10
228.470548000
 20
-6.782621000
 30
0.000000000
 11
227.121925000
 21
-8.365018000
 31
0.000000000
  0
LINE
  5
A2B
330
A02
100
AcDbEntity
  8
Sketch005
100
AcDbLine
 10
227.121925000
 20
-8.365018000
 30
0.000000000
 11
226.210831000
 21
-9.590273000
 31
0.000000000
  0
LINE
  5
A2C
330
A02
100
AcDbEntity
  8
Sketch005
100
AcDbLine
 10
226.210831000
 20
-9.590273000
 30
0.000000000
 11
225.376590000
 21
-10.988122000
 31
0.000000000
  0
LINE
  5
A2D
330
A02
100
AcDbEntity
  8
Sketch005
100
AcDbLine
 10
225.376590000
 20
-10.988122000
 30
0.000000000
 11
224.780213000
 21
-12.456326000
 31
0.000000000
  0
LINE
  5
A2E
330
A02
100
AcDbEntity
  8
Sketch005
100
AcDbLine
 10
224.780213000
 20
-12.456326000
 30
0.000000000
 11
224.498270000
 21
-13.843333000
 31
0.000000000
  0
LINE
  5
A2F
330
A02
100
AcDbEntity
  8
Sketch005
100
AcDbLine
 10
224.498270000
 20
-13.843333000
 30
0.000000000
 11
224.481024000
 21
-15.137055000
 31
0.000000000
  0
LINE
  5
A30
330
A02
100
AcDbEntity
  8
Sketch005
100
AcDbLine
 10
224.481024000
 20
-15.137055000
 30
0.000000000
 11
224.617080000
 21
-16.108803000
 31
0.000000000
  0
LINE
  5
A31
330
A02
100
AcDbEntity
  8
Sketch005
100
AcDbLine
 10
224.617080000
 20
-16.108803000
 30
0.000000000
 11
224.924507000
 21
-17.236939000
 31
0.000000000
  0
LINE
  5
A32
330
A02
100
AcDbEntity
  8
Sketch005
100
AcDbLine
 10
224.924507000
 20
-17.236939000
 30
0.000000000
 11
225.383473000
 21
-18.379326000
 31
0.000000000
  0
LINE
  5
A33
330
A02
100
AcDbEntity
  8
Sketch005
100
AcDbLine
 10
225.383473000
 20
-18.379326000
 30
0.000000000
 11
225.921882000
 21
-19.439614000
 31
0.000000000
  0
LINE
  5
A34
330
A02
100
AcDbEntity
  8
Sketch005
100
AcDbLine
 10
225.921882000
 20
-19.439614000
 30
0.000000000
 11
226.497992000
 21
-20.420107000
 31
0.000000000
  0
LINE
  5
A35
330
A02
100
AcDbEntity
  8
Sketch005
100
AcDbLine
 10
226.497992000
 20
-20.420107000
 30
0.000000000
 11
225.393542000
 21
-21.731895000
 31
0.000000000
  0
LINE
  5
A36
330
A02
100
AcDbEntity
  8
Sketch005
100
AcDbLine
 10
225.393542000
 20
-21.731895000
 30
0.000000000
 11
224.603229000
 21
-23.063002000
 31
0.000000000
  0
LINE
  5
A37
330
A02
100
AcDbEntity
  8
Sketch005
100
AcDbLine
 10
224.603229000
 20
-23.063002000
 30
0.000000000
 11
224.177407000
 21
-24.283825000
 31
0.000000000
  0
LINE
  5
A38
330
A02
100
AcDbEntity
  8
Sketch005
100
AcDbLine
 10
224.177407000
 20
-24.283825000
 30
0.000000000
 11
224.036299000
 21
-25.397166000
 31
0.000000000
  0
LINE
  5
A39
330
A02
100
AcDbEntity
  8
Sketch005
100
AcDbLine
 10
224.036299000
 20
-25.397166000
 30
0.000000000
 11
224.058337000
 21
-26.025461000
 31
0.000000000
  0
LINE
  5
A3A
330
A02
100
AcDbEntity
  8
Sketch005
100
AcDbLine
 10
224.058337000
 20
-26.025461000
 30
0.000000000
 11
224.152189000
 21
-26.657551000
 31
0.000000000
  0
LINE
  5
A3B
330
A02
100
AcDbEntity
  8
Sketch005
100
AcDbLine
 10
224.152189000
 20
-26.657551000
 30
0.000000000
 11
224.541502000
 21
-27.907593000
 31
0.000000000
  0
LINE
  5
A3C
330
A02
100
AcDbEntity
  8
Sketch005
100
AcDbLine
 10
224.541502000
 20
-27.907593000
 30
0.000000000
 11
225.193327000
 21
-29.173694000
 31
0.000000000
  0
LINE
  5
A3D
330
A02
100
AcDbEntity
  8
Sketch005
100
AcDbLine
 10
225.193327000
 20
-29.173694000
 30
0.000000000
 11
226.090280000
 21
-30.456047000
 31
0.000000000
  0
LINE
  5
A3E
330
A02
100
AcDbEntity
  8
Sketch005
100
AcDbLine
 10
226.090280000
 20
-30.456047000
 30
0.000000000
 11
227.333667000
 21
-31.881459000
 31
0.000000000
  0
LINE
  5
A3F
330
A02
100
AcDbEntity
  8
Sketch005
100
AcDbLine
 10
227.333667000
 20
-31.881459000
 30
0.000000000
 11
228.809249000
 21
-33.320728000
 31
0.000000000
  0
LINE
  5
A40
330
A02
100
AcDbEntity
  8
Sketch005
100
AcDbLine
 10
228.809249000
 20
-33.320728000
 30
0.000000000
 11
228.172046000
 21
-34.926416000
 31
0.000000000
  0
LINE
  5
A41
330
A02
100
AcDbEntity
  8
Sketch005
100
AcDbLine
 10
228.172046000
 20
-34.926416000
 30
0.000000000
 11
227.667382000
 21
-36.489708000
 31
0.000000000
  0
LINE
  5
A42
330
A02
100
AcDbEntity
  8
Sketch005
100
AcDbLine
 10
227.667382000
 20
-36.489708000
 30
0.000000000
 11
227.327114000
 21
-38.035312000
 31
0.000000000
  0
LINE
  5
A43
330
A02
100
AcDbEntity
  8
Sketch005
100
AcDbLine
 10
227.327114000
 20
-38.035312000
 30
0.000000000
 11
227.162036000
 21
-39.653187000
 31
0.000000000
  0
LINE
  5
A44
330
A02
100
AcDbEntity
  8
Sketch005
100
AcDbLine
 10
227.162036000
 20
-39.653187000
 30
0.000000000
 11
175.566901000
 21
-36.214906000
 31
0.000000000
  0
LINE
  5
A45
330
A02
100
AcDbEntity
  8
Sketch005
100
AcDbLine
 10
175.566901000
 20
-36.214906000
 30
0.000000000
 11
168.725119000
 21
-35.492060000
 31
0.000000000
  0
LINE
  5
A46
330
A02
100
AcDbEntity
  8
Sketch005
100
AcDbLine
 10
168.725119000
 20
-35.492060000
 30
0.000000000
 11
161.721656000
 21
-34.992789000
 31
0.000000000
  0
LINE
  5
A47
330
A02
100
AcDbEntity
  8
Sketch005
100
AcDbLine
 10
161.721656000
 20
-34.992789000
 30
0.000000000
 11
154.834954000
 21
-34.830221000
 31
0.000000000
  0
LINE
  5
A48
330
A02
100
AcDbEntity
  8
Sketch005
100
AcDbLine
 10
154.834954000
 20
-34.830221000
 30
0.000000000
 11
-229.545057000
 21
-10.260715000
 31
0.000000000
  0
LINE
  5
A49
330
A02
100
AcDbEntity
  8
Sketch005
100
AcDbLine
 10
-229.545057000
 20
-10.260715000
 30
0.000000000
 11
-229.442999000
 21
-8.663890000
 31
0.000000000
  0
LINE
  5
A4A
330
A02
100
AcDbEntity
  8
Sketch005
100
AcDbLine
 10
-229.442999000
 20
-8.663890000
 30
0.000000000
 11
-229.340917000
 21
-7.067057000
 31
0.000000000
  0
LINE
  5
A4B
330
A02
100
AcDbEntity
  8
Sketch005
100
AcDbLine
 10
-229.340917000
 20
-7.067057000
 30
0.000000000
 11
-229.238831000
 21
-5.470210000
 31
0.000000000
  0
LINE
  5
A4C
330
A02
100
AcDbEntity
  8
Sketch005
100
AcDbLine
 10
-229.238831000
 20
-5.470210000
 30
0.000000000
 11
-229.136703000
 21
-3.873313000
 31
0.000000000
  0
LINE
  5
A4D
330
A02
100
AcDbEntity
  8
Sketch005
100
AcDbLine
 10
-229.136703000
 20
-3.873313000
 30
0.000000000
 11
-229.034605000
 21
-2.276402000
 31
0.000000000
  0
LINE
  5
A4E
330
A02
100
AcDbEntity
  8
Sketch005
100
AcDbLine
 10
-229.034605000
 20
-2.276402000
 30
0.000000000
 11
-228.932480000
 21
-0.679437000
 31
0.000000000
  0
LINE
  5
A4F
330
A02
100
AcDbEntity
  8
Sketch005
100
AcDbLine
 10
-228.932480000
 20
-0.679437000
 30
0.000000000
 11
-228.830338000
 21
0.917573000
 31
0.000000000
  0
LINE
  5
A50
330
A02
100
AcDbEntity
  8
Sketch005
100
AcDbLine
 10
-228.830338000
 20
0.917573000
 30
0.000000000
 11
-228.728161000
 21
2.514644000
 31
0.000000000
  0
LINE
  5
A51
330
A02
100
AcDbEntity
  8
Sketch005
100
AcDbLine
 10
-228.728161000
 20
2.514644000
 30
0.000000000
 11
-228.615924000
 21
4.269469000
 31
0.000000000
  0
LINE
  5
A52
330
A02
100
AcDbEntity
  8
Sketch005
100
AcDbLine
 10
-228.615924000
 20
4.269469000
 30
0.000000000
 11
-228.503645000
 21
6.024354000
 31
0.000000000
  0
LINE
  5
A53
330
A02
100
AcDbEntity
  8
Sketch005
100
AcDbLine
 10
-228.503645000
 20
6.024354000
 30
0.000000000
 11
-228.391391000
 21
7.779306000
 31
0.000000000
  0
LINE
  5
A54
330
A02
100
AcDbEntity
  8
Sketch005
100
AcDbLine
 10
-228.391391000
 20
7.779306000
 30
0.000000000
 11
-228.279135000
 21
9.534315000
 31
0.000000000
  0
LINE
  5
A55
330
A02
100
AcDbEntity
  8
Sketch005
100
AcDbLine
 10
-228.279135000
 20
9.534315000
 30
0.000000000
 11
-228.166896000
 21
11.289380000
 31
0.000000000
  0
LINE
  5
A56
330
A02
100
AcDbEntity
  8
Sketch005
100
AcDbLine
 10
-228.166896000
 20
11.289380000
 30
0.000000000
 11
-228.054658000
 21
13.044473000
 31
0.000000000
  0
LINE
  5
A57
330
A02
100
AcDbEntity
  8
Sketch005
100
AcDbLine
 10
-228.054658000
 20
13.044473000
 30
0.000000000
 11
-227.942436000
 21
14.799588000
 31
0.000000000
  0
LINE
  5
A58
330
A02
100
AcDbEntity
  8
Sketch005
100
AcDbLine
 10
-227.942436000
 20
14.799588000
 30
0.000000000
 11
-227.830260000
 21
16.554733000
 31
0.000000000
  0
LINE
  5
A59
330
A02
100
AcDbEntity
  8
Sketch005
100
AcDbLine
 10
-227.830260000
 20
16.554733000
 30
0.000000000
 11
-227.718076000
 21
18.309851000
 31
0.000000000
  0
LINE
  5
A5A
330
A02
100
AcDbEntity
  8
Sketch005
100
AcDbLine
 10
-227.718076000
 20
18.309851000
 30
0.000000000
 11
-227.605947000
 21
20.064956000
 31
0.000000000
  0
LINE
  5
A5B
330
A02
100
AcDbEntity
  8
Sketch005
100
AcDbLine
 10
-227.605947000
 20
20.064956000
 30
0.000000000
 11
-227.493830000
 21
21.820023000
 31
0.000000000
  0
LINE
  5
A5C
330
A02
100
AcDbEntity
  8
Sketch005
100
AcDbLine
 10
-227.493830000
 20
21.820023000
 30
0.000000000
 11
-227.381727000
 21
23.575044000
 31
0.000000000
  0
LINE
  5
A5D
330
A02
100
AcDbEntity
  8
Sketch005
100
AcDbLine
 10
-227.381727000
 20
23.575044000
 30
0.000000000
 11
-227.269632000
 21
25.330002000
 31
0.000000000
  0
LINE
  5
A5E
330
A02
100
AcDbEntity
  8
Sketch005
100
AcDbLine
 10
-227.269632000
 20
25.330002000
 30
0.000000000
 11
-227.157564000
 21
27.084898000
 31
0.000000000
  0
LINE
  5
A5F
330
A02
100
AcDbEntity
  8
Sketch005
100
AcDbLine
 10
-227.157564000
 20
27.084898000
 30
0.000000000
 11
-227.045473000
 21
28.839723000
 31
0.000000000
  0
LINE
  5
A60
330
A02
100
AcDbEntity
  8
Sketch005
100
AcDbLine
 10
-227.045473000
 20
28.839723000
 30
0.000000000
 11
-226.933398000
 21
30.594474000
 31
0.000000000
  0
LINE
  5
A61
330
A02
100
AcDbEntity
  8
Sketch005
100
AcDbLine
 10
-226.933398000
 20
30.594474000
 30
0.000000000
 11
-226.821296000
 21
32.349165000
 31
0.000000000
  0
LINE
  5
A62
330
A02
100
AcDbEntity
  8
Sketch005
100
AcDbLine
 10
-226.821296000
 20
32.349165000
 30
0.000000000
 11
-226.709228000
 21
34.103788000
 31
0.000000000
  0
LINE
  5
A63
330
A02
100
AcDbEntity
  8
Sketch005
100
AcDbLine
 10
-226.709228000
 20
34.103788000
 30
0.000000000
 11
-226.597127000
 21
35.858361000
 31
0.000000000
  0
LINE
  5
A64
330
A02
100
AcDbEntity
  8
Sketch005
100
AcDbLine
 10
-226.597127000
 20
35.858361000
 30
0.000000000
 11
-226.485017000
 21
37.612893000
 31
0.000000000
  0
LINE
  5
A65
330
A02
100
AcDbEntity
  8
Sketch005
100
AcDbLine
 10
-226.485017000
 20
37.612893000
 30
0.000000000
 11
-226.372892000
 21
39.367399000
 31
0.000000000
  0
LINE
  5
A66
330
A02
100
AcDbEntity
  8
Sketch005
100
AcDbLine
 10
-226.372892000
 20
39.367399000
 30
0.000000000
 11
158.007107000
 21
14.798685000
 31
0.000000000
  0
LINE
  5
A67
330
A02
100
AcDbEntity
  8
Sketch005
100
AcDbLine
 10
157.218372000
 20
2.458776000
 30
0.000000000
 11
155.623689000
 21
-22.490312000
 31
0.000000000
  0
LINE
  5
A68
330
A02
100
AcDbEntity
  8
Sketch005
100
AcDbLine
 10
178.049889000
 20
1.107520000
 30
0.000000000
 11
176.390357000
 21
-23.837339000
 31
0.000000000
  0
ENDSEC
  0
SECTION
  2
OBJECTS
  0
DICTIONARY
  5
F000
330
0
100
AcDbDictionary
  3
ACAD_GROUP
350
F001
  0
DICTIONARY
  5
F001
330
F000
100
AcDbDictionary
  0
ENDSEC
  0
EOF