999
FreeCAD v1.1 20260414 (Git shallow)
  0
SECTION
  2
HEADER
  9
$ACADVER
  1
AC1014
  9
$ACADMAINTVER
 70
     9
  9
$DWGCODEPAGE
  3
ANSI_1252
  9
$TEXTSTYLE
  7
STANDARD
  9
$DIMSTYLE
  2
STANDARD
  9
$DIMTXSTY
  7
STANDARD
  9
$CMLSTYLE
  2
STANDARD
  9
$LUNITS
 70
2
  9
$INSUNITS
 70
4
  9
$PEXTMAX
 10
50
 20
50
 30
50
  9
$PEXTMIN
 10
0
 20
0
 30
0
  9
$HANDSEED
  5
FFFF
  0
ENDSEC
  0
SECTION
  2
CLASSES
  0
CLASS
  1
ACDBDICTIONARYWDFLT
  2
AcDbDictionaryWithDefault
  3
ObjectDBX Classes
 90
        0
280
     0
281
     0
  0
CLASS
  1
XRECORD
  2
AcDbXrecord
  3
ObjectDBX Classes
 90
        0
280
     0
281
     0
  0
CLASS
  1
LWPOLYLINE
  2
AcDbPolyline
  3
ObjectDBX Classes
 90
        0
280
     0
281
     1
  0
ENDSEC
  0
SECTION
  2
TABLES
  0
TABLE
  2
VPORT
  5
20
330
0
100
AcDbSymbolTable
 70
     1
  0
VPORT
  5
21
330
20
100
AcDbSymbolTableRecord
100
AcDbViewportTableRecord
  2
*ACTIVE
 70
     0
  0
ENDTAB
  0
TABLE
  2
LTYPE
  5
22
330
0
100
AcDbSymbolTable
 70
     1
  0
LTYPE
  5
23
330
21
100
AcDbSymbolTableRecord
100
AcDbLinetypeTableRecord
  2
BYBLOCK
 70
     0
  3

 72
    65
 73
     0
 40
0.0
  0
LTYPE
  5
24
330
21
100
AcDbSymbolTableRecord
100
AcDbLinetypeTableRecord
  2
BYLAYER
 70
     0
  3

 72
    65
 73
     0
 40
0.0
  0
LTYPE
  5
25
330
21
100
AcDbSymbolTableRecord
100
AcDbLinetypeTableRecord
  2
CONTINUOUS
 70
     0
  3
Solid line
 72
    65
 73
     0
 40
0.0
  0
ENDTAB
  0
TABLE
  2
LAYER
  5
A10
330
0
100
AcDbSymbolTable
 70
3
  0
LAYER
  5
A11
330
A10
100
AcDbSymbolTableRecord
100
AcDbLayerTableRecord
  2
0
 70
   0
 62
   7
  6
CONTINUOUS
  0
LAYER
  5
A12
330
A10
100
AcDbSymbolTableRecord
100
AcDbLayerTableRecord
  2
none
 70
    0
 62
    7
  6
CONTINUOUS
  0
LAYER
  5
A13
330
A10
100
AcDbSymbolTableRecord
100
AcDbLayerTableRecord
  2
Flattened_Face
 70
    0
 62
    7
  6
CONTINUOUS
  0
ENDTAB
  0
TABLE
  2
STYLE
  5
70
330
0
100
AcDbSymbolTable
 70
     2
  0
STYLE
  5
71
330
70
100
AcDbSymbolTableRecord
100
AcDbTextStyleTableRecord
  2
STANDARD
 70
     0
 40
0.0
 41
1.0
 50
0.0
 71
     0
 42
2.5
  3
arial.ttf
  4

  0
STYLE
  5
72
330
70
100
AcDbSymbolTableRecord
100
AcDbTextStyleTableRecord
  2
ANNOTATIVE
 70
     0
 40
0.0
 41
1.0
 50
0.0
 71
     0
 42
2.5
  3
arial.ttf
  4

  0
ENDTAB
  0
TABLE
  2
VIEW
  5
73
330
0
100
AcDbSymbolTable
 70
     0
  0
ENDTAB
  0
TABLE
  2
UCS
  5
74
330
0
100
AcDbSymbolTable
 70
     0
  0
ENDTAB
  0
TABLE
  2
APPID
  5
75
330
0
100
AcDbSymbolTable
 70
     2
  0
APPID
  5
76
330
75
100
AcDbSymbolTableRecord
100
AcDbRegAppTableRecord
  2
ACAD
 70
     0
  0
APPID
  5
77
330
75
100
AcDbSymbolTableRecord
100
AcDbRegAppTableRecord
  2
ACADANNOTATIVE
 70
     0
  0
ENDTAB
  0
TABLE
  2
DIMSTYLE
  5
78
330
0
100
AcDbSymbolTable
 70
     2
  0
DIMSTYLE
105
79
330
78
100
AcDbSymbolTableRecord
100
AcDbDimStyleTableRecord
  2
STANDARD
 70
     0
  3

  4

  5

  6

  7

 40
0.0
 41
2.5
 42
0.625
 43
3.75
 44
1.25
 45
0.0
 46
0.0
 47
0.0
 48
0.0
140
2.5
141
2.5
142
0.0
143
0.03937007874016
144
1.0
145
0.0
146
1.0
147
0.625
 71
     0
 72
     0
 73
     0
 74
     0
 75
     0
 76
     0
 77
     1
 78
     8
170
     0
171
     3
172
     1
173
     0
174
     0
175
     0
176
     0
177
     0
178
     0
270
     2
271
     2
272
     2
273
     2
274
     3
340
71
275
     0
280
     0
281
     0
282
     0
283
     0
284
     8
285
     0
286
     0
287
     3
288
     0
  0
ENDTAB
  0
TABLE
  2
BLOCK_RECORD
  5
A01
330
0
100
AcDbSymbolTable
  70
5
  0
BLOCK_RECORD
  5
A02
330
A01
100
AcDbSymbolTableRecord
100
AcDbBlockTableRecord
  2
*MODEL_SPACE
  0
BLOCK_RECORD
  5
A03
330
A01
100
AcDbSymbolTableRecord
100
AcDbBlockTableRecord
  2
*PAPER_SPACE
  0
ENDTAB
  0
ENDSEC
  0
SECTION
  2
BLOCKS
  0
BLOCK
  5
A04
330
A02
100
AcDbEntity
  8
0
100
AcDbBlockBegin
  2
*MODEL_SPACE
 70
   0
 10
0
 20
0
 30
0
  3
*MODEL_SPACE
  1
 
  0
ENDBLK
  5
A05
330
A02
100
AcDbEntity
  8
0
100
AcDbBlockEnd
  0
BLOCK
  5
A06
330
A03
100
AcDbEntity
 67
1
  8
0
100
AcDbBlockBegin
  2
*PAPER_SPACE
 70
   0
 10
0
 20
0
 30
0
  3
*PAPER_SPACE
  1
 
  0
ENDBLK
  5
A07
330
A03
100
AcDbEntity
 67
    1
  8
0
100
AcDbBlockEnd
  0
ENDSEC
  0
SECTION
  2
ENTITIES
  0
SPLINE
  5
A08
330
A02
100
AcDbEntity
  8
Flattened_Face
100
AcDbSpline
210
0
220
0
230
1
 70
8
 71
3
 72
47
 73
43
 74
0
 40
0.000000000
 40
0.000000000
 40
0.000000000
 40
0.000000000
 40
0.087755532
 40
0.087755532
 40
0.087755532
 40
0.151871462
 40
0.151871462
 40
0.151871462
 40
0.220193945
 40
0.220193945
 40
0.220193945
 40
0.255982880
 40
0.255982880
 40
0.255982880
 40
0.354078711
 40
0.354078711
 40
0.354078711
 40
0.446213385
 40
0.446213385
 40
0.446213385
 40
0.505228626
 40
0.505228626
 40
0.505228626
 40
0.564565978
 40
0.564565978
 40
0.564565978
 40
0.650649410
 40
0.650649410
 40
0.650649410
 40
0.745493455
 40
0.745493455
 40
0.745493455
 40
0.808211529
 40
0.808211529
 40
0.808211529
 40
0.875180148
 40
0.875180148
 40
0.875180148
 40
0.937590074
 40
0.937590074
 40
0.937590074
 40
1.000000000
 40
1.000000000
 40
1.000000000
 40
1.000000000
 10
6.352722593
 20
-84.855619695
 30
0.000000000
 10
7.321659516
 20
-84.349411298
 30
0.000000000
 10
8.360962957
 20
-83.848649067
 30
0.000000000
 10
9.569189201
 20
-83.485589078
 30
0.000000000
 10
10.452831762
 20
-83.220257192
 30
0.000000000
 10
11.445505758
 20
-83.042152887
 30
0.000000000
 10
12.462138556
 20
-83.043751911
 30
0.000000000
 10
13.545308284
 20
-83.040367985
 30
0.000000000
 10
14.598872196
 20
-83.241732757
 30
0.000000000
 10
15.527512890
 20
-83.534577753
 30
0.000000000
 10
16.012250499
 20
-83.688675941
 30
0.000000000
 10
16.473029380
 20
-83.860433969
 30
0.000000000
 10
16.909849534
 20
-84.049851838
 30
0.000000000
 10
18.110298469
 20
-84.566044918
 30
0.000000000
 10
19.159983254
 20
-85.164036865
 30
0.000000000
 10
20.182071707
 20
-85.725892186
 30
0.000000000
 10
21.141860158
 20
-86.252223618
 30
0.000000000
 10
22.075593741
 20
-86.763269022
 30
0.000000000
 10
23.062368354
 20
-87.103648477
 30
0.000000000
 10
23.695312399
 20
-87.321339648
 30
0.000000000
 10
24.352959237
 20
-87.457145943
 30
0.000000000
 10
25.017600290
 20
-87.458163236
 30
0.000000000
 10
25.685827182
 20
-87.462246863
 30
0.000000000
 10
26.351273973
 20
-87.330129666
 30
0.000000000
 10
26.995285167
 20
-87.116450743
 30
0.000000000
 10
27.928225804
 20
-86.806448904
 30
0.000000000
 10
28.822048312
 20
-86.347827098
 30
0.000000000
 10
29.739941430
 20
-85.872650003
 30
0.000000000
 10
30.751424981
 20
-85.347947794
 30
0.000000000
 10
31.791549289
 20
-84.787608799
 30
0.000000000
 10
32.971256109
 20
-84.305497565
 30
0.000000000
 10
33.751386604
 20
-83.988267519
 30
0.000000000
 10
34.598987079
 20
-83.704239616
 30
0.000000000
 10
35.530408483
 20
-83.527937547
 30
0.000000000
 10
36.525837429
 20
-83.335466477
 30
0.000000000
 10
37.622050677
 20
-83.293498260
 30
0.000000000
 10
38.651407116
 20
-83.428822226
 30
0.000000000
 10
39.610557477
 20
-83.551116319
 30
0.000000000
 10
40.478692539
 20
-83.796657889
 30
0.000000000
 10
41.282322806
 20
-84.090392121
 30
0.000000000
 10
42.085840760
 20
-84.385165896
 30
0.000000000
 10
42.823875233
 20
-84.728589694
 30
0.000000000
 10
43.520060783
 20
-85.074957488
 30
0.000000000
  0
SPLINE
  5
A09
330
A02
100
AcDbEntity
  8
Flattened_Face
100
AcDbSpline
210
0
220
0
230
1
 70
8
 71
3
 72
11
 73
7
 74
0
 40
5.469123365
 40
5.469123365
 40
5.469123365
 40
5.469123365
 40
5.869294867
 40
5.869294867
 40
5.869294867
 40
6.269466369
 40
6.269466369
 40
6.269466369
 40
6.269466369
 10
43.520060783
 20
-85.074957492
 30
0.000000000
 10
44.578847882
 20
-83.993828097
 30
0.000000000
 10
45.637634981
 20
-83.120616296
 30
0.000000000
 10
46.696422079
 20
-82.523689207
 30
0.000000000
 10
47.755209178
 20
-81.925230930
 30
0.000000000
 10
48.813996277
 20
-81.603636244
 30
0.000000000
 10
49.872783376
 20
-81.584084752
 30
0.000000000
  0
SPLINE
  5
A0A
330
A02
100
AcDbEntity
  8
Flattened_Face
100
AcDbSpline
210
0
220
0
230
1
 70
8
 71
1
 72
4
 73
2
 74
0
 40
-81.584084752
 40
-81.584084752
 40
69.896023567
 40
69.896023567
 10
49.872783376
 20
-81.584084752
 30
0.000000000
 10
49.872783376
 20
69.896023567
 30
0.000000000
  0
SPLINE
  5
A0B
330
A02
100
AcDbEntity
  8
Flattened_Face
100
AcDbSpline
210
0
220
0
230
1
 70
8
 71
1
 72
4
 73
2
 74
0
 40
0.000000000
 40
0.000000000
 40
6.283185307
 40
6.283185307
 10
49.872783376
 20
69.896023567
 30
0.000000000
 10
-0.000000000
 20
69.896023567
 30
0.000000000
  0
SPLINE
  5
A0C
330
A02
100
AcDbEntity
  8
Flattened_Face
100
AcDbSpline
210
0
220
0
230
1
 70
8
 71
1
 72
4
 73
2
 74
0
 40
-81.584084752
 40
-81.584084752
 40
69.896023567
 40
69.896023567
 10
0.000000000
 20
-81.584084752
 30
0.000000000
 10
0.000000000
 20
69.896023567
 30
0.000000000
  0
SPLINE
  5
A0D
330
A02
100
AcDbEntity
  8
Flattened_Face
100
AcDbSpline
210
0
220
0
230
1
 70
8
 71
3
 72
11
 73
7
 74
0
 40
6.269466369
 40
6.269466369
 40
6.269466369
 40
6.269466369
 40
6.669637871
 40
6.669637871
 40
6.669637871
 40
7.069809372
 40
7.069809372
 40
7.069809372
 40
7.069809372
 10
-0.000000000
 20
-81.584084752
 30
0.000000000
 10
1.058787099
 20
-81.562860631
 30
0.000000000
 10
2.117574198
 20
-81.843699453
 30
0.000000000
 10
3.176361296
 20
-82.404612565
 30
0.000000000
 10
4.235148395
 20
-82.963976612
 30
0.000000000
 10
5.293935494
 20
-83.802872445
 30
0.000000000
 10
6.352722593
 20
-84.855619699
 30
0.000000000
  0
SPLINE
  5
A0E
330
A02
100
AcDbEntity
  8
Flattened_Face
100
AcDbSpline
210
0
220
0
230
1
 70
9
 71
3
 72
29
 73
25
 74
0
 40
0.000000000
 40
0.000000000
 40
0.000000000
 40
0.000000000
 40
0.107467762
 40
0.107467762
 40
0.107467762
 40
0.249984611
 40
0.249984611
 40
0.249984611
 40
0.392527095
 40
0.392527095
 40
0.392527095
 40
0.499861446
 40
0.499861446
 40
0.499861446
 40
0.607364860
 40
0.607364860
 40
0.607364860
 40
0.749932746
 40
0.749932746
 40
0.749932746
 40
0.892502095
 40
0.892502095
 40
0.892502095
 40
1.000000000
 40
1.000000000
 40
1.000000000
 40
1.000000000
 10
24.936391688
 20
-64.684332411
 30
0.000000000
 10
25.624327570
 20
-64.681282352
 30
0.000000000
 10
26.248137537
 20
-64.977462023
 30
0.000000000
 10
26.661303755
 20
-65.361910843
 30
0.000000000
 10
27.212178959
 20
-65.871231810
 30
0.000000000
 10
27.478861445
 20
-66.532302571
 30
0.000000000
 10
27.479687119
 20
-67.184332411
 30
0.000000000
 10
27.478830591
 20
-67.836467959
 30
0.000000000
 10
27.212203606
 20
-68.497368215
 30
0.000000000
 10
26.661303755
 20
-69.006753980
 30
0.000000000
 10
26.248758452
 20
-69.390982215
 30
0.000000000
 10
25.623275902
 20
-69.687678343
 30
0.000000000
 10
24.936391688
 20
-69.684332411
 30
0.000000000
 10
24.248455806
 20
-69.687382471
 30
0.000000000
 10
23.624645839
 20
-69.391202800
 30
0.000000000
 10
23.211479621
 20
-69.006753980
 30
0.000000000
 10
22.660588593
 20
-68.497384586
 30
0.000000000
 10
22.393942479
 20
-67.836441115
 30
0.000000000
 10
22.393096256
 20
-67.184332411
 30
0.000000000
 10
22.393952785
 20
-66.532196864
 30
0.000000000
 10
22.660579769
 20
-65.871296608
 30
0.000000000
 10
23.211479621
 20
-65.361910843
 30
0.000000000
 10
23.624645839
 20
-64.977462023
 30
0.000000000
 10
24.248455806
 20
-64.681282352
 30
0.000000000
 10
24.936391688
 20
-64.684332411
 30
0.000000000
  0
SPLINE
  5
A0F
330
A02
100
AcDbEntity
  8
Flattened_Face
100
AcDbSpline
210
0
220
0
230
1
 70
9
 71
3
 72
29
 73
25
 74
0
 40
0.000000000
 40
0.000000000
 40
0.000000000
 40
0.000000000
 40
0.107307785
 40
0.107307785
 40
0.107307785
 40
0.249737183
 40
0.249737183
 40
0.249737183
 40
0.392326691
 40
0.392326691
 40
0.392326691
 40
0.499696451
 40
0.499696451
 40
0.499696451
 40
0.607235331
 40
0.607235331
 40
0.607235331
 40
0.749850249
 40
0.749850249
 40
0.749850249
 40
0.892466632
 40
0.892466632
 40
0.892466632
 40
1.000000000
 40
1.000000000
 40
1.000000000
 40
1.000000000
 10
24.936391688
 20
-44.684332411
 30
0.000000000
 10
25.624327570
 20
-44.681282352
 30
0.000000000
 10
26.248137537
 20
-44.977462023
 30
0.000000000
 10
26.661303755
 20
-45.361910843
 30
0.000000000
 10
27.212205506
 20
-45.871220362
 30
0.000000000
 10
27.478714607
 20
-46.531986634
 30
0.000000000
 10
27.479687119
 20
-47.184332411
 30
0.000000000
 10
27.478830591
 20
-47.836467959
 30
0.000000000
 10
27.212203606
 20
-48.497368215
 30
0.000000000
 10
26.661303755
 20
-49.006753980
 30
0.000000000
 10
26.248758452
 20
-49.390982215
 30
0.000000000
 10
25.623275902
 20
-49.687678343
 30
0.000000000
 10
24.936391688
 20
-49.684332411
 30
0.000000000
 10
24.248455806
 20
-49.687382471
 30
0.000000000
 10
23.624645839
 20
-49.391202800
 30
0.000000000
 10
23.211479621
 20
-49.006753980
 30
0.000000000
 10
22.660588593
 20
-48.497384586
 30
0.000000000
 10
22.393942479
 20
-47.836441115
 30
0.000000000
 10
22.393096256
 20
-47.184332411
 30
0.000000000
 10
22.393952785
 20
-46.532196864
 30
0.000000000
 10
22.660579769
 20
-45.871296608
 30
0.000000000
 10
23.211479621
 20
-45.361910843
 30
0.000000000
 10
23.624645839
 20
-44.977462023
 30
0.000000000
 10
24.248455806
 20
-44.681282352
 30
0.000000000
 10
24.936391688
 20
-44.684332411
 30
0.000000000
  0
ENDSEC
  0
SECTION
  2
OBJECTS
  0
DICTIONARY
  5
F000
330
0
100
AcDbDictionary
  3
ACAD_GROUP
350
F001
  0
DICTIONARY
  5
F001
330
F000
100
AcDbDictionary
  0
ENDSEC
  0
EOF