999
FreeCAD v1.1 20260414 (Git shallow)
  0
SECTION
  2
HEADER
  9
$ACADVER
  1
AC1014
  9
$ACADMAINTVER
 70
     9
  9
$DWGCODEPAGE
  3
ANSI_1252
  9
$TEXTSTYLE
  7
STANDARD
  9
$DIMSTYLE
  2
STANDARD
  9
$DIMTXSTY
  7
STANDARD
  9
$CMLSTYLE
  2
STANDARD
  9
$LUNITS
 70
2
  9
$INSUNITS
 70
4
  9
$PEXTMAX
 10
50
 20
50
 30
50
  9
$PEXTMIN
 10
0
 20
0
 30
0
  9
$HANDSEED
  5
FFFF
  0
ENDSEC
  0
SECTION
  2
CLASSES
  0
CLASS
  1
ACDBDICTIONARYWDFLT
  2
AcDbDictionaryWithDefault
  3
ObjectDBX Classes
 90
        0
280
     0
281
     0
  0
CLASS
  1
XRECORD
  2
AcDbXrecord
  3
ObjectDBX Classes
 90
        0
280
     0
281
     0
  0
CLASS
  1
LWPOLYLINE
  2
AcDbPolyline
  3
ObjectDBX Classes
 90
        0
280
     0
281
     1
  0
ENDSEC
  0
SECTION
  2
TABLES
  0
TABLE
  2
VPORT
  5
20
330
0
100
AcDbSymbolTable
 70
     1
  0
VPORT
  5
21
330
20
100
AcDbSymbolTableRecord
100
AcDbViewportTableRecord
  2
*ACTIVE
 70
     0
  0
ENDTAB
  0
TABLE
  2
LTYPE
  5
22
330
0
100
AcDbSymbolTable
 70
     1
  0
LTYPE
  5
23
330
21
100
AcDbSymbolTableRecord
100
AcDbLinetypeTableRecord
  2
BYBLOCK
 70
     0
  3

 72
    65
 73
     0
 40
0.0
  0
LTYPE
  5
24
330
21
100
AcDbSymbolTableRecord
100
AcDbLinetypeTableRecord
  2
BYLAYER
 70
     0
  3

 72
    65
 73
     0
 40
0.0
  0
LTYPE
  5
25
330
21
100
AcDbSymbolTableRecord
100
AcDbLinetypeTableRecord
  2
CONTINUOUS
 70
     0
  3
Solid line
 72
    65
 73
     0
 40
0.0
  0
ENDTAB
  0
TABLE
  2
LAYER
  5
A5B
330
0
100
AcDbSymbolTable
 70
3
  0
LAYER
  5
A5C
330
A5B
100
AcDbSymbolTableRecord
100
AcDbLayerTableRecord
  2
0
 70
   0
 62
   7
  6
CONTINUOUS
  0
LAYER
  5
A5D
330
A5B
100
AcDbSymbolTableRecord
100
AcDbLayerTableRecord
  2
none
 70
    0
 62
    7
  6
CONTINUOUS
  0
LAYER
  5
A5E
330
A5B
100
AcDbSymbolTableRecord
100
AcDbLayerTableRecord
  2
Sketch001
 70
    0
 62
    7
  6
CONTINUOUS
  0
ENDTAB
  0
TABLE
  2
STYLE
  5
70
330
0
100
AcDbSymbolTable
 70
     2
  0
STYLE
  5
71
330
70
100
AcDbSymbolTableRecord
100
AcDbTextStyleTableRecord
  2
STANDARD
 70
     0
 40
0.0
 41
1.0
 50
0.0
 71
     0
 42
2.5
  3
arial.ttf
  4

  0
STYLE
  5
72
330
70
100
AcDbSymbolTableRecord
100
AcDbTextStyleTableRecord
  2
ANNOTATIVE
 70
     0
 40
0.0
 41
1.0
 50
0.0
 71
     0
 42
2.5
  3
arial.ttf
  4

  0
ENDTAB
  0
TABLE
  2
VIEW
  5
73
330
0
100
AcDbSymbolTable
 70
     0
  0
ENDTAB
  0
TABLE
  2
UCS
  5
74
330
0
100
AcDbSymbolTable
 70
     0
  0
ENDTAB
  0
TABLE
  2
APPID
  5
75
330
0
100
AcDbSymbolTable
 70
     2
  0
APPID
  5
76
330
75
100
AcDbSymbolTableRecord
100
AcDbRegAppTableRecord
  2
ACAD
 70
     0
  0
APPID
  5
77
330
75
100
AcDbSymbolTableRecord
100
AcDbRegAppTableRecord
  2
ACADANNOTATIVE
 70
     0
  0
ENDTAB
  0
TABLE
  2
DIMSTYLE
  5
78
330
0
100
AcDbSymbolTable
 70
     2
  0
DIMSTYLE
105
79
330
78
100
AcDbSymbolTableRecord
100
AcDbDimStyleTableRecord
  2
STANDARD
 70
     0
  3

  4

  5

  6

  7

 40
0.0
 41
2.5
 42
0.625
 43
3.75
 44
1.25
 45
0.0
 46
0.0
 47
0.0
 48
0.0
140
2.5
141
2.5
142
0.0
143
0.03937007874016
144
1.0
145
0.0
146
1.0
147
0.625
 71
     0
 72
     0
 73
     0
 74
     0
 75
     0
 76
     0
 77
     1
 78
     8
170
     0
171
     3
172
     1
173
     0
174
     0
175
     0
176
     0
177
     0
178
     0
270
     2
271
     2
272
     2
273
     2
274
     3
340
71
275
     0
280
     0
281
     0
282
     0
283
     0
284
     8
285
     0
286
     0
287
     3
288
     0
  0
ENDTAB
  0
TABLE
  2
BLOCK_RECORD
  5
A01
330
0
100
AcDbSymbolTable
  70
5
  0
BLOCK_RECORD
  5
A02
330
A01
100
AcDbSymbolTableRecord
100
AcDbBlockTableRecord
  2
*MODEL_SPACE
  0
BLOCK_RECORD
  5
A03
330
A01
100
AcDbSymbolTableRecord
100
AcDbBlockTableRecord
  2
*PAPER_SPACE
  0
ENDTAB
  0
ENDSEC
  0
SECTION
  2
BLOCKS
  0
BLOCK
  5
A04
330
A02
100
AcDbEntity
  8
0
100
AcDbBlockBegin
  2
*MODEL_SPACE
 70
   0
 10
0
 20
0
 30
0
  3
*MODEL_SPACE
  1
 
  0
ENDBLK
  5
A05
330
A02
100
AcDbEntity
  8
0
100
AcDbBlockEnd
  0
BLOCK
  5
A06
330
A03
100
AcDbEntity
 67
1
  8
0
100
AcDbBlockBegin
  2
*PAPER_SPACE
 70
   0
 10
0
 20
0
 30
0
  3
*PAPER_SPACE
  1
 
  0
ENDBLK
  5
A07
330
A03
100
AcDbEntity
 67
    1
  8
0
100
AcDbBlockEnd
  0
ENDSEC
  0
SECTION
  2
ENTITIES
  0
LINE
  5
A08
330
A02
100
AcDbEntity
  8
Sketch001
100
AcDbLine
 10
-154.758415000
 20
14.169693000
 30
0.000000000
 11
-148.414125150
 21
14.846031703
 31
0.000000000
  0
LINE
  5
A09
330
A02
100
AcDbEntity
  8
Sketch001
100
AcDbLine
 10
-148.414125150
 20
14.846031703
 30
0.000000000
 11
-142.136905734
 21
15.283075765
 31
0.000000000
  0
LINE
  5
A0A
330
A02
100
AcDbEntity
  8
Sketch001
100
AcDbLine
 10
-142.136905734
 20
15.283075765
 30
0.000000000
 11
-135.978320801
 21
15.762948553
 31
0.000000000
  0
LINE
  5
A0B
330
A02
100
AcDbEntity
  8
Sketch001
100
AcDbLine
 10
-135.978320801
 20
15.762948553
 30
0.000000000
 11
-129.717425000
 21
15.924669000
 31
0.000000000
  0
LINE
  5
A0C
330
A02
100
AcDbEntity
  8
Sketch001
100
AcDbLine
 10
-129.717425000
 20
15.924669000
 30
0.000000000
 11
198.500336131
 21
38.760221948
 31
0.000000000
  0
LINE
  5
A0D
330
A02
100
AcDbEntity
  8
Sketch001
100
AcDbLine
 10
198.500336131
 20
38.760221948
 30
0.000000000
 11
198.622518727
 21
37.004221352
 31
0.000000000
  0
LINE
  5
A0E
330
A02
100
AcDbEntity
  8
Sketch001
100
AcDbLine
 10
198.622518727
 20
37.004221352
 30
0.000000000
 11
198.744730698
 21
35.248250181
 31
0.000000000
  0
LINE
  5
A0F
330
A02
100
AcDbEntity
  8
Sketch001
100
AcDbLine
 10
198.744730698
 20
35.248250181
 30
0.000000000
 11
198.866955709
 21
33.492316027
 31
0.000000000
  0
LINE
  5
A10
330
A02
100
AcDbEntity
  8
Sketch001
100
AcDbLine
 10
198.866955709
 20
33.492316027
 30
0.000000000
 11
198.989211331
 21
31.736452169
 31
0.000000000
  0
LINE
  5
A11
330
A02
100
AcDbEntity
  8
Sketch001
100
AcDbLine
 10
198.989211331
 20
31.736452169
 30
0.000000000
 11
199.111444693
 21
29.980655541
 31
0.000000000
  0
LINE
  5
A12
330
A02
100
AcDbEntity
  8
Sketch001
100
AcDbLine
 10
199.111444693
 20
29.980655541
 30
0.000000000
 11
199.233718827
 21
28.224953768
 31
0.000000000
  0
LINE
  5
A13
330
A02
100
AcDbEntity
  8
Sketch001
100
AcDbLine
 10
199.233718827
 20
28.224953768
 30
0.000000000
 11
199.355980328
 21
26.469341991
 31
0.000000000
  0
LINE
  5
A14
330
A02
100
AcDbEntity
  8
Sketch001
100
AcDbLine
 10
199.355980328
 20
26.469341991
 30
0.000000000
 11
199.478264030
 21
24.713834088
 31
0.000000000
  0
LINE
  5
A15
330
A02
100
AcDbEntity
  8
Sketch001
100
AcDbLine
 10
199.478264030
 20
24.713834088
 30
0.000000000
 11
199.600508667
 21
22.958428749
 31
0.000000000
  0
LINE
  5
A16
330
A02
100
AcDbEntity
  8
Sketch001
100
AcDbLine
 10
199.600508667
 20
22.958428749
 30
0.000000000
 11
199.722776388
 21
21.203103184
 31
0.000000000
  0
LINE
  5
A17
330
A02
100
AcDbEntity
  8
Sketch001
100
AcDbLine
 10
199.722776388
 20
21.203103184
 30
0.000000000
 11
199.845013820
 21
19.447862923
 31
0.000000000
  0
LINE
  5
A18
330
A02
100
AcDbEntity
  8
Sketch001
100
AcDbLine
 10
199.845013820
 20
19.447862923
 30
0.000000000
 11
199.967215688
 21
17.692693499
 31
0.000000000
  0
LINE
  5
A19
330
A02
100
AcDbEntity
  8
Sketch001
100
AcDbLine
 10
199.967215688
 20
17.692693499
 30
0.000000000
 11
200.089386364
 21
15.937573233
 31
0.000000000
  0
LINE
  5
A1A
330
A02
100
AcDbEntity
  8
Sketch001
100
AcDbLine
 10
200.089386364
 20
15.937573233
 30
0.000000000
 11
200.211525260
 21
14.182474068
 31
0.000000000
  0
LINE
  5
A1B
330
A02
100
AcDbEntity
  8
Sketch001
100
AcDbLine
 10
200.211525260
 20
14.182474068
 30
0.000000000
 11
200.333629607
 21
12.427393234
 31
0.000000000
  0
LINE
  5
A1C
330
A02
100
AcDbEntity
  8
Sketch001
100
AcDbLine
 10
200.333629607
 20
12.427393234
 30
0.000000000
 11
200.455715608
 21
10.672276665
 31
0.000000000
  0
LINE
  5
A1D
330
A02
100
AcDbEntity
  8
Sketch001
100
AcDbLine
 10
200.455715608
 20
10.672276665
 30
0.000000000
 11
200.577772434
 21
8.917109249
 31
0.000000000
  0
LINE
  5
A1E
330
A02
100
AcDbEntity
  8
Sketch001
100
AcDbLine
 10
200.577772434
 20
8.917109249
 30
0.000000000
 11
200.699786463
 21
7.161889609
 31
0.000000000
  0
LINE
  5
A1F
330
A02
100
AcDbEntity
  8
Sketch001
100
AcDbLine
 10
200.699786463
 20
7.161889609
 30
0.000000000
 11
200.821809963
 21
5.406604281
 31
0.000000000
  0
LINE
  5
A20
330
A02
100
AcDbEntity
  8
Sketch001
100
AcDbLine
 10
200.821809963
 20
5.406604281
 30
0.000000000
 11
200.943834871
 21
3.651236032
 31
0.000000000
  0
LINE
  5
A21
330
A02
100
AcDbEntity
  8
Sketch001
100
AcDbLine
 10
200.943834871
 20
3.651236032
 30
0.000000000
 11
201.065861371
 21
1.895783038
 31
0.000000000
  0
LINE
  5
A22
330
A02
100
AcDbEntity
  8
Sketch001
100
AcDbLine
 10
201.065861371
 20
1.895783038
 30
0.000000000
 11
201.176757350
 21
0.300759443
 31
0.000000000
  0
LINE
  5
A23
330
A02
100
AcDbEntity
  8
Sketch001
100
AcDbLine
 10
201.176757350
 20
0.300759443
 30
0.000000000
 11
201.287653782
 21
-1.294333011
 31
0.000000000
  0
LINE
  5
A24
330
A02
100
AcDbEntity
  8
Sketch001
100
AcDbLine
 10
201.287653782
 20
-1.294333011
 30
0.000000000
 11
201.398578126
 21
-2.889498573
 31
0.000000000
  0
LINE
  5
A25
330
A02
100
AcDbEntity
  8
Sketch001
100
AcDbLine
 10
201.398578126
 20
-2.889498573
 30
0.000000000
 11
201.509522425
 21
-4.484733220
 31
0.000000000
  0
LINE
  5
A26
330
A02
100
AcDbEntity
  8
Sketch001
100
AcDbLine
 10
201.509522425
 20
-4.484733220
 30
0.000000000
 11
201.620463321
 21
-6.080040360
 31
0.000000000
  0
LINE
  5
A27
330
A02
100
AcDbEntity
  8
Sketch001
100
AcDbLine
 10
201.620463321
 20
-6.080040360
 30
0.000000000
 11
201.731436876
 21
-7.675383320
 31
0.000000000
  0
LINE
  5
A28
330
A02
100
AcDbEntity
  8
Sketch001
100
AcDbLine
 10
201.731436876
 20
-7.675383320
 30
0.000000000
 11
201.842421699
 21
-9.270753881
 31
0.000000000
  0
LINE
  5
A29
330
A02
100
AcDbEntity
  8
Sketch001
100
AcDbLine
 10
201.842421699
 20
-9.270753881
 30
0.000000000
 11
201.953410787
 21
-10.866147835
 31
0.000000000
  0
LINE
  5
A2A
330
A02
100
AcDbEntity
  8
Sketch001
100
AcDbLine
 10
201.953410787
 20
-10.866147835
 30
0.000000000
 11
-126.264619000
 21
-33.701177000
 31
0.000000000
  0
LINE
  5
A2B
330
A02
100
AcDbEntity
  8
Sketch001
100
AcDbLine
 10
-126.264619000
 20
-33.701177000
 30
0.000000000
 11
-131.991297016
 21
-34.365360223
 31
0.000000000
  0
LINE
  5
A2C
330
A02
100
AcDbEntity
  8
Sketch001
100
AcDbLine
 10
-131.991297016
 20
-34.365360223
 30
0.000000000
 11
-137.698745063
 21
-34.712813676
 31
0.000000000
  0
LINE
  5
A2D
330
A02
100
AcDbEntity
  8
Sketch001
100
AcDbLine
 10
-137.698745063
 20
-34.712813676
 30
0.000000000
 11
-144.515811653
 21
-35.167338661
 31
0.000000000
  0
LINE
  5
A2E
330
A02
100
AcDbEntity
  8
Sketch001
100
AcDbLine
 10
-144.515811653
 20
-35.167338661
 30
0.000000000
 11
-151.435741000
 21
-35.381351000
 31
0.000000000
  0
LINE
  5
A2F
330
A02
100
AcDbEntity
  8
Sketch001
100
AcDbLine
 10
-151.435741000
 20
-35.381351000
 30
0.000000000
 11
-196.422451392
 21
-38.389267578
 31
0.000000000
  0
LINE
  5
A30
330
A02
100
AcDbEntity
  8
Sketch001
100
AcDbLine
 10
-196.422451392
 20
-38.389267578
 30
0.000000000
 11
-196.471553051
 21
-37.670173534
 31
0.000000000
  0
LINE
  5
A31
330
A02
100
AcDbEntity
  8
Sketch001
100
AcDbLine
 10
-196.471553051
 20
-37.670173534
 30
0.000000000
 11
-196.594833330
 21
-36.960938774
 31
0.000000000
  0
LINE
  5
A32
330
A02
100
AcDbEntity
  8
Sketch001
100
AcDbLine
 10
-196.594833330
 20
-36.960938774
 30
0.000000000
 11
-197.009509686
 21
-35.672205179
 31
0.000000000
  0
LINE
  5
A33
330
A02
100
AcDbEntity
  8
Sketch001
100
AcDbLine
 10
-197.009509686
 20
-35.672205179
 30
0.000000000
 11
-197.686803914
 21
-34.346246861
 31
0.000000000
  0
LINE
  5
A34
330
A02
100
AcDbEntity
  8
Sketch001
100
AcDbLine
 10
-197.686803914
 20
-34.346246861
 30
0.000000000
 11
-198.764201850
 21
-32.802357120
 31
0.000000000
  0
LINE
  5
A35
330
A02
100
AcDbEntity
  8
Sketch001
100
AcDbLine
 10
-198.764201850
 20
-32.802357120
 30
0.000000000
 11
-200.104739937
 21
-31.228582783
 31
0.000000000
  0
LINE
  5
A36
330
A02
100
AcDbEntity
  8
Sketch001
100
AcDbLine
 10
-200.104739937
 20
-31.228582783
 30
0.000000000
 11
-201.497531766
 21
-29.712549468
 31
0.000000000
  0
LINE
  5
A37
330
A02
100
AcDbEntity
  8
Sketch001
100
AcDbLine
 10
-201.497531766
 20
-29.712549468
 30
0.000000000
 11
-202.683066463
 21
-28.346204755
 31
0.000000000
  0
LINE
  5
A38
330
A02
100
AcDbEntity
  8
Sketch001
100
AcDbLine
 10
-202.683066463
 20
-28.346204755
 30
0.000000000
 11
-203.469898431
 21
-27.253465350
 31
0.000000000
  0
LINE
  5
A39
330
A02
100
AcDbEntity
  8
Sketch001
100
AcDbLine
 10
-203.469898431
 20
-27.253465350
 30
0.000000000
 11
-204.081209427
 21
-26.044769711
 31
0.000000000
  0
LINE
  5
A3A
330
A02
100
AcDbEntity
  8
Sketch001
100
AcDbLine
 10
-204.081209427
 20
-26.044769711
 30
0.000000000
 11
-204.266960525
 21
-25.455848311
 31
0.000000000
  0
LINE
  5
A3B
330
A02
100
AcDbEntity
  8
Sketch001
100
AcDbLine
 10
-204.266960525
 20
-25.455848311
 30
0.000000000
 11
-204.385704920
 21
-24.839410461
 31
0.000000000
  0
LINE
  5
A3C
330
A02
100
AcDbEntity
  8
Sketch001
100
AcDbLine
 10
-204.385704920
 20
-24.839410461
 30
0.000000000
 11
-204.425199984
 21
-23.664374081
 31
0.000000000
  0
LINE
  5
A3D
330
A02
100
AcDbEntity
  8
Sketch001
100
AcDbLine
 10
-204.425199984
 20
-23.664374081
 30
0.000000000
 11
-204.217927782
 21
-22.151214588
 31
0.000000000
  0
LINE
  5
A3E
330
A02
100
AcDbEntity
  8
Sketch001
100
AcDbLine
 10
-204.217927782
 20
-22.151214588
 30
0.000000000
 11
-203.796326395
 21
-20.387255507
 31
0.000000000
  0
LINE
  5
A3F
330
A02
100
AcDbEntity
  8
Sketch001
100
AcDbLine
 10
-203.796326395
 20
-20.387255507
 30
0.000000000
 11
-203.414029722
 21
-18.884445445
 31
0.000000000
  0
LINE
  5
A40
330
A02
100
AcDbEntity
  8
Sketch001
100
AcDbLine
 10
-203.414029722
 20
-18.884445445
 30
0.000000000
 11
-203.152409903
 21
-17.697795787
 31
0.000000000
  0
LINE
  5
A41
330
A02
100
AcDbEntity
  8
Sketch001
100
AcDbLine
 10
-203.152409903
 20
-17.697795787
 30
0.000000000
 11
-202.945856957
 21
-16.450114197
 31
0.000000000
  0
LINE
  5
A42
330
A02
100
AcDbEntity
  8
Sketch001
100
AcDbLine
 10
-202.945856957
 20
-16.450114197
 30
0.000000000
 11
-202.827811980
 21
-15.141663990
 31
0.000000000
  0
LINE
  5
A43
330
A02
100
AcDbEntity
  8
Sketch001
100
AcDbLine
 10
-202.827811980
 20
-15.141663990
 30
0.000000000
 11
-202.829347185
 21
-13.792172716
 31
0.000000000
  0
LINE
  5
A44
330
A02
100
AcDbEntity
  8
Sketch001
100
AcDbLine
 10
-202.829347185
 20
-13.792172716
 30
0.000000000
 11
-202.988819811
 21
-12.296419319
 31
0.000000000
  0
LINE
  5
A45
330
A02
100
AcDbEntity
  8
Sketch001
100
AcDbLine
 10
-202.988819811
 20
-12.296419319
 30
0.000000000
 11
-203.322141180
 21
-10.760231013
 31
0.000000000
  0
LINE
  5
A46
330
A02
100
AcDbEntity
  8
Sketch001
100
AcDbLine
 10
-203.322141180
 20
-10.760231013
 30
0.000000000
 11
-203.812181346
 21
-9.206910271
 31
0.000000000
  0
LINE
  5
A47
330
A02
100
AcDbEntity
  8
Sketch001
100
AcDbLine
 10
-203.812181346
 20
-9.206910271
 30
0.000000000
 11
-204.429520126
 21
-7.606721215
 31
0.000000000
  0
LINE
  5
A48
330
A02
100
AcDbEntity
  8
Sketch001
100
AcDbLine
 10
-204.429520126
 20
-7.606721215
 30
0.000000000
 11
-203.423796648
 21
-6.673746129
 31
0.000000000
  0
LINE
  5
A49
330
A02
100
AcDbEntity
  8
Sketch001
100
AcDbLine
 10
-203.423796648
 20
-6.673746129
 30
0.000000000
 11
-202.508292414
 21
-5.746790784
 31
0.000000000
  0
LINE
  5
A4A
330
A02
100
AcDbEntity
  8
Sketch001
100
AcDbLine
 10
-202.508292414
 20
-5.746790784
 30
0.000000000
 11
-201.197179167
 21
-4.191857622
 31
0.000000000
  0
LINE
  5
A4B
330
A02
100
AcDbEntity
  8
Sketch001
100
AcDbLine
 10
-201.197179167
 20
-4.191857622
 30
0.000000000
 11
-200.436180544
 21
-3.038079249
 31
0.000000000
  0
LINE
  5
A4C
330
A02
100
AcDbEntity
  8
Sketch001
100
AcDbLine
 10
-200.436180544
 20
-3.038079249
 30
0.000000000
 11
-199.882288334
 21
-1.898065858
 31
0.000000000
  0
LINE
  5
A4D
330
A02
100
AcDbEntity
  8
Sketch001
100
AcDbLine
 10
-199.882288334
 20
-1.898065858
 30
0.000000000
 11
-199.548786888
 21
-0.770794365
 31
0.000000000
  0
LINE
  5
A4E
330
A02
100
AcDbEntity
  8
Sketch001
100
AcDbLine
 10
-199.548786888
 20
-0.770794365
 30
0.000000000
 11
-199.442582168
 21
0.343263414
 31
0.000000000
  0
LINE
  5
A4F
330
A02
100
AcDbEntity
  8
Sketch001
100
AcDbLine
 10
-199.442582168
 20
0.343263414
 30
0.000000000
 11
-199.565841935
 21
1.442113846
 31
0.000000000
  0
LINE
  5
A50
330
A02
100
AcDbEntity
  8
Sketch001
100
AcDbLine
 10
-199.565841935
 20
1.442113846
 30
0.000000000
 11
-199.970646639
 21
2.647142681
 31
0.000000000
  0
LINE
  5
A51
330
A02
100
AcDbEntity
  8
Sketch001
100
AcDbLine
 10
-199.970646639
 20
2.647142681
 30
0.000000000
 11
-200.740462430
 21
3.966590182
 31
0.000000000
  0
LINE
  5
A52
330
A02
100
AcDbEntity
  8
Sketch001
100
AcDbLine
 10
-200.740462430
 20
3.966590182
 30
0.000000000
 11
-201.827175584
 21
5.265059037
 31
0.000000000
  0
LINE
  5
A53
330
A02
100
AcDbEntity
  8
Sketch001
100
AcDbLine
 10
-201.827175584
 20
5.265059037
 30
0.000000000
 11
-201.122516908
 21
6.436938333
 31
0.000000000
  0
LINE
  5
A54
330
A02
100
AcDbEntity
  8
Sketch001
100
AcDbLine
 10
-201.122516908
 20
6.436938333
 30
0.000000000
 11
-200.479825912
 21
7.731407390
 31
0.000000000
  0
LINE
  5
A55
330
A02
100
AcDbEntity
  8
Sketch001
100
AcDbLine
 10
-200.479825912
 20
7.731407390
 30
0.000000000
 11
-200.094356294
 21
8.760209264
 31
0.000000000
  0
LINE
  5
A56
330
A02
100
AcDbEntity
  8
Sketch001
100
AcDbLine
 10
-200.094356294
 20
8.760209264
 30
0.000000000
 11
-199.815552958
 21
9.917012483
 31
0.000000000
  0
LINE
  5
A57
330
A02
100
AcDbEntity
  8
Sketch001
100
AcDbLine
 10
-199.815552958
 20
9.917012483
 30
0.000000000
 11
-199.717017224
 21
11.191474797
 31
0.000000000
  0
LINE
  5
A58
330
A02
100
AcDbEntity
  8
Sketch001
100
AcDbLine
 10
-199.717017224
 20
11.191474797
 30
0.000000000
 11
-154.758415000
 21
14.169693000
 31
0.000000000
  0
LINE
  5
A59
330
A02
100
AcDbEntity
  8
Sketch001
100
AcDbLine
 10
-152.260761368
 20
-23.077820601
 30
0.000000000
 11
-153.933394632
 21
1.866162601
 31
0.000000000
  0
LINE
  5
A5A
330
A02
100
AcDbEntity
  8
Sketch001
100
AcDbLine
 10
-128.858634119
 20
3.581599616
 30
0.000000000
 11
-127.123409881
 21
-21.358107616
 31
0.000000000
  0
ENDSEC
  0
SECTION
  2
OBJECTS
  0
DICTIONARY
  5
F000
330
0
100
AcDbDictionary
  3
ACAD_GROUP
350
F001
  0
DICTIONARY
  5
F001
330
F000
100
AcDbDictionary
  0
ENDSEC
  0
EOF