999
FreeCAD v1.1 20260414 (Git shallow)
  0
SECTION
  2
HEADER
  9
$ACADVER
  1
AC1014
  9
$ACADMAINTVER
 70
     9
  9
$DWGCODEPAGE
  3
ANSI_1252
  9
$TEXTSTYLE
  7
STANDARD
  9
$DIMSTYLE
  2
STANDARD
  9
$DIMTXSTY
  7
STANDARD
  9
$CMLSTYLE
  2
STANDARD
  9
$LUNITS
 70
2
  9
$INSUNITS
 70
4
  9
$PEXTMAX
 10
50
 20
50
 30
50
  9
$PEXTMIN
 10
0
 20
0
 30
0
  9
$HANDSEED
  5
FFFF
  0
ENDSEC
  0
SECTION
  2
CLASSES
  0
CLASS
  1
ACDBDICTIONARYWDFLT
  2
AcDbDictionaryWithDefault
  3
ObjectDBX Classes
 90
        0
280
     0
281
     0
  0
CLASS
  1
XRECORD
  2
AcDbXrecord
  3
ObjectDBX Classes
 90
        0
280
     0
281
     0
  0
CLASS
  1
LWPOLYLINE
  2
AcDbPolyline
  3
ObjectDBX Classes
 90
        0
280
     0
281
     1
  0
ENDSEC
  0
SECTION
  2
TABLES
  0
TABLE
  2
VPORT
  5
20
330
0
100
AcDbSymbolTable
 70
     1
  0
VPORT
  5
21
330
20
100
AcDbSymbolTableRecord
100
AcDbViewportTableRecord
  2
*ACTIVE
 70
     0
  0
ENDTAB
  0
TABLE
  2
LTYPE
  5
22
330
0
100
AcDbSymbolTable
 70
     1
  0
LTYPE
  5
23
330
21
100
AcDbSymbolTableRecord
100
AcDbLinetypeTableRecord
  2
BYBLOCK
 70
     0
  3

 72
    65
 73
     0
 40
0.0
  0
LTYPE
  5
24
330
21
100
AcDbSymbolTableRecord
100
AcDbLinetypeTableRecord
  2
BYLAYER
 70
     0
  3

 72
    65
 73
     0
 40
0.0
  0
LTYPE
  5
25
330
21
100
AcDbSymbolTableRecord
100
AcDbLinetypeTableRecord
  2
CONTINUOUS
 70
     0
  3
Solid line
 72
    65
 73
     0
 40
0.0
  0
ENDTAB
  0
TABLE
  2
LAYER
  5
A57
330
0
100
AcDbSymbolTable
 70
3
  0
LAYER
  5
A58
330
A57
100
AcDbSymbolTableRecord
100
AcDbLayerTableRecord
  2
0
 70
   0
 62
   7
  6
CONTINUOUS
  0
LAYER
  5
A59
330
A57
100
AcDbSymbolTableRecord
100
AcDbLayerTableRecord
  2
none
 70
    0
 62
    7
  6
CONTINUOUS
  0
LAYER
  5
A5A
330
A57
100
AcDbSymbolTableRecord
100
AcDbLayerTableRecord
  2
Sketch001
 70
    0
 62
    7
  6
CONTINUOUS
  0
ENDTAB
  0
TABLE
  2
STYLE
  5
70
330
0
100
AcDbSymbolTable
 70
     2
  0
STYLE
  5
71
330
70
100
AcDbSymbolTableRecord
100
AcDbTextStyleTableRecord
  2
STANDARD
 70
     0
 40
0.0
 41
1.0
 50
0.0
 71
     0
 42
2.5
  3
arial.ttf
  4

  0
STYLE
  5
72
330
70
100
AcDbSymbolTableRecord
100
AcDbTextStyleTableRecord
  2
ANNOTATIVE
 70
     0
 40
0.0
 41
1.0
 50
0.0
 71
     0
 42
2.5
  3
arial.ttf
  4

  0
ENDTAB
  0
TABLE
  2
VIEW
  5
73
330
0
100
AcDbSymbolTable
 70
     0
  0
ENDTAB
  0
TABLE
  2
UCS
  5
74
330
0
100
AcDbSymbolTable
 70
     0
  0
ENDTAB
  0
TABLE
  2
APPID
  5
75
330
0
100
AcDbSymbolTable
 70
     2
  0
APPID
  5
76
330
75
100
AcDbSymbolTableRecord
100
AcDbRegAppTableRecord
  2
ACAD
 70
     0
  0
APPID
  5
77
330
75
100
AcDbSymbolTableRecord
100
AcDbRegAppTableRecord
  2
ACADANNOTATIVE
 70
     0
  0
ENDTAB
  0
TABLE
  2
DIMSTYLE
  5
78
330
0
100
AcDbSymbolTable
 70
     2
  0
DIMSTYLE
105
79
330
78
100
AcDbSymbolTableRecord
100
AcDbDimStyleTableRecord
  2
STANDARD
 70
     0
  3

  4

  5

  6

  7

 40
0.0
 41
2.5
 42
0.625
 43
3.75
 44
1.25
 45
0.0
 46
0.0
 47
0.0
 48
0.0
140
2.5
141
2.5
142
0.0
143
0.03937007874016
144
1.0
145
0.0
146
1.0
147
0.625
 71
     0
 72
     0
 73
     0
 74
     0
 75
     0
 76
     0
 77
     1
 78
     8
170
     0
171
     3
172
     1
173
     0
174
     0
175
     0
176
     0
177
     0
178
     0
270
     2
271
     2
272
     2
273
     2
274
     3
340
71
275
     0
280
     0
281
     0
282
     0
283
     0
284
     8
285
     0
286
     0
287
     3
288
     0
  0
ENDTAB
  0
TABLE
  2
BLOCK_RECORD
  5
A01
330
0
100
AcDbSymbolTable
  70
5
  0
BLOCK_RECORD
  5
A02
330
A01
100
AcDbSymbolTableRecord
100
AcDbBlockTableRecord
  2
*MODEL_SPACE
  0
BLOCK_RECORD
  5
A03
330
A01
100
AcDbSymbolTableRecord
100
AcDbBlockTableRecord
  2
*PAPER_SPACE
  0
ENDTAB
  0
ENDSEC
  0
SECTION
  2
BLOCKS
  0
BLOCK
  5
A04
330
A02
100
AcDbEntity
  8
0
100
AcDbBlockBegin
  2
*MODEL_SPACE
 70
   0
 10
0
 20
0
 30
0
  3
*MODEL_SPACE
  1
 
  0
ENDBLK
  5
A05
330
A02
100
AcDbEntity
  8
0
100
AcDbBlockEnd
  0
BLOCK
  5
A06
330
A03
100
AcDbEntity
 67
1
  8
0
100
AcDbBlockBegin
  2
*PAPER_SPACE
 70
   0
 10
0
 20
0
 30
0
  3
*PAPER_SPACE
  1
 
  0
ENDBLK
  5
A07
330
A03
100
AcDbEntity
 67
    1
  8
0
100
AcDbBlockEnd
  0
ENDSEC
  0
SECTION
  2
ENTITIES
  0
LINE
  5
A08
330
A02
100
AcDbEntity
  8
Sketch001
100
AcDbLine
 10
158.007107000
 20
14.798685000
 30
0.000000000
 11
164.897115396
 21
14.072744417
 31
0.000000000
  0
LINE
  5
A09
330
A02
100
AcDbEntity
  8
Sketch001
100
AcDbLine
 10
164.897115396
 20
14.072744417
 30
0.000000000
 11
171.937001771
 21
13.658580720
 31
0.000000000
  0
LINE
  5
A0A
330
A02
100
AcDbEntity
  8
Sketch001
100
AcDbLine
 10
171.937001771
 20
13.658580720
 30
0.000000000
 11
178.873345000
 21
13.485087000
 31
0.000000000
  0
LINE
  5
A0B
330
A02
100
AcDbEntity
  8
Sketch001
100
AcDbLine
 10
178.873345000
 20
13.485087000
 30
0.000000000
 11
230.445959608
 21
10.093228122
 31
0.000000000
  0
LINE
  5
A0C
330
A02
100
AcDbEntity
  8
Sketch001
100
AcDbLine
 10
230.445959608
 20
10.093228122
 30
0.000000000
 11
230.485622880
 21
8.467226226
 31
0.000000000
  0
LINE
  5
A0D
330
A02
100
AcDbEntity
  8
Sketch001
100
AcDbLine
 10
230.485622880
 20
8.467226226
 30
0.000000000
 11
230.690235893
 21
6.917145151
 31
0.000000000
  0
LINE
  5
A0E
330
A02
100
AcDbEntity
  8
Sketch001
100
AcDbLine
 10
230.690235893
 20
6.917145151
 30
0.000000000
 11
231.050555144
 21
5.256833247
 31
0.000000000
  0
LINE
  5
A0F
330
A02
100
AcDbEntity
  8
Sketch001
100
AcDbLine
 10
231.050555144
 20
5.256833247
 30
0.000000000
 11
231.509996808
 21
3.531450343
 31
0.000000000
  0
LINE
  5
A10
330
A02
100
AcDbEntity
  8
Sketch001
100
AcDbLine
 10
231.509996808
 20
3.531450343
 30
0.000000000
 11
231.692904643
 21
2.846080209
 31
0.000000000
  0
LINE
  5
A11
330
A02
100
AcDbEntity
  8
Sketch001
100
AcDbLine
 10
231.692904643
 20
2.846080209
 30
0.000000000
 11
231.861116724
 21
2.170891732
 31
0.000000000
  0
LINE
  5
A12
330
A02
100
AcDbEntity
  8
Sketch001
100
AcDbLine
 10
231.861116724
 20
2.170891732
 30
0.000000000
 11
231.756948950
 21
0.512648911
 31
0.000000000
  0
LINE
  5
A13
330
A02
100
AcDbEntity
  8
Sketch001
100
AcDbLine
 10
231.756948950
 20
0.512648911
 30
0.000000000
 11
231.652652059
 21
-1.147990350
 31
0.000000000
  0
LINE
  5
A14
330
A02
100
AcDbEntity
  8
Sketch001
100
AcDbLine
 10
231.652652059
 20
-1.147990350
 30
0.000000000
 11
231.548118678
 21
-2.811063486
 31
0.000000000
  0
LINE
  5
A15
330
A02
100
AcDbEntity
  8
Sketch001
100
AcDbLine
 10
231.548118678
 20
-2.811063486
 30
0.000000000
 11
230.755726081
 21
-4.078351172
 31
0.000000000
  0
LINE
  5
A16
330
A02
100
AcDbEntity
  8
Sketch001
100
AcDbLine
 10
230.755726081
 20
-4.078351172
 30
0.000000000
 11
229.818706552
 21
-5.252108298
 31
0.000000000
  0
LINE
  5
A17
330
A02
100
AcDbEntity
  8
Sketch001
100
AcDbLine
 10
229.818706552
 20
-5.252108298
 30
0.000000000
 11
228.470548137
 21
-6.782620653
 31
0.000000000
  0
LINE
  5
A18
330
A02
100
AcDbEntity
  8
Sketch001
100
AcDbLine
 10
228.470548137
 20
-6.782620653
 30
0.000000000
 11
227.121925465
 21
-8.365017971
 31
0.000000000
  0
LINE
  5
A19
330
A02
100
AcDbEntity
  8
Sketch001
100
AcDbLine
 10
227.121925465
 20
-8.365017971
 30
0.000000000
 11
226.210831265
 21
-9.590273095
 31
0.000000000
  0
LINE
  5
A1A
330
A02
100
AcDbEntity
  8
Sketch001
100
AcDbLine
 10
226.210831265
 20
-9.590273095
 30
0.000000000
 11
225.376590131
 21
-10.988122123
 31
0.000000000
  0
LINE
  5
A1B
330
A02
100
AcDbEntity
  8
Sketch001
100
AcDbLine
 10
225.376590131
 20
-10.988122123
 30
0.000000000
 11
224.780213138
 21
-12.456325818
 31
0.000000000
  0
LINE
  5
A1C
330
A02
100
AcDbEntity
  8
Sketch001
100
AcDbLine
 10
224.780213138
 20
-12.456325818
 30
0.000000000
 11
224.498270397
 21
-13.843333329
 31
0.000000000
  0
LINE
  5
A1D
330
A02
100
AcDbEntity
  8
Sketch001
100
AcDbLine
 10
224.498270397
 20
-13.843333329
 30
0.000000000
 11
224.481024245
 21
-15.137055317
 31
0.000000000
  0
LINE
  5
A1E
330
A02
100
AcDbEntity
  8
Sketch001
100
AcDbLine
 10
224.481024245
 20
-15.137055317
 30
0.000000000
 11
224.617080204
 21
-16.108802596
 31
0.000000000
  0
LINE
  5
A1F
330
A02
100
AcDbEntity
  8
Sketch001
100
AcDbLine
 10
224.617080204
 20
-16.108802596
 30
0.000000000
 11
224.924507436
 21
-17.236938714
 31
0.000000000
  0
LINE
  5
A20
330
A02
100
AcDbEntity
  8
Sketch001
100
AcDbLine
 10
224.924507436
 20
-17.236938714
 30
0.000000000
 11
225.383473049
 21
-18.379325631
 31
0.000000000
  0
LINE
  5
A21
330
A02
100
AcDbEntity
  8
Sketch001
100
AcDbLine
 10
225.383473049
 20
-18.379325631
 30
0.000000000
 11
225.921881850
 21
-19.439614496
 31
0.000000000
  0
LINE
  5
A22
330
A02
100
AcDbEntity
  8
Sketch001
100
AcDbLine
 10
225.921881850
 20
-19.439614496
 30
0.000000000
 11
226.497992417
 21
-20.420106633
 31
0.000000000
  0
LINE
  5
A23
330
A02
100
AcDbEntity
  8
Sketch001
100
AcDbLine
 10
226.497992417
 20
-20.420106633
 30
0.000000000
 11
225.393541967
 21
-21.731894563
 31
0.000000000
  0
LINE
  5
A24
330
A02
100
AcDbEntity
  8
Sketch001
100
AcDbLine
 10
225.393541967
 20
-21.731894563
 30
0.000000000
 11
224.603229310
 21
-23.063002347
 31
0.000000000
  0
LINE
  5
A25
330
A02
100
AcDbEntity
  8
Sketch001
100
AcDbLine
 10
224.603229310
 20
-23.063002347
 30
0.000000000
 11
224.177407363
 21
-24.283825449
 31
0.000000000
  0
LINE
  5
A26
330
A02
100
AcDbEntity
  8
Sketch001
100
AcDbLine
 10
224.177407363
 20
-24.283825449
 30
0.000000000
 11
224.036299293
 21
-25.397165534
 31
0.000000000
  0
LINE
  5
A27
330
A02
100
AcDbEntity
  8
Sketch001
100
AcDbLine
 10
224.036299293
 20
-25.397165534
 30
0.000000000
 11
224.058337011
 21
-26.025460624
 31
0.000000000
  0
LINE
  5
A28
330
A02
100
AcDbEntity
  8
Sketch001
100
AcDbLine
 10
224.058337011
 20
-26.025460624
 30
0.000000000
 11
224.152188908
 21
-26.657551248
 31
0.000000000
  0
LINE
  5
A29
330
A02
100
AcDbEntity
  8
Sketch001
100
AcDbLine
 10
224.152188908
 20
-26.657551248
 30
0.000000000
 11
224.541502403
 21
-27.907593358
 31
0.000000000
  0
LINE
  5
A2A
330
A02
100
AcDbEntity
  8
Sketch001
100
AcDbLine
 10
224.541502403
 20
-27.907593358
 30
0.000000000
 11
225.193326768
 21
-29.173694292
 31
0.000000000
  0
LINE
  5
A2B
330
A02
100
AcDbEntity
  8
Sketch001
100
AcDbLine
 10
225.193326768
 20
-29.173694292
 30
0.000000000
 11
226.090279538
 21
-30.456047105
 31
0.000000000
  0
LINE
  5
A2C
330
A02
100
AcDbEntity
  8
Sketch001
100
AcDbLine
 10
226.090279538
 20
-30.456047105
 30
0.000000000
 11
227.333667103
 21
-31.881458698
 31
0.000000000
  0
LINE
  5
A2D
330
A02
100
AcDbEntity
  8
Sketch001
100
AcDbLine
 10
227.333667103
 20
-31.881458698
 30
0.000000000
 11
228.809248897
 21
-33.320728044
 31
0.000000000
  0
LINE
  5
A2E
330
A02
100
AcDbEntity
  8
Sketch001
100
AcDbLine
 10
228.809248897
 20
-33.320728044
 30
0.000000000
 11
228.172046373
 21
-34.926415791
 31
0.000000000
  0
LINE
  5
A2F
330
A02
100
AcDbEntity
  8
Sketch001
100
AcDbLine
 10
228.172046373
 20
-34.926415791
 30
0.000000000
 11
227.667382123
 21
-36.489707525
 31
0.000000000
  0
LINE
  5
A30
330
A02
100
AcDbEntity
  8
Sketch001
100
AcDbLine
 10
227.667382123
 20
-36.489707525
 30
0.000000000
 11
227.327114088
 21
-38.035311985
 31
0.000000000
  0
LINE
  5
A31
330
A02
100
AcDbEntity
  8
Sketch001
100
AcDbLine
 10
227.327114088
 20
-38.035311985
 30
0.000000000
 11
227.162035770
 21
-39.653187459
 31
0.000000000
  0
LINE
  5
A32
330
A02
100
AcDbEntity
  8
Sketch001
100
AcDbLine
 10
227.162035770
 20
-39.653187459
 30
0.000000000
 11
175.566901000
 21
-36.214906000
 31
0.000000000
  0
LINE
  5
A33
330
A02
100
AcDbEntity
  8
Sketch001
100
AcDbLine
 10
175.566901000
 20
-36.214906000
 30
0.000000000
 11
168.725119097
 21
-35.492060469
 31
0.000000000
  0
LINE
  5
A34
330
A02
100
AcDbEntity
  8
Sketch001
100
AcDbLine
 10
168.725119097
 20
-35.492060469
 30
0.000000000
 11
161.721656376
 21
-34.992788721
 31
0.000000000
  0
LINE
  5
A35
330
A02
100
AcDbEntity
  8
Sketch001
100
AcDbLine
 10
161.721656376
 20
-34.992788721
 30
0.000000000
 11
154.834954000
 21
-34.830221000
 31
0.000000000
  0
LINE
  5
A36
330
A02
100
AcDbEntity
  8
Sketch001
100
AcDbLine
 10
154.834954000
 20
-34.830221000
 30
0.000000000
 11
-229.545056741
 21
-10.260715153
 31
0.000000000
  0
LINE
  5
A37
330
A02
100
AcDbEntity
  8
Sketch001
100
AcDbLine
 10
-229.545056741
 20
-10.260715153
 30
0.000000000
 11
-229.442999066
 21
-8.663890119
 31
0.000000000
  0
LINE
  5
A38
330
A02
100
AcDbEntity
  8
Sketch001
100
AcDbLine
 10
-229.442999066
 20
-8.663890119
 30
0.000000000
 11
-229.340916682
 21
-7.067057484
 31
0.000000000
  0
LINE
  5
A39
330
A02
100
AcDbEntity
  8
Sketch001
100
AcDbLine
 10
-229.340916682
 20
-7.067057484
 30
0.000000000
 11
-229.238830727
 21
-5.470210235
 31
0.000000000
  0
LINE
  5
A3A
330
A02
100
AcDbEntity
  8
Sketch001
100
AcDbLine
 10
-229.238830727
 20
-5.470210235
 30
0.000000000
 11
-229.136702824
 21
-3.873313457
 31
0.000000000
  0
LINE
  5
A3B
330
A02
100
AcDbEntity
  8
Sketch001
100
AcDbLine
 10
-229.136702824
 20
-3.873313457
 30
0.000000000
 11
-229.034604700
 21
-2.276402105
 31
0.000000000
  0
LINE
  5
A3C
330
A02
100
AcDbEntity
  8
Sketch001
100
AcDbLine
 10
-229.034604700
 20
-2.276402105
 30
0.000000000
 11
-228.932480138
 21
-0.679437444
 31
0.000000000
  0
LINE
  5
A3D
330
A02
100
AcDbEntity
  8
Sketch001
100
AcDbLine
 10
-228.932480138
 20
-0.679437444
 30
0.000000000
 11
-228.830338033
 21
0.917572973
 31
0.000000000
  0
LINE
  5
A3E
330
A02
100
AcDbEntity
  8
Sketch001
100
AcDbLine
 10
-228.830338033
 20
0.917572973
 30
0.000000000
 11
-228.728161397
 21
2.514643917
 31
0.000000000
  0
LINE
  5
A3F
330
A02
100
AcDbEntity
  8
Sketch001
100
AcDbLine
 10
-228.728161397
 20
2.514643917
 30
0.000000000
 11
-228.615924277
 21
4.269469322
 31
0.000000000
  0
LINE
  5
A40
330
A02
100
AcDbEntity
  8
Sketch001
100
AcDbLine
 10
-228.615924277
 20
4.269469322
 30
0.000000000
 11
-228.503645358
 21
6.024353722
 31
0.000000000
  0
LINE
  5
A41
330
A02
100
AcDbEntity
  8
Sketch001
100
AcDbLine
 10
-228.503645358
 20
6.024353722
 30
0.000000000
 11
-228.391390857
 21
7.779306236
 31
0.000000000
  0
LINE
  5
A42
330
A02
100
AcDbEntity
  8
Sketch001
100
AcDbLine
 10
-228.391390857
 20
7.779306236
 30
0.000000000
 11
-228.279135466
 21
9.534315013
 31
0.000000000
  0
LINE
  5
A43
330
A02
100
AcDbEntity
  8
Sketch001
100
AcDbLine
 10
-228.279135466
 20
9.534315013
 30
0.000000000
 11
-228.166895707
 21
11.289380461
 31
0.000000000
  0
LINE
  5
A44
330
A02
100
AcDbEntity
  8
Sketch001
100
AcDbLine
 10
-228.166895707
 20
11.289380461
 30
0.000000000
 11
-228.054657571
 21
13.044472850
 31
0.000000000
  0
LINE
  5
A45
330
A02
100
AcDbEntity
  8
Sketch001
100
AcDbLine
 10
-228.054657571
 20
13.044472850
 30
0.000000000
 11
-227.942435950
 21
14.799588165
 31
0.000000000
  0
LINE
  5
A46
330
A02
100
AcDbEntity
  8
Sketch001
100
AcDbLine
 10
-227.942435950
 20
14.799588165
 30
0.000000000
 11
-227.830260259
 21
16.554732572
 31
0.000000000
  0
LINE
  5
A47
330
A02
100
AcDbEntity
  8
Sketch001
100
AcDbLine
 10
-227.830260259
 20
16.554732572
 30
0.000000000
 11
-227.718076009
 21
18.309850915
 31
0.000000000
  0
LINE
  5
A48
330
A02
100
AcDbEntity
  8
Sketch001
100
AcDbLine
 10
-227.718076009
 20
18.309850915
 30
0.000000000
 11
-227.605946980
 21
20.064955680
 31
0.000000000
  0
LINE
  5
A49
330
A02
100
AcDbEntity
  8
Sketch001
100
AcDbLine
 10
-227.605946980
 20
20.064955680
 30
0.000000000
 11
-227.493830175
 21
21.820022535
 31
0.000000000
  0
LINE
  5
A4A
330
A02
100
AcDbEntity
  8
Sketch001
100
AcDbLine
 10
-227.493830175
 20
21.820022535
 30
0.000000000
 11
-227.381727360
 21
23.575043680
 31
0.000000000
  0
LINE
  5
A4B
330
A02
100
AcDbEntity
  8
Sketch001
100
AcDbLine
 10
-227.381727360
 20
23.575043680
 30
0.000000000
 11
-227.269631749
 21
25.330001897
 31
0.000000000
  0
LINE
  5
A4C
330
A02
100
AcDbEntity
  8
Sketch001
100
AcDbLine
 10
-227.269631749
 20
25.330001897
 30
0.000000000
 11
-227.157563985
 21
27.084897745
 31
0.000000000
  0
LINE
  5
A4D
330
A02
100
AcDbEntity
  8
Sketch001
100
AcDbLine
 10
-227.157563985
 20
27.084897745
 30
0.000000000
 11
-227.045472796
 21
28.839722517
 31
0.000000000
  0
LINE
  5
A4E
330
A02
100
AcDbEntity
  8
Sketch001
100
AcDbLine
 10
-227.045472796
 20
28.839722517
 30
0.000000000
 11
-226.933398198
 21
30.594474399
 31
0.000000000
  0
LINE
  5
A4F
330
A02
100
AcDbEntity
  8
Sketch001
100
AcDbLine
 10
-226.933398198
 20
30.594474399
 30
0.000000000
 11
-226.821296404
 21
32.349165347
 31
0.000000000
  0
LINE
  5
A50
330
A02
100
AcDbEntity
  8
Sketch001
100
AcDbLine
 10
-226.821296404
 20
32.349165347
 30
0.000000000
 11
-226.709228219
 21
34.103787890
 31
0.000000000
  0
LINE
  5
A51
330
A02
100
AcDbEntity
  8
Sketch001
100
AcDbLine
 10
-226.709228219
 20
34.103787890
 30
0.000000000
 11
-226.597127327
 21
35.858361301
 31
0.000000000
  0
LINE
  5
A52
330
A02
100
AcDbEntity
  8
Sketch001
100
AcDbLine
 10
-226.597127327
 20
35.858361301
 30
0.000000000
 11
-226.485016785
 21
37.612892512
 31
0.000000000
  0
LINE
  5
A53
330
A02
100
AcDbEntity
  8
Sketch001
100
AcDbLine
 10
-226.485016785
 20
37.612892512
 30
0.000000000
 11
-226.372891715
 21
39.367399036
 31
0.000000000
  0
LINE
  5
A54
330
A02
100
AcDbEntity
  8
Sketch001
100
AcDbLine
 10
-226.372891715
 20
39.367399036
 30
0.000000000
 11
158.007107000
 21
14.798685000
 31
0.000000000
  0
LINE
  5
A55
330
A02
100
AcDbEntity
  8
Sketch001
100
AcDbLine
 10
157.218371511
 20
2.458775972
 30
0.000000000
 11
155.623689489
 21
-22.490311972
 31
0.000000000
  0
LINE
  5
A56
330
A02
100
AcDbEntity
  8
Sketch001
100
AcDbLine
 10
178.049889482
 20
1.107519597
 30
0.000000000
 11
176.390356518
 21
-23.837338597
 31
0.000000000
  0
ENDSEC
  0
SECTION
  2
OBJECTS
  0
DICTIONARY
  5
F000
330
0
100
AcDbDictionary
  3
ACAD_GROUP
350
F001
  0
DICTIONARY
  5
F001
330
F000
100
AcDbDictionary
  0
ENDSEC
  0
EOF